%TF.GenerationSoftware,KiCad,Pcbnew,8.0.3*%
%TF.CreationDate,2024-12-07T00:12:21-03:00*%
%TF.ProjectId,eca,6563612e-6b69-4636-9164-5f7063625858,rev?*%
%TF.SameCoordinates,Original*%
%TF.FileFunction,Copper,L2,Bot*%
%TF.FilePolarity,Positive*%
%FSLAX46Y46*%
G04 Gerber Fmt 4.6, Leading zero omitted, Abs format (unit mm)*
G04 Created by KiCad (PCBNEW 8.0.3) date 2024-12-07 00:12:21*
%MOMM*%
%LPD*%
G01*
G04 APERTURE LIST*
%TA.AperFunction,ComponentPad*%
%ADD10O,2.000000X2.000000*%
%TD*%
%TA.AperFunction,ComponentPad*%
%ADD11C,2.000000*%
%TD*%
%TA.AperFunction,ComponentPad*%
%ADD12R,2.000000X2.000000*%
%TD*%
%TA.AperFunction,ComponentPad*%
%ADD13C,1.200000*%
%TD*%
%TA.AperFunction,ComponentPad*%
%ADD14R,1.200000X1.200000*%
%TD*%
%TA.AperFunction,Conductor*%
%ADD15C,2.000000*%
%TD*%
%TA.AperFunction,Conductor*%
%ADD16C,1.800000*%
%TD*%
%TA.AperFunction,Conductor*%
%ADD17C,1.000000*%
%TD*%
%TA.AperFunction,Conductor*%
%ADD18C,0.200000*%
%TD*%
G04 APERTURE END LIST*
D10*
%TO.P,TCRT5000,1,Pin_1*%
%TO.N,3.3V*%
X106660000Y-116000000D03*
%TO.P,TCRT5000,2,Pin_2*%
%TO.N,GND*%
X109200000Y-116000000D03*
%TO.P,TCRT5000,3,Pin_3*%
%TO.N,GPIO5*%
X111740000Y-116000000D03*
%TO.P,TCRT5000,4,Pin_4*%
%TO.N,unconnected-(J4-Pin_4-Pad4)*%
X114280000Y-116000000D03*
%TD*%
D11*
%TO.P,C8,1*%
%TO.N,5V*%
X128500000Y-75000000D03*
%TO.P,C8,2*%
%TO.N,GND*%
X133500000Y-75000000D03*
%TD*%
D12*
%TO.P,J1,1,Pin_1*%
%TO.N,3.3V*%
X121400000Y-79880000D03*
D10*
%TO.P,J1,2,Pin_2*%
%TO.N,5V*%
X123940000Y-79880000D03*
%TO.P,J1,3,Pin_3*%
%TO.N,GPIO2*%
X121400000Y-82420000D03*
%TO.P,J1,4,Pin_4*%
%TO.N,5V*%
X123940000Y-82420000D03*
%TO.P,J1,5,Pin_5*%
%TO.N,GPIO3*%
X121400000Y-84960000D03*
%TO.P,J1,6,Pin_6*%
%TO.N,GND*%
X123940000Y-84960000D03*
%TO.P,J1,7,Pin_7*%
%TO.N,GPIO4*%
X121400000Y-87500000D03*
%TO.P,J1,8,Pin_8*%
%TO.N,GPIO14*%
X123940000Y-87500000D03*
%TO.P,J1,9,Pin_9*%
%TO.N,GND*%
X121400000Y-90040000D03*
%TO.P,J1,10,Pin_10*%
%TO.N,GPIO15*%
X123940000Y-90040000D03*
%TO.P,J1,11,Pin_11*%
%TO.N,GPIO17*%
X121400000Y-92580000D03*
%TO.P,J1,12,Pin_12*%
%TO.N,GPIO18*%
X123940000Y-92580000D03*
%TO.P,J1,13,Pin_13*%
%TO.N,GPIO27*%
X121400000Y-95120000D03*
%TO.P,J1,14,Pin_14*%
%TO.N,GND*%
X123940000Y-95120000D03*
%TO.P,J1,15,Pin_15*%
%TO.N,GPIO22*%
X121400000Y-97660000D03*
%TO.P,J1,16,Pin_16*%
%TO.N,GPIO23*%
X123940000Y-97660000D03*
%TO.P,J1,17,Pin_17*%
%TO.N,3.3V*%
X121400000Y-100200000D03*
%TO.P,J1,18,Pin_18*%
%TO.N,GPIO24*%
X123940000Y-100200000D03*
%TO.P,J1,19,Pin_19*%
%TO.N,GPIO10*%
X121400000Y-102740000D03*
%TO.P,J1,20,Pin_20*%
%TO.N,GND*%
X123940000Y-102740000D03*
%TO.P,J1,21,Pin_21*%
%TO.N,GPIO9*%
X121400000Y-105280000D03*
%TO.P,J1,22,Pin_22*%
%TO.N,GPIO25*%
X123940000Y-105280000D03*
%TO.P,J1,23,Pin_23*%
%TO.N,GPIO11*%
X121400000Y-107820000D03*
%TO.P,J1,24,Pin_24*%
%TO.N,GPIO8*%
X123940000Y-107820000D03*
%TO.P,J1,25,Pin_25*%
%TO.N,GND*%
X121400000Y-110360000D03*
%TO.P,J1,26,Pin_26*%
%TO.N,GPIO7*%
X123940000Y-110360000D03*
%TO.P,J1,27,Pin_27*%
%TO.N,ID_SD*%
X121400000Y-112900000D03*
%TO.P,J1,28,Pin_28*%
%TO.N,ID_SC*%
X123940000Y-112900000D03*
%TO.P,J1,29,Pin_29*%
%TO.N,GPIO5*%
X121400000Y-115440000D03*
%TO.P,J1,30,Pin_30*%
%TO.N,GND*%
X123940000Y-115440000D03*
%TO.P,J1,31,Pin_31*%
%TO.N,GPIO6*%
X121400000Y-117980000D03*
%TO.P,J1,32,Pin_32*%
%TO.N,GPIO12*%
X123940000Y-117980000D03*
%TO.P,J1,33,Pin_33*%
%TO.N,GPIO13*%
X121400000Y-120520000D03*
%TO.P,J1,34,Pin_34*%
%TO.N,GND*%
X123940000Y-120520000D03*
%TO.P,J1,35,Pin_35*%
%TO.N,GPIO19*%
X121400000Y-123060000D03*
%TO.P,J1,36,Pin_36*%
%TO.N,GPIO16*%
X123940000Y-123060000D03*
%TO.P,J1,37,Pin_37*%
%TO.N,GPIO26*%
X121400000Y-125600000D03*
%TO.P,J1,38,Pin_38*%
%TO.N,GPIO20*%
X123940000Y-125600000D03*
%TO.P,J1,39,Pin_39*%
%TO.N,GND*%
X121400000Y-128140000D03*
%TO.P,J1,40,Pin_40*%
%TO.N,GPIO21*%
X123940000Y-128140000D03*
%TD*%
D11*
%TO.P,C7,1*%
%TO.N,3.3V*%
X107000000Y-112000000D03*
%TO.P,C7,2*%
%TO.N,GND*%
X112000000Y-112000000D03*
%TD*%
D10*
%TO.P,J2,1,Pin_1*%
%TO.N,GPIO2*%
X108000000Y-87920000D03*
%TO.P,J2,2,Pin_2*%
%TO.N,GPIO3*%
X108000000Y-90460000D03*
%TO.P,J2,3,Pin_3*%
%TO.N,GND*%
X108000000Y-93000000D03*
%TO.P,J2,4,Pin_4*%
%TO.N,3.3V*%
X108000000Y-95540000D03*
%TD*%
%TO.P,J9,1,Pin_1*%
%TO.N,GPIO12*%
X139540000Y-128000000D03*
%TO.P,J9,2,Pin_2*%
%TO.N,GPIO16*%
X137000000Y-128000000D03*
%TO.P,J9,3,Pin_3*%
%TO.N,GPIO20*%
X134460000Y-128000000D03*
%TO.P,J9,4,Pin_4*%
%TO.N,GPIO21*%
X131920000Y-128000000D03*
%TD*%
D12*
%TO.P,Power Supply,1,Pin_1*%
%TO.N,5V*%
X155000000Y-77460000D03*
D10*
%TO.P,Power Supply,2,Pin_2*%
%TO.N,GND*%
X155000000Y-80000000D03*
%TD*%
D12*
%TO.P,J10,1,Pin_1*%
%TO.N,5V*%
X155000000Y-93460000D03*
D10*
%TO.P,J10,2,Pin_2*%
%TO.N,GND*%
X155000000Y-96000000D03*
%TD*%
%TO.P,J8,1,Pin_1*%
%TO.N,GPIO18*%
X154540000Y-128000000D03*
%TO.P,J8,2,Pin_2*%
%TO.N,GPIO23*%
X152000000Y-128000000D03*
%TO.P,J8,3,Pin_3*%
%TO.N,GPIO24*%
X149460000Y-128000000D03*
%TO.P,J8,4,Pin_4*%
%TO.N,GPIO25*%
X146920000Y-128000000D03*
%TD*%
D11*
%TO.P,C6,1*%
%TO.N,3.3V*%
X106500000Y-104000000D03*
%TO.P,C6,2*%
%TO.N,GND*%
X111500000Y-104000000D03*
%TD*%
D12*
%TO.P,J12,1,Pin_1*%
%TO.N,5V*%
X155000000Y-109460000D03*
D10*
%TO.P,J12,2,Pin_2*%
%TO.N,GND*%
X155000000Y-112000000D03*
%TD*%
%TO.P,J7,1,Pin_1*%
%TO.N,GPIO6*%
X105920000Y-128000000D03*
%TO.P,J7,2,Pin_2*%
%TO.N,GPIO13*%
X108460000Y-128000000D03*
%TO.P,J7,3,Pin_3*%
%TO.N,GPIO19*%
X111000000Y-128000000D03*
%TO.P,J7,4,Pin_4*%
%TO.N,GPIO26*%
X113540000Y-128000000D03*
%TD*%
D11*
%TO.P,C5,2*%
%TO.N,GND*%
X124500000Y-75000000D03*
%TO.P,C5,1*%
%TO.N,3.3V*%
X119500000Y-75000000D03*
%TD*%
%TO.P,C4,1*%
%TO.N,GND*%
X106000000Y-124500000D03*
%TO.P,C4,2*%
%TO.N,3.3V*%
X106000000Y-119500000D03*
%TD*%
%TO.P,C2,1*%
%TO.N,5V*%
X149000000Y-92500000D03*
%TO.P,C2,2*%
%TO.N,GND*%
X149000000Y-97500000D03*
%TD*%
%TO.P,C3,1*%
%TO.N,GND*%
X108000000Y-84500000D03*
%TO.P,C3,2*%
%TO.N,3.3V*%
X108000000Y-79500000D03*
%TD*%
D12*
%TO.P,J11,1,Pin_1*%
%TO.N,5V*%
X155000000Y-117460000D03*
D10*
%TO.P,J11,2,Pin_2*%
%TO.N,GND*%
X155000000Y-120000000D03*
%TD*%
D12*
%TO.P,J13,1,Pin_1*%
%TO.N,5V*%
X155000000Y-101460000D03*
D10*
%TO.P,J13,2,Pin_2*%
%TO.N,GND*%
X155000000Y-104000000D03*
%TD*%
D13*
%TO.P,C1,2*%
%TO.N,GND*%
X155000000Y-86500000D03*
D14*
%TO.P,C1,1*%
%TO.N,5V*%
X155000000Y-85000000D03*
%TD*%
D10*
%TO.P,TCRT5000,1,Pin_1*%
%TO.N,3.3V*%
X106380000Y-100000000D03*
%TO.P,TCRT5000,2,Pin_2*%
%TO.N,GND*%
X108920000Y-100000000D03*
%TO.P,TCRT5000,3,Pin_3*%
%TO.N,GPIO4*%
X111460000Y-100000000D03*
%TO.P,TCRT5000,4,Pin_4*%
%TO.N,unconnected-(J6-Pin_4-Pad4)*%
X114000000Y-100000000D03*
%TD*%
%TO.P,J5,1,Pin_1*%
%TO.N,3.3V*%
X106660000Y-108000000D03*
%TO.P,J5,2,Pin_2*%
%TO.N,GND*%
X109200000Y-108000000D03*
%TO.P,J5,3,Pin_3*%
%TO.N,GPIO17*%
X111740000Y-108000000D03*
%TO.P,J5,4,Pin_4*%
%TO.N,unconnected-(J5-Pin_4-Pad4)*%
X114280000Y-108000000D03*
%TD*%
%TO.P,J3,1,Pin_1*%
%TO.N,GND*%
X114000000Y-80380000D03*
%TO.P,J3,2,Pin_2*%
%TO.N,unconnected-(J3-Pin_2-Pad2)*%
X114000000Y-82920000D03*
%TO.P,J3,3,Pin_3*%
%TO.N,unconnected-(J3-Pin_3-Pad3)*%
X114000000Y-85460000D03*
%TO.P,J3,4,Pin_4*%
%TO.N,unconnected-(J3-Pin_4-Pad4)*%
X114000000Y-88000000D03*
%TO.P,J3,5,Pin_5*%
%TO.N,GPIO2*%
X114000000Y-90540000D03*
%TO.P,J3,6,Pin_6*%
%TO.N,GPIO3*%
X114000000Y-93080000D03*
%TO.P,J3,7,Pin_7*%
%TO.N,3.3V*%
X114000000Y-95620000D03*
%TD*%
D15*
%TO.N,3.3V*%
X106000000Y-113000000D02*
X107000000Y-112000000D01*
X106000000Y-116660000D02*
X106000000Y-113000000D01*
D16*
%TO.N,5V*%
X155300000Y-84700000D02*
X155000000Y-84700000D01*
X157400000Y-82600000D02*
X155300000Y-84700000D01*
D15*
X154040000Y-92500000D02*
X155000000Y-93460000D01*
X149000000Y-92500000D02*
X154040000Y-92500000D01*
X143000000Y-89000000D02*
X146500000Y-92500000D01*
X146500000Y-92500000D02*
X149000000Y-92500000D01*
X143000000Y-86000000D02*
X143000000Y-89000000D01*
X151540000Y-77460000D02*
X143000000Y-86000000D01*
X155000000Y-77460000D02*
X151540000Y-77460000D01*
X150000000Y-115000000D02*
X152460000Y-117460000D01*
X150000000Y-112000000D02*
X150000000Y-115000000D01*
X152540000Y-109460000D02*
X150000000Y-112000000D01*
X155000000Y-109460000D02*
X152540000Y-109460000D01*
X152460000Y-117460000D02*
X155000000Y-117460000D01*
X156460000Y-101460000D02*
X155000000Y-101460000D01*
X158000000Y-103000000D02*
X156460000Y-101460000D01*
X156540000Y-109460000D02*
X158000000Y-108000000D01*
X158000000Y-108000000D02*
X158000000Y-103000000D01*
X155000000Y-109460000D02*
X156540000Y-109460000D01*
X152000000Y-101460000D02*
X144460000Y-101460000D01*
X155000000Y-101460000D02*
X152000000Y-101460000D01*
X136580000Y-82420000D02*
X145000000Y-74000000D01*
X153000000Y-74000000D02*
X155000000Y-76000000D01*
X123940000Y-82420000D02*
X136580000Y-82420000D01*
X145000000Y-74000000D02*
X153000000Y-74000000D01*
D17*
X154000000Y-77000000D02*
X155000000Y-76000000D01*
D15*
X146000000Y-77000000D02*
X154000000Y-77000000D01*
%TO.N,3.3V*%
X118520000Y-75980000D02*
X118520000Y-77000000D01*
D17*
%TO.N,GPIO17*%
X119000000Y-93000000D02*
X119000000Y-100740000D01*
X119000000Y-100740000D02*
X111740000Y-108000000D01*
X119420000Y-92580000D02*
X119000000Y-93000000D01*
X121400000Y-92580000D02*
X119420000Y-92580000D01*
%TO.N,GPIO18*%
X127000000Y-98000000D02*
X154540000Y-125540000D01*
X127000000Y-95640000D02*
X127000000Y-98000000D01*
X154540000Y-125540000D02*
X154540000Y-128000000D01*
X123940000Y-92580000D02*
X127000000Y-95640000D01*
%TO.N,GPIO2*%
X117000000Y-87540000D02*
X117000000Y-86820000D01*
X117000000Y-86820000D02*
X121400000Y-82420000D01*
X114000000Y-90540000D02*
X117000000Y-87540000D01*
%TO.N,GPIO5*%
X114740000Y-113000000D02*
X118960000Y-113000000D01*
D18*
X121400000Y-115440000D02*
X121400000Y-115600000D01*
D17*
X111740000Y-116000000D02*
X114740000Y-113000000D01*
X118960000Y-113000000D02*
X121400000Y-115440000D01*
%TO.N,GPIO3*%
X114000000Y-93080000D02*
X119000000Y-88080000D01*
X119000000Y-87000000D02*
X121040000Y-84960000D01*
D18*
X121040000Y-84960000D02*
X121400000Y-84960000D01*
D17*
X111380000Y-90460000D02*
X114000000Y-93080000D01*
X108000000Y-90460000D02*
X111380000Y-90460000D01*
X119000000Y-88080000D02*
X119000000Y-87000000D01*
%TO.N,GPIO21*%
X131920000Y-128000000D02*
X124080000Y-128000000D01*
D18*
X124080000Y-128000000D02*
X123940000Y-128140000D01*
%TO.N,GND*%
X108920000Y-116280000D02*
X109200000Y-116000000D01*
D15*
%TO.N,3.3V*%
X105000000Y-94000000D02*
X105000000Y-79000000D01*
X106660000Y-110660000D02*
X106660000Y-108000000D01*
X109000000Y-77000000D02*
X118520000Y-77000000D01*
X108000000Y-95540000D02*
X106540000Y-95540000D01*
X106540000Y-95540000D02*
X105000000Y-94000000D01*
D18*
X108080000Y-95620000D02*
X108000000Y-95540000D01*
D15*
X106660000Y-108000000D02*
X106660000Y-104160000D01*
D17*
X107000000Y-115660000D02*
X106660000Y-116000000D01*
X106660000Y-104160000D02*
X106500000Y-104000000D01*
D15*
X106000000Y-119500000D02*
X106000000Y-116660000D01*
X106380000Y-97160000D02*
X108000000Y-95540000D01*
D18*
X121360000Y-79920000D02*
X121400000Y-79880000D01*
D15*
X118520000Y-77000000D02*
X121400000Y-79880000D01*
X105000000Y-79000000D02*
X107000000Y-77000000D01*
X106380000Y-100000000D02*
X106380000Y-97160000D01*
X108000000Y-79500000D02*
X108000000Y-78000000D01*
X106380000Y-100000000D02*
X106380000Y-103880000D01*
X108000000Y-78000000D02*
X109000000Y-77000000D01*
X107000000Y-111000000D02*
X106660000Y-110660000D01*
X119500000Y-75000000D02*
X118520000Y-75980000D01*
X107000000Y-77000000D02*
X109000000Y-77000000D01*
D18*
X106380000Y-103880000D02*
X106500000Y-104000000D01*
D17*
X107000000Y-112000000D02*
X107000000Y-111000000D01*
D15*
X114000000Y-95620000D02*
X108080000Y-95620000D01*
D17*
X106000000Y-116660000D02*
X106660000Y-116000000D01*
%TO.N,GPIO25*%
X146920000Y-128000000D02*
X124200000Y-105280000D01*
D18*
X124200000Y-105280000D02*
X123940000Y-105280000D01*
D17*
%TO.N,GPIO2*%
X111380000Y-87920000D02*
X114000000Y-90540000D01*
X108000000Y-87920000D02*
X111380000Y-87920000D01*
D15*
%TO.N,5V*%
X123940000Y-79880000D02*
X128500000Y-75320000D01*
D17*
X154540000Y-77000000D02*
X155000000Y-77460000D01*
X128500000Y-75320000D02*
X128500000Y-75000000D01*
D18*
X155000000Y-117460000D02*
X154460000Y-117460000D01*
D15*
X157400000Y-78000000D02*
X156860000Y-77460000D01*
X157400000Y-82600000D02*
X157400000Y-78000000D01*
X155000000Y-76000000D02*
X155000000Y-77460000D01*
D18*
X124060000Y-80000000D02*
X123940000Y-79880000D01*
D15*
X144460000Y-101460000D02*
X139000000Y-96000000D01*
X123940000Y-82420000D02*
X123940000Y-79880000D01*
X139000000Y-96000000D02*
X139000000Y-84000000D01*
X156860000Y-77460000D02*
X155000000Y-77460000D01*
X139000000Y-84000000D02*
X146000000Y-77000000D01*
D17*
%TO.N,GPIO13*%
X115940000Y-120520000D02*
X121400000Y-120520000D01*
X108460000Y-128000000D02*
X115940000Y-120520000D01*
%TO.N,GPIO6*%
X114920000Y-119000000D02*
X120380000Y-119000000D01*
X120380000Y-119000000D02*
X121400000Y-117980000D01*
X105920000Y-128000000D02*
X114920000Y-119000000D01*
%TO.N,GPIO12*%
X123940000Y-117980000D02*
X129520000Y-117980000D01*
X129520000Y-117980000D02*
X139540000Y-128000000D01*
%TO.N,GPIO20*%
X123940000Y-125600000D02*
X132060000Y-125600000D01*
X132060000Y-125600000D02*
X134460000Y-128000000D01*
%TO.N,GPIO19*%
X115940000Y-123060000D02*
X121400000Y-123060000D01*
X111000000Y-128000000D02*
X115940000Y-123060000D01*
%TO.N,GPIO4*%
X117000000Y-96500000D02*
X115500000Y-98000000D01*
X113460000Y-98000000D02*
X111460000Y-100000000D01*
X121400000Y-87500000D02*
X117000000Y-91900000D01*
X117000000Y-91900000D02*
X117000000Y-96500000D01*
X115500000Y-98000000D02*
X113460000Y-98000000D01*
D18*
%TO.N,ID_SD*%
X121100000Y-112900000D02*
X121000000Y-113000000D01*
X121400000Y-112900000D02*
X121100000Y-112900000D01*
D17*
%TO.N,GPIO23*%
X152000000Y-128000000D02*
X152000000Y-125720000D01*
X152000000Y-125720000D02*
X123940000Y-97660000D01*
%TO.N,GPIO24*%
X149460000Y-125720000D02*
X123940000Y-100200000D01*
X149460000Y-128000000D02*
X149460000Y-125720000D01*
%TO.N,GPIO26*%
X113540000Y-128000000D02*
X115940000Y-125600000D01*
X115940000Y-125600000D02*
X121400000Y-125600000D01*
%TO.N,GPIO16*%
X132060000Y-123060000D02*
X137000000Y-128000000D01*
X123940000Y-123060000D02*
X132060000Y-123060000D01*
%TD*%
%TA.AperFunction,Conductor*%
%TO.N,GND*%
G36*
X101522211Y-72020185D02*
G01*
X101567966Y-72072989D01*
X101577910Y-72142147D01*
X101548885Y-72205703D01*
X101535704Y-72218790D01*
X101364776Y-72364776D01*
X101201161Y-72556343D01*
X101201160Y-72556346D01*
X101069533Y-72771140D01*
X100973126Y-73003889D01*
X100914317Y-73248848D01*
X100894551Y-73500000D01*
X100914317Y-73751151D01*
X100973126Y-73996110D01*
X101069533Y-74228859D01*
X101201160Y-74443653D01*
X101201161Y-74443656D01*
X101249284Y-74500000D01*
X101364776Y-74635224D01*
X101432415Y-74692993D01*
X101556343Y-74798838D01*
X101556346Y-74798839D01*
X101771140Y-74930466D01*
X101945016Y-75002487D01*
X102003889Y-75026873D01*
X102248852Y-75085683D01*
X102500000Y-75105449D01*
X102751148Y-75085683D01*
X102996111Y-75026873D01*
X103228859Y-74930466D01*
X103443659Y-74798836D01*
X103635224Y-74635224D01*
X103798836Y-74443659D01*
X103930466Y-74228859D01*
X104026873Y-73996111D01*
X104085683Y-73751148D01*
X104105449Y-73500000D01*
X104085683Y-73248852D01*
X104026873Y-73003889D01*
X103971887Y-72871140D01*
X103930466Y-72771140D01*
X103798839Y-72556346D01*
X103798838Y-72556343D01*
X103720632Y-72464776D01*
X103635224Y-72364776D01*
X103464295Y-72218789D01*
X103426103Y-72160283D01*
X103425604Y-72090415D01*
X103462958Y-72031369D01*
X103526305Y-72001891D01*
X103544828Y-72000500D01*
X157207309Y-72000500D01*
X157274348Y-72020185D01*
X157320103Y-72072989D01*
X157330047Y-72142147D01*
X157301022Y-72205703D01*
X157272099Y-72230227D01*
X157156345Y-72301160D01*
X157156343Y-72301161D01*
X156964776Y-72464776D01*
X156801161Y-72656343D01*
X156801160Y-72656346D01*
X156669533Y-72871140D01*
X156573126Y-73103889D01*
X156514317Y-73348848D01*
X156494551Y-73600000D01*
X156514317Y-73851151D01*
X156573126Y-74096110D01*
X156669533Y-74328859D01*
X156801160Y-74543653D01*
X156801161Y-74543656D01*
X156849199Y-74599901D01*
X156964776Y-74735224D01*
X157064563Y-74820450D01*
X157156343Y-74898838D01*
X157156346Y-74898839D01*
X157371140Y-75030466D01*
X157582682Y-75118089D01*
X157603889Y-75126873D01*
X157848852Y-75185683D01*
X158100000Y-75205449D01*
X158351148Y-75185683D01*
X158596111Y-75126873D01*
X158828859Y-75030466D01*
X159043659Y-74898836D01*
X159235224Y-74735224D01*
X159281211Y-74681379D01*
X159339716Y-74643188D01*
X159409584Y-74642688D01*
X159468630Y-74680042D01*
X159498109Y-74743388D01*
X159499500Y-74761912D01*
X159499500Y-102129448D01*
X159479815Y-102196487D01*
X159427011Y-102242242D01*
X159357853Y-102252186D01*
X159294297Y-102223161D01*
X159275182Y-102202334D01*
X159255295Y-102174962D01*
X159144517Y-102022490D01*
X158977510Y-101855483D01*
X157437510Y-100315483D01*
X157246434Y-100176657D01*
X157035996Y-100069433D01*
X156811368Y-99996446D01*
X156578097Y-99959500D01*
X156578092Y-99959500D01*
X155118092Y-99959500D01*
X152118092Y-99959500D01*
X145132889Y-99959500D01*
X145065850Y-99939815D01*
X145045208Y-99923181D01*
X142622021Y-97499994D01*
X147494859Y-97499994D01*
X147494859Y-97500005D01*
X147515385Y-97747729D01*
X147515387Y-97747738D01*
X147576412Y-97988717D01*
X147676266Y-98216364D01*
X147776564Y-98369882D01*
X148517037Y-97629409D01*
X148534075Y-97692993D01*
X148599901Y-97807007D01*
X148692993Y-97900099D01*
X148807007Y-97965925D01*
X148870590Y-97982962D01*
X148129942Y-98723609D01*
X148176768Y-98760055D01*
X148176770Y-98760056D01*
X148395385Y-98878364D01*
X148395396Y-98878369D01*
X148630506Y-98959083D01*
X148875707Y-99000000D01*
X149124293Y-99000000D01*
X149369493Y-98959083D01*
X149604603Y-98878369D01*
X149604614Y-98878364D01*
X149823228Y-98760057D01*
X149823231Y-98760055D01*
X149870056Y-98723609D01*
X149129409Y-97982962D01*
X149192993Y-97965925D01*
X149307007Y-97900099D01*
X149400099Y-97807007D01*
X149465925Y-97692993D01*
X149482962Y-97629409D01*
X150223434Y-98369882D01*
X150323731Y-98216369D01*
X150423587Y-97988717D01*
X150484612Y-97747738D01*
X150484614Y-97747729D01*
X150505141Y-97500005D01*
X150505141Y-97499994D01*
X150484614Y-97252270D01*
X150484612Y-97252261D01*
X150423587Y-97011282D01*
X150323731Y-96783630D01*
X150223434Y-96630116D01*
X149482962Y-97370589D01*
X149465925Y-97307007D01*
X149400099Y-97192993D01*
X149307007Y-97099901D01*
X149192993Y-97034075D01*
X149129410Y-97017037D01*
X149870057Y-96276390D01*
X149870056Y-96276389D01*
X149823229Y-96239943D01*
X149604614Y-96121635D01*
X149604603Y-96121630D01*
X149369493Y-96040916D01*
X149124293Y-96000000D01*
X148875707Y-96000000D01*
X148630506Y-96040916D01*
X148395396Y-96121630D01*
X148395390Y-96121632D01*
X148176761Y-96239949D01*
X148129942Y-96276388D01*
X148129942Y-96276390D01*
X148870590Y-97017037D01*
X148807007Y-97034075D01*
X148692993Y-97099901D01*
X148599901Y-97192993D01*
X148534075Y-97307007D01*
X148517037Y-97370589D01*
X147776564Y-96630116D01*
X147676267Y-96783632D01*
X147576412Y-97011282D01*
X147515387Y-97252261D01*
X147515385Y-97252270D01*
X147494859Y-97499994D01*
X142622021Y-97499994D01*
X140536819Y-95414792D01*
X140503334Y-95353469D01*
X140500500Y-95327111D01*
X140500500Y-84672889D01*
X140520185Y-84605850D01*
X140536819Y-84585208D01*
X146585208Y-78536819D01*
X146646531Y-78503334D01*
X146672889Y-78500500D01*
X148078110Y-78500500D01*
X148145149Y-78520185D01*
X148190904Y-78572989D01*
X148200848Y-78642147D01*
X148171823Y-78705703D01*
X148165791Y-78712181D01*
X141855484Y-85022488D01*
X141716657Y-85213565D01*
X141609433Y-85424003D01*
X141536446Y-85648631D01*
X141499500Y-85881902D01*
X141499500Y-89118097D01*
X141536446Y-89351368D01*
X141609433Y-89575996D01*
X141716657Y-89786434D01*
X141855483Y-89977510D01*
X145522490Y-93644517D01*
X145713566Y-93783343D01*
X145788198Y-93821370D01*
X145924006Y-93890568D01*
X145924012Y-93890570D01*
X145996991Y-93914282D01*
X145996992Y-93914282D01*
X146038221Y-93927678D01*
X146148631Y-93963553D01*
X146381903Y-94000500D01*
X146381908Y-94000500D01*
X148875665Y-94000500D01*
X148881908Y-94000500D01*
X153367111Y-94000500D01*
X153434150Y-94020185D01*
X153454792Y-94036819D01*
X153463181Y-94045208D01*
X153496666Y-94106531D01*
X153499500Y-94132889D01*
X153499500Y-94507869D01*
X153499501Y-94507876D01*
X153505908Y-94567483D01*
X153556202Y-94702328D01*
X153556206Y-94702335D01*
X153642452Y-94817544D01*
X153642455Y-94817547D01*
X153757663Y-94903793D01*
X153762799Y-94906597D01*
X153812205Y-94956002D01*
X153827057Y-95024275D01*
X153807182Y-95083251D01*
X153676267Y-95283632D01*
X153576411Y-95511283D01*
X153515960Y-95750000D01*
X154566988Y-95750000D01*
X154534075Y-95807007D01*
X154500000Y-95934174D01*
X154500000Y-96065826D01*
X154534075Y-96192993D01*
X154566988Y-96250000D01*
X153515960Y-96250000D01*
X153576411Y-96488716D01*
X153676267Y-96716367D01*
X153812232Y-96924478D01*
X153980592Y-97107364D01*
X153980602Y-97107373D01*
X154176762Y-97260051D01*
X154176771Y-97260057D01*
X154395385Y-97378364D01*
X154395396Y-97378369D01*
X154630507Y-97459083D01*
X154749999Y-97479023D01*
X154750000Y-97479022D01*
X154750000Y-96433012D01*
X154807007Y-96465925D01*
X154934174Y-96500000D01*
X155065826Y-96500000D01*
X155192993Y-96465925D01*
X155250000Y-96433012D01*
X155250000Y-97479023D01*
X155369492Y-97459083D01*
X155604603Y-97378369D01*
X155604614Y-97378364D01*
X155823228Y-97260057D01*
X155823237Y-97260051D01*
X156019397Y-97107373D01*
X156019407Y-97107364D01*
X156187767Y-96924478D01*
X156323732Y-96716367D01*
X156423588Y-96488716D01*
X156484040Y-96250000D01*
X155433012Y-96250000D01*
X155465925Y-96192993D01*
X155500000Y-96065826D01*
X155500000Y-95934174D01*
X155465925Y-95807007D01*
X155433012Y-95750000D01*
X156484040Y-95750000D01*
X156423588Y-95511283D01*
X156323733Y-95283635D01*
X156192817Y-95083252D01*
X156172630Y-95016362D01*
X156191810Y-94949176D01*
X156237203Y-94906595D01*
X156242321Y-94903799D01*
X156242331Y-94903796D01*
X156357546Y-94817546D01*
X156443796Y-94702331D01*
X156494091Y-94567483D01*
X156500500Y-94507873D01*
X156500500Y-93462051D01*
X156500500Y-93341908D01*
X156500500Y-93334313D01*
X156500499Y-93334295D01*
X156500499Y-92412129D01*
X156500498Y-92412123D01*
X156494091Y-92352516D01*
X156443797Y-92217671D01*
X156443793Y-92217664D01*
X156357547Y-92102455D01*
X156357544Y-92102452D01*
X156242335Y-92016206D01*
X156242328Y-92016202D01*
X156107482Y-91965908D01*
X156107483Y-91965908D01*
X156047883Y-91959501D01*
X156047881Y-91959500D01*
X156047873Y-91959500D01*
X156047865Y-91959500D01*
X155672889Y-91959500D01*
X155605850Y-91939815D01*
X155585208Y-91923181D01*
X155017511Y-91355484D01*
X155011536Y-91351143D01*
X154826434Y-91216657D01*
X154817581Y-91212146D01*
X154615996Y-91109433D01*
X154391368Y-91036446D01*
X154158097Y-90999500D01*
X154158092Y-90999500D01*
X149124335Y-90999500D01*
X149118092Y-90999500D01*
X147172889Y-90999500D01*
X147105850Y-90979815D01*
X147085208Y-90963181D01*
X144536819Y-88414792D01*
X144503334Y-88353469D01*
X144500500Y-88327111D01*
X144500500Y-87434240D01*
X154419311Y-87434240D01*
X154507585Y-87488897D01*
X154697678Y-87562539D01*
X154898072Y-87600000D01*
X155101928Y-87600000D01*
X155302322Y-87562539D01*
X155492412Y-87488899D01*
X155492416Y-87488897D01*
X155580686Y-87434241D01*
X155580686Y-87434240D01*
X155000001Y-86853553D01*
X155000000Y-86853553D01*
X154419311Y-87434240D01*
X144500500Y-87434240D01*
X144500500Y-86672889D01*
X144520185Y-86605850D01*
X144536819Y-86585208D01*
X152125209Y-78996819D01*
X152186532Y-78963334D01*
X152212890Y-78960500D01*
X153658248Y-78960500D01*
X153725287Y-78980185D01*
X153771042Y-79032989D01*
X153780986Y-79102147D01*
X153762057Y-79152321D01*
X153676267Y-79283632D01*
X153576411Y-79511283D01*
X153515960Y-79750000D01*
X154566988Y-79750000D01*
X154534075Y-79807007D01*
X154500000Y-79934174D01*
X154500000Y-80065826D01*
X154534075Y-80192993D01*
X154566988Y-80250000D01*
X153515960Y-80250000D01*
X153576411Y-80488716D01*
X153676267Y-80716367D01*
X153812232Y-80924478D01*
X153980592Y-81107364D01*
X153980602Y-81107373D01*
X154176762Y-81260051D01*
X154176771Y-81260057D01*
X154395385Y-81378364D01*
X154395396Y-81378369D01*
X154630507Y-81459083D01*
X154749999Y-81479023D01*
X154750000Y-81479022D01*
X154750000Y-80433012D01*
X154807007Y-80465925D01*
X154934174Y-80500000D01*
X155065826Y-80500000D01*
X155192993Y-80465925D01*
X155250000Y-80433012D01*
X155250000Y-81479023D01*
X155369492Y-81459083D01*
X155604603Y-81378369D01*
X155604609Y-81378367D01*
X155716482Y-81317824D01*
X155784810Y-81303229D01*
X155850183Y-81327892D01*
X155891844Y-81383982D01*
X155899500Y-81426879D01*
X155899500Y-82068531D01*
X155879815Y-82135570D01*
X155863181Y-82156212D01*
X154712888Y-83306504D01*
X154663525Y-83336754D01*
X154462396Y-83402103D01*
X154462393Y-83402104D01*
X154265974Y-83502187D01*
X154087641Y-83631752D01*
X154087636Y-83631756D01*
X153931756Y-83787636D01*
X153931752Y-83787641D01*
X153802187Y-83965974D01*
X153702104Y-84162393D01*
X153702103Y-84162396D01*
X153633985Y-84372047D01*
X153599500Y-84589778D01*
X153599500Y-84810221D01*
X153633985Y-85027952D01*
X153702103Y-85237603D01*
X153702104Y-85237606D01*
X153732268Y-85296804D01*
X153798059Y-85425925D01*
X153802187Y-85434025D01*
X153875818Y-85535371D01*
X153899298Y-85601177D01*
X153899500Y-85608253D01*
X153899500Y-85647868D01*
X153899501Y-85647877D01*
X153905908Y-85707483D01*
X153956202Y-85842328D01*
X153956206Y-85842335D01*
X153995954Y-85895431D01*
X154020372Y-85960895D01*
X154007688Y-86025013D01*
X153969888Y-86100925D01*
X153969883Y-86100936D01*
X153914097Y-86297007D01*
X153914096Y-86297010D01*
X153895287Y-86499999D01*
X153895287Y-86500000D01*
X153914096Y-86702989D01*
X153914097Y-86702992D01*
X153969883Y-86899063D01*
X153969886Y-86899069D01*
X154060751Y-87081551D01*
X154062533Y-87083911D01*
X154705145Y-86441298D01*
X154700000Y-86460504D01*
X154700000Y-86539496D01*
X154720444Y-86615796D01*
X154759940Y-86684205D01*
X154815795Y-86740060D01*
X154884204Y-86779556D01*
X154960504Y-86800000D01*
X155039496Y-86800000D01*
X155115796Y-86779556D01*
X155184205Y-86740060D01*
X155240060Y-86684205D01*
X155279556Y-86615796D01*
X155300000Y-86539496D01*
X155300000Y-86460504D01*
X155294854Y-86441301D01*
X155937465Y-87083912D01*
X155939247Y-87081553D01*
X155939248Y-87081551D01*
X156030113Y-86899069D01*
X156030116Y-86899063D01*
X156085902Y-86702992D01*
X156085903Y-86702989D01*
X156104713Y-86500000D01*
X156104713Y-86499999D01*
X156085903Y-86297010D01*
X156085902Y-86297008D01*
X156030115Y-86100936D01*
X156030112Y-86100930D01*
X156003647Y-86047781D01*
X155991385Y-85978996D01*
X156018259Y-85914501D01*
X156041759Y-85892193D01*
X156088893Y-85857949D01*
X156212365Y-85768242D01*
X156368242Y-85612365D01*
X156368243Y-85612363D01*
X156375303Y-85605303D01*
X156375309Y-85605296D01*
X157990744Y-83989860D01*
X158022123Y-83967061D01*
X158186433Y-83883343D01*
X158377510Y-83744517D01*
X158544517Y-83577510D01*
X158683343Y-83386433D01*
X158790568Y-83175992D01*
X158863553Y-82951368D01*
X158868522Y-82919994D01*
X158900500Y-82718097D01*
X158900500Y-77881902D01*
X158863553Y-77648631D01*
X158790566Y-77424003D01*
X158683342Y-77213565D01*
X158544517Y-77022490D01*
X157837510Y-76315483D01*
X157646434Y-76176657D01*
X157435996Y-76069433D01*
X157211368Y-75996446D01*
X156978097Y-75959500D01*
X156978092Y-75959500D01*
X156618696Y-75959500D01*
X156551657Y-75939815D01*
X156505902Y-75887011D01*
X156496223Y-75854898D01*
X156463553Y-75648635D01*
X156463553Y-75648634D01*
X156463553Y-75648632D01*
X156424644Y-75528883D01*
X156406787Y-75473925D01*
X156406783Y-75473914D01*
X156390568Y-75424008D01*
X156283343Y-75213566D01*
X156144517Y-75022490D01*
X153977510Y-72855483D01*
X153786434Y-72716657D01*
X153575996Y-72609433D01*
X153351368Y-72536446D01*
X153118097Y-72499500D01*
X153118092Y-72499500D01*
X145118092Y-72499500D01*
X144881908Y-72499500D01*
X144881903Y-72499500D01*
X144648634Y-72536446D01*
X144424005Y-72609433D01*
X144213565Y-72716657D01*
X144022488Y-72855484D01*
X144022487Y-72855485D01*
X135994792Y-80883181D01*
X135933469Y-80916666D01*
X135907111Y-80919500D01*
X125564500Y-80919500D01*
X125497461Y-80899815D01*
X125451706Y-80847011D01*
X125440500Y-80795500D01*
X125440500Y-80552889D01*
X125460185Y-80485850D01*
X125476819Y-80465208D01*
X127556119Y-78385908D01*
X129644517Y-76297510D01*
X129783343Y-76106433D01*
X129890568Y-75895992D01*
X129963553Y-75671368D01*
X129968629Y-75639320D01*
X130000500Y-75438097D01*
X130000500Y-75201910D01*
X129999179Y-75193570D01*
X129995227Y-75168622D01*
X129994125Y-75138992D01*
X130001971Y-75044303D01*
X130005643Y-75000004D01*
X130005643Y-74999994D01*
X131994859Y-74999994D01*
X131994859Y-75000005D01*
X132015385Y-75247729D01*
X132015387Y-75247738D01*
X132076412Y-75488717D01*
X132176266Y-75716364D01*
X132276564Y-75869882D01*
X133017037Y-75129409D01*
X133034075Y-75192993D01*
X133099901Y-75307007D01*
X133192993Y-75400099D01*
X133307007Y-75465925D01*
X133370590Y-75482962D01*
X132629942Y-76223609D01*
X132676768Y-76260055D01*
X132676770Y-76260056D01*
X132895385Y-76378364D01*
X132895396Y-76378369D01*
X133130506Y-76459083D01*
X133375707Y-76500000D01*
X133624293Y-76500000D01*
X133869493Y-76459083D01*
X134104603Y-76378369D01*
X134104614Y-76378364D01*
X134323228Y-76260057D01*
X134323231Y-76260055D01*
X134370056Y-76223609D01*
X133629409Y-75482962D01*
X133692993Y-75465925D01*
X133807007Y-75400099D01*
X133900099Y-75307007D01*
X133965925Y-75192993D01*
X133982962Y-75129409D01*
X134723434Y-75869882D01*
X134823731Y-75716369D01*
X134923587Y-75488717D01*
X134984612Y-75247738D01*
X134984614Y-75247729D01*
X135005141Y-75000005D01*
X135005141Y-74999994D01*
X134984614Y-74752270D01*
X134984612Y-74752261D01*
X134923587Y-74511282D01*
X134823731Y-74283630D01*
X134723434Y-74130116D01*
X133982962Y-74870589D01*
X133965925Y-74807007D01*
X133900099Y-74692993D01*
X133807007Y-74599901D01*
X133692993Y-74534075D01*
X133629410Y-74517037D01*
X134370057Y-73776390D01*
X134370056Y-73776389D01*
X134323229Y-73739943D01*
X134104614Y-73621635D01*
X134104603Y-73621630D01*
X133869493Y-73540916D01*
X133624293Y-73500000D01*
X133375707Y-73500000D01*
X133130506Y-73540916D01*
X132895396Y-73621630D01*
X132895390Y-73621632D01*
X132676761Y-73739949D01*
X132629942Y-73776388D01*
X132629942Y-73776390D01*
X133370590Y-74517037D01*
X133307007Y-74534075D01*
X133192993Y-74599901D01*
X133099901Y-74692993D01*
X133034075Y-74807007D01*
X133017037Y-74870589D01*
X132276564Y-74130116D01*
X132176267Y-74283632D01*
X132076412Y-74511282D01*
X132015387Y-74752261D01*
X132015385Y-74752270D01*
X131994859Y-74999994D01*
X130005643Y-74999994D01*
X129985109Y-74752187D01*
X129985107Y-74752175D01*
X129924063Y-74511118D01*
X129824173Y-74283393D01*
X129688166Y-74075217D01*
X129636582Y-74019182D01*
X129519744Y-73892262D01*
X129323509Y-73739526D01*
X129323507Y-73739525D01*
X129323506Y-73739524D01*
X129104811Y-73621172D01*
X129104802Y-73621169D01*
X128869616Y-73540429D01*
X128624335Y-73499500D01*
X128375665Y-73499500D01*
X128130383Y-73540429D01*
X127895197Y-73621169D01*
X127895188Y-73621172D01*
X127676493Y-73739524D01*
X127480257Y-73892261D01*
X127311833Y-74075217D01*
X127175826Y-74283393D01*
X127075939Y-74511112D01*
X127075936Y-74511122D01*
X127046704Y-74626552D01*
X127014180Y-74683791D01*
X126145155Y-75552816D01*
X126083832Y-75586301D01*
X126014140Y-75581317D01*
X125958207Y-75539445D01*
X125933790Y-75473981D01*
X125937269Y-75434694D01*
X125984610Y-75247750D01*
X125984614Y-75247729D01*
X126005141Y-75000005D01*
X126005141Y-74999994D01*
X125984614Y-74752270D01*
X125984612Y-74752261D01*
X125923587Y-74511282D01*
X125823731Y-74283630D01*
X125723434Y-74130116D01*
X124982962Y-74870589D01*
X124965925Y-74807007D01*
X124900099Y-74692993D01*
X124807007Y-74599901D01*
X124692993Y-74534075D01*
X124629410Y-74517037D01*
X125370057Y-73776390D01*
X125370056Y-73776389D01*
X125323229Y-73739943D01*
X125104614Y-73621635D01*
X125104603Y-73621630D01*
X124869493Y-73540916D01*
X124624293Y-73500000D01*
X124375707Y-73500000D01*
X124130506Y-73540916D01*
X123895396Y-73621630D01*
X123895390Y-73621632D01*
X123676761Y-73739949D01*
X123629942Y-73776388D01*
X123629942Y-73776390D01*
X124370590Y-74517037D01*
X124307007Y-74534075D01*
X124192993Y-74599901D01*
X124099901Y-74692993D01*
X124034075Y-74807007D01*
X124017037Y-74870589D01*
X123276564Y-74130116D01*
X123176267Y-74283632D01*
X123076412Y-74511282D01*
X123015387Y-74752261D01*
X123015385Y-74752270D01*
X122994859Y-74999994D01*
X122994859Y-75000005D01*
X123015385Y-75247729D01*
X123015387Y-75247738D01*
X123076412Y-75488717D01*
X123176266Y-75716364D01*
X123276564Y-75869882D01*
X124017037Y-75129409D01*
X124034075Y-75192993D01*
X124099901Y-75307007D01*
X124192993Y-75400099D01*
X124307007Y-75465925D01*
X124370590Y-75482962D01*
X123629942Y-76223609D01*
X123676768Y-76260055D01*
X123676770Y-76260056D01*
X123895385Y-76378364D01*
X123895396Y-76378369D01*
X124130506Y-76459083D01*
X124375707Y-76500000D01*
X124624293Y-76500000D01*
X124869491Y-76459083D01*
X124925056Y-76440008D01*
X124994855Y-76436858D01*
X125055277Y-76471944D01*
X125087137Y-76534126D01*
X125080322Y-76603663D01*
X125053001Y-76644970D01*
X123037391Y-78660580D01*
X122976068Y-78694065D01*
X122906376Y-78689081D01*
X122850443Y-78647209D01*
X122847442Y-78642538D01*
X122757547Y-78522455D01*
X122757544Y-78522452D01*
X122642335Y-78436206D01*
X122642328Y-78436202D01*
X122507482Y-78385908D01*
X122507483Y-78385908D01*
X122447883Y-78379501D01*
X122447881Y-78379500D01*
X122447873Y-78379500D01*
X122447865Y-78379500D01*
X122072889Y-78379500D01*
X122005850Y-78359815D01*
X121985208Y-78343181D01*
X120219707Y-76577680D01*
X120186222Y-76516357D01*
X120191206Y-76446665D01*
X120219703Y-76402322D01*
X120489697Y-76132328D01*
X120501206Y-76122165D01*
X120519744Y-76107738D01*
X120581234Y-76040940D01*
X120584735Y-76037290D01*
X120644517Y-75977510D01*
X120658610Y-75958111D01*
X120667682Y-75947033D01*
X120688164Y-75924785D01*
X120734139Y-75854413D01*
X120737618Y-75849367D01*
X120783343Y-75786434D01*
X120797291Y-75759055D01*
X120803958Y-75747546D01*
X120824173Y-75716607D01*
X120855240Y-75645779D01*
X120858285Y-75639347D01*
X120890568Y-75575992D01*
X120902140Y-75540373D01*
X120906509Y-75528896D01*
X120924063Y-75488881D01*
X120941396Y-75420428D01*
X120943664Y-75412573D01*
X120963552Y-75351369D01*
X120970462Y-75307741D01*
X120972724Y-75296720D01*
X120985108Y-75247821D01*
X120990387Y-75184110D01*
X120991482Y-75175019D01*
X121000499Y-75118092D01*
X121000499Y-75067201D01*
X121000923Y-75056960D01*
X121005643Y-75000004D01*
X121005643Y-74999995D01*
X121000923Y-74943038D01*
X121000499Y-74932797D01*
X121000499Y-74881910D01*
X121000499Y-74881908D01*
X120991483Y-74824983D01*
X120990386Y-74815886D01*
X120985108Y-74752179D01*
X120972728Y-74703297D01*
X120970460Y-74692252D01*
X120963552Y-74648631D01*
X120963551Y-74648628D01*
X120943669Y-74587440D01*
X120941398Y-74579576D01*
X120924063Y-74511119D01*
X120906505Y-74471090D01*
X120902140Y-74459624D01*
X120890568Y-74424008D01*
X120890566Y-74424003D01*
X120858300Y-74360679D01*
X120855228Y-74354192D01*
X120824177Y-74283401D01*
X120824174Y-74283395D01*
X120824173Y-74283393D01*
X120803956Y-74252449D01*
X120797282Y-74240926D01*
X120791134Y-74228859D01*
X120783343Y-74213567D01*
X120737619Y-74150634D01*
X120734128Y-74145569D01*
X120701815Y-74096110D01*
X120688164Y-74075215D01*
X120667686Y-74052970D01*
X120658607Y-74041884D01*
X120645549Y-74023911D01*
X120644517Y-74022490D01*
X120584780Y-73962753D01*
X120581234Y-73959057D01*
X120519747Y-73892265D01*
X120519742Y-73892261D01*
X120501211Y-73877837D01*
X120489692Y-73867665D01*
X120477511Y-73855484D01*
X120471547Y-73851151D01*
X120420497Y-73814061D01*
X120403706Y-73801861D01*
X120400430Y-73799396D01*
X120323514Y-73739530D01*
X120323515Y-73739530D01*
X120323509Y-73739526D01*
X120323502Y-73739522D01*
X120323501Y-73739521D01*
X120308783Y-73731556D01*
X120294922Y-73722824D01*
X120286436Y-73716659D01*
X120286426Y-73716653D01*
X120199178Y-73672197D01*
X120196457Y-73670768D01*
X120104813Y-73621173D01*
X120104802Y-73621169D01*
X120095346Y-73617922D01*
X120079328Y-73611131D01*
X120075994Y-73609432D01*
X119976485Y-73577100D01*
X119974555Y-73576455D01*
X119951100Y-73568402D01*
X119869617Y-73540429D01*
X119869613Y-73540428D01*
X119866393Y-73539891D01*
X119856150Y-73537388D01*
X119856104Y-73537584D01*
X119851370Y-73536448D01*
X119741535Y-73519051D01*
X119740526Y-73518887D01*
X119624335Y-73499500D01*
X119375665Y-73499500D01*
X119375664Y-73499500D01*
X119259464Y-73518889D01*
X119258454Y-73519053D01*
X119148646Y-73536444D01*
X119143906Y-73537583D01*
X119143858Y-73537386D01*
X119133601Y-73539892D01*
X119130394Y-73540427D01*
X119130388Y-73540428D01*
X119130386Y-73540429D01*
X119025446Y-73576455D01*
X119023503Y-73577104D01*
X118924001Y-73609434D01*
X118920659Y-73611137D01*
X118904658Y-73617920D01*
X118895195Y-73621169D01*
X118803550Y-73670764D01*
X118800831Y-73672192D01*
X118713562Y-73716659D01*
X118713558Y-73716661D01*
X118705071Y-73722827D01*
X118691222Y-73731552D01*
X118676497Y-73739522D01*
X118676493Y-73739524D01*
X118676491Y-73739526D01*
X118656402Y-73755162D01*
X118599549Y-73799411D01*
X118596275Y-73801873D01*
X118522487Y-73855484D01*
X118510299Y-73867672D01*
X118498790Y-73877835D01*
X118480257Y-73892260D01*
X118480256Y-73892261D01*
X118418765Y-73959057D01*
X118415218Y-73962753D01*
X117375485Y-75002487D01*
X117375484Y-75002488D01*
X117236657Y-75193565D01*
X117236654Y-75193570D01*
X117226467Y-75213565D01*
X117226467Y-75213566D01*
X117129432Y-75404007D01*
X117126244Y-75413819D01*
X117086805Y-75471494D01*
X117022447Y-75498692D01*
X117008313Y-75499500D01*
X106881903Y-75499500D01*
X106648634Y-75536446D01*
X106424005Y-75609433D01*
X106213565Y-75716657D01*
X106022488Y-75855484D01*
X103855484Y-78022488D01*
X103716657Y-78213565D01*
X103671132Y-78302914D01*
X103625607Y-78392262D01*
X103625606Y-78392262D01*
X103609431Y-78424008D01*
X103609431Y-78424009D01*
X103536447Y-78648627D01*
X103536447Y-78648630D01*
X103499500Y-78881902D01*
X103499500Y-94118097D01*
X103536446Y-94351368D01*
X103609433Y-94575996D01*
X103716657Y-94786434D01*
X103853072Y-94974192D01*
X103855484Y-94977511D01*
X105086945Y-96208972D01*
X105120430Y-96270295D01*
X105115446Y-96339987D01*
X105099591Y-96369526D01*
X105096661Y-96373559D01*
X105096656Y-96373566D01*
X105067482Y-96430825D01*
X105011600Y-96540500D01*
X105011599Y-96540500D01*
X104989431Y-96584008D01*
X104989431Y-96584009D01*
X104916447Y-96808627D01*
X104916447Y-96808630D01*
X104879500Y-97041902D01*
X104879500Y-99932809D01*
X104879076Y-99943050D01*
X104874357Y-99999995D01*
X104874357Y-100000004D01*
X104879076Y-100056948D01*
X104879500Y-100067189D01*
X104879500Y-103998097D01*
X104916446Y-104231368D01*
X104989433Y-104455996D01*
X105096657Y-104666434D01*
X105122553Y-104702076D01*
X105132934Y-104716364D01*
X105135817Y-104720331D01*
X105159298Y-104786138D01*
X105159500Y-104793218D01*
X105159500Y-107932809D01*
X105159076Y-107943050D01*
X105154357Y-107999995D01*
X105154357Y-108000004D01*
X105159076Y-108056948D01*
X105159500Y-108067189D01*
X105159500Y-110778097D01*
X105196446Y-111011368D01*
X105269433Y-111235996D01*
X105354281Y-111402518D01*
X105367177Y-111471187D01*
X105340901Y-111535928D01*
X105331477Y-111546494D01*
X104855486Y-112022486D01*
X104855484Y-112022488D01*
X104716657Y-112213565D01*
X104699204Y-112247819D01*
X104615999Y-112411119D01*
X104615998Y-112411119D01*
X104609431Y-112424009D01*
X104609430Y-112424012D01*
X104536447Y-112648627D01*
X104536447Y-112648630D01*
X104499500Y-112881902D01*
X104499500Y-119432809D01*
X104499076Y-119443050D01*
X104494357Y-119499995D01*
X104494357Y-119500004D01*
X104499076Y-119556948D01*
X104499500Y-119567189D01*
X104499500Y-119618096D01*
X104508514Y-119675005D01*
X104509615Y-119684147D01*
X104510349Y-119692993D01*
X104514892Y-119747824D01*
X104527270Y-119796703D01*
X104529537Y-119807743D01*
X104536447Y-119851369D01*
X104556332Y-119912569D01*
X104558606Y-119920446D01*
X104575935Y-119988874D01*
X104575939Y-119988887D01*
X104593487Y-120028892D01*
X104597862Y-120040384D01*
X104609430Y-120075989D01*
X104609432Y-120075992D01*
X104641696Y-120139314D01*
X104644767Y-120145798D01*
X104675826Y-120216606D01*
X104675829Y-120216610D01*
X104696038Y-120247542D01*
X104702711Y-120259062D01*
X104709394Y-120272179D01*
X104716658Y-120286434D01*
X104716664Y-120286443D01*
X104762379Y-120349365D01*
X104765870Y-120354429D01*
X104791723Y-120394000D01*
X104811836Y-120424785D01*
X104832309Y-120447025D01*
X104841395Y-120458119D01*
X104855481Y-120477508D01*
X104915216Y-120537243D01*
X104918764Y-120540941D01*
X104980252Y-120607734D01*
X104980256Y-120607738D01*
X104998791Y-120622164D01*
X105010310Y-120632337D01*
X105022490Y-120644517D01*
X105022493Y-120644519D01*
X105096263Y-120698116D01*
X105099527Y-120700570D01*
X105176491Y-120760474D01*
X105191214Y-120768442D01*
X105205079Y-120777176D01*
X105213567Y-120783343D01*
X105300815Y-120827798D01*
X105303503Y-120829209D01*
X105395190Y-120878828D01*
X105404643Y-120882073D01*
X105420673Y-120888869D01*
X105424008Y-120890568D01*
X105424013Y-120890569D01*
X105424014Y-120890570D01*
X105523517Y-120922900D01*
X105525381Y-120923522D01*
X105630386Y-120959571D01*
X105631166Y-120959701D01*
X105633583Y-120960105D01*
X105643842Y-120962612D01*
X105643890Y-120962415D01*
X105648623Y-120963550D01*
X105648632Y-120963553D01*
X105715387Y-120974125D01*
X105758639Y-120980976D01*
X105759562Y-120981125D01*
X105875665Y-121000500D01*
X105875666Y-121000500D01*
X106124333Y-121000500D01*
X106124335Y-121000500D01*
X106240532Y-120981109D01*
X106241217Y-120980997D01*
X106351368Y-120963553D01*
X106351379Y-120963549D01*
X106356110Y-120962414D01*
X106356157Y-120962612D01*
X106366414Y-120960104D01*
X106369614Y-120959571D01*
X106474688Y-120923497D01*
X106476360Y-120922939D01*
X106575992Y-120890568D01*
X106579321Y-120888871D01*
X106595355Y-120882074D01*
X106597269Y-120881416D01*
X106604810Y-120878828D01*
X106696524Y-120829194D01*
X106699117Y-120827831D01*
X106786433Y-120783343D01*
X106794916Y-120777178D01*
X106808780Y-120768444D01*
X106823509Y-120760474D01*
X106900465Y-120700575D01*
X106903680Y-120698156D01*
X106977510Y-120644517D01*
X106989699Y-120632327D01*
X107001210Y-120622162D01*
X107019744Y-120607738D01*
X107081234Y-120540940D01*
X107084734Y-120537291D01*
X107144517Y-120477510D01*
X107158604Y-120458119D01*
X107167695Y-120447019D01*
X107167697Y-120447017D01*
X107188164Y-120424785D01*
X107234139Y-120354412D01*
X107237611Y-120349374D01*
X107283343Y-120286433D01*
X107297285Y-120259066D01*
X107303962Y-120247541D01*
X107324171Y-120216610D01*
X107324173Y-120216607D01*
X107355240Y-120145777D01*
X107358286Y-120139345D01*
X107390568Y-120075992D01*
X107402136Y-120040383D01*
X107406513Y-120028890D01*
X107424060Y-119988887D01*
X107424063Y-119988881D01*
X107441397Y-119920428D01*
X107443667Y-119912569D01*
X107463553Y-119851368D01*
X107470465Y-119807718D01*
X107472724Y-119796720D01*
X107485108Y-119747821D01*
X107490382Y-119684152D01*
X107491486Y-119674998D01*
X107500500Y-119618092D01*
X107500500Y-119567189D01*
X107500924Y-119556948D01*
X107505643Y-119500004D01*
X107505643Y-119499995D01*
X107500924Y-119443050D01*
X107500500Y-119432809D01*
X107500500Y-117307868D01*
X107520185Y-117240829D01*
X107548334Y-117210018D01*
X107679744Y-117107738D01*
X107839111Y-116934618D01*
X107898996Y-116898629D01*
X107968834Y-116900729D01*
X108021568Y-116934619D01*
X108180592Y-117107364D01*
X108180602Y-117107373D01*
X108376762Y-117260051D01*
X108376771Y-117260057D01*
X108595385Y-117378364D01*
X108595396Y-117378369D01*
X108830507Y-117459083D01*
X108949999Y-117479023D01*
X108950000Y-117479022D01*
X108950000Y-116433012D01*
X109007007Y-116465925D01*
X109134174Y-116500000D01*
X109265826Y-116500000D01*
X109392993Y-116465925D01*
X109450000Y-116433012D01*
X109450000Y-117479023D01*
X109569492Y-117459083D01*
X109804603Y-117378369D01*
X109804614Y-117378364D01*
X110023228Y-117260057D01*
X110023237Y-117260051D01*
X110219397Y-117107373D01*
X110219401Y-117107370D01*
X110378430Y-116934620D01*
X110438318Y-116898629D01*
X110508156Y-116900730D01*
X110560889Y-116934619D01*
X110720256Y-117107738D01*
X110916491Y-117260474D01*
X110916493Y-117260475D01*
X111134332Y-117378364D01*
X111135190Y-117378828D01*
X111354141Y-117453994D01*
X111368964Y-117459083D01*
X111370386Y-117459571D01*
X111615665Y-117500500D01*
X111864335Y-117500500D01*
X112109614Y-117459571D01*
X112344810Y-117378828D01*
X112563509Y-117260474D01*
X112759744Y-117107738D01*
X112918771Y-116934988D01*
X112978657Y-116898999D01*
X113048495Y-116901099D01*
X113101228Y-116934988D01*
X113260256Y-117107738D01*
X113456491Y-117260474D01*
X113456493Y-117260475D01*
X113674332Y-117378364D01*
X113675190Y-117378828D01*
X113894141Y-117453994D01*
X113908964Y-117459083D01*
X113910386Y-117459571D01*
X114155665Y-117500500D01*
X114404335Y-117500500D01*
X114649614Y-117459571D01*
X114884810Y-117378828D01*
X115103509Y-117260474D01*
X115299744Y-117107738D01*
X115468164Y-116924785D01*
X115604173Y-116716607D01*
X115704063Y-116488881D01*
X115765108Y-116247821D01*
X115765109Y-116247812D01*
X115785643Y-116000005D01*
X115785643Y-115999994D01*
X115765109Y-115752187D01*
X115765107Y-115752175D01*
X115704063Y-115511118D01*
X115604173Y-115283393D01*
X115468166Y-115075217D01*
X115375058Y-114974075D01*
X115299744Y-114892262D01*
X115103509Y-114739526D01*
X115103507Y-114739525D01*
X115103506Y-114739524D01*
X114884811Y-114621172D01*
X114884802Y-114621169D01*
X114811348Y-114595952D01*
X114754333Y-114555567D01*
X114728202Y-114490767D01*
X114741253Y-114422127D01*
X114763930Y-114390990D01*
X114887067Y-114267854D01*
X115118102Y-114036819D01*
X115179425Y-114003334D01*
X115205783Y-114000500D01*
X118494218Y-114000500D01*
X118561257Y-114020185D01*
X118581899Y-114036819D01*
X119860657Y-115315577D01*
X119894142Y-115376900D01*
X119896553Y-115413495D01*
X119894357Y-115440002D01*
X119894357Y-115440005D01*
X119914890Y-115687812D01*
X119914892Y-115687824D01*
X119975936Y-115928881D01*
X120075826Y-116156606D01*
X120211833Y-116364782D01*
X120211836Y-116364785D01*
X120380256Y-116547738D01*
X120463008Y-116612147D01*
X120503821Y-116668857D01*
X120507496Y-116738630D01*
X120472864Y-116799313D01*
X120463014Y-116807848D01*
X120404400Y-116853469D01*
X120380257Y-116872261D01*
X120211833Y-117055217D01*
X120075826Y-117263393D01*
X119975936Y-117491118D01*
X119914892Y-117732175D01*
X119914890Y-117732187D01*
X119902167Y-117885740D01*
X119877014Y-117950925D01*
X119820612Y-117992163D01*
X119778591Y-117999500D01*
X114821455Y-117999500D01*
X114724812Y-118018724D01*
X114628167Y-118037947D01*
X114628161Y-118037949D01*
X114574834Y-118060037D01*
X114574834Y-118060038D01*
X114529315Y-118078892D01*
X114446089Y-118113366D01*
X114446079Y-118113371D01*
X114282219Y-118222859D01*
X114212540Y-118292538D01*
X114142861Y-118362218D01*
X114142858Y-118362221D01*
X107699163Y-124805915D01*
X107637840Y-124839400D01*
X107568148Y-124834416D01*
X107512215Y-124792544D01*
X107487798Y-124727080D01*
X107487906Y-124707994D01*
X107505141Y-124500005D01*
X107505141Y-124499994D01*
X107484614Y-124252270D01*
X107484612Y-124252261D01*
X107423587Y-124011282D01*
X107323731Y-123783630D01*
X107223434Y-123630116D01*
X106482962Y-124370589D01*
X106465925Y-124307007D01*
X106400099Y-124192993D01*
X106307007Y-124099901D01*
X106192993Y-124034075D01*
X106129410Y-124017037D01*
X106870057Y-123276390D01*
X106870056Y-123276389D01*
X106823229Y-123239943D01*
X106604614Y-123121635D01*
X106604603Y-123121630D01*
X106369493Y-123040916D01*
X106124293Y-123000000D01*
X105875707Y-123000000D01*
X105630506Y-123040916D01*
X105395396Y-123121630D01*
X105395390Y-123121632D01*
X105176761Y-123239949D01*
X105129942Y-123276388D01*
X105129942Y-123276390D01*
X105870590Y-124017037D01*
X105807007Y-124034075D01*
X105692993Y-124099901D01*
X105599901Y-124192993D01*
X105534075Y-124307007D01*
X105517037Y-124370589D01*
X104776564Y-123630116D01*
X104676267Y-123783632D01*
X104576412Y-124011282D01*
X104515387Y-124252261D01*
X104515385Y-124252270D01*
X104494859Y-124499994D01*
X104494859Y-124500005D01*
X104515385Y-124747729D01*
X104515387Y-124747738D01*
X104576412Y-124988717D01*
X104676266Y-125216364D01*
X104776564Y-125369882D01*
X105517037Y-124629409D01*
X105534075Y-124692993D01*
X105599901Y-124807007D01*
X105692993Y-124900099D01*
X105807007Y-124965925D01*
X105870590Y-124982962D01*
X105129942Y-125723609D01*
X105176768Y-125760055D01*
X105176770Y-125760056D01*
X105395385Y-125878364D01*
X105395396Y-125878369D01*
X105630506Y-125959083D01*
X105875707Y-126000000D01*
X106124293Y-126000000D01*
X106199558Y-125987440D01*
X106268923Y-125995822D01*
X106322745Y-126040374D01*
X106343936Y-126106953D01*
X106325769Y-126174419D01*
X106307649Y-126197430D01*
X106041899Y-126463181D01*
X105980576Y-126496666D01*
X105954218Y-126499500D01*
X105795665Y-126499500D01*
X105550383Y-126540429D01*
X105315197Y-126621169D01*
X105315188Y-126621172D01*
X105096493Y-126739524D01*
X104900257Y-126892261D01*
X104731833Y-127075217D01*
X104595826Y-127283393D01*
X104495936Y-127511118D01*
X104434892Y-127752175D01*
X104434890Y-127752187D01*
X104414357Y-127999994D01*
X104414357Y-128000005D01*
X104434890Y-128247812D01*
X104434892Y-128247824D01*
X104495936Y-128488881D01*
X104595826Y-128716606D01*
X104731833Y-128924782D01*
X104731836Y-128924785D01*
X104900256Y-129107738D01*
X105096491Y-129260474D01*
X105315190Y-129378828D01*
X105550386Y-129459571D01*
X105795665Y-129500500D01*
X106044335Y-129500500D01*
X106289614Y-129459571D01*
X106524810Y-129378828D01*
X106743509Y-129260474D01*
X106939744Y-129107738D01*
X107098771Y-128934988D01*
X107158657Y-128898999D01*
X107228495Y-128901099D01*
X107281228Y-128934988D01*
X107440256Y-129107738D01*
X107636491Y-129260474D01*
X107855190Y-129378828D01*
X108090386Y-129459571D01*
X108335665Y-129500500D01*
X108584335Y-129500500D01*
X108829614Y-129459571D01*
X109064810Y-129378828D01*
X109283509Y-129260474D01*
X109479744Y-129107738D01*
X109638771Y-128934988D01*
X109698657Y-128898999D01*
X109768495Y-128901099D01*
X109821228Y-128934988D01*
X109980256Y-129107738D01*
X110176491Y-129260474D01*
X110395190Y-129378828D01*
X110630386Y-129459571D01*
X110875665Y-129500500D01*
X111124335Y-129500500D01*
X111369614Y-129459571D01*
X111604810Y-129378828D01*
X111823509Y-129260474D01*
X112019744Y-129107738D01*
X112178771Y-128934988D01*
X112238657Y-128898999D01*
X112308495Y-128901099D01*
X112361228Y-128934988D01*
X112520256Y-129107738D01*
X112716491Y-129260474D01*
X112935190Y-129378828D01*
X113170386Y-129459571D01*
X113415665Y-129500500D01*
X113664335Y-129500500D01*
X113909614Y-129459571D01*
X114144810Y-129378828D01*
X114363509Y-129260474D01*
X114559744Y-129107738D01*
X114728164Y-128924785D01*
X114864173Y-128716607D01*
X114964063Y-128488881D01*
X115025108Y-128247821D01*
X115028588Y-128205826D01*
X115045643Y-128000004D01*
X115045643Y-127999995D01*
X115043447Y-127973498D01*
X115057527Y-127905062D01*
X115079338Y-127875580D01*
X116318102Y-126636819D01*
X116379425Y-126603334D01*
X116405783Y-126600500D01*
X120227145Y-126600500D01*
X120294184Y-126620185D01*
X120318374Y-126640517D01*
X120380252Y-126707734D01*
X120380262Y-126707743D01*
X120463415Y-126772464D01*
X120504228Y-126829174D01*
X120507903Y-126898947D01*
X120473271Y-126959630D01*
X120463416Y-126968170D01*
X120380597Y-127032630D01*
X120380592Y-127032635D01*
X120212232Y-127215521D01*
X120076267Y-127423632D01*
X119976411Y-127651283D01*
X119915960Y-127890000D01*
X120966988Y-127890000D01*
X120934075Y-127947007D01*
X120900000Y-128074174D01*
X120900000Y-128205826D01*
X120934075Y-128332993D01*
X120966988Y-128390000D01*
X119915960Y-128390000D01*
X119976411Y-128628716D01*
X120076267Y-128856367D01*
X120212232Y-129064478D01*
X120380592Y-129247364D01*
X120380602Y-129247373D01*
X120576762Y-129400051D01*
X120576771Y-129400057D01*
X120795385Y-129518364D01*
X120795396Y-129518369D01*
X121030507Y-129599083D01*
X121149999Y-129619023D01*
X121150000Y-129619022D01*
X121150000Y-128573012D01*
X121207007Y-128605925D01*
X121334174Y-128640000D01*
X121465826Y-128640000D01*
X121592993Y-128605925D01*
X121650000Y-128573012D01*
X121650000Y-129619023D01*
X121769492Y-129599083D01*
X122004603Y-129518369D01*
X122004614Y-129518364D01*
X122223228Y-129400057D01*
X122223237Y-129400051D01*
X122419397Y-129247373D01*
X122419401Y-129247370D01*
X122578430Y-129074620D01*
X122638318Y-129038629D01*
X122708156Y-129040730D01*
X122760889Y-129074619D01*
X122920256Y-129247738D01*
X123116491Y-129400474D01*
X123116493Y-129400475D01*
X123334332Y-129518364D01*
X123335190Y-129518828D01*
X123554141Y-129593994D01*
X123568964Y-129599083D01*
X123570386Y-129599571D01*
X123815665Y-129640500D01*
X124064335Y-129640500D01*
X124309614Y-129599571D01*
X124544810Y-129518828D01*
X124763509Y-129400474D01*
X124959744Y-129247738D01*
X125128164Y-129064785D01*
X125133459Y-129056679D01*
X125186605Y-129011323D01*
X125237269Y-129000500D01*
X130747145Y-129000500D01*
X130814184Y-129020185D01*
X130838374Y-129040517D01*
X130900252Y-129107734D01*
X130900256Y-129107738D01*
X131096491Y-129260474D01*
X131315190Y-129378828D01*
X131550386Y-129459571D01*
X131795665Y-129500500D01*
X132044335Y-129500500D01*
X132289614Y-129459571D01*
X132524810Y-129378828D01*
X132743509Y-129260474D01*
X132939744Y-129107738D01*
X133098771Y-128934988D01*
X133158657Y-128898999D01*
X133228495Y-128901099D01*
X133281228Y-128934988D01*
X133440256Y-129107738D01*
X133636491Y-129260474D01*
X133855190Y-129378828D01*
X134090386Y-129459571D01*
X134335665Y-129500500D01*
X134584335Y-129500500D01*
X134829614Y-129459571D01*
X135064810Y-129378828D01*
X135283509Y-129260474D01*
X135479744Y-129107738D01*
X135638771Y-128934988D01*
X135698657Y-128898999D01*
X135768495Y-128901099D01*
X135821228Y-128934988D01*
X135980256Y-129107738D01*
X136176491Y-129260474D01*
X136395190Y-129378828D01*
X136630386Y-129459571D01*
X136875665Y-129500500D01*
X137124335Y-129500500D01*
X137369614Y-129459571D01*
X137604810Y-129378828D01*
X137823509Y-129260474D01*
X138019744Y-129107738D01*
X138178771Y-128934988D01*
X138238657Y-128898999D01*
X138308495Y-128901099D01*
X138361228Y-128934988D01*
X138520256Y-129107738D01*
X138716491Y-129260474D01*
X138935190Y-129378828D01*
X139170386Y-129459571D01*
X139415665Y-129500500D01*
X139664335Y-129500500D01*
X139909614Y-129459571D01*
X140144810Y-129378828D01*
X140363509Y-129260474D01*
X140559744Y-129107738D01*
X140728164Y-128924785D01*
X140864173Y-128716607D01*
X140964063Y-128488881D01*
X141025108Y-128247821D01*
X141028588Y-128205826D01*
X141045643Y-128000005D01*
X141045643Y-127999994D01*
X141025109Y-127752187D01*
X141025107Y-127752175D01*
X140964063Y-127511118D01*
X140864173Y-127283393D01*
X140728166Y-127075217D01*
X140640342Y-126979815D01*
X140559744Y-126892262D01*
X140363509Y-126739526D01*
X140363507Y-126739525D01*
X140363506Y-126739524D01*
X140144811Y-126621172D01*
X140144802Y-126621169D01*
X139909616Y-126540429D01*
X139664335Y-126499500D01*
X139505782Y-126499500D01*
X139438743Y-126479815D01*
X139418101Y-126463181D01*
X130301479Y-117346559D01*
X130301459Y-117346537D01*
X130157785Y-117202863D01*
X130157781Y-117202860D01*
X129993920Y-117093371D01*
X129993911Y-117093366D01*
X129901805Y-117055215D01*
X129865165Y-117040038D01*
X129811836Y-117017949D01*
X129811832Y-117017948D01*
X129811828Y-117017946D01*
X129715188Y-116998724D01*
X129618544Y-116979500D01*
X129618541Y-116979500D01*
X125112855Y-116979500D01*
X125045816Y-116959815D01*
X125021626Y-116939483D01*
X124959747Y-116872265D01*
X124959746Y-116872264D01*
X124959744Y-116872262D01*
X124876583Y-116807535D01*
X124835770Y-116750825D01*
X124832096Y-116681052D01*
X124866728Y-116620369D01*
X124876584Y-116611828D01*
X124959404Y-116547367D01*
X124959407Y-116547364D01*
X125127767Y-116364478D01*
X125263732Y-116156367D01*
X125363588Y-115928716D01*
X125424040Y-115690000D01*
X124373012Y-115690000D01*
X124405925Y-115632993D01*
X124440000Y-115505826D01*
X124440000Y-115374174D01*
X124405925Y-115247007D01*
X124373012Y-115190000D01*
X125424040Y-115190000D01*
X125363588Y-114951283D01*
X125263732Y-114723632D01*
X125127767Y-114515521D01*
X124959407Y-114332635D01*
X124959397Y-114332626D01*
X124876584Y-114268170D01*
X124835771Y-114211460D01*
X124832096Y-114141687D01*
X124866728Y-114081004D01*
X124876571Y-114072473D01*
X124959744Y-114007738D01*
X125128164Y-113824785D01*
X125264173Y-113616607D01*
X125364063Y-113388881D01*
X125425108Y-113147821D01*
X125425109Y-113147812D01*
X125445643Y-112900005D01*
X125445643Y-112899994D01*
X125425109Y-112652187D01*
X125425107Y-112652175D01*
X125364063Y-112411118D01*
X125264173Y-112183393D01*
X125128166Y-111975217D01*
X125098554Y-111943050D01*
X124959744Y-111792262D01*
X124876991Y-111727852D01*
X124836179Y-111671143D01*
X124832504Y-111601370D01*
X124867136Y-111540687D01*
X124876985Y-111532151D01*
X124959744Y-111467738D01*
X125128164Y-111284785D01*
X125264173Y-111076607D01*
X125364063Y-110848881D01*
X125425108Y-110607821D01*
X125425856Y-110598794D01*
X125445643Y-110360005D01*
X125445643Y-110359994D01*
X125425109Y-110112187D01*
X125425107Y-110112175D01*
X125364063Y-109871118D01*
X125264173Y-109643393D01*
X125128166Y-109435217D01*
X125076255Y-109378827D01*
X124959744Y-109252262D01*
X124876991Y-109187852D01*
X124836179Y-109131143D01*
X124832504Y-109061370D01*
X124867136Y-109000687D01*
X124876985Y-108992151D01*
X124959744Y-108927738D01*
X125128164Y-108744785D01*
X125264173Y-108536607D01*
X125364063Y-108308881D01*
X125401399Y-108161443D01*
X125436937Y-108101290D01*
X125499358Y-108069898D01*
X125568841Y-108077236D01*
X125609285Y-108104205D01*
X145380657Y-127875577D01*
X145414142Y-127936900D01*
X145416553Y-127973495D01*
X145414358Y-127999995D01*
X145414357Y-128000002D01*
X145414357Y-128000005D01*
X145434890Y-128247812D01*
X145434892Y-128247824D01*
X145495936Y-128488881D01*
X145595826Y-128716606D01*
X145731833Y-128924782D01*
X145731836Y-128924785D01*
X145900256Y-129107738D01*
X146096491Y-129260474D01*
X146315190Y-129378828D01*
X146550386Y-129459571D01*
X146795665Y-129500500D01*
X147044335Y-129500500D01*
X147289614Y-129459571D01*
X147524810Y-129378828D01*
X147743509Y-129260474D01*
X147939744Y-129107738D01*
X148098771Y-128934988D01*
X148158657Y-128898999D01*
X148228495Y-128901099D01*
X148281228Y-128934988D01*
X148440256Y-129107738D01*
X148636491Y-129260474D01*
X148855190Y-129378828D01*
X149090386Y-129459571D01*
X149335665Y-129500500D01*
X149584335Y-129500500D01*
X149829614Y-129459571D01*
X150064810Y-129378828D01*
X150283509Y-129260474D01*
X150479744Y-129107738D01*
X150638771Y-128934988D01*
X150698657Y-128898999D01*
X150768495Y-128901099D01*
X150821228Y-128934988D01*
X150980256Y-129107738D01*
X151176491Y-129260474D01*
X151395190Y-129378828D01*
X151630386Y-129459571D01*
X151875665Y-129500500D01*
X152124335Y-129500500D01*
X152369614Y-129459571D01*
X152604810Y-129378828D01*
X152823509Y-129260474D01*
X153019744Y-129107738D01*
X153178771Y-128934988D01*
X153238657Y-128898999D01*
X153308495Y-128901099D01*
X153361228Y-128934988D01*
X153520256Y-129107738D01*
X153716491Y-129260474D01*
X153935190Y-129378828D01*
X154170386Y-129459571D01*
X154415665Y-129500500D01*
X154664335Y-129500500D01*
X154909614Y-129459571D01*
X155144810Y-129378828D01*
X155363509Y-129260474D01*
X155559744Y-129107738D01*
X155728164Y-128924785D01*
X155864173Y-128716607D01*
X155964063Y-128488881D01*
X156025108Y-128247821D01*
X156028588Y-128205826D01*
X156045643Y-128000005D01*
X156045643Y-127999994D01*
X156025109Y-127752187D01*
X156025107Y-127752175D01*
X155964063Y-127511118D01*
X155864173Y-127283393D01*
X155813204Y-127205379D01*
X155728164Y-127075215D01*
X155713763Y-127059571D01*
X155573270Y-126906953D01*
X155542348Y-126844299D01*
X155540500Y-126822971D01*
X155540500Y-125644675D01*
X155540501Y-125644654D01*
X155540501Y-125441457D01*
X155540500Y-125441455D01*
X155502053Y-125248172D01*
X155502052Y-125248165D01*
X155426632Y-125066086D01*
X155426631Y-125066085D01*
X155426628Y-125066079D01*
X155317140Y-124902219D01*
X155317137Y-124902215D01*
X128036819Y-97621897D01*
X128003334Y-97560574D01*
X128000500Y-97534216D01*
X128000500Y-95744675D01*
X128000501Y-95744654D01*
X128000501Y-95541457D01*
X128000500Y-95541455D01*
X127992634Y-95501909D01*
X127962052Y-95348165D01*
X127886632Y-95166086D01*
X127886631Y-95166085D01*
X127886628Y-95166079D01*
X127777140Y-95002219D01*
X127777137Y-95002215D01*
X125479342Y-92704422D01*
X125445857Y-92643099D01*
X125443447Y-92606499D01*
X125445643Y-92580003D01*
X125445643Y-92579995D01*
X125425109Y-92332187D01*
X125425107Y-92332175D01*
X125364063Y-92091118D01*
X125264173Y-91863393D01*
X125128166Y-91655217D01*
X125047640Y-91567743D01*
X124959744Y-91472262D01*
X124876991Y-91407852D01*
X124836179Y-91351143D01*
X124832504Y-91281370D01*
X124867136Y-91220687D01*
X124876985Y-91212151D01*
X124959744Y-91147738D01*
X125128164Y-90964785D01*
X125264173Y-90756607D01*
X125364063Y-90528881D01*
X125425108Y-90287821D01*
X125445643Y-90040000D01*
X125439935Y-89971119D01*
X125425109Y-89792187D01*
X125425107Y-89792175D01*
X125364063Y-89551118D01*
X125264173Y-89323393D01*
X125128166Y-89115217D01*
X125106557Y-89091744D01*
X124959744Y-88932262D01*
X124876991Y-88867852D01*
X124836179Y-88811143D01*
X124832504Y-88741370D01*
X124867136Y-88680687D01*
X124876985Y-88672151D01*
X124959744Y-88607738D01*
X125128164Y-88424785D01*
X125264173Y-88216607D01*
X125364063Y-87988881D01*
X125425108Y-87747821D01*
X125441410Y-87551088D01*
X125445643Y-87500005D01*
X125445643Y-87499994D01*
X125425109Y-87252187D01*
X125425107Y-87252175D01*
X125364063Y-87011118D01*
X125264173Y-86783393D01*
X125128166Y-86575217D01*
X125084851Y-86528165D01*
X124959744Y-86392262D01*
X124876583Y-86327535D01*
X124835770Y-86270825D01*
X124832096Y-86201052D01*
X124866728Y-86140369D01*
X124876584Y-86131828D01*
X124959404Y-86067367D01*
X124959407Y-86067364D01*
X125127767Y-85884478D01*
X125263732Y-85676367D01*
X125363588Y-85448716D01*
X125424040Y-85210000D01*
X124373012Y-85210000D01*
X124405925Y-85152993D01*
X124440000Y-85025826D01*
X124440000Y-84894174D01*
X124405925Y-84767007D01*
X124373012Y-84710000D01*
X125424040Y-84710000D01*
X125363588Y-84471283D01*
X125263732Y-84243632D01*
X125177943Y-84112321D01*
X125157755Y-84045432D01*
X125176936Y-83978246D01*
X125229395Y-83932096D01*
X125281752Y-83920500D01*
X136698097Y-83920500D01*
X136931368Y-83883553D01*
X136943623Y-83879571D01*
X137155992Y-83810568D01*
X137325107Y-83724399D01*
X137393775Y-83711504D01*
X137458516Y-83737780D01*
X137498773Y-83794887D01*
X137503875Y-83854281D01*
X137499500Y-83881906D01*
X137499500Y-96118097D01*
X137536446Y-96351368D01*
X137609433Y-96575996D01*
X137705672Y-96764875D01*
X137716657Y-96786434D01*
X137855483Y-96977510D01*
X143482490Y-102604517D01*
X143673566Y-102743343D01*
X143738421Y-102776388D01*
X143884003Y-102850566D01*
X143884005Y-102850566D01*
X143884008Y-102850568D01*
X143961030Y-102875594D01*
X144108631Y-102923553D01*
X144341903Y-102960500D01*
X144341908Y-102960500D01*
X144578092Y-102960500D01*
X151881908Y-102960500D01*
X153658248Y-102960500D01*
X153725287Y-102980185D01*
X153771042Y-103032989D01*
X153780986Y-103102147D01*
X153762057Y-103152321D01*
X153676267Y-103283632D01*
X153576411Y-103511283D01*
X153515960Y-103750000D01*
X154566988Y-103750000D01*
X154534075Y-103807007D01*
X154500000Y-103934174D01*
X154500000Y-104065826D01*
X154534075Y-104192993D01*
X154566988Y-104250000D01*
X153515960Y-104250000D01*
X153576411Y-104488716D01*
X153676267Y-104716367D01*
X153812232Y-104924478D01*
X153980592Y-105107364D01*
X153980602Y-105107373D01*
X154176762Y-105260051D01*
X154176771Y-105260057D01*
X154395385Y-105378364D01*
X154395396Y-105378369D01*
X154630507Y-105459083D01*
X154749999Y-105479023D01*
X154750000Y-105479022D01*
X154750000Y-104433012D01*
X154807007Y-104465925D01*
X154934174Y-104500000D01*
X155065826Y-104500000D01*
X155192993Y-104465925D01*
X155250000Y-104433012D01*
X155250000Y-105479023D01*
X155369492Y-105459083D01*
X155604603Y-105378369D01*
X155604614Y-105378364D01*
X155823228Y-105260057D01*
X155823237Y-105260051D01*
X156019397Y-105107373D01*
X156019407Y-105107364D01*
X156187767Y-104924478D01*
X156271691Y-104796023D01*
X156324837Y-104750666D01*
X156394069Y-104741242D01*
X156457404Y-104770744D01*
X156494736Y-104829804D01*
X156499500Y-104863844D01*
X156499500Y-107327110D01*
X156479815Y-107394149D01*
X156463181Y-107414791D01*
X155954792Y-107923181D01*
X155893469Y-107956666D01*
X155867111Y-107959500D01*
X152421903Y-107959500D01*
X152188630Y-107996447D01*
X152036993Y-108045716D01*
X152036992Y-108045717D01*
X151986677Y-108062066D01*
X151964001Y-108069434D01*
X151753565Y-108176657D01*
X151562488Y-108315484D01*
X148855484Y-111022488D01*
X148716657Y-111213565D01*
X148680371Y-111284782D01*
X148621919Y-111399500D01*
X148621918Y-111399500D01*
X148609431Y-111424008D01*
X148609431Y-111424009D01*
X148536447Y-111648627D01*
X148536447Y-111648630D01*
X148499500Y-111881902D01*
X148499500Y-115118097D01*
X148536446Y-115351368D01*
X148609433Y-115575996D01*
X148696568Y-115747007D01*
X148716657Y-115786434D01*
X148855483Y-115977510D01*
X151482490Y-118604517D01*
X151673566Y-118743343D01*
X151744578Y-118779525D01*
X151884003Y-118850566D01*
X151884005Y-118850566D01*
X151884008Y-118850568D01*
X152004412Y-118889689D01*
X152108631Y-118923553D01*
X152341903Y-118960500D01*
X153658248Y-118960500D01*
X153725287Y-118980185D01*
X153771042Y-119032989D01*
X153780986Y-119102147D01*
X153762057Y-119152321D01*
X153676267Y-119283632D01*
X153576411Y-119511283D01*
X153515960Y-119750000D01*
X154566988Y-119750000D01*
X154534075Y-119807007D01*
X154500000Y-119934174D01*
X154500000Y-120065826D01*
X154534075Y-120192993D01*
X154566988Y-120250000D01*
X153515960Y-120250000D01*
X153576411Y-120488716D01*
X153676267Y-120716367D01*
X153812232Y-120924478D01*
X153980592Y-121107364D01*
X153980602Y-121107373D01*
X154176762Y-121260051D01*
X154176771Y-121260057D01*
X154395385Y-121378364D01*
X154395396Y-121378369D01*
X154630507Y-121459083D01*
X154749999Y-121479023D01*
X154750000Y-121479022D01*
X154750000Y-120433012D01*
X154807007Y-120465925D01*
X154934174Y-120500000D01*
X155065826Y-120500000D01*
X155192993Y-120465925D01*
X155250000Y-120433012D01*
X155250000Y-121479023D01*
X155369492Y-121459083D01*
X155604603Y-121378369D01*
X155604614Y-121378364D01*
X155823228Y-121260057D01*
X155823237Y-121260051D01*
X156019397Y-121107373D01*
X156019407Y-121107364D01*
X156187767Y-120924478D01*
X156323732Y-120716367D01*
X156423588Y-120488716D01*
X156484040Y-120250000D01*
X155433012Y-120250000D01*
X155465925Y-120192993D01*
X155500000Y-120065826D01*
X155500000Y-119934174D01*
X155465925Y-119807007D01*
X155433012Y-119750000D01*
X156484040Y-119750000D01*
X156423588Y-119511283D01*
X156323733Y-119283635D01*
X156192817Y-119083252D01*
X156172630Y-119016362D01*
X156191810Y-118949176D01*
X156237203Y-118906595D01*
X156242321Y-118903799D01*
X156242331Y-118903796D01*
X156357546Y-118817546D01*
X156443796Y-118702331D01*
X156494091Y-118567483D01*
X156500500Y-118507873D01*
X156500500Y-117491119D01*
X156500500Y-117341908D01*
X156500500Y-117334313D01*
X156500499Y-117334295D01*
X156500499Y-116412129D01*
X156500498Y-116412123D01*
X156494091Y-116352516D01*
X156443797Y-116217671D01*
X156443793Y-116217664D01*
X156357547Y-116102455D01*
X156357544Y-116102452D01*
X156242335Y-116016206D01*
X156242328Y-116016202D01*
X156107482Y-115965908D01*
X156107483Y-115965908D01*
X156047883Y-115959501D01*
X156047881Y-115959500D01*
X156047873Y-115959500D01*
X156047865Y-115959500D01*
X153132889Y-115959500D01*
X153065850Y-115939815D01*
X153045208Y-115923181D01*
X151536819Y-114414792D01*
X151503334Y-114353469D01*
X151500500Y-114327111D01*
X151500500Y-112672889D01*
X151520185Y-112605850D01*
X151536819Y-112585208D01*
X153125208Y-110996819D01*
X153186531Y-110963334D01*
X153212889Y-110960500D01*
X153658248Y-110960500D01*
X153725287Y-110980185D01*
X153771042Y-111032989D01*
X153780986Y-111102147D01*
X153762057Y-111152321D01*
X153676267Y-111283632D01*
X153576411Y-111511283D01*
X153515960Y-111750000D01*
X154566988Y-111750000D01*
X154534075Y-111807007D01*
X154500000Y-111934174D01*
X154500000Y-112065826D01*
X154534075Y-112192993D01*
X154566988Y-112250000D01*
X153515960Y-112250000D01*
X153576411Y-112488716D01*
X153676267Y-112716367D01*
X153812232Y-112924478D01*
X153980592Y-113107364D01*
X153980602Y-113107373D01*
X154176762Y-113260051D01*
X154176771Y-113260057D01*
X154395385Y-113378364D01*
X154395396Y-113378369D01*
X154630507Y-113459083D01*
X154749999Y-113479023D01*
X154750000Y-113479022D01*
X154750000Y-112433012D01*
X154807007Y-112465925D01*
X154934174Y-112500000D01*
X155065826Y-112500000D01*
X155192993Y-112465925D01*
X155250000Y-112433012D01*
X155250000Y-113479023D01*
X155369492Y-113459083D01*
X155604603Y-113378369D01*
X155604614Y-113378364D01*
X155823228Y-113260057D01*
X155823237Y-113260051D01*
X156019397Y-113107373D01*
X156019407Y-113107364D01*
X156187767Y-112924478D01*
X156323732Y-112716367D01*
X156423588Y-112488716D01*
X156484040Y-112250000D01*
X155433012Y-112250000D01*
X155465925Y-112192993D01*
X155500000Y-112065826D01*
X155500000Y-111934174D01*
X155465925Y-111807007D01*
X155433012Y-111750000D01*
X156484040Y-111750000D01*
X156423588Y-111511283D01*
X156323732Y-111283632D01*
X156237943Y-111152321D01*
X156217755Y-111085432D01*
X156236936Y-111018246D01*
X156289395Y-110972096D01*
X156341752Y-110960500D01*
X156658097Y-110960500D01*
X156891368Y-110923553D01*
X157115992Y-110850568D01*
X157326434Y-110743343D01*
X157517510Y-110604517D01*
X159144518Y-108977510D01*
X159144520Y-108977506D01*
X159144523Y-108977504D01*
X159275182Y-108797666D01*
X159330511Y-108755000D01*
X159400125Y-108749021D01*
X159461920Y-108781626D01*
X159496277Y-108842465D01*
X159499500Y-108870551D01*
X159499500Y-129955172D01*
X159479815Y-130022211D01*
X159427011Y-130067966D01*
X159357853Y-130077910D01*
X159294297Y-130048885D01*
X159281210Y-130035704D01*
X159212429Y-129955172D01*
X159135224Y-129864776D01*
X159008571Y-129756604D01*
X158943656Y-129701161D01*
X158943653Y-129701160D01*
X158728859Y-129569533D01*
X158496110Y-129473126D01*
X158251151Y-129414317D01*
X158000000Y-129394551D01*
X157748848Y-129414317D01*
X157503889Y-129473126D01*
X157271140Y-129569533D01*
X157056346Y-129701160D01*
X157056343Y-129701161D01*
X156864776Y-129864776D01*
X156701161Y-130056343D01*
X156701160Y-130056346D01*
X156569533Y-130271140D01*
X156473126Y-130503889D01*
X156414317Y-130748848D01*
X156394551Y-131000000D01*
X156414317Y-131251151D01*
X156473126Y-131496110D01*
X156569533Y-131728859D01*
X156701160Y-131943653D01*
X156701161Y-131943656D01*
X156755644Y-132007447D01*
X156864776Y-132135224D01*
X157035704Y-132281210D01*
X157073897Y-132339717D01*
X157074396Y-132409585D01*
X157037042Y-132468631D01*
X156973695Y-132498109D01*
X156955172Y-132499500D01*
X103583315Y-132499500D01*
X103516276Y-132479815D01*
X103470521Y-132427011D01*
X103460577Y-132357853D01*
X103489602Y-132294297D01*
X103502779Y-132281213D01*
X103599018Y-132199018D01*
X103762630Y-132007453D01*
X103894260Y-131792653D01*
X103990667Y-131559905D01*
X104049477Y-131314942D01*
X104069243Y-131063794D01*
X104049477Y-130812646D01*
X103990667Y-130567683D01*
X103956303Y-130484721D01*
X103894260Y-130334934D01*
X103762633Y-130120140D01*
X103762632Y-130120137D01*
X103678995Y-130022211D01*
X103599018Y-129928570D01*
X103472365Y-129820398D01*
X103407450Y-129764955D01*
X103407447Y-129764954D01*
X103192653Y-129633327D01*
X102959904Y-129536920D01*
X102714945Y-129478111D01*
X102463794Y-129458345D01*
X102212642Y-129478111D01*
X101967683Y-129536920D01*
X101734934Y-129633327D01*
X101520140Y-129764954D01*
X101520137Y-129764955D01*
X101328570Y-129928570D01*
X101164955Y-130120137D01*
X101164954Y-130120140D01*
X101033327Y-130334934D01*
X100936920Y-130567683D01*
X100878111Y-130812642D01*
X100858345Y-131063794D01*
X100878111Y-131314945D01*
X100936920Y-131559904D01*
X101033327Y-131792653D01*
X101164954Y-132007447D01*
X101164955Y-132007450D01*
X101164958Y-132007453D01*
X101328570Y-132199018D01*
X101424805Y-132281211D01*
X101462998Y-132339717D01*
X101463497Y-132409584D01*
X101426143Y-132468631D01*
X101362796Y-132498109D01*
X101344273Y-132499500D01*
X100624500Y-132499500D01*
X100557461Y-132479815D01*
X100511706Y-132427011D01*
X100500500Y-132375500D01*
X100500500Y-72124500D01*
X100520185Y-72057461D01*
X100572989Y-72011706D01*
X100624500Y-72000500D01*
X101455172Y-72000500D01*
X101522211Y-72020185D01*
G37*
%TD.AperFunction*%
%TA.AperFunction,Conductor*%
G36*
X129121257Y-119000185D02*
G01*
X129141899Y-119016819D01*
X131972899Y-121847819D01*
X132006384Y-121909142D01*
X132001400Y-121978834D01*
X131959528Y-122034767D01*
X131894064Y-122059184D01*
X131885218Y-122059500D01*
X125112855Y-122059500D01*
X125045816Y-122039815D01*
X125021626Y-122019483D01*
X124959747Y-121952265D01*
X124959746Y-121952264D01*
X124959744Y-121952262D01*
X124876583Y-121887535D01*
X124835770Y-121830825D01*
X124832096Y-121761052D01*
X124866728Y-121700369D01*
X124876584Y-121691828D01*
X124959404Y-121627367D01*
X124959407Y-121627364D01*
X125127767Y-121444478D01*
X125263732Y-121236367D01*
X125363588Y-121008716D01*
X125424040Y-120770000D01*
X124373012Y-120770000D01*
X124405925Y-120712993D01*
X124440000Y-120585826D01*
X124440000Y-120454174D01*
X124405925Y-120327007D01*
X124373012Y-120270000D01*
X125424040Y-120270000D01*
X125363588Y-120031283D01*
X125263732Y-119803632D01*
X125127767Y-119595521D01*
X124959407Y-119412635D01*
X124959397Y-119412626D01*
X124876584Y-119348170D01*
X124835771Y-119291460D01*
X124832096Y-119221687D01*
X124866728Y-119161004D01*
X124876571Y-119152473D01*
X124959744Y-119087738D01*
X125010144Y-119032989D01*
X125021626Y-119020517D01*
X125081513Y-118984526D01*
X125112855Y-118980500D01*
X129054218Y-118980500D01*
X129121257Y-119000185D01*
G37*
%TD.AperFunction*%
%TA.AperFunction,Conductor*%
G36*
X120123348Y-101012568D02*
G01*
X120163884Y-101051389D01*
X120211833Y-101124782D01*
X120211836Y-101124785D01*
X120380256Y-101307738D01*
X120463008Y-101372147D01*
X120503821Y-101428857D01*
X120507496Y-101498630D01*
X120472864Y-101559313D01*
X120463014Y-101567848D01*
X120448908Y-101578828D01*
X120380257Y-101632261D01*
X120211833Y-101815217D01*
X120075826Y-102023393D01*
X119975936Y-102251118D01*
X119914892Y-102492175D01*
X119914890Y-102492187D01*
X119894357Y-102739994D01*
X119894357Y-102740005D01*
X119914890Y-102987812D01*
X119914892Y-102987824D01*
X119975936Y-103228881D01*
X120075826Y-103456606D01*
X120211833Y-103664782D01*
X120211836Y-103664785D01*
X120380256Y-103847738D01*
X120463008Y-103912147D01*
X120503821Y-103968857D01*
X120507496Y-104038630D01*
X120472864Y-104099313D01*
X120463014Y-104107848D01*
X120404400Y-104153469D01*
X120380257Y-104172261D01*
X120211833Y-104355217D01*
X120075826Y-104563393D01*
X119975936Y-104791118D01*
X119914892Y-105032175D01*
X119914890Y-105032187D01*
X119894357Y-105279994D01*
X119894357Y-105280005D01*
X119914890Y-105527812D01*
X119914892Y-105527824D01*
X119975936Y-105768881D01*
X120075826Y-105996606D01*
X120211833Y-106204782D01*
X120211836Y-106204785D01*
X120380256Y-106387738D01*
X120463008Y-106452147D01*
X120503821Y-106508857D01*
X120507496Y-106578630D01*
X120472864Y-106639313D01*
X120463014Y-106647848D01*
X120404400Y-106693469D01*
X120380257Y-106712261D01*
X120211833Y-106895217D01*
X120075826Y-107103393D01*
X119975936Y-107331118D01*
X119914892Y-107572175D01*
X119914890Y-107572187D01*
X119894357Y-107819994D01*
X119894357Y-107820005D01*
X119914890Y-108067812D01*
X119914892Y-108067824D01*
X119975936Y-108308881D01*
X120075826Y-108536606D01*
X120211833Y-108744782D01*
X120240560Y-108775987D01*
X120380256Y-108927738D01*
X120380259Y-108927740D01*
X120380262Y-108927743D01*
X120463415Y-108992464D01*
X120504228Y-109049174D01*
X120507903Y-109118947D01*
X120473271Y-109179630D01*
X120463416Y-109188170D01*
X120380597Y-109252630D01*
X120380592Y-109252635D01*
X120212232Y-109435521D01*
X120076267Y-109643632D01*
X119976411Y-109871283D01*
X119915960Y-110110000D01*
X120966988Y-110110000D01*
X120934075Y-110167007D01*
X120900000Y-110294174D01*
X120900000Y-110425826D01*
X120934075Y-110552993D01*
X120966988Y-110610000D01*
X119915960Y-110610000D01*
X119976411Y-110848716D01*
X120076267Y-111076367D01*
X120212232Y-111284478D01*
X120380592Y-111467364D01*
X120380595Y-111467367D01*
X120463415Y-111531828D01*
X120504228Y-111588539D01*
X120507903Y-111658312D01*
X120473272Y-111718995D01*
X120463416Y-111727535D01*
X120380258Y-111792260D01*
X120211833Y-111975217D01*
X120075827Y-112183391D01*
X119990940Y-112376913D01*
X119945983Y-112430398D01*
X119879247Y-112451088D01*
X119811919Y-112432413D01*
X119789703Y-112414783D01*
X119741479Y-112366559D01*
X119741459Y-112366537D01*
X119597785Y-112222863D01*
X119597781Y-112222860D01*
X119433920Y-112113371D01*
X119433911Y-112113366D01*
X119350683Y-112078892D01*
X119305165Y-112060038D01*
X119278500Y-112048993D01*
X119251837Y-112037949D01*
X119251833Y-112037948D01*
X119128259Y-112013368D01*
X119058543Y-111999500D01*
X119058541Y-111999500D01*
X114641459Y-111999500D01*
X114641454Y-111999500D01*
X114609391Y-112005876D01*
X114609392Y-112005877D01*
X114448170Y-112037946D01*
X114448164Y-112037948D01*
X114266088Y-112113366D01*
X114266079Y-112113371D01*
X114102219Y-112222859D01*
X114102215Y-112222862D01*
X113566968Y-112758110D01*
X113505645Y-112791595D01*
X113435953Y-112786611D01*
X113380020Y-112744739D01*
X113355603Y-112679275D01*
X113365731Y-112620619D01*
X113423588Y-112488717D01*
X113484612Y-112247738D01*
X113484614Y-112247729D01*
X113505141Y-112000005D01*
X113505141Y-111999994D01*
X113484614Y-111752270D01*
X113484612Y-111752261D01*
X113423587Y-111511282D01*
X113323731Y-111283630D01*
X113223434Y-111130116D01*
X112482962Y-111870589D01*
X112465925Y-111807007D01*
X112400099Y-111692993D01*
X112307007Y-111599901D01*
X112192993Y-111534075D01*
X112129410Y-111517037D01*
X112870057Y-110776390D01*
X112870056Y-110776389D01*
X112823229Y-110739943D01*
X112604614Y-110621635D01*
X112604603Y-110621630D01*
X112369493Y-110540916D01*
X112124293Y-110500000D01*
X111875707Y-110500000D01*
X111630506Y-110540916D01*
X111395396Y-110621630D01*
X111395390Y-110621632D01*
X111176761Y-110739949D01*
X111129942Y-110776388D01*
X111129942Y-110776390D01*
X111870590Y-111517037D01*
X111807007Y-111534075D01*
X111692993Y-111599901D01*
X111599901Y-111692993D01*
X111534075Y-111807007D01*
X111517037Y-111870589D01*
X110776564Y-111130116D01*
X110676267Y-111283632D01*
X110576412Y-111511282D01*
X110515387Y-111752261D01*
X110515385Y-111752270D01*
X110494859Y-111999994D01*
X110494859Y-112000005D01*
X110515385Y-112247729D01*
X110515387Y-112247738D01*
X110576412Y-112488717D01*
X110676266Y-112716364D01*
X110776564Y-112869882D01*
X111517037Y-112129409D01*
X111534075Y-112192993D01*
X111599901Y-112307007D01*
X111692993Y-112400099D01*
X111807007Y-112465925D01*
X111870590Y-112482962D01*
X111129942Y-113223609D01*
X111176768Y-113260055D01*
X111176770Y-113260056D01*
X111395385Y-113378364D01*
X111395396Y-113378369D01*
X111630506Y-113459083D01*
X111875707Y-113500000D01*
X112124293Y-113500000D01*
X112369493Y-113459083D01*
X112604603Y-113378369D01*
X112609311Y-113376305D01*
X112610120Y-113378151D01*
X112669987Y-113365340D01*
X112735368Y-113389977D01*
X112777050Y-113446052D01*
X112781800Y-113515760D01*
X112748404Y-113576674D01*
X111861899Y-114463181D01*
X111800576Y-114496666D01*
X111774218Y-114499500D01*
X111615665Y-114499500D01*
X111370383Y-114540429D01*
X111135197Y-114621169D01*
X111135188Y-114621172D01*
X110916493Y-114739524D01*
X110720255Y-114892262D01*
X110720252Y-114892265D01*
X110560889Y-115065379D01*
X110501002Y-115101370D01*
X110431164Y-115099269D01*
X110378431Y-115065379D01*
X110219407Y-114892635D01*
X110219397Y-114892626D01*
X110023237Y-114739948D01*
X110023228Y-114739942D01*
X109804614Y-114621635D01*
X109804603Y-114621630D01*
X109569492Y-114540916D01*
X109450000Y-114520976D01*
X109450000Y-115566988D01*
X109392993Y-115534075D01*
X109265826Y-115500000D01*
X109134174Y-115500000D01*
X109007007Y-115534075D01*
X108950000Y-115566988D01*
X108950000Y-114520976D01*
X108949999Y-114520976D01*
X108830507Y-114540916D01*
X108595396Y-114621630D01*
X108595385Y-114621635D01*
X108376771Y-114739942D01*
X108376762Y-114739948D01*
X108180602Y-114892626D01*
X108180598Y-114892630D01*
X108021568Y-115065380D01*
X107961681Y-115101370D01*
X107891843Y-115099269D01*
X107839109Y-115065379D01*
X107815655Y-115039901D01*
X107679744Y-114892262D01*
X107548337Y-114789983D01*
X107507524Y-114733273D01*
X107500500Y-114692130D01*
X107500500Y-113672889D01*
X107520185Y-113605850D01*
X107536819Y-113585208D01*
X107756687Y-113365340D01*
X107989702Y-113132324D01*
X108001203Y-113122167D01*
X108019744Y-113107738D01*
X108081223Y-113040952D01*
X108084723Y-113037303D01*
X108144518Y-112977510D01*
X108158612Y-112958110D01*
X108167693Y-112947020D01*
X108188164Y-112924785D01*
X108234158Y-112854383D01*
X108237590Y-112849404D01*
X108283343Y-112786433D01*
X108297285Y-112759066D01*
X108303962Y-112747541D01*
X108324171Y-112716610D01*
X108324173Y-112716607D01*
X108355240Y-112645777D01*
X108358286Y-112639345D01*
X108390568Y-112575992D01*
X108402136Y-112540383D01*
X108406513Y-112528890D01*
X108419185Y-112500000D01*
X108424063Y-112488881D01*
X108441397Y-112420428D01*
X108443661Y-112412587D01*
X108463553Y-112351368D01*
X108470466Y-112307714D01*
X108472724Y-112296720D01*
X108485108Y-112247821D01*
X108490385Y-112184129D01*
X108491483Y-112175015D01*
X108500500Y-112118091D01*
X108500500Y-112067189D01*
X108500924Y-112056948D01*
X108505643Y-112000004D01*
X108505643Y-111999995D01*
X108500924Y-111943050D01*
X108500500Y-111932809D01*
X108500500Y-111881909D01*
X108491486Y-111825002D01*
X108490382Y-111815841D01*
X108489650Y-111807007D01*
X108485108Y-111752179D01*
X108472724Y-111703279D01*
X108470462Y-111692260D01*
X108467067Y-111670825D01*
X108463553Y-111648631D01*
X108462843Y-111646447D01*
X108443668Y-111587431D01*
X108441394Y-111579554D01*
X108427414Y-111524350D01*
X108429687Y-111455592D01*
X108463553Y-111351369D01*
X108498596Y-111130116D01*
X108500500Y-111118097D01*
X108500500Y-110881902D01*
X108463553Y-110648631D01*
X108410710Y-110486000D01*
X108390568Y-110424008D01*
X108390566Y-110424005D01*
X108390566Y-110424003D01*
X108324414Y-110294174D01*
X108283343Y-110213567D01*
X108260764Y-110182489D01*
X108184182Y-110077082D01*
X108160702Y-110011276D01*
X108160500Y-110004197D01*
X108160500Y-109345372D01*
X108180185Y-109278333D01*
X108232989Y-109232578D01*
X108302147Y-109222634D01*
X108360665Y-109247521D01*
X108376766Y-109260053D01*
X108376771Y-109260057D01*
X108595385Y-109378364D01*
X108595396Y-109378369D01*
X108830507Y-109459083D01*
X108949999Y-109479023D01*
X108950000Y-109479022D01*
X108950000Y-108433012D01*
X109007007Y-108465925D01*
X109134174Y-108500000D01*
X109265826Y-108500000D01*
X109392993Y-108465925D01*
X109450000Y-108433012D01*
X109450000Y-109479023D01*
X109569492Y-109459083D01*
X109804603Y-109378369D01*
X109804614Y-109378364D01*
X110023228Y-109260057D01*
X110023237Y-109260051D01*
X110219397Y-109107373D01*
X110219401Y-109107370D01*
X110378430Y-108934620D01*
X110438318Y-108898629D01*
X110508156Y-108900730D01*
X110560889Y-108934619D01*
X110720256Y-109107738D01*
X110916491Y-109260474D01*
X110916493Y-109260475D01*
X111134332Y-109378364D01*
X111135190Y-109378828D01*
X111300331Y-109435521D01*
X111368964Y-109459083D01*
X111370386Y-109459571D01*
X111615665Y-109500500D01*
X111864335Y-109500500D01*
X112109614Y-109459571D01*
X112344810Y-109378828D01*
X112563509Y-109260474D01*
X112759744Y-109107738D01*
X112918771Y-108934988D01*
X112978657Y-108898999D01*
X113048495Y-108901099D01*
X113101228Y-108934988D01*
X113260256Y-109107738D01*
X113456491Y-109260474D01*
X113456493Y-109260475D01*
X113674332Y-109378364D01*
X113675190Y-109378828D01*
X113840331Y-109435521D01*
X113908964Y-109459083D01*
X113910386Y-109459571D01*
X114155665Y-109500500D01*
X114404335Y-109500500D01*
X114649614Y-109459571D01*
X114884810Y-109378828D01*
X115103509Y-109260474D01*
X115299744Y-109107738D01*
X115468164Y-108924785D01*
X115604173Y-108716607D01*
X115704063Y-108488881D01*
X115765108Y-108247821D01*
X115771005Y-108176657D01*
X115785643Y-108000005D01*
X115785643Y-107999994D01*
X115765109Y-107752187D01*
X115765107Y-107752175D01*
X115704063Y-107511118D01*
X115604173Y-107283393D01*
X115468166Y-107075217D01*
X115417771Y-107020474D01*
X115299744Y-106892262D01*
X115103509Y-106739526D01*
X115103507Y-106739525D01*
X115103506Y-106739524D01*
X114884811Y-106621172D01*
X114884802Y-106621169D01*
X114811348Y-106595952D01*
X114754333Y-106555567D01*
X114728202Y-106490767D01*
X114741253Y-106422127D01*
X114763930Y-106390990D01*
X117220747Y-103934174D01*
X119777139Y-101377782D01*
X119799116Y-101344890D01*
X119842188Y-101280430D01*
X119842188Y-101280429D01*
X119886632Y-101213914D01*
X119886633Y-101213910D01*
X119886635Y-101213908D01*
X119930762Y-101107373D01*
X119945514Y-101071756D01*
X119989354Y-101017354D01*
X120055648Y-100995289D01*
X120123348Y-101012568D01*
G37*
%TD.AperFunction*%
%TA.AperFunction,Conductor*%
G36*
X117967002Y-97129704D02*
G01*
X117997721Y-97192459D01*
X117999500Y-97213391D01*
X117999500Y-100274217D01*
X117979815Y-100341256D01*
X117963181Y-100361898D01*
X111861899Y-106463181D01*
X111800576Y-106496666D01*
X111774218Y-106499500D01*
X111615665Y-106499500D01*
X111370383Y-106540429D01*
X111135197Y-106621169D01*
X111135188Y-106621172D01*
X110916493Y-106739524D01*
X110720255Y-106892262D01*
X110720252Y-106892265D01*
X110560889Y-107065379D01*
X110501002Y-107101370D01*
X110431164Y-107099269D01*
X110378431Y-107065379D01*
X110219407Y-106892635D01*
X110219397Y-106892626D01*
X110023237Y-106739948D01*
X110023228Y-106739942D01*
X109804614Y-106621635D01*
X109804603Y-106621630D01*
X109569492Y-106540916D01*
X109450000Y-106520976D01*
X109450000Y-107566988D01*
X109392993Y-107534075D01*
X109265826Y-107500000D01*
X109134174Y-107500000D01*
X109007007Y-107534075D01*
X108950000Y-107566988D01*
X108950000Y-106520976D01*
X108949999Y-106520976D01*
X108830507Y-106540916D01*
X108595396Y-106621630D01*
X108595385Y-106621635D01*
X108376771Y-106739942D01*
X108376769Y-106739943D01*
X108360662Y-106752481D01*
X108295668Y-106778123D01*
X108227128Y-106764556D01*
X108176803Y-106716088D01*
X108160500Y-106654627D01*
X108160500Y-104041902D01*
X108153862Y-103999994D01*
X109994859Y-103999994D01*
X109994859Y-104000005D01*
X110015385Y-104247729D01*
X110015387Y-104247738D01*
X110076412Y-104488717D01*
X110176266Y-104716364D01*
X110276564Y-104869882D01*
X111017037Y-104129409D01*
X111034075Y-104192993D01*
X111099901Y-104307007D01*
X111192993Y-104400099D01*
X111307007Y-104465925D01*
X111370590Y-104482962D01*
X110629942Y-105223609D01*
X110676768Y-105260055D01*
X110676770Y-105260056D01*
X110895385Y-105378364D01*
X110895396Y-105378369D01*
X111130506Y-105459083D01*
X111375707Y-105500000D01*
X111624293Y-105500000D01*
X111869493Y-105459083D01*
X112104603Y-105378369D01*
X112104614Y-105378364D01*
X112323228Y-105260057D01*
X112323231Y-105260055D01*
X112370056Y-105223609D01*
X111629409Y-104482962D01*
X111692993Y-104465925D01*
X111807007Y-104400099D01*
X111900099Y-104307007D01*
X111965925Y-104192993D01*
X111982962Y-104129410D01*
X112723434Y-104869882D01*
X112823731Y-104716369D01*
X112923587Y-104488717D01*
X112984612Y-104247738D01*
X112984614Y-104247729D01*
X113005141Y-104000005D01*
X113005141Y-103999994D01*
X112984614Y-103752270D01*
X112984612Y-103752261D01*
X112923587Y-103511282D01*
X112823731Y-103283630D01*
X112723434Y-103130116D01*
X111982962Y-103870589D01*
X111965925Y-103807007D01*
X111900099Y-103692993D01*
X111807007Y-103599901D01*
X111692993Y-103534075D01*
X111629410Y-103517037D01*
X112370057Y-102776390D01*
X112370056Y-102776389D01*
X112323229Y-102739943D01*
X112104614Y-102621635D01*
X112104603Y-102621630D01*
X111869493Y-102540916D01*
X111624293Y-102500000D01*
X111375707Y-102500000D01*
X111130506Y-102540916D01*
X110895396Y-102621630D01*
X110895390Y-102621632D01*
X110676761Y-102739949D01*
X110629942Y-102776388D01*
X110629942Y-102776390D01*
X111370590Y-103517037D01*
X111307007Y-103534075D01*
X111192993Y-103599901D01*
X111099901Y-103692993D01*
X111034075Y-103807007D01*
X111017037Y-103870589D01*
X110276564Y-103130116D01*
X110176267Y-103283632D01*
X110076412Y-103511282D01*
X110015387Y-103752261D01*
X110015385Y-103752270D01*
X109994859Y-103999994D01*
X108153862Y-103999994D01*
X108123553Y-103808631D01*
X108068315Y-103638629D01*
X108050568Y-103584008D01*
X108050566Y-103584005D01*
X108050566Y-103584003D01*
X107943342Y-103373566D01*
X107904182Y-103319667D01*
X107880702Y-103253860D01*
X107880500Y-103246781D01*
X107880500Y-101345372D01*
X107900185Y-101278333D01*
X107952989Y-101232578D01*
X108022147Y-101222634D01*
X108080665Y-101247521D01*
X108096766Y-101260053D01*
X108096771Y-101260057D01*
X108315385Y-101378364D01*
X108315396Y-101378369D01*
X108550507Y-101459083D01*
X108669999Y-101479023D01*
X108670000Y-101479022D01*
X108670000Y-100433012D01*
X108727007Y-100465925D01*
X108854174Y-100500000D01*
X108985826Y-100500000D01*
X109112993Y-100465925D01*
X109170000Y-100433012D01*
X109170000Y-101479023D01*
X109289492Y-101459083D01*
X109524603Y-101378369D01*
X109524614Y-101378364D01*
X109743228Y-101260057D01*
X109743237Y-101260051D01*
X109939397Y-101107373D01*
X109939401Y-101107370D01*
X110098430Y-100934620D01*
X110158318Y-100898629D01*
X110228156Y-100900730D01*
X110280889Y-100934619D01*
X110440256Y-101107738D01*
X110636491Y-101260474D01*
X110723827Y-101307738D01*
X110854332Y-101378364D01*
X110855190Y-101378828D01*
X111074141Y-101453994D01*
X111088964Y-101459083D01*
X111090386Y-101459571D01*
X111335665Y-101500500D01*
X111584335Y-101500500D01*
X111829614Y-101459571D01*
X112064810Y-101378828D01*
X112283509Y-101260474D01*
X112479744Y-101107738D01*
X112638771Y-100934988D01*
X112698657Y-100898999D01*
X112768495Y-100901099D01*
X112821228Y-100934988D01*
X112980256Y-101107738D01*
X113176491Y-101260474D01*
X113263827Y-101307738D01*
X113394332Y-101378364D01*
X113395190Y-101378828D01*
X113614141Y-101453994D01*
X113628964Y-101459083D01*
X113630386Y-101459571D01*
X113875665Y-101500500D01*
X114124335Y-101500500D01*
X114369614Y-101459571D01*
X114604810Y-101378828D01*
X114823509Y-101260474D01*
X115019744Y-101107738D01*
X115188164Y-100924785D01*
X115324173Y-100716607D01*
X115424063Y-100488881D01*
X115485108Y-100247821D01*
X115500500Y-100062066D01*
X115505643Y-100000005D01*
X115505643Y-99999994D01*
X115485109Y-99752187D01*
X115485107Y-99752175D01*
X115424063Y-99511118D01*
X115333596Y-99304875D01*
X115324173Y-99283393D01*
X115264672Y-99192320D01*
X115244486Y-99125432D01*
X115263666Y-99058246D01*
X115316124Y-99012096D01*
X115368482Y-99000500D01*
X115598542Y-99000500D01*
X115617870Y-98996655D01*
X115695188Y-98981275D01*
X115791836Y-98962051D01*
X115846216Y-98939526D01*
X115846217Y-98939526D01*
X115973907Y-98886635D01*
X115973907Y-98886634D01*
X115973914Y-98886632D01*
X116137782Y-98777139D01*
X116277139Y-98637782D01*
X116277139Y-98637780D01*
X116287347Y-98627573D01*
X116287348Y-98627570D01*
X117777139Y-97137782D01*
X117777145Y-97137772D01*
X117779643Y-97134730D01*
X117781365Y-97133556D01*
X117781447Y-97133475D01*
X117781462Y-97133490D01*
X117837387Y-97095393D01*
X117907232Y-97093520D01*
X117967002Y-97129704D01*
G37*
%TD.AperFunction*%
%TA.AperFunction,Conductor*%
G36*
X112692256Y-97140185D02*
G01*
X112738011Y-97192989D01*
X112747955Y-97262147D01*
X112718930Y-97325703D01*
X112712898Y-97332181D01*
X112682858Y-97362221D01*
X111581899Y-98463181D01*
X111520576Y-98496666D01*
X111494218Y-98499500D01*
X111335665Y-98499500D01*
X111090383Y-98540429D01*
X110855197Y-98621169D01*
X110855188Y-98621172D01*
X110636493Y-98739524D01*
X110440255Y-98892262D01*
X110440252Y-98892265D01*
X110280889Y-99065379D01*
X110221002Y-99101370D01*
X110151164Y-99099269D01*
X110098431Y-99065379D01*
X109939407Y-98892635D01*
X109939397Y-98892626D01*
X109743237Y-98739948D01*
X109743228Y-98739942D01*
X109524614Y-98621635D01*
X109524603Y-98621630D01*
X109289492Y-98540916D01*
X109170000Y-98520976D01*
X109170000Y-99566988D01*
X109112993Y-99534075D01*
X108985826Y-99500000D01*
X108854174Y-99500000D01*
X108727007Y-99534075D01*
X108670000Y-99566988D01*
X108670000Y-98520976D01*
X108669999Y-98520976D01*
X108550507Y-98540916D01*
X108315396Y-98621630D01*
X108315385Y-98621635D01*
X108096771Y-98739942D01*
X108096769Y-98739943D01*
X108080662Y-98752481D01*
X108015668Y-98778123D01*
X107947128Y-98764556D01*
X107896803Y-98716088D01*
X107880500Y-98654627D01*
X107880500Y-97832889D01*
X107900185Y-97765850D01*
X107916819Y-97745208D01*
X108505208Y-97156819D01*
X108566531Y-97123334D01*
X108592889Y-97120500D01*
X112625217Y-97120500D01*
X112692256Y-97140185D01*
G37*
%TD.AperFunction*%
%TA.AperFunction,Conductor*%
G36*
X110981257Y-91480185D02*
G01*
X111001899Y-91496819D01*
X112460657Y-92955577D01*
X112494142Y-93016900D01*
X112496553Y-93053495D01*
X112494357Y-93080002D01*
X112494357Y-93080005D01*
X112514890Y-93327812D01*
X112514892Y-93327824D01*
X112575936Y-93568881D01*
X112675826Y-93796606D01*
X112761460Y-93927679D01*
X112781647Y-93994568D01*
X112762467Y-94061754D01*
X112710009Y-94107904D01*
X112657651Y-94119500D01*
X109289485Y-94119500D01*
X109222446Y-94099815D01*
X109176691Y-94047011D01*
X109166747Y-93977853D01*
X109185676Y-93927678D01*
X109323733Y-93716364D01*
X109423588Y-93488716D01*
X109484040Y-93250000D01*
X108433012Y-93250000D01*
X108465925Y-93192993D01*
X108500000Y-93065826D01*
X108500000Y-92934174D01*
X108465925Y-92807007D01*
X108433012Y-92750000D01*
X109484040Y-92750000D01*
X109423588Y-92511283D01*
X109323732Y-92283632D01*
X109187767Y-92075521D01*
X109019407Y-91892635D01*
X109019397Y-91892626D01*
X108936584Y-91828170D01*
X108895771Y-91771460D01*
X108892096Y-91701687D01*
X108926728Y-91641004D01*
X108936571Y-91632473D01*
X109019744Y-91567738D01*
X109053964Y-91530565D01*
X109081626Y-91500517D01*
X109141513Y-91464526D01*
X109172855Y-91460500D01*
X110914218Y-91460500D01*
X110981257Y-91480185D01*
G37*
%TD.AperFunction*%
%TA.AperFunction,Conductor*%
G36*
X117914150Y-78520185D02*
G01*
X117934792Y-78536819D01*
X119863181Y-80465208D01*
X119896666Y-80526531D01*
X119899500Y-80552889D01*
X119899500Y-80927869D01*
X119899501Y-80927876D01*
X119905908Y-80987483D01*
X119956202Y-81122328D01*
X119956206Y-81122335D01*
X120042452Y-81237544D01*
X120042455Y-81237547D01*
X120157664Y-81323793D01*
X120162361Y-81326358D01*
X120211766Y-81375764D01*
X120226617Y-81444037D01*
X120206742Y-81503011D01*
X120075826Y-81703393D01*
X119975936Y-81931118D01*
X119914892Y-82172175D01*
X119914890Y-82172187D01*
X119894357Y-82419994D01*
X119894357Y-82420000D01*
X119896553Y-82446500D01*
X119882471Y-82514936D01*
X119860657Y-82544420D01*
X117214764Y-85190315D01*
X116362220Y-86042859D01*
X116362218Y-86042861D01*
X116310988Y-86094091D01*
X116222859Y-86182219D01*
X116113371Y-86346080D01*
X116113364Y-86346093D01*
X116082930Y-86419570D01*
X116082930Y-86419571D01*
X116037948Y-86528165D01*
X116037946Y-86528170D01*
X116028046Y-86577947D01*
X115999500Y-86721455D01*
X115999500Y-87074216D01*
X115979815Y-87141255D01*
X115963181Y-87161897D01*
X115610295Y-87514782D01*
X115548972Y-87548267D01*
X115479280Y-87543283D01*
X115423347Y-87501411D01*
X115409058Y-87476911D01*
X115324173Y-87283393D01*
X115188166Y-87075217D01*
X115149637Y-87033364D01*
X115019744Y-86892262D01*
X114936991Y-86827852D01*
X114896179Y-86771143D01*
X114892504Y-86701370D01*
X114927136Y-86640687D01*
X114936985Y-86632151D01*
X115019744Y-86567738D01*
X115188164Y-86384785D01*
X115324173Y-86176607D01*
X115424063Y-85948881D01*
X115485108Y-85707821D01*
X115485136Y-85707483D01*
X115505643Y-85460005D01*
X115505643Y-85459994D01*
X115485109Y-85212187D01*
X115485107Y-85212175D01*
X115424063Y-84971118D01*
X115324173Y-84743393D01*
X115188166Y-84535217D01*
X115129310Y-84471283D01*
X115019744Y-84352262D01*
X114936991Y-84287852D01*
X114896179Y-84231143D01*
X114892504Y-84161370D01*
X114927136Y-84100687D01*
X114936985Y-84092151D01*
X115019744Y-84027738D01*
X115188164Y-83844785D01*
X115324173Y-83636607D01*
X115424063Y-83408881D01*
X115485108Y-83167821D01*
X115488935Y-83121635D01*
X115505643Y-82920005D01*
X115505643Y-82919994D01*
X115485109Y-82672187D01*
X115485107Y-82672175D01*
X115424063Y-82431118D01*
X115324173Y-82203393D01*
X115188166Y-81995217D01*
X115167860Y-81973159D01*
X115019744Y-81812262D01*
X114936583Y-81747535D01*
X114895770Y-81690825D01*
X114892096Y-81621052D01*
X114926728Y-81560369D01*
X114936584Y-81551828D01*
X115019404Y-81487367D01*
X115019407Y-81487364D01*
X115187767Y-81304478D01*
X115323732Y-81096367D01*
X115423588Y-80868716D01*
X115484040Y-80630000D01*
X114433012Y-80630000D01*
X114465925Y-80572993D01*
X114500000Y-80445826D01*
X114500000Y-80314174D01*
X114465925Y-80187007D01*
X114433012Y-80130000D01*
X115484040Y-80130000D01*
X115423588Y-79891283D01*
X115323732Y-79663632D01*
X115187767Y-79455521D01*
X115019407Y-79272635D01*
X115019397Y-79272626D01*
X114823237Y-79119948D01*
X114823228Y-79119942D01*
X114604614Y-79001635D01*
X114604603Y-79001630D01*
X114369492Y-78920916D01*
X114250000Y-78900976D01*
X114250000Y-79946988D01*
X114192993Y-79914075D01*
X114065826Y-79880000D01*
X113934174Y-79880000D01*
X113807007Y-79914075D01*
X113750000Y-79946988D01*
X113750000Y-78900976D01*
X113749999Y-78900976D01*
X113630507Y-78920916D01*
X113395396Y-79001630D01*
X113395385Y-79001635D01*
X113176771Y-79119942D01*
X113176762Y-79119948D01*
X112980602Y-79272626D01*
X112980592Y-79272635D01*
X112812232Y-79455521D01*
X112676267Y-79663632D01*
X112576411Y-79891283D01*
X112515960Y-80130000D01*
X113566988Y-80130000D01*
X113534075Y-80187007D01*
X113500000Y-80314174D01*
X113500000Y-80445826D01*
X113534075Y-80572993D01*
X113566988Y-80630000D01*
X112515960Y-80630000D01*
X112576411Y-80868716D01*
X112676267Y-81096367D01*
X112812232Y-81304478D01*
X112980592Y-81487364D01*
X112980595Y-81487367D01*
X113063415Y-81551828D01*
X113104228Y-81608539D01*
X113107903Y-81678312D01*
X113073272Y-81738995D01*
X113063416Y-81747535D01*
X112980258Y-81812260D01*
X112811833Y-81995217D01*
X112675826Y-82203393D01*
X112575936Y-82431118D01*
X112514892Y-82672175D01*
X112514890Y-82672187D01*
X112494357Y-82919994D01*
X112494357Y-82920005D01*
X112514890Y-83167812D01*
X112514892Y-83167824D01*
X112575936Y-83408881D01*
X112675826Y-83636606D01*
X112811833Y-83844782D01*
X112811836Y-83844785D01*
X112980256Y-84027738D01*
X113063008Y-84092147D01*
X113103821Y-84148857D01*
X113107496Y-84218630D01*
X113072864Y-84279313D01*
X113063014Y-84287848D01*
X113038400Y-84307007D01*
X112980257Y-84352261D01*
X112811833Y-84535217D01*
X112675826Y-84743393D01*
X112575936Y-84971118D01*
X112514892Y-85212175D01*
X112514890Y-85212187D01*
X112494357Y-85459994D01*
X112494357Y-85460005D01*
X112514890Y-85707812D01*
X112514892Y-85707824D01*
X112575936Y-85948881D01*
X112675826Y-86176606D01*
X112811833Y-86384782D01*
X112811836Y-86384785D01*
X112980256Y-86567738D01*
X113063008Y-86632147D01*
X113103821Y-86688857D01*
X113107496Y-86758630D01*
X113072864Y-86819313D01*
X113063014Y-86827848D01*
X113004400Y-86873469D01*
X112980257Y-86892261D01*
X112811833Y-87075217D01*
X112675827Y-87283391D01*
X112590940Y-87476913D01*
X112545983Y-87530398D01*
X112479247Y-87551088D01*
X112411919Y-87532413D01*
X112389703Y-87514783D01*
X112164209Y-87289289D01*
X112164206Y-87289285D01*
X112164206Y-87289286D01*
X112157139Y-87282219D01*
X112157139Y-87282218D01*
X112017782Y-87142861D01*
X112017781Y-87142860D01*
X112017780Y-87142859D01*
X111853920Y-87033371D01*
X111853907Y-87033364D01*
X111719060Y-86977510D01*
X111671836Y-86957949D01*
X111671828Y-86957947D01*
X111575188Y-86938724D01*
X111478544Y-86919500D01*
X111478541Y-86919500D01*
X109172855Y-86919500D01*
X109105816Y-86899815D01*
X109081626Y-86879483D01*
X109019747Y-86812265D01*
X109019744Y-86812262D01*
X108861193Y-86688857D01*
X108823509Y-86659526D01*
X108823507Y-86659525D01*
X108823506Y-86659524D01*
X108604811Y-86541172D01*
X108604802Y-86541169D01*
X108369616Y-86460429D01*
X108124335Y-86419500D01*
X107875665Y-86419500D01*
X107630383Y-86460429D01*
X107395197Y-86541169D01*
X107395188Y-86541172D01*
X107176493Y-86659524D01*
X106980257Y-86812261D01*
X106811836Y-86995215D01*
X106728309Y-87123063D01*
X106675162Y-87168419D01*
X106605931Y-87177843D01*
X106542595Y-87148341D01*
X106505264Y-87089281D01*
X106500500Y-87055241D01*
X106500500Y-85363843D01*
X106520185Y-85296804D01*
X106572989Y-85251049D01*
X106642147Y-85241105D01*
X106705703Y-85270130D01*
X106728309Y-85296022D01*
X106776564Y-85369882D01*
X107517037Y-84629409D01*
X107534075Y-84692993D01*
X107599901Y-84807007D01*
X107692993Y-84900099D01*
X107807007Y-84965925D01*
X107870590Y-84982962D01*
X107129942Y-85723609D01*
X107176768Y-85760055D01*
X107176770Y-85760056D01*
X107395385Y-85878364D01*
X107395396Y-85878369D01*
X107630506Y-85959083D01*
X107875707Y-86000000D01*
X108124293Y-86000000D01*
X108369493Y-85959083D01*
X108604603Y-85878369D01*
X108604614Y-85878364D01*
X108823228Y-85760057D01*
X108823231Y-85760055D01*
X108870056Y-85723609D01*
X108129409Y-84982962D01*
X108192993Y-84965925D01*
X108307007Y-84900099D01*
X108400099Y-84807007D01*
X108465925Y-84692993D01*
X108482962Y-84629409D01*
X109223434Y-85369882D01*
X109323731Y-85216369D01*
X109423587Y-84988717D01*
X109484612Y-84747738D01*
X109484614Y-84747729D01*
X109505141Y-84500005D01*
X109505141Y-84499994D01*
X109484614Y-84252270D01*
X109484612Y-84252261D01*
X109423587Y-84011282D01*
X109323731Y-83783630D01*
X109223434Y-83630116D01*
X108482962Y-84370589D01*
X108465925Y-84307007D01*
X108400099Y-84192993D01*
X108307007Y-84099901D01*
X108192993Y-84034075D01*
X108129410Y-84017037D01*
X108870057Y-83276390D01*
X108870056Y-83276389D01*
X108823229Y-83239943D01*
X108604614Y-83121635D01*
X108604603Y-83121630D01*
X108369493Y-83040916D01*
X108124293Y-83000000D01*
X107875707Y-83000000D01*
X107630506Y-83040916D01*
X107395396Y-83121630D01*
X107395390Y-83121632D01*
X107176761Y-83239949D01*
X107129942Y-83276388D01*
X107129942Y-83276390D01*
X107870590Y-84017037D01*
X107807007Y-84034075D01*
X107692993Y-84099901D01*
X107599901Y-84192993D01*
X107534075Y-84307007D01*
X107517037Y-84370589D01*
X106776564Y-83630116D01*
X106728309Y-83703977D01*
X106675162Y-83749333D01*
X106605931Y-83758757D01*
X106542595Y-83729255D01*
X106505264Y-83670194D01*
X106500500Y-83636155D01*
X106500500Y-80370551D01*
X106520185Y-80303512D01*
X106572989Y-80257757D01*
X106642147Y-80247813D01*
X106705703Y-80276838D01*
X106724815Y-80297662D01*
X106752106Y-80335224D01*
X106762380Y-80349365D01*
X106765870Y-80354429D01*
X106795708Y-80400099D01*
X106811836Y-80424785D01*
X106832309Y-80447025D01*
X106841395Y-80458119D01*
X106855481Y-80477508D01*
X106915216Y-80537243D01*
X106918764Y-80540941D01*
X106980252Y-80607734D01*
X106980256Y-80607738D01*
X106998791Y-80622164D01*
X107010310Y-80632337D01*
X107022490Y-80644517D01*
X107022493Y-80644519D01*
X107096263Y-80698116D01*
X107099527Y-80700570D01*
X107176491Y-80760474D01*
X107191214Y-80768442D01*
X107205079Y-80777176D01*
X107213567Y-80783343D01*
X107300815Y-80827798D01*
X107303503Y-80829209D01*
X107395190Y-80878828D01*
X107404643Y-80882073D01*
X107420673Y-80888869D01*
X107424008Y-80890568D01*
X107513052Y-80919500D01*
X107523517Y-80922900D01*
X107525381Y-80923522D01*
X107630386Y-80959571D01*
X107631166Y-80959701D01*
X107633583Y-80960105D01*
X107643842Y-80962612D01*
X107643890Y-80962415D01*
X107648623Y-80963550D01*
X107648632Y-80963553D01*
X107715387Y-80974125D01*
X107758639Y-80980976D01*
X107759562Y-80981125D01*
X107875665Y-81000500D01*
X107875666Y-81000500D01*
X108124333Y-81000500D01*
X108124335Y-81000500D01*
X108240532Y-80981109D01*
X108241217Y-80980997D01*
X108351368Y-80963553D01*
X108351379Y-80963549D01*
X108356110Y-80962414D01*
X108356157Y-80962612D01*
X108366414Y-80960104D01*
X108369614Y-80959571D01*
X108474688Y-80923497D01*
X108476360Y-80922939D01*
X108575992Y-80890568D01*
X108579321Y-80888871D01*
X108595355Y-80882074D01*
X108597269Y-80881416D01*
X108604810Y-80878828D01*
X108696524Y-80829194D01*
X108699117Y-80827831D01*
X108786433Y-80783343D01*
X108794916Y-80777178D01*
X108808780Y-80768444D01*
X108823509Y-80760474D01*
X108900465Y-80700575D01*
X108903680Y-80698156D01*
X108977510Y-80644517D01*
X108989699Y-80632327D01*
X109001210Y-80622162D01*
X109019744Y-80607738D01*
X109081234Y-80540940D01*
X109084734Y-80537291D01*
X109144517Y-80477510D01*
X109158604Y-80458119D01*
X109167695Y-80447019D01*
X109168793Y-80445826D01*
X109188164Y-80424785D01*
X109234139Y-80354412D01*
X109237611Y-80349374D01*
X109283343Y-80286433D01*
X109297285Y-80259066D01*
X109303962Y-80247541D01*
X109324171Y-80216610D01*
X109324173Y-80216607D01*
X109355240Y-80145777D01*
X109358286Y-80139345D01*
X109390568Y-80075992D01*
X109402136Y-80040383D01*
X109406513Y-80028890D01*
X109415178Y-80009134D01*
X109424063Y-79988881D01*
X109441397Y-79920428D01*
X109443661Y-79912587D01*
X109463553Y-79851368D01*
X109470465Y-79807718D01*
X109472724Y-79796720D01*
X109485108Y-79747821D01*
X109490382Y-79684152D01*
X109491486Y-79674998D01*
X109500500Y-79618090D01*
X109500500Y-79567189D01*
X109500924Y-79556948D01*
X109505643Y-79500004D01*
X109505643Y-79499995D01*
X109500924Y-79443050D01*
X109500500Y-79432809D01*
X109500500Y-78672890D01*
X109520185Y-78605851D01*
X109536820Y-78585208D01*
X109585211Y-78536818D01*
X109646534Y-78503334D01*
X109672891Y-78500500D01*
X117847111Y-78500500D01*
X117914150Y-78520185D01*
G37*
%TD.AperFunction*%
%TD*%
M02*
