%TF.GenerationSoftware,KiCad,Pcbnew,8.0.3*%
%TF.CreationDate,2024-12-13T09:54:43-03:00*%
%TF.ProjectId,eca,6563612e-6b69-4636-9164-5f7063625858,rev?*%
%TF.SameCoordinates,Original*%
%TF.FileFunction,Soldermask,Top*%
%TF.FilePolarity,Negative*%
%FSLAX46Y46*%
G04 Gerber Fmt 4.6, Leading zero omitted, Abs format (unit mm)*
G04 Created by KiCad (PCBNEW 8.0.3) date 2024-12-13 09:54:43*
%MOMM*%
%LPD*%
G01*
G04 APERTURE LIST*
%ADD10O,2.000000X2.000000*%
%ADD11C,2.000000*%
%ADD12R,2.000000X2.000000*%
G04 APERTURE END LIST*
D10*
%TO.C,J4*%
X152800000Y-112000000D03*
X150260000Y-112000000D03*
X147720000Y-112000000D03*
X145180000Y-112000000D03*
%TD*%
D11*
%TO.C,C8*%
X127000000Y-80500000D03*
X127000000Y-75500000D03*
%TD*%
D12*
%TO.C,J1*%
X133460000Y-79140000D03*
D10*
X136000000Y-79140000D03*
X133460000Y-81680000D03*
X136000000Y-81680000D03*
X133460000Y-84220000D03*
X136000000Y-84220000D03*
X133460000Y-86760000D03*
X136000000Y-86760000D03*
X133460000Y-89300000D03*
X136000000Y-89300000D03*
X133460000Y-91840000D03*
X136000000Y-91840000D03*
X133460000Y-94380000D03*
X136000000Y-94380000D03*
X133460000Y-96920000D03*
X136000000Y-96920000D03*
X133460000Y-99460000D03*
X136000000Y-99460000D03*
X133460000Y-102000000D03*
X136000000Y-102000000D03*
X133460000Y-104540000D03*
X136000000Y-104540000D03*
X133460000Y-107080000D03*
X136000000Y-107080000D03*
X133460000Y-109620000D03*
X136000000Y-109620000D03*
X133460000Y-112160000D03*
X136000000Y-112160000D03*
X133460000Y-114700000D03*
X136000000Y-114700000D03*
X133460000Y-117240000D03*
X136000000Y-117240000D03*
X133460000Y-119780000D03*
X136000000Y-119780000D03*
X133460000Y-122320000D03*
X136000000Y-122320000D03*
X133460000Y-124860000D03*
X136000000Y-124860000D03*
X133460000Y-127400000D03*
X136000000Y-127400000D03*
%TD*%
D11*
%TO.C,C7*%
X152500000Y-118000000D03*
X147500000Y-118000000D03*
%TD*%
D12*
%TO.C,J15*%
X105000000Y-121460000D03*
D10*
X105000000Y-124000000D03*
%TD*%
%TO.C,J2*%
X143000000Y-80460000D03*
X143000000Y-83000000D03*
X143000000Y-85540000D03*
X143000000Y-88080000D03*
%TD*%
%TO.C,J9*%
X121380000Y-129000000D03*
X123920000Y-129000000D03*
X126460000Y-129000000D03*
X129000000Y-129000000D03*
%TD*%
D12*
%TO.C,J10*%
X105000000Y-87460000D03*
D10*
X105000000Y-90000000D03*
%TD*%
%TO.C,J8*%
X108840000Y-129000000D03*
X111380000Y-129000000D03*
X113920000Y-129000000D03*
X116460000Y-129000000D03*
%TD*%
D11*
%TO.C,C6*%
X152500000Y-97000000D03*
X147500000Y-97000000D03*
%TD*%
D12*
%TO.C,J12*%
X105000000Y-101000000D03*
D10*
X105000000Y-103540000D03*
%TD*%
%TO.C,J7*%
X152080000Y-129000000D03*
X149540000Y-129000000D03*
X147000000Y-129000000D03*
X144460000Y-129000000D03*
%TD*%
D11*
%TO.C,C2*%
X110000000Y-86500000D03*
X110000000Y-91500000D03*
%TD*%
D12*
%TO.C,J11*%
X105000000Y-107460000D03*
D10*
X105000000Y-110000000D03*
%TD*%
D12*
%TO.C,J6*%
X107850000Y-81545000D03*
D11*
X107850000Y-79005000D03*
X107850000Y-76465000D03*
%TD*%
D12*
%TO.C,J13*%
X105000000Y-94460000D03*
D10*
X105000000Y-97000000D03*
%TD*%
D12*
%TO.C,C1*%
X118000000Y-80402651D03*
D11*
X118000000Y-75402651D03*
%TD*%
D12*
%TO.C,J16*%
X105000000Y-114460000D03*
D10*
X105000000Y-117000000D03*
%TD*%
%TO.C,J5*%
X152620000Y-102000000D03*
X150080000Y-102000000D03*
X147540000Y-102000000D03*
X145000000Y-102000000D03*
%TD*%
%TO.C,J3*%
X153000000Y-77375000D03*
X153000000Y-79915000D03*
X153000000Y-82455000D03*
X153000000Y-84995000D03*
X153000000Y-87535000D03*
X153000000Y-90075000D03*
X153000000Y-92615000D03*
%TD*%
M02*
