%TF.GenerationSoftware,KiCad,Pcbnew,8.0.3*%
%TF.CreationDate,2024-12-06T22:50:59-03:00*%
%TF.ProjectId,eca,6563612e-6b69-4636-9164-5f7063625858,rev?*%
%TF.SameCoordinates,Original*%
%TF.FileFunction,Copper,L1,Top*%
%TF.FilePolarity,Positive*%
%FSLAX46Y46*%
G04 Gerber Fmt 4.6, Leading zero omitted, Abs format (unit mm)*
G04 Created by KiCad (PCBNEW 8.0.3) date 2024-12-06 22:50:59*
%MOMM*%
%LPD*%
G01*
G04 APERTURE LIST*
%TA.AperFunction,ComponentPad*%
%ADD10C,1.600000*%
%TD*%
%TA.AperFunction,ComponentPad*%
%ADD11R,1.200000X1.200000*%
%TD*%
%TA.AperFunction,ComponentPad*%
%ADD12C,1.200000*%
%TD*%
%TA.AperFunction,ComponentPad*%
%ADD13R,1.700000X1.700000*%
%TD*%
%TA.AperFunction,ComponentPad*%
%ADD14O,1.700000X1.700000*%
%TD*%
G04 APERTURE END LIST*
D10*
%TO.P,C4,1*%
%TO.N,GND*%
X106000000Y-124500000D03*
%TO.P,C4,2*%
%TO.N,3.3V*%
X106000000Y-119500000D03*
%TD*%
D11*
%TO.P,C1,1*%
%TO.N,5V*%
X155000000Y-85000000D03*
D12*
%TO.P,C1,2*%
%TO.N,GND*%
X155000000Y-86500000D03*
%TD*%
D10*
%TO.P,C7,2*%
%TO.N,GND*%
X112000000Y-112000000D03*
%TO.P,C7,1*%
%TO.N,3.3V*%
X107000000Y-112000000D03*
%TD*%
%TO.P,C6,1*%
%TO.N,3.3V*%
X106500000Y-104000000D03*
%TO.P,C6,2*%
%TO.N,GND*%
X111500000Y-104000000D03*
%TD*%
%TO.P,C5,2*%
%TO.N,GND*%
X124500000Y-75000000D03*
%TO.P,C5,1*%
%TO.N,3.3V*%
X119500000Y-75000000D03*
%TD*%
%TO.P,C2,2*%
%TO.N,GND*%
X149000000Y-97500000D03*
%TO.P,C2,1*%
%TO.N,5V*%
X149000000Y-92500000D03*
%TD*%
%TO.P,C8,1*%
%TO.N,5V*%
X128500000Y-75000000D03*
%TO.P,C8,2*%
%TO.N,GND*%
X133500000Y-75000000D03*
%TD*%
D13*
%TO.P,Power Supply,1,Pin_1*%
%TO.N,5V*%
X155000000Y-77460000D03*
D14*
%TO.P,Power Supply,2,Pin_2*%
%TO.N,GND*%
X155000000Y-80000000D03*
%TD*%
%TO.P,TCRT5000,4,Pin_4*%
%TO.N,unconnected-(J4-Pin_4-Pad4)*%
X114280000Y-116000000D03*
%TO.P,TCRT5000,3,Pin_3*%
%TO.N,GPIO5*%
X111740000Y-116000000D03*
%TO.P,TCRT5000,2,Pin_2*%
%TO.N,GND*%
X109200000Y-116000000D03*
D13*
%TO.P,TCRT5000,1,Pin_1*%
%TO.N,3.3V*%
X106660000Y-116000000D03*
%TD*%
%TO.P,J1,1,Pin_1*%
%TO.N,3.3V*%
X121400000Y-79880000D03*
D14*
%TO.P,J1,2,Pin_2*%
%TO.N,5V*%
X123940000Y-79880000D03*
%TO.P,J1,3,Pin_3*%
%TO.N,GPIO2*%
X121400000Y-82420000D03*
%TO.P,J1,4,Pin_4*%
%TO.N,5V*%
X123940000Y-82420000D03*
%TO.P,J1,5,Pin_5*%
%TO.N,GPIO3*%
X121400000Y-84960000D03*
%TO.P,J1,6,Pin_6*%
%TO.N,GND*%
X123940000Y-84960000D03*
%TO.P,J1,7,Pin_7*%
%TO.N,GPIO4*%
X121400000Y-87500000D03*
%TO.P,J1,8,Pin_8*%
%TO.N,GPIO14*%
X123940000Y-87500000D03*
%TO.P,J1,9,Pin_9*%
%TO.N,GND*%
X121400000Y-90040000D03*
%TO.P,J1,10,Pin_10*%
%TO.N,GPIO15*%
X123940000Y-90040000D03*
%TO.P,J1,11,Pin_11*%
%TO.N,GPIO17*%
X121400000Y-92580000D03*
%TO.P,J1,12,Pin_12*%
%TO.N,GPIO18*%
X123940000Y-92580000D03*
%TO.P,J1,13,Pin_13*%
%TO.N,GPIO27*%
X121400000Y-95120000D03*
%TO.P,J1,14,Pin_14*%
%TO.N,GND*%
X123940000Y-95120000D03*
%TO.P,J1,15,Pin_15*%
%TO.N,GPIO22*%
X121400000Y-97660000D03*
%TO.P,J1,16,Pin_16*%
%TO.N,GPIO23*%
X123940000Y-97660000D03*
%TO.P,J1,17,Pin_17*%
%TO.N,3.3V*%
X121400000Y-100200000D03*
%TO.P,J1,18,Pin_18*%
%TO.N,GPIO24*%
X123940000Y-100200000D03*
%TO.P,J1,19,Pin_19*%
%TO.N,GPIO10*%
X121400000Y-102740000D03*
%TO.P,J1,20,Pin_20*%
%TO.N,GND*%
X123940000Y-102740000D03*
%TO.P,J1,21,Pin_21*%
%TO.N,GPIO9*%
X121400000Y-105280000D03*
%TO.P,J1,22,Pin_22*%
%TO.N,GPIO25*%
X123940000Y-105280000D03*
%TO.P,J1,23,Pin_23*%
%TO.N,GPIO11*%
X121400000Y-107820000D03*
%TO.P,J1,24,Pin_24*%
%TO.N,GPIO8*%
X123940000Y-107820000D03*
%TO.P,J1,25,Pin_25*%
%TO.N,GND*%
X121400000Y-110360000D03*
%TO.P,J1,26,Pin_26*%
%TO.N,GPIO7*%
X123940000Y-110360000D03*
%TO.P,J1,27,Pin_27*%
%TO.N,ID_SD*%
X121400000Y-112900000D03*
%TO.P,J1,28,Pin_28*%
%TO.N,ID_SC*%
X123940000Y-112900000D03*
%TO.P,J1,29,Pin_29*%
%TO.N,GPIO5*%
X121400000Y-115440000D03*
%TO.P,J1,30,Pin_30*%
%TO.N,GND*%
X123940000Y-115440000D03*
%TO.P,J1,31,Pin_31*%
%TO.N,GPIO6*%
X121400000Y-117980000D03*
%TO.P,J1,32,Pin_32*%
%TO.N,GPIO12*%
X123940000Y-117980000D03*
%TO.P,J1,33,Pin_33*%
%TO.N,GPIO13*%
X121400000Y-120520000D03*
%TO.P,J1,34,Pin_34*%
%TO.N,GND*%
X123940000Y-120520000D03*
%TO.P,J1,35,Pin_35*%
%TO.N,GPIO19*%
X121400000Y-123060000D03*
%TO.P,J1,36,Pin_36*%
%TO.N,GPIO16*%
X123940000Y-123060000D03*
%TO.P,J1,37,Pin_37*%
%TO.N,GPIO26*%
X121400000Y-125600000D03*
%TO.P,J1,38,Pin_38*%
%TO.N,GPIO20*%
X123940000Y-125600000D03*
%TO.P,J1,39,Pin_39*%
%TO.N,GND*%
X121400000Y-128140000D03*
%TO.P,J1,40,Pin_40*%
%TO.N,GPIO21*%
X123940000Y-128140000D03*
%TD*%
D13*
%TO.P,J2,1,Pin_1*%
%TO.N,GPIO2*%
X108000000Y-87920000D03*
D14*
%TO.P,J2,2,Pin_2*%
%TO.N,GPIO3*%
X108000000Y-90460000D03*
%TO.P,J2,3,Pin_3*%
%TO.N,GND*%
X108000000Y-93000000D03*
%TO.P,J2,4,Pin_4*%
%TO.N,3.3V*%
X108000000Y-95540000D03*
%TD*%
D13*
%TO.P,J9,1,Pin_1*%
%TO.N,GPIO12*%
X139540000Y-128000000D03*
D14*
%TO.P,J9,2,Pin_2*%
%TO.N,GPIO16*%
X137000000Y-128000000D03*
%TO.P,J9,3,Pin_3*%
%TO.N,GPIO20*%
X134460000Y-128000000D03*
%TO.P,J9,4,Pin_4*%
%TO.N,GPIO21*%
X131920000Y-128000000D03*
%TD*%
D13*
%TO.P,J10,1,Pin_1*%
%TO.N,5V*%
X155000000Y-93460000D03*
D14*
%TO.P,J10,2,Pin_2*%
%TO.N,GND*%
X155000000Y-96000000D03*
%TD*%
D13*
%TO.P,J8,1,Pin_1*%
%TO.N,GPIO18*%
X154540000Y-128000000D03*
D14*
%TO.P,J8,2,Pin_2*%
%TO.N,GPIO23*%
X152000000Y-128000000D03*
%TO.P,J8,3,Pin_3*%
%TO.N,GPIO24*%
X149460000Y-128000000D03*
%TO.P,J8,4,Pin_4*%
%TO.N,GPIO25*%
X146920000Y-128000000D03*
%TD*%
D13*
%TO.P,J12,1,Pin_1*%
%TO.N,5V*%
X155000000Y-109460000D03*
D14*
%TO.P,J12,2,Pin_2*%
%TO.N,GND*%
X155000000Y-112000000D03*
%TD*%
D13*
%TO.P,J7,1,Pin_1*%
%TO.N,GPIO6*%
X105920000Y-128000000D03*
D14*
%TO.P,J7,2,Pin_2*%
%TO.N,GPIO13*%
X108460000Y-128000000D03*
%TO.P,J7,3,Pin_3*%
%TO.N,GPIO19*%
X111000000Y-128000000D03*
%TO.P,J7,4,Pin_4*%
%TO.N,GPIO26*%
X113540000Y-128000000D03*
%TD*%
D13*
%TO.P,J11,1,Pin_1*%
%TO.N,5V*%
X155000000Y-117460000D03*
D14*
%TO.P,J11,2,Pin_2*%
%TO.N,GND*%
X155000000Y-120000000D03*
%TD*%
D13*
%TO.P,J13,1,Pin_1*%
%TO.N,5V*%
X155000000Y-101460000D03*
D14*
%TO.P,J13,2,Pin_2*%
%TO.N,GND*%
X155000000Y-104000000D03*
%TD*%
D13*
%TO.P,TCRT5000,1,Pin_1*%
%TO.N,3.3V*%
X106380000Y-100000000D03*
D14*
%TO.P,TCRT5000,2,Pin_2*%
%TO.N,GND*%
X108920000Y-100000000D03*
%TO.P,TCRT5000,3,Pin_3*%
%TO.N,GPIO4*%
X111460000Y-100000000D03*
%TO.P,TCRT5000,4,Pin_4*%
%TO.N,unconnected-(J6-Pin_4-Pad4)*%
X114000000Y-100000000D03*
%TD*%
%TO.P,J5,4,Pin_4*%
%TO.N,unconnected-(J5-Pin_4-Pad4)*%
X114280000Y-108000000D03*
%TO.P,J5,3,Pin_3*%
%TO.N,GPIO17*%
X111740000Y-108000000D03*
%TO.P,J5,2,Pin_2*%
%TO.N,GND*%
X109200000Y-108000000D03*
D13*
%TO.P,J5,1,Pin_1*%
%TO.N,3.3V*%
X106660000Y-108000000D03*
%TD*%
%TO.P,J3,1,Pin_1*%
%TO.N,GND*%
X114000000Y-80380000D03*
D14*
%TO.P,J3,2,Pin_2*%
%TO.N,unconnected-(J3-Pin_2-Pad2)*%
X114000000Y-82920000D03*
%TO.P,J3,3,Pin_3*%
%TO.N,unconnected-(J3-Pin_3-Pad3)*%
X114000000Y-85460000D03*
%TO.P,J3,4,Pin_4*%
%TO.N,unconnected-(J3-Pin_4-Pad4)*%
X114000000Y-88000000D03*
%TO.P,J3,5,Pin_5*%
%TO.N,GPIO2*%
X114000000Y-90540000D03*
%TO.P,J3,6,Pin_6*%
%TO.N,GPIO3*%
X114000000Y-93080000D03*
%TO.P,J3,7,Pin_7*%
%TO.N,3.3V*%
X114000000Y-95620000D03*
%TD*%
D10*
%TO.P,C3,2*%
%TO.N,3.3V*%
X108000000Y-79500000D03*
%TO.P,C3,1*%
%TO.N,GND*%
X108000000Y-84500000D03*
%TD*%
M02*
