%TF.GenerationSoftware,KiCad,Pcbnew,8.0.3*%
%TF.CreationDate,2024-12-13T09:54:43-03:00*%
%TF.ProjectId,eca,6563612e-6b69-4636-9164-5f7063625858,rev?*%
%TF.SameCoordinates,Original*%
%TF.FileFunction,Copper,L2,Bot*%
%TF.FilePolarity,Positive*%
%FSLAX46Y46*%
G04 Gerber Fmt 4.6, Leading zero omitted, Abs format (unit mm)*
G04 Created by KiCad (PCBNEW 8.0.3) date 2024-12-13 09:54:43*
%MOMM*%
%LPD*%
G01*
G04 APERTURE LIST*
%TA.AperFunction,ComponentPad*%
%ADD10O,2.000000X2.000000*%
%TD*%
%TA.AperFunction,ComponentPad*%
%ADD11C,2.000000*%
%TD*%
%TA.AperFunction,ComponentPad*%
%ADD12R,2.000000X2.000000*%
%TD*%
%TA.AperFunction,Conductor*%
%ADD13C,1.000000*%
%TD*%
%TA.AperFunction,Conductor*%
%ADD14C,0.200000*%
%TD*%
%TA.AperFunction,Conductor*%
%ADD15C,2.000000*%
%TD*%
%TA.AperFunction,Conductor*%
%ADD16C,2.500000*%
%TD*%
G04 APERTURE END LIST*
D10*
%TO.P,J4,1,Pin_1*%
%TO.N,3.3V*%
X152800000Y-112000000D03*
%TO.P,J4,2,Pin_2*%
%TO.N,GND*%
X150260000Y-112000000D03*
%TO.P,J4,3,Pin_3*%
%TO.N,GPIO5*%
X147720000Y-112000000D03*
%TO.P,J4,4,Pin_4*%
%TO.N,unconnected-(J4-Pin_4-Pad4)*%
X145180000Y-112000000D03*
%TD*%
D11*
%TO.P,C8,1*%
%TO.N,5V*%
X127000000Y-80500000D03*
%TO.P,C8,2*%
%TO.N,GND*%
X127000000Y-75500000D03*
%TD*%
D12*
%TO.P,J1,1,Pin_1*%
%TO.N,5V*%
X133460000Y-79140000D03*
D10*
%TO.P,J1,2,Pin_2*%
%TO.N,3.3V*%
X136000000Y-79140000D03*
%TO.P,J1,3,Pin_3*%
%TO.N,5V*%
X133460000Y-81680000D03*
%TO.P,J1,4,Pin_4*%
%TO.N,GPIO2*%
X136000000Y-81680000D03*
%TO.P,J1,5,Pin_5*%
%TO.N,GND*%
X133460000Y-84220000D03*
%TO.P,J1,6,Pin_6*%
%TO.N,GPIO3*%
X136000000Y-84220000D03*
%TO.P,J1,7,Pin_7*%
%TO.N,GPIO14*%
X133460000Y-86760000D03*
%TO.P,J1,8,Pin_8*%
%TO.N,GPIO4*%
X136000000Y-86760000D03*
%TO.P,J1,9,Pin_9*%
%TO.N,GPIO15*%
X133460000Y-89300000D03*
%TO.P,J1,10,Pin_10*%
%TO.N,GND*%
X136000000Y-89300000D03*
%TO.P,J1,11,Pin_11*%
%TO.N,GPIO18*%
X133460000Y-91840000D03*
%TO.P,J1,12,Pin_12*%
%TO.N,GPIO17*%
X136000000Y-91840000D03*
%TO.P,J1,13,Pin_13*%
%TO.N,GND*%
X133460000Y-94380000D03*
%TO.P,J1,14,Pin_14*%
%TO.N,GPIO27*%
X136000000Y-94380000D03*
%TO.P,J1,15,Pin_15*%
%TO.N,GPIO23*%
X133460000Y-96920000D03*
%TO.P,J1,16,Pin_16*%
%TO.N,GPIO22*%
X136000000Y-96920000D03*
%TO.P,J1,17,Pin_17*%
%TO.N,GPIO24*%
X133460000Y-99460000D03*
%TO.P,J1,18,Pin_18*%
%TO.N,3.3V*%
X136000000Y-99460000D03*
%TO.P,J1,19,Pin_19*%
%TO.N,GND*%
X133460000Y-102000000D03*
%TO.P,J1,20,Pin_20*%
%TO.N,GPIO10*%
X136000000Y-102000000D03*
%TO.P,J1,21,Pin_21*%
%TO.N,GPIO25*%
X133460000Y-104540000D03*
%TO.P,J1,22,Pin_22*%
%TO.N,GPIO9*%
X136000000Y-104540000D03*
%TO.P,J1,23,Pin_23*%
%TO.N,GPIO8*%
X133460000Y-107080000D03*
%TO.P,J1,24,Pin_24*%
%TO.N,GPIO11*%
X136000000Y-107080000D03*
%TO.P,J1,25,Pin_25*%
%TO.N,GPIO7*%
X133460000Y-109620000D03*
%TO.P,J1,26,Pin_26*%
%TO.N,GND*%
X136000000Y-109620000D03*
%TO.P,J1,27,Pin_27*%
%TO.N,ID_SC*%
X133460000Y-112160000D03*
%TO.P,J1,28,Pin_28*%
%TO.N,ID_SD*%
X136000000Y-112160000D03*
%TO.P,J1,29,Pin_29*%
%TO.N,GND*%
X133460000Y-114700000D03*
%TO.P,J1,30,Pin_30*%
%TO.N,GPIO5*%
X136000000Y-114700000D03*
%TO.P,J1,31,Pin_31*%
%TO.N,GPIO12*%
X133460000Y-117240000D03*
%TO.P,J1,32,Pin_32*%
%TO.N,GPIO6*%
X136000000Y-117240000D03*
%TO.P,J1,33,Pin_33*%
%TO.N,GND*%
X133460000Y-119780000D03*
%TO.P,J1,34,Pin_34*%
%TO.N,GPIO13*%
X136000000Y-119780000D03*
%TO.P,J1,35,Pin_35*%
%TO.N,GPIO16*%
X133460000Y-122320000D03*
%TO.P,J1,36,Pin_36*%
%TO.N,GPIO19*%
X136000000Y-122320000D03*
%TO.P,J1,37,Pin_37*%
%TO.N,GPIO20*%
X133460000Y-124860000D03*
%TO.P,J1,38,Pin_38*%
%TO.N,GPIO26*%
X136000000Y-124860000D03*
%TO.P,J1,39,Pin_39*%
%TO.N,GPIO21*%
X133460000Y-127400000D03*
%TO.P,J1,40,Pin_40*%
%TO.N,GND*%
X136000000Y-127400000D03*
%TD*%
D11*
%TO.P,C7,1*%
%TO.N,3.3V*%
X152500000Y-118000000D03*
%TO.P,C7,2*%
%TO.N,GND*%
X147500000Y-118000000D03*
%TD*%
D12*
%TO.P,J15,1,Pin_1*%
%TO.N,5V*%
X105000000Y-121460000D03*
D10*
%TO.P,J15,2,Pin_2*%
%TO.N,GND*%
X105000000Y-124000000D03*
%TD*%
%TO.P,J2,1,Pin_1*%
%TO.N,GPIO2*%
X143000000Y-80460000D03*
%TO.P,J2,2,Pin_2*%
%TO.N,GPIO3*%
X143000000Y-83000000D03*
%TO.P,J2,3,Pin_3*%
%TO.N,GND*%
X143000000Y-85540000D03*
%TO.P,J2,4,Pin_4*%
%TO.N,3.3V*%
X143000000Y-88080000D03*
%TD*%
%TO.P,J9,1,Pin_1*%
%TO.N,GPIO12*%
X121380000Y-129000000D03*
%TO.P,J9,2,Pin_2*%
%TO.N,GPIO16*%
X123920000Y-129000000D03*
%TO.P,J9,3,Pin_3*%
%TO.N,GPIO20*%
X126460000Y-129000000D03*
%TO.P,J9,4,Pin_4*%
%TO.N,GPIO21*%
X129000000Y-129000000D03*
%TD*%
D12*
%TO.P,J10,1,Pin_1*%
%TO.N,5V*%
X105000000Y-87460000D03*
D10*
%TO.P,J10,2,Pin_2*%
%TO.N,GND*%
X105000000Y-90000000D03*
%TD*%
%TO.P,J8,1,Pin_1*%
%TO.N,GPIO18*%
X108840000Y-129000000D03*
%TO.P,J8,2,Pin_2*%
%TO.N,GPIO23*%
X111380000Y-129000000D03*
%TO.P,J8,3,Pin_3*%
%TO.N,GPIO24*%
X113920000Y-129000000D03*
%TO.P,J8,4,Pin_4*%
%TO.N,GPIO25*%
X116460000Y-129000000D03*
%TD*%
D11*
%TO.P,C6,1*%
%TO.N,3.3V*%
X152500000Y-97000000D03*
%TO.P,C6,2*%
%TO.N,GND*%
X147500000Y-97000000D03*
%TD*%
D12*
%TO.P,J12,1,Pin_1*%
%TO.N,5V*%
X105000000Y-101000000D03*
D10*
%TO.P,J12,2,Pin_2*%
%TO.N,GND*%
X105000000Y-103540000D03*
%TD*%
%TO.P,J7,1,Pin_1*%
%TO.N,GPIO6*%
X152080000Y-129000000D03*
%TO.P,J7,2,Pin_2*%
%TO.N,GPIO13*%
X149540000Y-129000000D03*
%TO.P,J7,3,Pin_3*%
%TO.N,GPIO19*%
X147000000Y-129000000D03*
%TO.P,J7,4,Pin_4*%
%TO.N,GPIO26*%
X144460000Y-129000000D03*
%TD*%
D11*
%TO.P,C2,1*%
%TO.N,5V*%
X110000000Y-86500000D03*
%TO.P,C2,2*%
%TO.N,GND*%
X110000000Y-91500000D03*
%TD*%
D12*
%TO.P,J11,1,Pin_1*%
%TO.N,5V*%
X105000000Y-107460000D03*
D10*
%TO.P,J11,2,Pin_2*%
%TO.N,GND*%
X105000000Y-110000000D03*
%TD*%
D12*
%TO.P,J6,1,Pin_1*%
%TO.N,5V*%
X107850000Y-81545000D03*
D11*
%TO.P,J6,2,Pin_2*%
%TO.N,unconnected-(J6-Pin_2-Pad2)*%
X107850000Y-79005000D03*
%TO.P,J6,3,Pin_3*%
%TO.N,GND*%
X107850000Y-76465000D03*
%TD*%
D12*
%TO.P,J13,1,Pin_1*%
%TO.N,5V*%
X105000000Y-94460000D03*
D10*
%TO.P,J13,2,Pin_2*%
%TO.N,GND*%
X105000000Y-97000000D03*
%TD*%
D12*
%TO.P,C1,1*%
%TO.N,5V*%
X118000000Y-80402651D03*
D11*
%TO.P,C1,2*%
%TO.N,GND*%
X118000000Y-75402651D03*
%TD*%
D12*
%TO.P,J16,1,Pin_1*%
%TO.N,5V*%
X105000000Y-114460000D03*
D10*
%TO.P,J16,2,Pin_2*%
%TO.N,GND*%
X105000000Y-117000000D03*
%TD*%
%TO.P,J5,1,Pin_1*%
%TO.N,3.3V*%
X152620000Y-102000000D03*
%TO.P,J5,2,Pin_2*%
%TO.N,GND*%
X150080000Y-102000000D03*
%TO.P,J5,3,Pin_3*%
%TO.N,GPIO17*%
X147540000Y-102000000D03*
%TO.P,J5,4,Pin_4*%
%TO.N,unconnected-(J5-Pin_4-Pad4)*%
X145000000Y-102000000D03*
%TD*%
%TO.P,J3,1,Pin_1*%
%TO.N,GND*%
X153000000Y-77375000D03*
%TO.P,J3,2,Pin_2*%
%TO.N,unconnected-(J3-Pin_2-Pad2)*%
X153000000Y-79915000D03*
%TO.P,J3,3,Pin_3*%
%TO.N,unconnected-(J3-Pin_3-Pad3)*%
X153000000Y-82455000D03*
%TO.P,J3,4,Pin_4*%
%TO.N,unconnected-(J3-Pin_4-Pad4)*%
X153000000Y-84995000D03*
%TO.P,J3,5,Pin_5*%
%TO.N,GPIO2*%
X153000000Y-87535000D03*
%TO.P,J3,6,Pin_6*%
%TO.N,GPIO3*%
X153000000Y-90075000D03*
%TO.P,J3,7,Pin_7*%
%TO.N,3.3V*%
X153000000Y-92615000D03*
%TD*%
D13*
%TO.N,GPIO5*%
X147720000Y-113280000D02*
X146300000Y-114700000D01*
X147720000Y-112000000D02*
X147720000Y-113280000D01*
X146300000Y-114700000D02*
X136000000Y-114700000D01*
%TO.N,GPIO3*%
X153000000Y-90075000D02*
X152075000Y-90075000D01*
X141780000Y-84220000D02*
X136000000Y-84220000D01*
X145000000Y-83000000D02*
X143000000Y-83000000D01*
X152075000Y-90075000D02*
X145000000Y-83000000D01*
X143000000Y-83000000D02*
X141780000Y-84220000D01*
D14*
X136000000Y-84918478D02*
X136000000Y-84220000D01*
D13*
%TO.N,GPIO21*%
X129000000Y-129000000D02*
X131860000Y-129000000D01*
X131860000Y-129000000D02*
X133460000Y-127400000D01*
D14*
%TO.N,ID_SC*%
X133160000Y-112160000D02*
X133060000Y-112260000D01*
X133460000Y-112160000D02*
X133160000Y-112160000D01*
%TO.N,GND*%
X133460000Y-114700000D02*
X133460000Y-114860000D01*
X133100000Y-84220000D02*
X133460000Y-84220000D01*
X136140000Y-127260000D02*
X136000000Y-127400000D01*
D15*
%TO.N,3.3V*%
X153000000Y-92615000D02*
X153000000Y-96500000D01*
X154000000Y-110800000D02*
X152800000Y-112000000D01*
X137460000Y-99460000D02*
X145000000Y-107000000D01*
X152500000Y-97000000D02*
X152500000Y-101880000D01*
X147535000Y-92615000D02*
X153000000Y-92615000D01*
X145000000Y-107000000D02*
X152000000Y-107000000D01*
X136000000Y-99460000D02*
X137460000Y-99460000D01*
D14*
X136120000Y-79260000D02*
X136000000Y-79140000D01*
D15*
X152800000Y-117700000D02*
X152500000Y-118000000D01*
X152000000Y-107000000D02*
X154000000Y-109000000D01*
X153000000Y-96500000D02*
X152500000Y-97000000D01*
X154000000Y-103380000D02*
X154000000Y-109000000D01*
X154000000Y-109000000D02*
X154000000Y-110800000D01*
X152500000Y-101880000D02*
X152620000Y-102000000D01*
X143000000Y-88080000D02*
X147535000Y-92615000D01*
X152800000Y-112000000D02*
X152800000Y-117700000D01*
X152620000Y-102000000D02*
X154000000Y-103380000D01*
D13*
%TO.N,GPIO25*%
X124000000Y-114000000D02*
X133460000Y-104540000D01*
X124000000Y-121460000D02*
X124000000Y-114000000D01*
X116460000Y-129000000D02*
X124000000Y-121460000D01*
%TO.N,GPIO2*%
X143000000Y-80460000D02*
X141780000Y-81680000D01*
X150000000Y-81000000D02*
X149000000Y-80000000D01*
X153000000Y-87535000D02*
X152535000Y-87535000D01*
X150000000Y-85000000D02*
X150000000Y-81000000D01*
D14*
X143460000Y-80000000D02*
X143000000Y-80460000D01*
D13*
X141780000Y-81680000D02*
X136000000Y-81680000D01*
X149000000Y-80000000D02*
X143460000Y-80000000D01*
X152535000Y-87535000D02*
X150000000Y-85000000D01*
D16*
%TO.N,5V*%
X111000000Y-98460000D02*
X110540000Y-98460000D01*
X111000000Y-105000000D02*
X108540000Y-107460000D01*
X111000000Y-116000000D02*
X111000000Y-111460000D01*
X111000000Y-97000000D02*
X111000000Y-98460000D01*
X111000000Y-111460000D02*
X111000000Y-109000000D01*
X105000000Y-87460000D02*
X105000000Y-83000000D01*
X116857651Y-81545000D02*
X118000000Y-80402651D01*
X111000000Y-120000000D02*
X109540000Y-121460000D01*
X108540000Y-107460000D02*
X105000000Y-107460000D01*
X133460000Y-81680000D02*
X128180000Y-81680000D01*
X107850000Y-81545000D02*
X106455000Y-81545000D01*
X109540000Y-121460000D02*
X105000000Y-121460000D01*
X109040000Y-87460000D02*
X110000000Y-86500000D01*
X107850000Y-81545000D02*
X116857651Y-81545000D01*
X111000000Y-95000000D02*
X111000000Y-97000000D01*
X110000000Y-97000000D02*
X107460000Y-94460000D01*
X128180000Y-81680000D02*
X127000000Y-80500000D01*
X107460000Y-94460000D02*
X105000000Y-94460000D01*
X110540000Y-98460000D02*
X108000000Y-101000000D01*
X105000000Y-83000000D02*
X106455000Y-81545000D01*
X118000000Y-80402651D02*
X118000000Y-88000000D01*
X111000000Y-102000000D02*
X111000000Y-98460000D01*
X118000000Y-88000000D02*
X111000000Y-95000000D01*
X111000000Y-112000000D02*
X108540000Y-114460000D01*
X105000000Y-87460000D02*
X109040000Y-87460000D01*
X108540000Y-114460000D02*
X105000000Y-114460000D01*
X111000000Y-111460000D02*
X111000000Y-112000000D01*
X111000000Y-105000000D02*
X111000000Y-102000000D01*
X118000000Y-80402651D02*
X126902651Y-80402651D01*
X108000000Y-101000000D02*
X105000000Y-101000000D01*
X126902651Y-80402651D02*
X127000000Y-80500000D01*
X111000000Y-97000000D02*
X110000000Y-97000000D01*
X111000000Y-120000000D02*
X111000000Y-116000000D01*
D14*
X104460000Y-100460000D02*
X105000000Y-101000000D01*
D16*
X111000000Y-109000000D02*
X111000000Y-105000000D01*
D13*
%TO.N,GPIO13*%
X149540000Y-129000000D02*
X140320000Y-119780000D01*
X140320000Y-119780000D02*
X136000000Y-119780000D01*
%TO.N,GPIO6*%
X136000000Y-117240000D02*
X140320000Y-117240000D01*
X140320000Y-117240000D02*
X152080000Y-129000000D01*
D14*
%TO.N,GPIO12*%
X133140000Y-117240000D02*
X133460000Y-117240000D01*
D13*
X121380000Y-129000000D02*
X133140000Y-117240000D01*
%TO.N,GPIO20*%
X130600000Y-124860000D02*
X133460000Y-124860000D01*
X126460000Y-129000000D02*
X130600000Y-124860000D01*
%TO.N,GPIO19*%
X140320000Y-122320000D02*
X136000000Y-122320000D01*
X147000000Y-129000000D02*
X140320000Y-122320000D01*
%TO.N,GPIO23*%
X129000000Y-103000000D02*
X129000000Y-100000000D01*
X120000000Y-112000000D02*
X129000000Y-103000000D01*
X120000000Y-120380000D02*
X120000000Y-112000000D01*
X111380000Y-129000000D02*
X120000000Y-120380000D01*
X129000000Y-100000000D02*
X132080000Y-96920000D01*
X132080000Y-96920000D02*
X133460000Y-96920000D01*
D14*
%TO.N,GPIO9*%
X136260000Y-104540000D02*
X136000000Y-104540000D01*
D13*
%TO.N,GPIO18*%
X127000000Y-102000000D02*
X127000000Y-99000000D01*
X131000000Y-95000000D02*
X131000000Y-93000000D01*
X118000000Y-119840000D02*
X118000000Y-111000000D01*
X118000000Y-111000000D02*
X127000000Y-102000000D01*
X108840000Y-129000000D02*
X118000000Y-119840000D01*
X131000000Y-93000000D02*
X132160000Y-91840000D01*
X127000000Y-99000000D02*
X131000000Y-95000000D01*
X132160000Y-91840000D02*
X133460000Y-91840000D01*
D14*
%TO.N,GPIO24*%
X120000000Y-123000000D02*
X119920000Y-123000000D01*
D13*
X131000000Y-104000000D02*
X131000000Y-101000000D01*
X119920000Y-123000000D02*
X122000000Y-120920000D01*
X131000000Y-101000000D02*
X132540000Y-99460000D01*
X122000000Y-113000000D02*
X131000000Y-104000000D01*
X119920000Y-123000000D02*
X113920000Y-129000000D01*
X122000000Y-120920000D02*
X122000000Y-113000000D01*
X132540000Y-99460000D02*
X133460000Y-99460000D01*
%TO.N,GPIO26*%
X140320000Y-124860000D02*
X136000000Y-124860000D01*
X144460000Y-129000000D02*
X140320000Y-124860000D01*
%TO.N,GPIO17*%
X147540000Y-102000000D02*
X137380000Y-91840000D01*
X137380000Y-91840000D02*
X136000000Y-91840000D01*
%TO.N,GPIO16*%
X123920000Y-129000000D02*
X130600000Y-122320000D01*
X130600000Y-122320000D02*
X133460000Y-122320000D01*
%TD*%
%TA.AperFunction,Conductor*%
%TO.N,GND*%
G36*
X137696699Y-101820803D02*
G01*
X137711194Y-101833221D01*
X144022490Y-108144517D01*
X144213566Y-108283343D01*
X144288199Y-108321370D01*
X144424003Y-108390566D01*
X144424005Y-108390566D01*
X144424008Y-108390568D01*
X144544412Y-108429689D01*
X144648631Y-108463553D01*
X144881903Y-108500500D01*
X144881908Y-108500500D01*
X151327111Y-108500500D01*
X151394150Y-108520185D01*
X151414792Y-108536819D01*
X152463181Y-109585208D01*
X152496666Y-109646531D01*
X152499500Y-109672889D01*
X152499500Y-110127110D01*
X152479815Y-110194149D01*
X152463181Y-110214791D01*
X151810308Y-110867663D01*
X151798794Y-110877832D01*
X151780257Y-110892260D01*
X151780256Y-110892261D01*
X151718776Y-110959045D01*
X151715231Y-110962740D01*
X151655483Y-111022488D01*
X151641389Y-111041886D01*
X151632309Y-111052973D01*
X151620892Y-111065376D01*
X151561006Y-111101368D01*
X151491168Y-111099271D01*
X151438429Y-111065379D01*
X151279401Y-110892629D01*
X151279397Y-110892626D01*
X151083237Y-110739948D01*
X151083228Y-110739942D01*
X150864614Y-110621635D01*
X150864603Y-110621630D01*
X150629492Y-110540916D01*
X150510000Y-110520976D01*
X150510000Y-111566988D01*
X150452993Y-111534075D01*
X150325826Y-111500000D01*
X150194174Y-111500000D01*
X150067007Y-111534075D01*
X150010000Y-111566988D01*
X150010000Y-110520976D01*
X150009999Y-110520976D01*
X149890507Y-110540916D01*
X149655396Y-110621630D01*
X149655385Y-110621635D01*
X149436771Y-110739942D01*
X149436762Y-110739948D01*
X149240602Y-110892626D01*
X149240598Y-110892630D01*
X149081568Y-111065380D01*
X149021681Y-111101370D01*
X148951843Y-111099269D01*
X148899109Y-111065379D01*
X148739744Y-110892262D01*
X148543509Y-110739526D01*
X148543507Y-110739525D01*
X148543506Y-110739524D01*
X148324811Y-110621172D01*
X148324802Y-110621169D01*
X148089616Y-110540429D01*
X147844335Y-110499500D01*
X147595665Y-110499500D01*
X147350383Y-110540429D01*
X147115197Y-110621169D01*
X147115188Y-110621172D01*
X146896493Y-110739524D01*
X146700257Y-110892261D01*
X146541230Y-111065010D01*
X146481342Y-111101001D01*
X146411504Y-111098900D01*
X146358770Y-111065010D01*
X146319108Y-111021926D01*
X146199744Y-110892262D01*
X146003509Y-110739526D01*
X146003507Y-110739525D01*
X146003506Y-110739524D01*
X145784811Y-110621172D01*
X145784802Y-110621169D01*
X145549616Y-110540429D01*
X145304335Y-110499500D01*
X145055665Y-110499500D01*
X144810383Y-110540429D01*
X144575197Y-110621169D01*
X144575188Y-110621172D01*
X144356493Y-110739524D01*
X144160257Y-110892261D01*
X143991833Y-111075217D01*
X143855826Y-111283393D01*
X143755936Y-111511118D01*
X143694892Y-111752175D01*
X143694890Y-111752187D01*
X143674357Y-111999994D01*
X143674357Y-112000005D01*
X143694890Y-112247812D01*
X143694892Y-112247824D01*
X143755936Y-112488881D01*
X143855826Y-112716606D01*
X143991833Y-112924782D01*
X143991836Y-112924785D01*
X144160256Y-113107738D01*
X144356491Y-113260474D01*
X144369923Y-113267743D01*
X144574332Y-113378364D01*
X144575190Y-113378828D01*
X144640853Y-113401370D01*
X144806446Y-113458219D01*
X144863461Y-113498604D01*
X144889592Y-113563404D01*
X144876541Y-113632044D01*
X144828452Y-113682732D01*
X144766183Y-113699500D01*
X137172855Y-113699500D01*
X137105816Y-113679815D01*
X137081626Y-113659483D01*
X137019747Y-113592265D01*
X137019744Y-113592262D01*
X136936991Y-113527852D01*
X136896179Y-113471143D01*
X136892504Y-113401370D01*
X136927136Y-113340687D01*
X136936985Y-113332151D01*
X137019744Y-113267738D01*
X137188164Y-113084785D01*
X137324173Y-112876607D01*
X137424063Y-112648881D01*
X137485108Y-112407821D01*
X137498367Y-112247812D01*
X137505643Y-112160005D01*
X137505643Y-112159994D01*
X137485109Y-111912187D01*
X137485107Y-111912175D01*
X137424063Y-111671118D01*
X137324173Y-111443393D01*
X137188166Y-111235217D01*
X137110977Y-111151368D01*
X137019744Y-111052262D01*
X136936583Y-110987535D01*
X136895770Y-110930825D01*
X136892096Y-110861052D01*
X136926728Y-110800369D01*
X136936584Y-110791828D01*
X137019404Y-110727367D01*
X137019407Y-110727364D01*
X137187767Y-110544478D01*
X137323732Y-110336367D01*
X137423588Y-110108716D01*
X137484040Y-109870000D01*
X136433012Y-109870000D01*
X136465925Y-109812993D01*
X136500000Y-109685826D01*
X136500000Y-109554174D01*
X136465925Y-109427007D01*
X136433012Y-109370000D01*
X137484040Y-109370000D01*
X137423588Y-109131283D01*
X137323732Y-108903632D01*
X137187767Y-108695521D01*
X137019407Y-108512635D01*
X137019397Y-108512626D01*
X136936584Y-108448170D01*
X136895771Y-108391460D01*
X136892096Y-108321687D01*
X136926728Y-108261004D01*
X136936571Y-108252473D01*
X137019744Y-108187738D01*
X137188164Y-108004785D01*
X137324173Y-107796607D01*
X137424063Y-107568881D01*
X137485108Y-107327821D01*
X137485109Y-107327812D01*
X137505643Y-107080005D01*
X137505643Y-107079994D01*
X137485109Y-106832187D01*
X137485107Y-106832175D01*
X137424063Y-106591118D01*
X137324173Y-106363393D01*
X137188166Y-106155217D01*
X137139592Y-106102452D01*
X137019744Y-105972262D01*
X136936991Y-105907852D01*
X136896179Y-105851143D01*
X136892504Y-105781370D01*
X136927136Y-105720687D01*
X136936985Y-105712151D01*
X137019744Y-105647738D01*
X137188164Y-105464785D01*
X137324173Y-105256607D01*
X137424063Y-105028881D01*
X137485108Y-104787821D01*
X137505643Y-104540000D01*
X137499385Y-104464478D01*
X137485109Y-104292187D01*
X137485107Y-104292175D01*
X137424063Y-104051118D01*
X137324173Y-103823393D01*
X137188166Y-103615217D01*
X137082561Y-103500500D01*
X137019744Y-103432262D01*
X136936991Y-103367852D01*
X136896179Y-103311143D01*
X136892504Y-103241370D01*
X136927136Y-103180687D01*
X136936985Y-103172151D01*
X137019744Y-103107738D01*
X137188164Y-102924785D01*
X137324173Y-102716607D01*
X137424063Y-102488881D01*
X137485108Y-102247821D01*
X137485563Y-102242328D01*
X137505643Y-102000005D01*
X137505643Y-101999995D01*
X137500280Y-101935282D01*
X137499937Y-101931141D01*
X137514017Y-101862707D01*
X137562862Y-101812747D01*
X137630963Y-101797126D01*
X137696699Y-101820803D01*
G37*
%TD.AperFunction*%
%TA.AperFunction,Conductor*%
G36*
X137096709Y-92979690D02*
G01*
X137127019Y-93001939D01*
X144516069Y-100390989D01*
X144549554Y-100452312D01*
X144544570Y-100522004D01*
X144502698Y-100577937D01*
X144468653Y-100595951D01*
X144395191Y-100621171D01*
X144395188Y-100621172D01*
X144176493Y-100739524D01*
X143980257Y-100892261D01*
X143811833Y-101075217D01*
X143675826Y-101283393D01*
X143575936Y-101511118D01*
X143514892Y-101752175D01*
X143514890Y-101752187D01*
X143494357Y-101999994D01*
X143494357Y-102000005D01*
X143514890Y-102247812D01*
X143514892Y-102247824D01*
X143575936Y-102488881D01*
X143675826Y-102716606D01*
X143811833Y-102924782D01*
X143811836Y-102924785D01*
X143980256Y-103107738D01*
X144176491Y-103260474D01*
X144270119Y-103311143D01*
X144394332Y-103378364D01*
X144395190Y-103378828D01*
X144550832Y-103432260D01*
X144628964Y-103459083D01*
X144630386Y-103459571D01*
X144875665Y-103500500D01*
X145124335Y-103500500D01*
X145369614Y-103459571D01*
X145604810Y-103378828D01*
X145823509Y-103260474D01*
X146019744Y-103107738D01*
X146178771Y-102934988D01*
X146238657Y-102898999D01*
X146308495Y-102901099D01*
X146361228Y-102934988D01*
X146520256Y-103107738D01*
X146716491Y-103260474D01*
X146810119Y-103311143D01*
X146934332Y-103378364D01*
X146935190Y-103378828D01*
X147090832Y-103432260D01*
X147168964Y-103459083D01*
X147170386Y-103459571D01*
X147415665Y-103500500D01*
X147664335Y-103500500D01*
X147909614Y-103459571D01*
X148144810Y-103378828D01*
X148363509Y-103260474D01*
X148559744Y-103107738D01*
X148719111Y-102934618D01*
X148778996Y-102898629D01*
X148848834Y-102900729D01*
X148901568Y-102934619D01*
X149060592Y-103107364D01*
X149060602Y-103107373D01*
X149256762Y-103260051D01*
X149256771Y-103260057D01*
X149475385Y-103378364D01*
X149475396Y-103378369D01*
X149710507Y-103459083D01*
X149829999Y-103479023D01*
X149830000Y-103479022D01*
X149830000Y-102433012D01*
X149887007Y-102465925D01*
X150014174Y-102500000D01*
X150145826Y-102500000D01*
X150272993Y-102465925D01*
X150330000Y-102433012D01*
X150330000Y-103479023D01*
X150449492Y-103459083D01*
X150684603Y-103378369D01*
X150684614Y-103378364D01*
X150903228Y-103260057D01*
X150903237Y-103260051D01*
X151099397Y-103107373D01*
X151099401Y-103107370D01*
X151254381Y-102939018D01*
X151314268Y-102903027D01*
X151384107Y-102905128D01*
X151433292Y-102935320D01*
X151535223Y-103037251D01*
X151538771Y-103040948D01*
X151600256Y-103107738D01*
X151600264Y-103107744D01*
X151618789Y-103122164D01*
X151630304Y-103132333D01*
X151646809Y-103148838D01*
X151646831Y-103148858D01*
X152463181Y-103965208D01*
X152496666Y-104026531D01*
X152499500Y-104052889D01*
X152499500Y-105414723D01*
X152479815Y-105481762D01*
X152427011Y-105527517D01*
X152357853Y-105537461D01*
X152356102Y-105537196D01*
X152118097Y-105499500D01*
X152118092Y-105499500D01*
X145672889Y-105499500D01*
X145605850Y-105479815D01*
X145585208Y-105463181D01*
X138437511Y-98315484D01*
X138361220Y-98260055D01*
X138246434Y-98176657D01*
X138035996Y-98069433D01*
X137811368Y-97996446D01*
X137578097Y-97959500D01*
X137578092Y-97959500D01*
X137342349Y-97959500D01*
X137275310Y-97939815D01*
X137229555Y-97887011D01*
X137219611Y-97817853D01*
X137238540Y-97767679D01*
X137300468Y-97672890D01*
X137324173Y-97636607D01*
X137424063Y-97408881D01*
X137485108Y-97167821D01*
X137493871Y-97062066D01*
X137505643Y-96920005D01*
X137505643Y-96919994D01*
X137485109Y-96672187D01*
X137485107Y-96672175D01*
X137424063Y-96431118D01*
X137324173Y-96203393D01*
X137188166Y-95995217D01*
X137154338Y-95958470D01*
X137019744Y-95812262D01*
X136936991Y-95747852D01*
X136896179Y-95691143D01*
X136892504Y-95621370D01*
X136927136Y-95560687D01*
X136936985Y-95552151D01*
X137019744Y-95487738D01*
X137188164Y-95304785D01*
X137324173Y-95096607D01*
X137424063Y-94868881D01*
X137485108Y-94627821D01*
X137485599Y-94621898D01*
X137505643Y-94380005D01*
X137505643Y-94379994D01*
X137485109Y-94132187D01*
X137485107Y-94132175D01*
X137424063Y-93891118D01*
X137324173Y-93663393D01*
X137188166Y-93455217D01*
X137166557Y-93431744D01*
X137019744Y-93272262D01*
X136936991Y-93207852D01*
X136896179Y-93151143D01*
X136892504Y-93081370D01*
X136927136Y-93020687D01*
X136936991Y-93012147D01*
X136963176Y-92991766D01*
X137028169Y-92966124D01*
X137096709Y-92979690D01*
G37*
%TD.AperFunction*%
%TA.AperFunction,Conductor*%
G36*
X141468285Y-85240185D02*
G01*
X141499099Y-85268338D01*
X141515959Y-85290000D01*
X142566988Y-85290000D01*
X142534075Y-85347007D01*
X142500000Y-85474174D01*
X142500000Y-85605826D01*
X142534075Y-85732993D01*
X142566988Y-85790000D01*
X141515960Y-85790000D01*
X141576411Y-86028716D01*
X141676267Y-86256367D01*
X141812232Y-86464478D01*
X141980592Y-86647364D01*
X141980602Y-86647373D01*
X142062171Y-86710861D01*
X142102984Y-86767571D01*
X142106659Y-86837344D01*
X142072027Y-86898027D01*
X142058897Y-86909030D01*
X142022490Y-86935482D01*
X142022486Y-86935485D01*
X142010299Y-86947672D01*
X141998790Y-86957835D01*
X141980257Y-86972260D01*
X141980256Y-86972261D01*
X141918776Y-87039045D01*
X141915231Y-87042740D01*
X141855483Y-87102488D01*
X141841389Y-87121886D01*
X141832312Y-87132969D01*
X141811835Y-87155216D01*
X141811831Y-87155221D01*
X141765879Y-87225555D01*
X141762390Y-87230617D01*
X141716656Y-87293565D01*
X141702711Y-87320935D01*
X141696036Y-87332460D01*
X141675826Y-87363393D01*
X141644764Y-87434206D01*
X141641694Y-87440688D01*
X141609435Y-87503999D01*
X141609432Y-87504009D01*
X141597859Y-87539623D01*
X141593486Y-87551109D01*
X141575939Y-87591112D01*
X141575936Y-87591123D01*
X141558605Y-87659557D01*
X141556331Y-87667432D01*
X141536448Y-87728625D01*
X141529536Y-87772260D01*
X141527269Y-87783295D01*
X141514893Y-87832171D01*
X141514892Y-87832177D01*
X141514892Y-87832179D01*
X141509615Y-87895854D01*
X141508514Y-87904995D01*
X141499500Y-87961903D01*
X141499500Y-88012809D01*
X141499076Y-88023050D01*
X141494357Y-88079995D01*
X141494357Y-88080004D01*
X141499076Y-88136948D01*
X141499500Y-88147189D01*
X141499500Y-88198096D01*
X141508514Y-88255005D01*
X141509615Y-88264147D01*
X141510800Y-88278433D01*
X141514892Y-88327824D01*
X141527270Y-88376703D01*
X141529537Y-88387743D01*
X141536447Y-88431369D01*
X141556332Y-88492569D01*
X141558606Y-88500446D01*
X141575935Y-88568874D01*
X141575939Y-88568887D01*
X141593487Y-88608892D01*
X141597862Y-88620384D01*
X141609430Y-88655989D01*
X141609432Y-88655992D01*
X141641700Y-88719322D01*
X141644771Y-88725807D01*
X141675825Y-88796604D01*
X141675827Y-88796607D01*
X141696040Y-88827545D01*
X141702709Y-88839059D01*
X141707654Y-88848765D01*
X141716658Y-88866435D01*
X141716658Y-88866436D01*
X141762378Y-88929364D01*
X141765867Y-88934426D01*
X141811834Y-89004783D01*
X141832310Y-89027027D01*
X141841392Y-89038118D01*
X141855478Y-89057505D01*
X141855481Y-89057508D01*
X141855482Y-89057509D01*
X141855483Y-89057510D01*
X141915240Y-89117267D01*
X141918765Y-89120942D01*
X141980252Y-89187734D01*
X141980256Y-89187738D01*
X141998791Y-89202164D01*
X142010309Y-89212336D01*
X146557490Y-93759518D01*
X146732447Y-93886631D01*
X146748567Y-93898343D01*
X146779443Y-93914075D01*
X146959003Y-94005566D01*
X146959005Y-94005566D01*
X146959008Y-94005568D01*
X147079412Y-94044689D01*
X147183631Y-94078553D01*
X147416903Y-94115500D01*
X147416908Y-94115500D01*
X147416909Y-94115500D01*
X147653092Y-94115500D01*
X151375500Y-94115500D01*
X151442539Y-94135185D01*
X151488294Y-94187989D01*
X151499500Y-94239500D01*
X151499500Y-95822972D01*
X151479815Y-95890011D01*
X151466729Y-95906956D01*
X151418789Y-95959032D01*
X151415243Y-95962728D01*
X151355483Y-96022488D01*
X151341389Y-96041886D01*
X151332312Y-96052969D01*
X151311835Y-96075216D01*
X151311831Y-96075221D01*
X151265879Y-96145555D01*
X151262390Y-96150617D01*
X151216656Y-96213565D01*
X151202711Y-96240935D01*
X151196036Y-96252460D01*
X151175825Y-96283394D01*
X151144763Y-96354207D01*
X151141695Y-96360685D01*
X151130885Y-96381903D01*
X151130883Y-96381908D01*
X151109433Y-96424004D01*
X151097859Y-96459623D01*
X151093486Y-96471109D01*
X151075939Y-96511112D01*
X151075936Y-96511123D01*
X151058605Y-96579557D01*
X151056331Y-96587432D01*
X151036448Y-96648625D01*
X151029536Y-96692260D01*
X151027269Y-96703295D01*
X151014893Y-96752171D01*
X151014892Y-96752177D01*
X151014892Y-96752179D01*
X151009615Y-96815854D01*
X151008514Y-96824995D01*
X150999500Y-96881903D01*
X150999500Y-96932809D01*
X150999076Y-96943050D01*
X150994357Y-96999995D01*
X150994357Y-97000004D01*
X150999076Y-97056948D01*
X150999500Y-97067189D01*
X150999500Y-100583943D01*
X150979815Y-100650982D01*
X150927011Y-100696737D01*
X150857853Y-100706681D01*
X150816483Y-100692998D01*
X150684614Y-100621635D01*
X150684603Y-100621630D01*
X150449492Y-100540916D01*
X150330000Y-100520976D01*
X150330000Y-101566988D01*
X150272993Y-101534075D01*
X150145826Y-101500000D01*
X150014174Y-101500000D01*
X149887007Y-101534075D01*
X149830000Y-101566988D01*
X149830000Y-100520976D01*
X149829999Y-100520976D01*
X149710507Y-100540916D01*
X149475396Y-100621630D01*
X149475385Y-100621635D01*
X149256771Y-100739942D01*
X149256762Y-100739948D01*
X149060602Y-100892626D01*
X149060598Y-100892630D01*
X148901568Y-101065380D01*
X148841681Y-101101370D01*
X148771843Y-101099269D01*
X148719109Y-101065379D01*
X148622561Y-100960500D01*
X148559744Y-100892262D01*
X148363509Y-100739526D01*
X148363507Y-100739525D01*
X148363506Y-100739524D01*
X148144811Y-100621172D01*
X148144802Y-100621169D01*
X147909616Y-100540429D01*
X147664335Y-100499500D01*
X147505782Y-100499500D01*
X147438743Y-100479815D01*
X147418101Y-100463181D01*
X143954914Y-96999994D01*
X145994859Y-96999994D01*
X145994859Y-97000005D01*
X146015385Y-97247729D01*
X146015387Y-97247738D01*
X146076412Y-97488717D01*
X146176266Y-97716364D01*
X146276564Y-97869882D01*
X147017037Y-97129409D01*
X147034075Y-97192993D01*
X147099901Y-97307007D01*
X147192993Y-97400099D01*
X147307007Y-97465925D01*
X147370590Y-97482962D01*
X146629942Y-98223609D01*
X146676768Y-98260055D01*
X146676770Y-98260056D01*
X146895385Y-98378364D01*
X146895396Y-98378369D01*
X147130506Y-98459083D01*
X147375707Y-98500000D01*
X147624293Y-98500000D01*
X147869493Y-98459083D01*
X148104603Y-98378369D01*
X148104614Y-98378364D01*
X148323228Y-98260057D01*
X148323231Y-98260055D01*
X148370056Y-98223609D01*
X147629409Y-97482962D01*
X147692993Y-97465925D01*
X147807007Y-97400099D01*
X147900099Y-97307007D01*
X147965925Y-97192993D01*
X147982962Y-97129410D01*
X148723434Y-97869882D01*
X148823731Y-97716369D01*
X148923587Y-97488717D01*
X148984612Y-97247738D01*
X148984614Y-97247729D01*
X149005141Y-97000005D01*
X149005141Y-96999994D01*
X148984614Y-96752270D01*
X148984612Y-96752261D01*
X148923587Y-96511282D01*
X148823731Y-96283630D01*
X148723434Y-96130116D01*
X147982962Y-96870589D01*
X147965925Y-96807007D01*
X147900099Y-96692993D01*
X147807007Y-96599901D01*
X147692993Y-96534075D01*
X147629410Y-96517037D01*
X148370057Y-95776390D01*
X148370056Y-95776389D01*
X148323229Y-95739943D01*
X148104614Y-95621635D01*
X148104603Y-95621630D01*
X147869493Y-95540916D01*
X147624293Y-95500000D01*
X147375707Y-95500000D01*
X147130506Y-95540916D01*
X146895396Y-95621630D01*
X146895390Y-95621632D01*
X146676761Y-95739949D01*
X146629942Y-95776388D01*
X146629942Y-95776390D01*
X147370590Y-96517037D01*
X147307007Y-96534075D01*
X147192993Y-96599901D01*
X147099901Y-96692993D01*
X147034075Y-96807007D01*
X147017037Y-96870589D01*
X146276564Y-96130116D01*
X146176267Y-96283632D01*
X146076412Y-96511282D01*
X146015387Y-96752261D01*
X146015385Y-96752270D01*
X145994859Y-96999994D01*
X143954914Y-96999994D01*
X138161479Y-91206559D01*
X138161459Y-91206537D01*
X138017785Y-91062863D01*
X138017781Y-91062860D01*
X137853920Y-90953371D01*
X137853911Y-90953366D01*
X137761805Y-90915215D01*
X137725165Y-90900038D01*
X137671836Y-90877949D01*
X137671832Y-90877948D01*
X137671828Y-90877946D01*
X137575188Y-90858724D01*
X137478544Y-90839500D01*
X137478541Y-90839500D01*
X137172855Y-90839500D01*
X137105816Y-90819815D01*
X137081626Y-90799483D01*
X137019747Y-90732265D01*
X137019746Y-90732264D01*
X137019744Y-90732262D01*
X136936583Y-90667535D01*
X136895770Y-90610825D01*
X136892096Y-90541052D01*
X136926728Y-90480369D01*
X136936584Y-90471828D01*
X137019404Y-90407367D01*
X137019407Y-90407364D01*
X137187767Y-90224478D01*
X137323732Y-90016367D01*
X137423588Y-89788716D01*
X137484040Y-89550000D01*
X136433012Y-89550000D01*
X136465925Y-89492993D01*
X136500000Y-89365826D01*
X136500000Y-89234174D01*
X136465925Y-89107007D01*
X136433012Y-89050000D01*
X137484040Y-89050000D01*
X137423588Y-88811283D01*
X137323732Y-88583632D01*
X137187767Y-88375521D01*
X137019407Y-88192635D01*
X137019397Y-88192626D01*
X136936584Y-88128170D01*
X136895771Y-88071460D01*
X136892096Y-88001687D01*
X136926728Y-87941004D01*
X136936571Y-87932473D01*
X137019744Y-87867738D01*
X137188164Y-87684785D01*
X137324173Y-87476607D01*
X137424063Y-87248881D01*
X137485108Y-87007821D01*
X137485109Y-87007812D01*
X137505643Y-86760005D01*
X137505643Y-86759994D01*
X137485109Y-86512187D01*
X137485107Y-86512175D01*
X137424063Y-86271118D01*
X137324173Y-86043393D01*
X137188166Y-85835217D01*
X137094062Y-85732993D01*
X137019744Y-85652262D01*
X136936991Y-85587852D01*
X136896179Y-85531143D01*
X136892504Y-85461370D01*
X136927136Y-85400687D01*
X136936985Y-85392151D01*
X137019744Y-85327738D01*
X137054484Y-85290000D01*
X137081626Y-85260517D01*
X137141513Y-85224526D01*
X137172855Y-85220500D01*
X141401246Y-85220500D01*
X141468285Y-85240185D01*
G37*
%TD.AperFunction*%
%TA.AperFunction,Conductor*%
G36*
X144601257Y-84020185D02*
G01*
X144621899Y-84036819D01*
X151294735Y-90709655D01*
X151294764Y-90709686D01*
X151437214Y-90852136D01*
X151437218Y-90852139D01*
X151489986Y-90887398D01*
X151534791Y-90941010D01*
X151543498Y-91010335D01*
X151513343Y-91073363D01*
X151453900Y-91110082D01*
X151421095Y-91114500D01*
X148207890Y-91114500D01*
X148140851Y-91094815D01*
X148120209Y-91078181D01*
X144084782Y-87042755D01*
X144081234Y-87039057D01*
X144019747Y-86972265D01*
X144019742Y-86972261D01*
X144001211Y-86957837D01*
X143989692Y-86947665D01*
X143977509Y-86935482D01*
X143941103Y-86909031D01*
X143898438Y-86853700D01*
X143892460Y-86784086D01*
X143925067Y-86722292D01*
X143937828Y-86710860D01*
X144019404Y-86647367D01*
X144019407Y-86647364D01*
X144187767Y-86464478D01*
X144323732Y-86256367D01*
X144423588Y-86028716D01*
X144484040Y-85790000D01*
X143433012Y-85790000D01*
X143465925Y-85732993D01*
X143500000Y-85605826D01*
X143500000Y-85474174D01*
X143465925Y-85347007D01*
X143433012Y-85290000D01*
X144484040Y-85290000D01*
X144423588Y-85051283D01*
X144323732Y-84823632D01*
X144187767Y-84615521D01*
X144019407Y-84432635D01*
X144019397Y-84432626D01*
X143936584Y-84368170D01*
X143895771Y-84311460D01*
X143892096Y-84241687D01*
X143926728Y-84181004D01*
X143936571Y-84172473D01*
X144019744Y-84107738D01*
X144044194Y-84081177D01*
X144081626Y-84040517D01*
X144141513Y-84004526D01*
X144172855Y-84000500D01*
X144534218Y-84000500D01*
X144601257Y-84020185D01*
G37*
%TD.AperFunction*%
%TA.AperFunction,Conductor*%
G36*
X157358831Y-73020185D02*
G01*
X157404586Y-73072989D01*
X157414530Y-73142147D01*
X157385505Y-73205703D01*
X157326727Y-73243477D01*
X157320739Y-73245074D01*
X157203889Y-73273126D01*
X156971140Y-73369533D01*
X156756346Y-73501160D01*
X156756343Y-73501161D01*
X156564776Y-73664776D01*
X156401161Y-73856343D01*
X156401160Y-73856346D01*
X156269533Y-74071140D01*
X156173126Y-74303889D01*
X156114317Y-74548848D01*
X156094551Y-74800000D01*
X156114317Y-75051151D01*
X156173126Y-75296110D01*
X156269533Y-75528859D01*
X156401160Y-75743653D01*
X156401161Y-75743656D01*
X156405411Y-75748632D01*
X156564776Y-75935224D01*
X156713066Y-76061875D01*
X156756343Y-76098838D01*
X156756346Y-76098839D01*
X156971140Y-76230466D01*
X157060875Y-76267635D01*
X157203889Y-76326873D01*
X157448852Y-76385683D01*
X157700000Y-76405449D01*
X157951148Y-76385683D01*
X158196111Y-76326873D01*
X158428859Y-76230466D01*
X158643659Y-76098836D01*
X158835224Y-75935224D01*
X158998836Y-75743659D01*
X159130466Y-75528859D01*
X159226873Y-75296111D01*
X159254926Y-75179260D01*
X159289717Y-75118669D01*
X159351743Y-75086505D01*
X159421312Y-75092981D01*
X159476336Y-75136040D01*
X159499345Y-75202013D01*
X159499500Y-75208208D01*
X159499500Y-129699062D01*
X159479815Y-129766101D01*
X159427011Y-129811856D01*
X159357853Y-129821800D01*
X159294297Y-129792775D01*
X159257570Y-129737382D01*
X159256225Y-129733245D01*
X159249333Y-129716607D01*
X159159816Y-129500491D01*
X159159816Y-129500490D01*
X159028189Y-129285696D01*
X159028188Y-129285693D01*
X158991225Y-129242416D01*
X158864574Y-129094126D01*
X158680486Y-128936900D01*
X158673006Y-128930511D01*
X158673003Y-128930510D01*
X158458209Y-128798883D01*
X158225460Y-128702476D01*
X157980501Y-128643667D01*
X157729350Y-128623901D01*
X157478198Y-128643667D01*
X157233239Y-128702476D01*
X157000490Y-128798883D01*
X156785696Y-128930510D01*
X156785693Y-128930511D01*
X156594126Y-129094126D01*
X156430511Y-129285693D01*
X156430510Y-129285696D01*
X156298883Y-129500490D01*
X156202476Y-129733239D01*
X156143667Y-129978198D01*
X156123901Y-130229350D01*
X156143667Y-130480501D01*
X156202476Y-130725460D01*
X156298883Y-130958209D01*
X156430510Y-131173003D01*
X156430511Y-131173006D01*
X156432144Y-131174918D01*
X156594126Y-131364574D01*
X156742416Y-131491225D01*
X156785693Y-131528188D01*
X156785696Y-131528189D01*
X157000490Y-131659816D01*
X157127781Y-131712541D01*
X157233239Y-131756223D01*
X157233247Y-131756224D01*
X157237379Y-131757568D01*
X157295055Y-131797005D01*
X157322254Y-131861363D01*
X157310341Y-131930209D01*
X157263098Y-131981686D01*
X157199063Y-131999500D01*
X102804910Y-131999500D01*
X102737871Y-131979815D01*
X102692116Y-131927011D01*
X102682172Y-131857853D01*
X102711197Y-131794297D01*
X102760902Y-131761341D01*
X102760347Y-131760000D01*
X102997597Y-131661728D01*
X103000717Y-131659816D01*
X103212397Y-131530098D01*
X103403962Y-131366486D01*
X103567574Y-131174921D01*
X103699204Y-130960121D01*
X103795611Y-130727373D01*
X103854421Y-130482410D01*
X103874187Y-130231262D01*
X103854421Y-129980114D01*
X103795611Y-129735151D01*
X103755280Y-129637782D01*
X103699204Y-129502402D01*
X103567577Y-129287608D01*
X103567576Y-129287605D01*
X103530613Y-129244328D01*
X103403962Y-129096038D01*
X103260483Y-128973495D01*
X103212394Y-128932423D01*
X103212391Y-128932422D01*
X102997597Y-128800795D01*
X102764848Y-128704388D01*
X102519889Y-128645579D01*
X102268738Y-128625813D01*
X102017586Y-128645579D01*
X101772627Y-128704388D01*
X101539878Y-128800795D01*
X101325084Y-128932422D01*
X101325081Y-128932423D01*
X101133514Y-129096038D01*
X100969899Y-129287605D01*
X100969898Y-129287608D01*
X100838271Y-129502402D01*
X100740000Y-129739653D01*
X100738568Y-129739059D01*
X100702984Y-129791090D01*
X100638623Y-129818282D01*
X100569778Y-129806361D01*
X100518307Y-129759112D01*
X100500500Y-129695089D01*
X100500500Y-82885258D01*
X103249500Y-82885258D01*
X103249500Y-87574741D01*
X103265332Y-87694989D01*
X103279452Y-87802238D01*
X103338618Y-88023050D01*
X103338842Y-88023887D01*
X103426650Y-88235876D01*
X103426656Y-88235888D01*
X103482887Y-88333285D01*
X103499500Y-88395282D01*
X103499500Y-88507869D01*
X103499501Y-88507872D01*
X103505908Y-88567483D01*
X103556202Y-88702328D01*
X103556206Y-88702335D01*
X103642452Y-88817544D01*
X103642455Y-88817547D01*
X103757663Y-88903793D01*
X103762799Y-88906597D01*
X103812205Y-88956002D01*
X103827057Y-89024275D01*
X103807182Y-89083251D01*
X103676267Y-89283632D01*
X103576411Y-89511283D01*
X103515960Y-89750000D01*
X104566988Y-89750000D01*
X104534075Y-89807007D01*
X104500000Y-89934174D01*
X104500000Y-90065826D01*
X104534075Y-90192993D01*
X104566988Y-90250000D01*
X103515960Y-90250000D01*
X103576411Y-90488716D01*
X103676267Y-90716367D01*
X103812232Y-90924478D01*
X103980592Y-91107364D01*
X103980602Y-91107373D01*
X104176762Y-91260051D01*
X104176771Y-91260057D01*
X104395385Y-91378364D01*
X104395396Y-91378369D01*
X104630507Y-91459083D01*
X104749999Y-91479023D01*
X104750000Y-91479022D01*
X104750000Y-90433012D01*
X104807007Y-90465925D01*
X104934174Y-90500000D01*
X105065826Y-90500000D01*
X105192993Y-90465925D01*
X105250000Y-90433012D01*
X105250000Y-91479023D01*
X105369492Y-91459083D01*
X105604603Y-91378369D01*
X105604614Y-91378364D01*
X105823228Y-91260057D01*
X105823237Y-91260051D01*
X106019397Y-91107373D01*
X106019407Y-91107364D01*
X106187767Y-90924478D01*
X106323732Y-90716367D01*
X106423588Y-90488716D01*
X106484040Y-90250000D01*
X105433012Y-90250000D01*
X105465925Y-90192993D01*
X105500000Y-90065826D01*
X105500000Y-89934174D01*
X105465925Y-89807007D01*
X105433012Y-89750000D01*
X106484040Y-89750000D01*
X106423588Y-89511283D01*
X106367893Y-89384310D01*
X106358990Y-89315010D01*
X106388967Y-89251898D01*
X106448307Y-89215011D01*
X106481449Y-89210500D01*
X109154727Y-89210500D01*
X109154734Y-89210500D01*
X109355771Y-89184032D01*
X109355772Y-89184032D01*
X109382229Y-89180550D01*
X109382234Y-89180548D01*
X109382239Y-89180548D01*
X109603887Y-89121158D01*
X109804363Y-89038118D01*
X109815879Y-89033348D01*
X109815882Y-89033346D01*
X109815888Y-89033344D01*
X109815894Y-89033340D01*
X109815899Y-89033338D01*
X109859498Y-89008166D01*
X109859499Y-89008165D01*
X110014612Y-88918611D01*
X110105635Y-88848766D01*
X110105636Y-88848765D01*
X110118276Y-88839066D01*
X110196661Y-88778920D01*
X111318920Y-87656661D01*
X111458610Y-87474612D01*
X111573344Y-87275888D01*
X111573746Y-87274919D01*
X111623328Y-87155216D01*
X111661158Y-87063887D01*
X111720548Y-86842239D01*
X111750499Y-86614734D01*
X111750499Y-86385266D01*
X111747548Y-86362854D01*
X111735920Y-86274526D01*
X111720548Y-86157761D01*
X111661158Y-85936113D01*
X111619365Y-85835215D01*
X111573348Y-85724120D01*
X111573343Y-85724111D01*
X111566124Y-85711607D01*
X111458610Y-85525388D01*
X111458605Y-85525382D01*
X111458603Y-85525378D01*
X111318921Y-85343340D01*
X111318915Y-85343333D01*
X111156666Y-85181084D01*
X111156659Y-85181078D01*
X110974621Y-85041396D01*
X110974615Y-85041392D01*
X110974612Y-85041390D01*
X110775888Y-84926656D01*
X110775879Y-84926651D01*
X110563887Y-84838842D01*
X110507122Y-84823632D01*
X110342239Y-84779452D01*
X110342233Y-84779451D01*
X110342228Y-84779450D01*
X110114735Y-84749501D01*
X110114734Y-84749501D01*
X109885266Y-84749501D01*
X109885265Y-84749501D01*
X109657771Y-84779450D01*
X109657764Y-84779451D01*
X109657761Y-84779452D01*
X109564077Y-84804554D01*
X109436112Y-84838842D01*
X109224120Y-84926651D01*
X109224111Y-84926656D01*
X109025388Y-85041390D01*
X109025378Y-85041396D01*
X108843340Y-85181078D01*
X108843333Y-85181084D01*
X108351238Y-85673181D01*
X108289915Y-85706666D01*
X108263557Y-85709500D01*
X106874500Y-85709500D01*
X106807461Y-85689815D01*
X106761706Y-85637011D01*
X106750500Y-85585500D01*
X106750500Y-83776443D01*
X106770185Y-83709404D01*
X106786819Y-83688762D01*
X107143762Y-83331819D01*
X107205085Y-83298334D01*
X107231443Y-83295500D01*
X107735266Y-83295500D01*
X116125500Y-83295500D01*
X116192539Y-83315185D01*
X116238294Y-83367989D01*
X116249500Y-83419500D01*
X116249500Y-87223556D01*
X116229815Y-87290595D01*
X116213181Y-87311237D01*
X111697416Y-91827001D01*
X111636093Y-91860486D01*
X111566401Y-91855502D01*
X111510468Y-91813630D01*
X111486051Y-91748166D01*
X111486159Y-91729080D01*
X111505141Y-91500005D01*
X111505141Y-91499994D01*
X111484614Y-91252270D01*
X111484612Y-91252261D01*
X111423587Y-91011282D01*
X111323731Y-90783630D01*
X111223434Y-90630116D01*
X110482962Y-91370589D01*
X110465925Y-91307007D01*
X110400099Y-91192993D01*
X110307007Y-91099901D01*
X110192993Y-91034075D01*
X110129410Y-91017037D01*
X110870057Y-90276390D01*
X110870056Y-90276389D01*
X110823229Y-90239943D01*
X110604614Y-90121635D01*
X110604603Y-90121630D01*
X110369493Y-90040916D01*
X110124293Y-90000000D01*
X109875707Y-90000000D01*
X109630506Y-90040916D01*
X109395396Y-90121630D01*
X109395390Y-90121632D01*
X109176761Y-90239949D01*
X109129942Y-90276388D01*
X109129942Y-90276390D01*
X109870590Y-91017037D01*
X109807007Y-91034075D01*
X109692993Y-91099901D01*
X109599901Y-91192993D01*
X109534075Y-91307007D01*
X109517037Y-91370589D01*
X108776564Y-90630116D01*
X108676267Y-90783632D01*
X108576412Y-91011282D01*
X108515387Y-91252261D01*
X108515385Y-91252270D01*
X108494859Y-91499994D01*
X108494859Y-91500005D01*
X108515385Y-91747729D01*
X108515387Y-91747738D01*
X108576412Y-91988717D01*
X108676266Y-92216364D01*
X108776564Y-92369882D01*
X109517037Y-91629409D01*
X109534075Y-91692993D01*
X109599901Y-91807007D01*
X109692993Y-91900099D01*
X109807007Y-91965925D01*
X109870590Y-91982962D01*
X109129942Y-92723609D01*
X109176768Y-92760055D01*
X109176770Y-92760056D01*
X109395385Y-92878364D01*
X109395396Y-92878369D01*
X109630506Y-92959083D01*
X109875707Y-93000000D01*
X110124293Y-93000000D01*
X110222769Y-92983567D01*
X110292134Y-92991949D01*
X110345956Y-93036502D01*
X110367147Y-93103080D01*
X110348979Y-93170546D01*
X110330860Y-93193557D01*
X109681084Y-93843333D01*
X109681078Y-93843340D01*
X109632933Y-93906085D01*
X109632932Y-93906086D01*
X109609914Y-93936083D01*
X109553486Y-93977286D01*
X109483740Y-93981440D01*
X109423858Y-93948277D01*
X108616668Y-93141086D01*
X108616663Y-93141082D01*
X108616661Y-93141080D01*
X108525636Y-93071235D01*
X108480372Y-93036502D01*
X108434622Y-93001396D01*
X108434616Y-93001392D01*
X108434612Y-93001389D01*
X108361336Y-92959083D01*
X108235891Y-92886657D01*
X108235876Y-92886650D01*
X108023887Y-92798842D01*
X107802239Y-92739452D01*
X107802233Y-92739451D01*
X107802232Y-92739451D01*
X107792362Y-92738151D01*
X107775771Y-92735967D01*
X107775770Y-92735966D01*
X107574744Y-92709501D01*
X107574739Y-92709500D01*
X107574734Y-92709500D01*
X104885266Y-92709500D01*
X104885258Y-92709500D01*
X104668715Y-92738009D01*
X104657762Y-92739452D01*
X104580870Y-92760055D01*
X104436112Y-92798842D01*
X104224123Y-92886650D01*
X104224113Y-92886655D01*
X104126713Y-92942888D01*
X104064715Y-92959500D01*
X103952130Y-92959500D01*
X103952123Y-92959501D01*
X103892516Y-92965908D01*
X103757671Y-93016202D01*
X103757664Y-93016206D01*
X103642455Y-93102452D01*
X103642452Y-93102455D01*
X103556206Y-93217664D01*
X103556202Y-93217671D01*
X103505908Y-93352517D01*
X103499501Y-93412116D01*
X103499500Y-93412135D01*
X103499500Y-93524716D01*
X103482887Y-93586716D01*
X103426657Y-93684108D01*
X103426650Y-93684123D01*
X103338842Y-93896112D01*
X103279453Y-94117759D01*
X103279451Y-94117770D01*
X103249500Y-94345258D01*
X103249500Y-94574741D01*
X103264281Y-94687007D01*
X103279452Y-94802238D01*
X103279453Y-94802240D01*
X103338842Y-95023887D01*
X103426650Y-95235876D01*
X103426656Y-95235888D01*
X103482887Y-95333285D01*
X103499500Y-95395282D01*
X103499500Y-95507869D01*
X103499501Y-95507876D01*
X103505908Y-95567483D01*
X103556202Y-95702328D01*
X103556206Y-95702335D01*
X103642452Y-95817544D01*
X103642455Y-95817547D01*
X103757663Y-95903793D01*
X103762799Y-95906597D01*
X103812205Y-95956002D01*
X103827057Y-96024275D01*
X103807182Y-96083251D01*
X103676267Y-96283632D01*
X103576411Y-96511283D01*
X103515960Y-96750000D01*
X104566988Y-96750000D01*
X104534075Y-96807007D01*
X104500000Y-96934174D01*
X104500000Y-97065826D01*
X104534075Y-97192993D01*
X104566988Y-97250000D01*
X103515960Y-97250000D01*
X103576411Y-97488716D01*
X103676267Y-97716367D01*
X103812232Y-97924478D01*
X103980592Y-98107364D01*
X103980602Y-98107373D01*
X104176762Y-98260051D01*
X104176771Y-98260057D01*
X104395385Y-98378364D01*
X104395396Y-98378369D01*
X104630507Y-98459083D01*
X104749999Y-98479023D01*
X104750000Y-98479022D01*
X104750000Y-97433012D01*
X104807007Y-97465925D01*
X104934174Y-97500000D01*
X105065826Y-97500000D01*
X105192993Y-97465925D01*
X105250000Y-97433012D01*
X105250000Y-98479023D01*
X105369492Y-98459083D01*
X105604603Y-98378369D01*
X105604614Y-98378364D01*
X105823228Y-98260057D01*
X105823237Y-98260051D01*
X106019397Y-98107373D01*
X106019407Y-98107364D01*
X106187767Y-97924478D01*
X106323732Y-97716367D01*
X106423588Y-97488716D01*
X106484040Y-97250000D01*
X105433012Y-97250000D01*
X105465925Y-97192993D01*
X105500000Y-97065826D01*
X105500000Y-96934174D01*
X105465925Y-96807007D01*
X105433012Y-96750000D01*
X106484040Y-96750000D01*
X106423588Y-96511283D01*
X106367893Y-96384310D01*
X106358990Y-96315010D01*
X106388967Y-96251898D01*
X106448307Y-96215011D01*
X106481449Y-96210500D01*
X106683557Y-96210500D01*
X106750596Y-96230185D01*
X106771238Y-96246819D01*
X108436738Y-97912319D01*
X108470223Y-97973642D01*
X108465239Y-98043334D01*
X108436738Y-98087681D01*
X107311238Y-99213181D01*
X107249915Y-99246666D01*
X107223557Y-99249500D01*
X104885258Y-99249500D01*
X104668715Y-99278009D01*
X104657762Y-99279452D01*
X104564076Y-99304554D01*
X104436112Y-99338842D01*
X104224123Y-99426650D01*
X104224113Y-99426655D01*
X104126713Y-99482888D01*
X104064715Y-99499500D01*
X103952130Y-99499500D01*
X103952123Y-99499501D01*
X103892516Y-99505908D01*
X103757671Y-99556202D01*
X103757664Y-99556206D01*
X103642455Y-99642452D01*
X103642452Y-99642455D01*
X103556206Y-99757664D01*
X103556202Y-99757671D01*
X103505908Y-99892517D01*
X103499501Y-99952116D01*
X103499500Y-99952135D01*
X103499500Y-100064716D01*
X103482887Y-100126716D01*
X103426657Y-100224108D01*
X103426650Y-100224123D01*
X103338842Y-100436112D01*
X103316103Y-100520976D01*
X103289134Y-100621630D01*
X103279453Y-100657759D01*
X103279451Y-100657770D01*
X103249500Y-100885258D01*
X103249500Y-101114741D01*
X103265132Y-101233468D01*
X103279452Y-101342238D01*
X103279453Y-101342240D01*
X103338842Y-101563887D01*
X103426650Y-101775876D01*
X103426656Y-101775888D01*
X103482887Y-101873285D01*
X103499500Y-101935282D01*
X103499500Y-102047869D01*
X103499501Y-102047876D01*
X103505908Y-102107483D01*
X103556202Y-102242328D01*
X103556206Y-102242335D01*
X103642452Y-102357544D01*
X103642455Y-102357547D01*
X103757663Y-102443793D01*
X103762799Y-102446597D01*
X103812205Y-102496002D01*
X103827057Y-102564275D01*
X103807182Y-102623251D01*
X103676267Y-102823632D01*
X103576411Y-103051283D01*
X103515960Y-103290000D01*
X104566988Y-103290000D01*
X104534075Y-103347007D01*
X104500000Y-103474174D01*
X104500000Y-103605826D01*
X104534075Y-103732993D01*
X104566988Y-103790000D01*
X103515960Y-103790000D01*
X103576411Y-104028716D01*
X103676267Y-104256367D01*
X103812232Y-104464478D01*
X103980592Y-104647364D01*
X103980602Y-104647373D01*
X104176762Y-104800051D01*
X104176771Y-104800057D01*
X104395385Y-104918364D01*
X104395396Y-104918369D01*
X104630507Y-104999083D01*
X104749999Y-105019023D01*
X104750000Y-105019022D01*
X104750000Y-103973012D01*
X104807007Y-104005925D01*
X104934174Y-104040000D01*
X105065826Y-104040000D01*
X105192993Y-104005925D01*
X105250000Y-103973012D01*
X105250000Y-105019023D01*
X105369492Y-104999083D01*
X105604603Y-104918369D01*
X105604614Y-104918364D01*
X105823228Y-104800057D01*
X105823237Y-104800051D01*
X106019397Y-104647373D01*
X106019407Y-104647364D01*
X106187767Y-104464478D01*
X106323732Y-104256367D01*
X106423588Y-104028716D01*
X106484040Y-103790000D01*
X105433012Y-103790000D01*
X105465925Y-103732993D01*
X105500000Y-103605826D01*
X105500000Y-103474174D01*
X105465925Y-103347007D01*
X105433012Y-103290000D01*
X106484040Y-103290000D01*
X106423588Y-103051283D01*
X106367893Y-102924310D01*
X106358990Y-102855010D01*
X106388967Y-102791898D01*
X106448307Y-102755011D01*
X106481449Y-102750500D01*
X108114727Y-102750500D01*
X108114734Y-102750500D01*
X108315771Y-102724032D01*
X108315772Y-102724032D01*
X108342229Y-102720550D01*
X108342234Y-102720548D01*
X108342239Y-102720548D01*
X108563887Y-102661158D01*
X108746348Y-102585580D01*
X108775879Y-102573348D01*
X108775881Y-102573346D01*
X108775888Y-102573344D01*
X108792268Y-102563887D01*
X108922183Y-102488881D01*
X108974607Y-102458614D01*
X108974607Y-102458613D01*
X108974612Y-102458611D01*
X109050014Y-102400752D01*
X109115183Y-102375559D01*
X109183627Y-102389597D01*
X109233617Y-102438411D01*
X109249500Y-102499129D01*
X109249500Y-104223557D01*
X109229815Y-104290596D01*
X109213181Y-104311238D01*
X107851238Y-105673181D01*
X107789915Y-105706666D01*
X107763557Y-105709500D01*
X104885258Y-105709500D01*
X104668715Y-105738009D01*
X104657762Y-105739452D01*
X104564076Y-105764554D01*
X104436112Y-105798842D01*
X104224123Y-105886650D01*
X104224113Y-105886655D01*
X104126713Y-105942888D01*
X104064715Y-105959500D01*
X103952130Y-105959500D01*
X103952123Y-105959501D01*
X103892516Y-105965908D01*
X103757671Y-106016202D01*
X103757664Y-106016206D01*
X103642455Y-106102452D01*
X103642452Y-106102455D01*
X103556206Y-106217664D01*
X103556202Y-106217671D01*
X103505908Y-106352517D01*
X103499501Y-106412116D01*
X103499500Y-106412135D01*
X103499500Y-106524716D01*
X103482887Y-106586716D01*
X103426657Y-106684108D01*
X103426650Y-106684123D01*
X103338842Y-106896112D01*
X103279453Y-107117759D01*
X103279451Y-107117770D01*
X103249500Y-107345258D01*
X103249500Y-107574741D01*
X103274446Y-107764215D01*
X103279452Y-107802238D01*
X103327377Y-107981099D01*
X103338842Y-108023887D01*
X103426650Y-108235876D01*
X103426656Y-108235888D01*
X103482887Y-108333285D01*
X103499500Y-108395282D01*
X103499500Y-108507869D01*
X103499501Y-108507876D01*
X103505908Y-108567483D01*
X103556202Y-108702328D01*
X103556206Y-108702335D01*
X103642452Y-108817544D01*
X103642455Y-108817547D01*
X103757663Y-108903793D01*
X103762799Y-108906597D01*
X103812205Y-108956002D01*
X103827057Y-109024275D01*
X103807182Y-109083251D01*
X103676267Y-109283632D01*
X103576411Y-109511283D01*
X103515960Y-109750000D01*
X104566988Y-109750000D01*
X104534075Y-109807007D01*
X104500000Y-109934174D01*
X104500000Y-110065826D01*
X104534075Y-110192993D01*
X104566988Y-110250000D01*
X103515960Y-110250000D01*
X103576411Y-110488716D01*
X103676267Y-110716367D01*
X103812232Y-110924478D01*
X103980592Y-111107364D01*
X103980602Y-111107373D01*
X104176762Y-111260051D01*
X104176771Y-111260057D01*
X104395385Y-111378364D01*
X104395396Y-111378369D01*
X104630507Y-111459083D01*
X104749999Y-111479023D01*
X104750000Y-111479022D01*
X104750000Y-110433012D01*
X104807007Y-110465925D01*
X104934174Y-110500000D01*
X105065826Y-110500000D01*
X105192993Y-110465925D01*
X105250000Y-110433012D01*
X105250000Y-111479023D01*
X105369492Y-111459083D01*
X105604603Y-111378369D01*
X105604614Y-111378364D01*
X105823228Y-111260057D01*
X105823237Y-111260051D01*
X106019397Y-111107373D01*
X106019407Y-111107364D01*
X106187767Y-110924478D01*
X106323732Y-110716367D01*
X106423588Y-110488716D01*
X106484040Y-110250000D01*
X105433012Y-110250000D01*
X105465925Y-110192993D01*
X105500000Y-110065826D01*
X105500000Y-109934174D01*
X105465925Y-109807007D01*
X105433012Y-109750000D01*
X106484040Y-109750000D01*
X106423588Y-109511283D01*
X106367893Y-109384310D01*
X106358990Y-109315010D01*
X106388967Y-109251898D01*
X106448307Y-109215011D01*
X106481449Y-109210500D01*
X108654727Y-109210500D01*
X108654734Y-109210500D01*
X108855771Y-109184032D01*
X108855772Y-109184032D01*
X108882229Y-109180550D01*
X108882234Y-109180548D01*
X108882239Y-109180548D01*
X109093407Y-109123966D01*
X109163256Y-109125629D01*
X109221119Y-109164791D01*
X109248623Y-109229020D01*
X109249500Y-109243741D01*
X109249500Y-111223557D01*
X109229815Y-111290596D01*
X109213181Y-111311238D01*
X107851238Y-112673181D01*
X107789915Y-112706666D01*
X107763557Y-112709500D01*
X104885258Y-112709500D01*
X104668715Y-112738009D01*
X104657762Y-112739452D01*
X104564076Y-112764554D01*
X104436112Y-112798842D01*
X104224123Y-112886650D01*
X104224113Y-112886655D01*
X104126713Y-112942888D01*
X104064715Y-112959500D01*
X103952130Y-112959500D01*
X103952123Y-112959501D01*
X103892516Y-112965908D01*
X103757671Y-113016202D01*
X103757664Y-113016206D01*
X103642455Y-113102452D01*
X103642452Y-113102455D01*
X103556206Y-113217664D01*
X103556202Y-113217671D01*
X103505908Y-113352517D01*
X103499501Y-113412116D01*
X103499500Y-113412135D01*
X103499500Y-113524716D01*
X103482887Y-113586716D01*
X103426657Y-113684108D01*
X103426650Y-113684123D01*
X103338842Y-113896112D01*
X103279453Y-114117759D01*
X103279451Y-114117770D01*
X103249500Y-114345258D01*
X103249500Y-114574741D01*
X103265992Y-114700000D01*
X103279452Y-114802238D01*
X103319044Y-114950000D01*
X103338842Y-115023887D01*
X103426650Y-115235876D01*
X103426656Y-115235888D01*
X103482887Y-115333285D01*
X103499500Y-115395282D01*
X103499500Y-115507869D01*
X103499501Y-115507876D01*
X103505908Y-115567483D01*
X103556202Y-115702328D01*
X103556206Y-115702335D01*
X103642452Y-115817544D01*
X103642455Y-115817547D01*
X103757663Y-115903793D01*
X103762799Y-115906597D01*
X103812205Y-115956002D01*
X103827057Y-116024275D01*
X103807182Y-116083251D01*
X103676267Y-116283632D01*
X103576411Y-116511283D01*
X103515960Y-116750000D01*
X104566988Y-116750000D01*
X104534075Y-116807007D01*
X104500000Y-116934174D01*
X104500000Y-117065826D01*
X104534075Y-117192993D01*
X104566988Y-117250000D01*
X103515960Y-117250000D01*
X103576411Y-117488716D01*
X103676267Y-117716367D01*
X103812232Y-117924478D01*
X103980592Y-118107364D01*
X103980602Y-118107373D01*
X104176762Y-118260051D01*
X104176771Y-118260057D01*
X104395385Y-118378364D01*
X104395396Y-118378369D01*
X104630507Y-118459083D01*
X104749999Y-118479023D01*
X104750000Y-118479022D01*
X104750000Y-117433012D01*
X104807007Y-117465925D01*
X104934174Y-117500000D01*
X105065826Y-117500000D01*
X105192993Y-117465925D01*
X105250000Y-117433012D01*
X105250000Y-118479023D01*
X105369492Y-118459083D01*
X105604603Y-118378369D01*
X105604614Y-118378364D01*
X105823228Y-118260057D01*
X105823237Y-118260051D01*
X106019397Y-118107373D01*
X106019407Y-118107364D01*
X106187767Y-117924478D01*
X106323732Y-117716367D01*
X106423588Y-117488716D01*
X106484040Y-117250000D01*
X105433012Y-117250000D01*
X105465925Y-117192993D01*
X105500000Y-117065826D01*
X105500000Y-116934174D01*
X105465925Y-116807007D01*
X105433012Y-116750000D01*
X106484040Y-116750000D01*
X106423588Y-116511283D01*
X106367893Y-116384310D01*
X106358990Y-116315010D01*
X106388967Y-116251898D01*
X106448307Y-116215011D01*
X106481449Y-116210500D01*
X108654727Y-116210500D01*
X108654734Y-116210500D01*
X108855771Y-116184032D01*
X108855772Y-116184032D01*
X108882229Y-116180550D01*
X108882234Y-116180548D01*
X108882239Y-116180548D01*
X109093407Y-116123966D01*
X109163256Y-116125629D01*
X109221119Y-116164791D01*
X109248623Y-116229020D01*
X109249500Y-116243741D01*
X109249500Y-119223557D01*
X109229815Y-119290596D01*
X109213181Y-119311238D01*
X108851238Y-119673181D01*
X108789915Y-119706666D01*
X108763557Y-119709500D01*
X104885258Y-119709500D01*
X104668715Y-119738009D01*
X104657762Y-119739452D01*
X104564076Y-119764554D01*
X104436112Y-119798842D01*
X104224123Y-119886650D01*
X104224113Y-119886655D01*
X104126713Y-119942888D01*
X104064715Y-119959500D01*
X103952130Y-119959500D01*
X103952123Y-119959501D01*
X103892516Y-119965908D01*
X103757671Y-120016202D01*
X103757664Y-120016206D01*
X103642455Y-120102452D01*
X103642452Y-120102455D01*
X103556206Y-120217664D01*
X103556202Y-120217671D01*
X103505908Y-120352517D01*
X103499501Y-120412116D01*
X103499500Y-120412135D01*
X103499500Y-120524716D01*
X103482887Y-120586716D01*
X103426657Y-120684108D01*
X103426650Y-120684123D01*
X103338842Y-120896112D01*
X103323913Y-120951828D01*
X103280381Y-121114297D01*
X103279453Y-121117759D01*
X103279451Y-121117770D01*
X103249500Y-121345258D01*
X103249500Y-121574741D01*
X103268697Y-121720546D01*
X103279452Y-121802238D01*
X103279453Y-121802240D01*
X103338842Y-122023887D01*
X103426650Y-122235876D01*
X103426656Y-122235888D01*
X103482887Y-122333285D01*
X103499500Y-122395282D01*
X103499500Y-122507869D01*
X103499501Y-122507876D01*
X103505908Y-122567483D01*
X103556202Y-122702328D01*
X103556206Y-122702335D01*
X103642452Y-122817544D01*
X103642454Y-122817546D01*
X103757663Y-122903793D01*
X103762799Y-122906597D01*
X103812205Y-122956002D01*
X103827057Y-123024275D01*
X103807182Y-123083251D01*
X103676267Y-123283632D01*
X103576411Y-123511283D01*
X103515960Y-123750000D01*
X104566988Y-123750000D01*
X104534075Y-123807007D01*
X104500000Y-123934174D01*
X104500000Y-124065826D01*
X104534075Y-124192993D01*
X104566988Y-124250000D01*
X103515960Y-124250000D01*
X103576411Y-124488716D01*
X103676267Y-124716367D01*
X103812232Y-124924478D01*
X103980592Y-125107364D01*
X103980602Y-125107373D01*
X104176762Y-125260051D01*
X104176771Y-125260057D01*
X104395385Y-125378364D01*
X104395396Y-125378369D01*
X104630507Y-125459083D01*
X104749999Y-125479023D01*
X104750000Y-125479022D01*
X104750000Y-124433012D01*
X104807007Y-124465925D01*
X104934174Y-124500000D01*
X105065826Y-124500000D01*
X105192993Y-124465925D01*
X105250000Y-124433012D01*
X105250000Y-125479023D01*
X105369492Y-125459083D01*
X105604603Y-125378369D01*
X105604614Y-125378364D01*
X105823228Y-125260057D01*
X105823237Y-125260051D01*
X106019397Y-125107373D01*
X106019407Y-125107364D01*
X106187767Y-124924478D01*
X106323732Y-124716367D01*
X106423588Y-124488716D01*
X106484040Y-124250000D01*
X105433012Y-124250000D01*
X105465925Y-124192993D01*
X105500000Y-124065826D01*
X105500000Y-123934174D01*
X105465925Y-123807007D01*
X105433012Y-123750000D01*
X106484040Y-123750000D01*
X106423588Y-123511283D01*
X106367893Y-123384310D01*
X106358990Y-123315010D01*
X106388967Y-123251898D01*
X106448307Y-123215011D01*
X106481449Y-123210500D01*
X109654727Y-123210500D01*
X109654734Y-123210500D01*
X109855771Y-123184032D01*
X109855772Y-123184032D01*
X109882229Y-123180550D01*
X109882234Y-123180548D01*
X109882239Y-123180548D01*
X110103887Y-123121158D01*
X110315888Y-123033344D01*
X110514612Y-122918611D01*
X110646322Y-122817546D01*
X110696661Y-122778920D01*
X112318920Y-121156661D01*
X112408073Y-121040474D01*
X112458611Y-120974612D01*
X112515977Y-120875250D01*
X112573345Y-120775888D01*
X112657230Y-120573369D01*
X112661158Y-120563887D01*
X112678826Y-120497949D01*
X112720549Y-120342239D01*
X112750500Y-120114734D01*
X112750500Y-119885266D01*
X112750500Y-115885266D01*
X112750500Y-111345266D01*
X112750500Y-108885266D01*
X112750500Y-104885266D01*
X112750500Y-101885266D01*
X112750500Y-98345266D01*
X112750500Y-96885266D01*
X112750500Y-95776443D01*
X112770185Y-95709404D01*
X112786819Y-95688762D01*
X119318915Y-89156666D01*
X119318920Y-89156661D01*
X119406863Y-89042051D01*
X119458611Y-88974612D01*
X119573344Y-88775888D01*
X119661158Y-88563887D01*
X119676167Y-88507872D01*
X119720549Y-88342239D01*
X119736698Y-88219571D01*
X119750500Y-88114734D01*
X119750500Y-82277151D01*
X119770185Y-82210112D01*
X119822989Y-82164357D01*
X119874500Y-82153151D01*
X126126208Y-82153151D01*
X126193247Y-82172836D01*
X126213889Y-82189470D01*
X127023331Y-82998913D01*
X127023336Y-82998917D01*
X127023339Y-82998920D01*
X127075981Y-83039313D01*
X127084043Y-83045499D01*
X127084044Y-83045501D01*
X127205388Y-83138611D01*
X127367384Y-83232139D01*
X127367385Y-83232140D01*
X127404100Y-83253338D01*
X127404120Y-83253348D01*
X127481451Y-83285379D01*
X127616113Y-83341158D01*
X127837761Y-83400548D01*
X127864223Y-83404031D01*
X127864227Y-83404033D01*
X127864228Y-83404032D01*
X128065266Y-83430500D01*
X128065273Y-83430500D01*
X131978551Y-83430500D01*
X132045590Y-83450185D01*
X132091345Y-83502989D01*
X132101289Y-83572147D01*
X132092107Y-83604310D01*
X132036411Y-83731283D01*
X131975960Y-83970000D01*
X133026988Y-83970000D01*
X132994075Y-84027007D01*
X132960000Y-84154174D01*
X132960000Y-84285826D01*
X132994075Y-84412993D01*
X133026988Y-84470000D01*
X131975960Y-84470000D01*
X132036411Y-84708716D01*
X132136267Y-84936367D01*
X132272232Y-85144478D01*
X132440592Y-85327364D01*
X132440595Y-85327367D01*
X132523415Y-85391828D01*
X132564228Y-85448539D01*
X132567903Y-85518312D01*
X132533272Y-85578995D01*
X132523416Y-85587535D01*
X132440258Y-85652260D01*
X132271833Y-85835217D01*
X132135826Y-86043393D01*
X132035936Y-86271118D01*
X131974892Y-86512175D01*
X131974890Y-86512187D01*
X131954357Y-86759994D01*
X131954357Y-86760005D01*
X131974890Y-87007812D01*
X131974892Y-87007824D01*
X132035936Y-87248881D01*
X132135826Y-87476606D01*
X132271833Y-87684782D01*
X132271836Y-87684785D01*
X132440256Y-87867738D01*
X132523008Y-87932147D01*
X132563821Y-87988857D01*
X132567496Y-88058630D01*
X132532864Y-88119313D01*
X132523014Y-88127848D01*
X132508908Y-88138828D01*
X132440257Y-88192261D01*
X132271833Y-88375217D01*
X132135826Y-88583393D01*
X132035936Y-88811118D01*
X131974892Y-89052175D01*
X131974890Y-89052187D01*
X131954357Y-89299994D01*
X131954357Y-89300005D01*
X131974890Y-89547812D01*
X131974892Y-89547824D01*
X132035936Y-89788881D01*
X132135826Y-90016606D01*
X132271833Y-90224782D01*
X132271836Y-90224785D01*
X132440256Y-90407738D01*
X132523008Y-90472147D01*
X132563821Y-90528857D01*
X132567496Y-90598630D01*
X132532864Y-90659313D01*
X132523014Y-90667848D01*
X132489182Y-90694180D01*
X132440255Y-90732262D01*
X132440252Y-90732265D01*
X132378374Y-90799483D01*
X132318487Y-90835474D01*
X132287145Y-90839500D01*
X132061455Y-90839500D01*
X131964812Y-90858724D01*
X131868167Y-90877947D01*
X131868161Y-90877949D01*
X131814834Y-90900037D01*
X131814834Y-90900038D01*
X131802831Y-90905010D01*
X131686084Y-90953368D01*
X131686083Y-90953368D01*
X131563045Y-91035579D01*
X131563046Y-91035580D01*
X131522218Y-91062859D01*
X131522215Y-91062862D01*
X130619154Y-91965925D01*
X130362220Y-92222859D01*
X130362218Y-92222861D01*
X130321454Y-92263625D01*
X130222859Y-92362219D01*
X130113371Y-92526080D01*
X130113366Y-92526089D01*
X130076539Y-92615000D01*
X130037948Y-92708165D01*
X130037946Y-92708170D01*
X130026686Y-92764784D01*
X129999500Y-92901455D01*
X129999500Y-94534217D01*
X129979815Y-94601256D01*
X129963181Y-94621898D01*
X126362220Y-98222859D01*
X126362218Y-98222861D01*
X126325028Y-98260051D01*
X126222859Y-98362219D01*
X126113371Y-98526079D01*
X126113364Y-98526092D01*
X126037950Y-98708160D01*
X126037947Y-98708170D01*
X125999500Y-98901456D01*
X125999500Y-101534217D01*
X125979815Y-101601256D01*
X125963181Y-101621898D01*
X121677225Y-105907854D01*
X117362221Y-110222858D01*
X117362218Y-110222861D01*
X117292538Y-110292540D01*
X117222859Y-110362219D01*
X117113371Y-110526079D01*
X117113366Y-110526089D01*
X117078892Y-110609315D01*
X117060038Y-110654834D01*
X117053877Y-110669706D01*
X117037950Y-110708159D01*
X117037948Y-110708166D01*
X117031710Y-110739528D01*
X116999500Y-110901454D01*
X116999500Y-119374218D01*
X116979815Y-119441257D01*
X116963181Y-119461899D01*
X108961899Y-127463181D01*
X108900576Y-127496666D01*
X108874218Y-127499500D01*
X108715665Y-127499500D01*
X108470383Y-127540429D01*
X108235197Y-127621169D01*
X108235188Y-127621172D01*
X108016493Y-127739524D01*
X107820257Y-127892261D01*
X107651833Y-128075217D01*
X107515826Y-128283393D01*
X107415936Y-128511118D01*
X107354892Y-128752175D01*
X107354890Y-128752187D01*
X107334357Y-128999994D01*
X107334357Y-129000005D01*
X107354890Y-129247812D01*
X107354892Y-129247824D01*
X107415936Y-129488881D01*
X107515826Y-129716606D01*
X107651833Y-129924782D01*
X107661229Y-129934989D01*
X107820256Y-130107738D01*
X108016491Y-130260474D01*
X108235190Y-130378828D01*
X108470386Y-130459571D01*
X108715665Y-130500500D01*
X108964335Y-130500500D01*
X109209614Y-130459571D01*
X109444810Y-130378828D01*
X109663509Y-130260474D01*
X109859744Y-130107738D01*
X110018771Y-129934988D01*
X110078657Y-129898999D01*
X110148495Y-129901099D01*
X110201228Y-129934988D01*
X110360256Y-130107738D01*
X110556491Y-130260474D01*
X110775190Y-130378828D01*
X111010386Y-130459571D01*
X111255665Y-130500500D01*
X111504335Y-130500500D01*
X111749614Y-130459571D01*
X111984810Y-130378828D01*
X112203509Y-130260474D01*
X112399744Y-130107738D01*
X112558771Y-129934988D01*
X112618657Y-129898999D01*
X112688495Y-129901099D01*
X112741228Y-129934988D01*
X112900256Y-130107738D01*
X113096491Y-130260474D01*
X113315190Y-130378828D01*
X113550386Y-130459571D01*
X113795665Y-130500500D01*
X114044335Y-130500500D01*
X114289614Y-130459571D01*
X114524810Y-130378828D01*
X114743509Y-130260474D01*
X114939744Y-130107738D01*
X115098771Y-129934988D01*
X115158657Y-129898999D01*
X115228495Y-129901099D01*
X115281228Y-129934988D01*
X115440256Y-130107738D01*
X115636491Y-130260474D01*
X115855190Y-130378828D01*
X116090386Y-130459571D01*
X116335665Y-130500500D01*
X116584335Y-130500500D01*
X116829614Y-130459571D01*
X117064810Y-130378828D01*
X117283509Y-130260474D01*
X117479744Y-130107738D01*
X117648164Y-129924785D01*
X117784173Y-129716607D01*
X117884063Y-129488881D01*
X117945108Y-129247821D01*
X117965643Y-129000000D01*
X117963447Y-128973498D01*
X117977527Y-128905062D01*
X117999339Y-128875579D01*
X124777139Y-122097782D01*
X124817118Y-122037949D01*
X124886632Y-121933914D01*
X124962051Y-121751835D01*
X124968275Y-121720548D01*
X125000500Y-121558540D01*
X125000500Y-121361460D01*
X125000500Y-121361459D01*
X125000500Y-114465782D01*
X125020185Y-114398743D01*
X125036819Y-114378101D01*
X128435925Y-110978995D01*
X131849705Y-107565214D01*
X131911026Y-107531731D01*
X131980718Y-107536715D01*
X132036651Y-107578587D01*
X132050940Y-107603086D01*
X132135827Y-107796608D01*
X132271833Y-108004782D01*
X132271836Y-108004785D01*
X132440256Y-108187738D01*
X132523008Y-108252147D01*
X132563821Y-108308857D01*
X132567496Y-108378630D01*
X132532864Y-108439313D01*
X132523014Y-108447848D01*
X132464400Y-108493469D01*
X132440257Y-108512261D01*
X132271833Y-108695217D01*
X132135826Y-108903393D01*
X132035936Y-109131118D01*
X131974892Y-109372175D01*
X131974890Y-109372187D01*
X131954357Y-109619994D01*
X131954357Y-109620005D01*
X131974890Y-109867812D01*
X131974892Y-109867824D01*
X132035936Y-110108881D01*
X132135826Y-110336606D01*
X132271833Y-110544782D01*
X132271836Y-110544785D01*
X132440256Y-110727738D01*
X132523008Y-110792147D01*
X132563821Y-110848857D01*
X132567496Y-110918630D01*
X132532864Y-110979313D01*
X132523014Y-110987848D01*
X132478510Y-111022488D01*
X132440259Y-111052260D01*
X132440256Y-111052262D01*
X132429452Y-111063997D01*
X132271833Y-111235217D01*
X132135826Y-111443393D01*
X132035936Y-111671118D01*
X131974892Y-111912175D01*
X131974890Y-111912187D01*
X131954357Y-112159994D01*
X131954357Y-112160005D01*
X131974890Y-112407812D01*
X131974892Y-112407824D01*
X132035936Y-112648881D01*
X132135826Y-112876606D01*
X132271833Y-113084782D01*
X132271836Y-113084785D01*
X132440256Y-113267738D01*
X132440259Y-113267740D01*
X132440262Y-113267743D01*
X132523415Y-113332464D01*
X132564228Y-113389174D01*
X132567903Y-113458947D01*
X132533271Y-113519630D01*
X132523416Y-113528170D01*
X132440597Y-113592630D01*
X132440592Y-113592635D01*
X132272232Y-113775521D01*
X132136267Y-113983632D01*
X132036411Y-114211283D01*
X131975960Y-114450000D01*
X133026988Y-114450000D01*
X132994075Y-114507007D01*
X132960000Y-114634174D01*
X132960000Y-114765826D01*
X132994075Y-114892993D01*
X133026988Y-114950000D01*
X131975960Y-114950000D01*
X132036411Y-115188716D01*
X132136267Y-115416367D01*
X132272232Y-115624478D01*
X132440592Y-115807364D01*
X132440595Y-115807367D01*
X132523415Y-115871828D01*
X132564228Y-115928539D01*
X132567903Y-115998312D01*
X132533272Y-116058995D01*
X132523416Y-116067535D01*
X132440258Y-116132260D01*
X132271833Y-116315217D01*
X132135826Y-116523393D01*
X132035935Y-116751122D01*
X132035935Y-116751123D01*
X131983947Y-116956414D01*
X131951423Y-117013654D01*
X121501899Y-127463181D01*
X121440576Y-127496666D01*
X121414218Y-127499500D01*
X121255665Y-127499500D01*
X121010383Y-127540429D01*
X120775197Y-127621169D01*
X120775188Y-127621172D01*
X120556493Y-127739524D01*
X120360257Y-127892261D01*
X120191833Y-128075217D01*
X120055826Y-128283393D01*
X119955936Y-128511118D01*
X119894892Y-128752175D01*
X119894890Y-128752187D01*
X119874357Y-128999994D01*
X119874357Y-129000005D01*
X119894890Y-129247812D01*
X119894892Y-129247824D01*
X119955936Y-129488881D01*
X120055826Y-129716606D01*
X120191833Y-129924782D01*
X120201229Y-129934989D01*
X120360256Y-130107738D01*
X120556491Y-130260474D01*
X120775190Y-130378828D01*
X121010386Y-130459571D01*
X121255665Y-130500500D01*
X121504335Y-130500500D01*
X121749614Y-130459571D01*
X121984810Y-130378828D01*
X122203509Y-130260474D01*
X122399744Y-130107738D01*
X122558771Y-129934988D01*
X122618657Y-129898999D01*
X122688495Y-129901099D01*
X122741228Y-129934988D01*
X122900256Y-130107738D01*
X123096491Y-130260474D01*
X123315190Y-130378828D01*
X123550386Y-130459571D01*
X123795665Y-130500500D01*
X124044335Y-130500500D01*
X124289614Y-130459571D01*
X124524810Y-130378828D01*
X124743509Y-130260474D01*
X124939744Y-130107738D01*
X125098771Y-129934988D01*
X125158657Y-129898999D01*
X125228495Y-129901099D01*
X125281228Y-129934988D01*
X125440256Y-130107738D01*
X125636491Y-130260474D01*
X125855190Y-130378828D01*
X126090386Y-130459571D01*
X126335665Y-130500500D01*
X126584335Y-130500500D01*
X126829614Y-130459571D01*
X127064810Y-130378828D01*
X127283509Y-130260474D01*
X127479744Y-130107738D01*
X127638771Y-129934988D01*
X127698657Y-129898999D01*
X127768495Y-129901099D01*
X127821228Y-129934988D01*
X127980256Y-130107738D01*
X128176491Y-130260474D01*
X128395190Y-130378828D01*
X128630386Y-130459571D01*
X128875665Y-130500500D01*
X129124335Y-130500500D01*
X129369614Y-130459571D01*
X129604810Y-130378828D01*
X129823509Y-130260474D01*
X130019744Y-130107738D01*
X130050629Y-130074188D01*
X130081626Y-130040517D01*
X130141513Y-130004526D01*
X130172855Y-130000500D01*
X131958543Y-130000500D01*
X131987822Y-129994675D01*
X132061027Y-129980114D01*
X132151836Y-129962051D01*
X132230179Y-129929600D01*
X132333914Y-129886632D01*
X132497782Y-129777139D01*
X132637139Y-129637782D01*
X132637139Y-129637780D01*
X132647347Y-129627573D01*
X132647348Y-129627570D01*
X133338102Y-128936819D01*
X133399425Y-128903334D01*
X133425783Y-128900500D01*
X133584335Y-128900500D01*
X133829614Y-128859571D01*
X134064810Y-128778828D01*
X134283509Y-128660474D01*
X134479744Y-128507738D01*
X134639111Y-128334618D01*
X134698996Y-128298629D01*
X134768834Y-128300729D01*
X134821568Y-128334619D01*
X134980592Y-128507364D01*
X134980602Y-128507373D01*
X135176762Y-128660051D01*
X135176771Y-128660057D01*
X135395385Y-128778364D01*
X135395396Y-128778369D01*
X135630507Y-128859083D01*
X135749999Y-128879023D01*
X135750000Y-128879022D01*
X135750000Y-127833012D01*
X135807007Y-127865925D01*
X135934174Y-127900000D01*
X136065826Y-127900000D01*
X136192993Y-127865925D01*
X136250000Y-127833012D01*
X136250000Y-128879023D01*
X136369492Y-128859083D01*
X136604603Y-128778369D01*
X136604614Y-128778364D01*
X136823228Y-128660057D01*
X136823237Y-128660051D01*
X137019397Y-128507373D01*
X137019407Y-128507364D01*
X137187767Y-128324478D01*
X137323732Y-128116367D01*
X137423588Y-127888716D01*
X137484040Y-127650000D01*
X136433012Y-127650000D01*
X136465925Y-127592993D01*
X136500000Y-127465826D01*
X136500000Y-127334174D01*
X136465925Y-127207007D01*
X136433012Y-127150000D01*
X137484040Y-127150000D01*
X137423588Y-126911283D01*
X137323732Y-126683632D01*
X137187767Y-126475521D01*
X137019407Y-126292635D01*
X137019397Y-126292626D01*
X136936584Y-126228170D01*
X136895771Y-126171460D01*
X136892096Y-126101687D01*
X136926728Y-126041004D01*
X136936571Y-126032473D01*
X137019744Y-125967738D01*
X137044194Y-125941177D01*
X137081626Y-125900517D01*
X137141513Y-125864526D01*
X137172855Y-125860500D01*
X139854218Y-125860500D01*
X139921257Y-125880185D01*
X139941899Y-125896819D01*
X142920657Y-128875577D01*
X142954142Y-128936900D01*
X142956553Y-128973495D01*
X142954358Y-128999995D01*
X142954357Y-129000002D01*
X142954357Y-129000005D01*
X142974890Y-129247812D01*
X142974892Y-129247824D01*
X143035936Y-129488881D01*
X143135826Y-129716606D01*
X143271833Y-129924782D01*
X143281229Y-129934989D01*
X143440256Y-130107738D01*
X143636491Y-130260474D01*
X143855190Y-130378828D01*
X144090386Y-130459571D01*
X144335665Y-130500500D01*
X144584335Y-130500500D01*
X144829614Y-130459571D01*
X145064810Y-130378828D01*
X145283509Y-130260474D01*
X145479744Y-130107738D01*
X145638771Y-129934988D01*
X145698657Y-129898999D01*
X145768495Y-129901099D01*
X145821228Y-129934988D01*
X145980256Y-130107738D01*
X146176491Y-130260474D01*
X146395190Y-130378828D01*
X146630386Y-130459571D01*
X146875665Y-130500500D01*
X147124335Y-130500500D01*
X147369614Y-130459571D01*
X147604810Y-130378828D01*
X147823509Y-130260474D01*
X148019744Y-130107738D01*
X148178771Y-129934988D01*
X148238657Y-129898999D01*
X148308495Y-129901099D01*
X148361228Y-129934988D01*
X148520256Y-130107738D01*
X148716491Y-130260474D01*
X148935190Y-130378828D01*
X149170386Y-130459571D01*
X149415665Y-130500500D01*
X149664335Y-130500500D01*
X149909614Y-130459571D01*
X150144810Y-130378828D01*
X150363509Y-130260474D01*
X150559744Y-130107738D01*
X150718771Y-129934988D01*
X150778657Y-129898999D01*
X150848495Y-129901099D01*
X150901228Y-129934988D01*
X151060256Y-130107738D01*
X151256491Y-130260474D01*
X151475190Y-130378828D01*
X151710386Y-130459571D01*
X151955665Y-130500500D01*
X152204335Y-130500500D01*
X152449614Y-130459571D01*
X152684810Y-130378828D01*
X152903509Y-130260474D01*
X153099744Y-130107738D01*
X153268164Y-129924785D01*
X153404173Y-129716607D01*
X153504063Y-129488881D01*
X153565108Y-129247821D01*
X153585643Y-129000000D01*
X153580414Y-128936900D01*
X153565109Y-128752187D01*
X153565107Y-128752175D01*
X153504063Y-128511118D01*
X153404173Y-128283393D01*
X153268166Y-128075217D01*
X153198463Y-127999500D01*
X153099744Y-127892262D01*
X152903509Y-127739526D01*
X152903507Y-127739525D01*
X152903506Y-127739524D01*
X152684811Y-127621172D01*
X152684802Y-127621169D01*
X152449616Y-127540429D01*
X152204335Y-127499500D01*
X152045783Y-127499500D01*
X151978744Y-127479815D01*
X151958102Y-127463181D01*
X142494914Y-117999994D01*
X145994859Y-117999994D01*
X145994859Y-118000005D01*
X146015385Y-118247729D01*
X146015387Y-118247738D01*
X146076412Y-118488717D01*
X146176266Y-118716364D01*
X146276564Y-118869882D01*
X147017037Y-118129409D01*
X147034075Y-118192993D01*
X147099901Y-118307007D01*
X147192993Y-118400099D01*
X147307007Y-118465925D01*
X147370590Y-118482962D01*
X146629942Y-119223609D01*
X146676768Y-119260055D01*
X146676770Y-119260056D01*
X146895385Y-119378364D01*
X146895396Y-119378369D01*
X147130506Y-119459083D01*
X147375707Y-119500000D01*
X147624293Y-119500000D01*
X147869493Y-119459083D01*
X148104603Y-119378369D01*
X148104614Y-119378364D01*
X148323228Y-119260057D01*
X148323231Y-119260055D01*
X148370056Y-119223609D01*
X147629409Y-118482962D01*
X147692993Y-118465925D01*
X147807007Y-118400099D01*
X147900099Y-118307007D01*
X147965925Y-118192993D01*
X147982962Y-118129410D01*
X148723434Y-118869882D01*
X148823731Y-118716369D01*
X148923587Y-118488717D01*
X148984612Y-118247738D01*
X148984614Y-118247729D01*
X149005141Y-118000005D01*
X149005141Y-117999994D01*
X148984614Y-117752270D01*
X148984612Y-117752261D01*
X148923587Y-117511282D01*
X148823731Y-117283630D01*
X148723434Y-117130116D01*
X147982962Y-117870589D01*
X147965925Y-117807007D01*
X147900099Y-117692993D01*
X147807007Y-117599901D01*
X147692993Y-117534075D01*
X147629410Y-117517037D01*
X148370057Y-116776390D01*
X148370056Y-116776389D01*
X148323229Y-116739943D01*
X148104614Y-116621635D01*
X148104603Y-116621630D01*
X147869493Y-116540916D01*
X147624293Y-116500000D01*
X147375707Y-116500000D01*
X147130506Y-116540916D01*
X146895396Y-116621630D01*
X146895390Y-116621632D01*
X146676761Y-116739949D01*
X146629942Y-116776388D01*
X146629942Y-116776390D01*
X147370590Y-117517037D01*
X147307007Y-117534075D01*
X147192993Y-117599901D01*
X147099901Y-117692993D01*
X147034075Y-117807007D01*
X147017037Y-117870589D01*
X146276564Y-117130116D01*
X146176267Y-117283632D01*
X146076412Y-117511282D01*
X146015387Y-117752261D01*
X146015385Y-117752270D01*
X145994859Y-117999994D01*
X142494914Y-117999994D01*
X141104209Y-116609289D01*
X141104206Y-116609285D01*
X141104206Y-116609286D01*
X141097139Y-116602219D01*
X141097139Y-116602218D01*
X140957782Y-116462861D01*
X140957781Y-116462860D01*
X140957780Y-116462859D01*
X140793920Y-116353371D01*
X140793911Y-116353366D01*
X140701310Y-116315010D01*
X140665165Y-116300038D01*
X140611836Y-116277949D01*
X140611832Y-116277948D01*
X140611828Y-116277946D01*
X140515188Y-116258724D01*
X140418544Y-116239500D01*
X140418541Y-116239500D01*
X137172855Y-116239500D01*
X137105816Y-116219815D01*
X137081626Y-116199483D01*
X137019747Y-116132265D01*
X137019744Y-116132262D01*
X137009085Y-116123966D01*
X136936991Y-116067852D01*
X136896179Y-116011143D01*
X136892504Y-115941370D01*
X136927136Y-115880687D01*
X136936985Y-115872151D01*
X137019744Y-115807738D01*
X137044884Y-115780429D01*
X137081626Y-115740517D01*
X137141513Y-115704526D01*
X137172855Y-115700500D01*
X146398542Y-115700500D01*
X146417870Y-115696655D01*
X146495188Y-115681275D01*
X146591836Y-115662051D01*
X146645165Y-115639961D01*
X146773914Y-115586632D01*
X146937782Y-115477139D01*
X147077139Y-115337782D01*
X147077139Y-115337780D01*
X147087347Y-115327573D01*
X147087348Y-115327570D01*
X148497139Y-113917782D01*
X148517953Y-113886631D01*
X148592399Y-113775215D01*
X148606627Y-113753922D01*
X148606628Y-113753919D01*
X148606632Y-113753914D01*
X148682051Y-113571835D01*
X148710264Y-113430000D01*
X148720500Y-113378543D01*
X148720500Y-113177027D01*
X148740185Y-113109988D01*
X148753270Y-113093045D01*
X148824005Y-113016206D01*
X148899111Y-112934618D01*
X148958996Y-112898629D01*
X149028834Y-112900729D01*
X149081568Y-112934619D01*
X149240592Y-113107364D01*
X149240602Y-113107373D01*
X149436762Y-113260051D01*
X149436771Y-113260057D01*
X149655385Y-113378364D01*
X149655396Y-113378369D01*
X149890507Y-113459083D01*
X150009999Y-113479023D01*
X150010000Y-113479022D01*
X150010000Y-112433012D01*
X150067007Y-112465925D01*
X150194174Y-112500000D01*
X150325826Y-112500000D01*
X150452993Y-112465925D01*
X150510000Y-112433012D01*
X150510000Y-113479023D01*
X150629492Y-113459083D01*
X150864603Y-113378369D01*
X150864614Y-113378364D01*
X151083228Y-113260057D01*
X151083233Y-113260053D01*
X151099335Y-113247521D01*
X151164328Y-113221876D01*
X151232869Y-113235441D01*
X151283195Y-113283908D01*
X151299500Y-113345372D01*
X151299500Y-117057179D01*
X151279815Y-117124218D01*
X151279306Y-117125004D01*
X151265877Y-117145557D01*
X151262391Y-117150615D01*
X151216656Y-117213566D01*
X151202711Y-117240935D01*
X151196036Y-117252460D01*
X151175826Y-117283393D01*
X151144764Y-117354206D01*
X151141694Y-117360688D01*
X151109435Y-117423999D01*
X151109432Y-117424009D01*
X151097859Y-117459623D01*
X151093486Y-117471109D01*
X151075939Y-117511112D01*
X151075936Y-117511123D01*
X151058605Y-117579557D01*
X151056331Y-117587432D01*
X151036448Y-117648625D01*
X151029536Y-117692260D01*
X151027269Y-117703295D01*
X151014893Y-117752171D01*
X151014892Y-117752177D01*
X151014892Y-117752179D01*
X151009615Y-117815854D01*
X151008514Y-117824995D01*
X150999500Y-117881903D01*
X150999500Y-117932809D01*
X150999076Y-117943050D01*
X150994357Y-117999995D01*
X150994357Y-118000004D01*
X150999076Y-118056948D01*
X150999500Y-118067189D01*
X150999500Y-118118096D01*
X151008514Y-118175005D01*
X151009615Y-118184147D01*
X151010349Y-118192993D01*
X151014892Y-118247824D01*
X151027270Y-118296703D01*
X151029537Y-118307743D01*
X151036447Y-118351368D01*
X151056297Y-118412463D01*
X151056332Y-118412569D01*
X151058606Y-118420446D01*
X151075935Y-118488874D01*
X151075939Y-118488887D01*
X151093487Y-118528892D01*
X151097862Y-118540384D01*
X151109430Y-118575989D01*
X151109432Y-118575992D01*
X151141700Y-118639322D01*
X151144771Y-118645807D01*
X151175825Y-118716604D01*
X151175827Y-118716607D01*
X151196040Y-118747545D01*
X151202709Y-118759059D01*
X151216418Y-118785965D01*
X151216658Y-118786435D01*
X151216658Y-118786436D01*
X151262378Y-118849364D01*
X151265867Y-118854426D01*
X151311834Y-118924783D01*
X151332310Y-118947027D01*
X151341392Y-118958118D01*
X151355478Y-118977505D01*
X151355481Y-118977508D01*
X151355482Y-118977509D01*
X151355483Y-118977510D01*
X151415240Y-119037267D01*
X151418765Y-119040942D01*
X151480252Y-119107734D01*
X151480256Y-119107738D01*
X151498791Y-119122164D01*
X151510310Y-119132337D01*
X151522490Y-119144517D01*
X151522496Y-119144521D01*
X151596298Y-119198143D01*
X151599540Y-119200581D01*
X151629127Y-119223609D01*
X151675952Y-119260055D01*
X151676491Y-119260474D01*
X151691219Y-119268444D01*
X151705080Y-119277177D01*
X151713566Y-119283343D01*
X151773882Y-119314075D01*
X151800796Y-119327788D01*
X151803519Y-119329218D01*
X151894333Y-119378364D01*
X151895190Y-119378828D01*
X151904643Y-119382073D01*
X151920673Y-119388869D01*
X151924008Y-119390568D01*
X151924013Y-119390569D01*
X151924014Y-119390570D01*
X152023517Y-119422900D01*
X152025381Y-119423522D01*
X152130386Y-119459571D01*
X152131166Y-119459701D01*
X152133583Y-119460105D01*
X152143842Y-119462612D01*
X152143890Y-119462415D01*
X152148623Y-119463550D01*
X152148632Y-119463553D01*
X152215387Y-119474125D01*
X152258639Y-119480976D01*
X152259562Y-119481125D01*
X152375665Y-119500500D01*
X152375666Y-119500500D01*
X152624333Y-119500500D01*
X152624335Y-119500500D01*
X152740532Y-119481109D01*
X152741217Y-119480997D01*
X152851368Y-119463553D01*
X152851379Y-119463549D01*
X152856110Y-119462414D01*
X152856157Y-119462612D01*
X152866414Y-119460104D01*
X152869614Y-119459571D01*
X152974688Y-119423497D01*
X152976360Y-119422939D01*
X153075992Y-119390568D01*
X153079321Y-119388871D01*
X153095355Y-119382074D01*
X153097269Y-119381416D01*
X153104810Y-119378828D01*
X153196514Y-119329198D01*
X153199107Y-119327837D01*
X153286434Y-119283343D01*
X153294922Y-119277175D01*
X153308789Y-119268440D01*
X153323505Y-119260476D01*
X153323504Y-119260476D01*
X153323509Y-119260474D01*
X153400456Y-119200582D01*
X153403730Y-119198121D01*
X153477504Y-119144521D01*
X153477510Y-119144517D01*
X153489699Y-119132327D01*
X153501210Y-119122162D01*
X153519744Y-119107738D01*
X153581245Y-119040928D01*
X153584747Y-119037278D01*
X153944517Y-118677510D01*
X154083343Y-118486434D01*
X154190568Y-118275992D01*
X154263553Y-118051368D01*
X154271688Y-118000005D01*
X154300500Y-117818097D01*
X154300500Y-112672889D01*
X154320185Y-112605850D01*
X154336819Y-112585208D01*
X154729034Y-112192993D01*
X155144517Y-111777510D01*
X155283343Y-111586434D01*
X155390568Y-111375992D01*
X155395043Y-111362218D01*
X155463553Y-111151368D01*
X155489451Y-110987854D01*
X155500500Y-110918097D01*
X155500500Y-103261902D01*
X155463553Y-103028631D01*
X155421995Y-102900729D01*
X155390568Y-102804008D01*
X155390566Y-102804005D01*
X155390566Y-102804003D01*
X155334002Y-102692991D01*
X155283343Y-102593567D01*
X155215725Y-102500499D01*
X155183389Y-102455992D01*
X155144521Y-102402493D01*
X154036819Y-101294791D01*
X154003334Y-101233468D01*
X154000500Y-101207110D01*
X154000500Y-97672890D01*
X154020185Y-97605851D01*
X154036819Y-97585209D01*
X154082898Y-97539129D01*
X154144518Y-97477510D01*
X154283343Y-97286433D01*
X154390568Y-97075992D01*
X154463553Y-96851368D01*
X154470579Y-96807007D01*
X154500500Y-96618097D01*
X154500500Y-92682189D01*
X154500924Y-92671948D01*
X154505643Y-92615000D01*
X154505643Y-92614995D01*
X154500924Y-92558050D01*
X154500500Y-92547809D01*
X154500500Y-92496909D01*
X154491486Y-92440002D01*
X154490382Y-92430841D01*
X154485108Y-92367179D01*
X154472727Y-92318291D01*
X154470464Y-92307267D01*
X154468428Y-92294418D01*
X154463553Y-92263632D01*
X154443665Y-92202424D01*
X154441400Y-92194582D01*
X154424063Y-92126119D01*
X154406512Y-92086109D01*
X154402137Y-92074617D01*
X154390567Y-92039006D01*
X154390565Y-92039001D01*
X154358300Y-91975679D01*
X154355228Y-91969192D01*
X154324177Y-91898401D01*
X154324174Y-91898395D01*
X154324173Y-91898393D01*
X154303956Y-91867449D01*
X154297282Y-91855926D01*
X154296073Y-91853553D01*
X154283343Y-91828567D01*
X154237619Y-91765634D01*
X154234128Y-91760569D01*
X154188165Y-91690217D01*
X154188164Y-91690215D01*
X154167686Y-91667970D01*
X154158607Y-91656884D01*
X154144517Y-91637490D01*
X154084782Y-91577755D01*
X154081234Y-91574057D01*
X154019747Y-91507265D01*
X154019739Y-91507258D01*
X154001212Y-91492838D01*
X153989692Y-91482665D01*
X153977512Y-91470485D01*
X153977506Y-91470480D01*
X153941526Y-91444339D01*
X153898860Y-91389009D01*
X153892881Y-91319396D01*
X153925487Y-91257601D01*
X153938239Y-91246175D01*
X154019744Y-91182738D01*
X154188164Y-90999785D01*
X154324173Y-90791607D01*
X154424063Y-90563881D01*
X154485108Y-90322821D01*
X154485109Y-90322812D01*
X154505643Y-90075005D01*
X154505643Y-90074994D01*
X154485109Y-89827187D01*
X154485107Y-89827175D01*
X154424063Y-89586118D01*
X154324173Y-89358393D01*
X154188166Y-89150217D01*
X154102818Y-89057505D01*
X154019744Y-88967262D01*
X153936991Y-88902852D01*
X153896179Y-88846143D01*
X153892504Y-88776370D01*
X153927136Y-88715687D01*
X153936985Y-88707151D01*
X154019744Y-88642738D01*
X154188164Y-88459785D01*
X154324173Y-88251607D01*
X154424063Y-88023881D01*
X154485108Y-87782821D01*
X154485109Y-87782812D01*
X154505643Y-87535005D01*
X154505643Y-87534994D01*
X154485109Y-87287187D01*
X154485107Y-87287175D01*
X154424063Y-87046118D01*
X154324173Y-86818393D01*
X154188166Y-86610217D01*
X154159889Y-86579500D01*
X154019744Y-86427262D01*
X153936991Y-86362852D01*
X153896179Y-86306143D01*
X153892504Y-86236370D01*
X153927136Y-86175687D01*
X153936985Y-86167151D01*
X154019744Y-86102738D01*
X154188164Y-85919785D01*
X154324173Y-85711607D01*
X154424063Y-85483881D01*
X154485108Y-85242821D01*
X154485109Y-85242812D01*
X154505643Y-84995005D01*
X154505643Y-84994994D01*
X154485109Y-84747187D01*
X154485107Y-84747175D01*
X154424063Y-84506118D01*
X154324173Y-84278393D01*
X154188166Y-84070217D01*
X154114031Y-83989685D01*
X154019744Y-83887262D01*
X153936991Y-83822852D01*
X153896179Y-83766143D01*
X153892504Y-83696370D01*
X153927136Y-83635687D01*
X153936985Y-83627151D01*
X154019744Y-83562738D01*
X154188164Y-83379785D01*
X154324173Y-83171607D01*
X154424063Y-82943881D01*
X154485108Y-82702821D01*
X154485109Y-82702812D01*
X154505643Y-82455005D01*
X154505643Y-82454994D01*
X154485109Y-82207187D01*
X154485107Y-82207175D01*
X154424063Y-81966118D01*
X154324173Y-81738393D01*
X154188166Y-81530217D01*
X154054286Y-81384785D01*
X154019744Y-81347262D01*
X153936991Y-81282852D01*
X153896179Y-81226143D01*
X153892504Y-81156370D01*
X153927136Y-81095687D01*
X153936985Y-81087151D01*
X154019744Y-81022738D01*
X154188164Y-80839785D01*
X154324173Y-80631607D01*
X154424063Y-80403881D01*
X154485108Y-80162821D01*
X154489258Y-80112737D01*
X154505643Y-79915005D01*
X154505643Y-79914994D01*
X154485109Y-79667187D01*
X154485107Y-79667175D01*
X154424063Y-79426118D01*
X154324173Y-79198393D01*
X154188164Y-78990215D01*
X154159293Y-78958853D01*
X154019744Y-78807262D01*
X153936583Y-78742535D01*
X153895770Y-78685825D01*
X153892096Y-78616052D01*
X153926728Y-78555369D01*
X153936584Y-78546828D01*
X154019404Y-78482367D01*
X154019407Y-78482364D01*
X154187767Y-78299478D01*
X154323732Y-78091367D01*
X154423588Y-77863716D01*
X154484040Y-77625000D01*
X153433012Y-77625000D01*
X153465925Y-77567993D01*
X153500000Y-77440826D01*
X153500000Y-77309174D01*
X153465925Y-77182007D01*
X153433012Y-77125000D01*
X154484040Y-77125000D01*
X154423588Y-76886283D01*
X154323732Y-76658632D01*
X154187767Y-76450521D01*
X154019407Y-76267635D01*
X154019397Y-76267626D01*
X153823237Y-76114948D01*
X153823228Y-76114942D01*
X153604614Y-75996635D01*
X153604603Y-75996630D01*
X153369492Y-75915916D01*
X153250000Y-75895976D01*
X153250000Y-76941988D01*
X153192993Y-76909075D01*
X153065826Y-76875000D01*
X152934174Y-76875000D01*
X152807007Y-76909075D01*
X152750000Y-76941988D01*
X152750000Y-75895976D01*
X152749999Y-75895976D01*
X152630507Y-75915916D01*
X152395396Y-75996630D01*
X152395385Y-75996635D01*
X152176771Y-76114942D01*
X152176762Y-76114948D01*
X151980602Y-76267626D01*
X151980592Y-76267635D01*
X151812232Y-76450521D01*
X151676267Y-76658632D01*
X151576411Y-76886283D01*
X151515960Y-77125000D01*
X152566988Y-77125000D01*
X152534075Y-77182007D01*
X152500000Y-77309174D01*
X152500000Y-77440826D01*
X152534075Y-77567993D01*
X152566988Y-77625000D01*
X151515960Y-77625000D01*
X151576411Y-77863716D01*
X151676267Y-78091367D01*
X151812232Y-78299478D01*
X151980592Y-78482364D01*
X151980595Y-78482367D01*
X152063415Y-78546828D01*
X152104228Y-78603539D01*
X152107903Y-78673312D01*
X152073272Y-78733995D01*
X152063416Y-78742535D01*
X151980258Y-78807260D01*
X151980256Y-78807261D01*
X151980256Y-78807262D01*
X151902077Y-78892187D01*
X151811836Y-78990215D01*
X151675826Y-79198393D01*
X151575936Y-79426118D01*
X151514892Y-79667175D01*
X151514890Y-79667187D01*
X151494357Y-79914994D01*
X151494357Y-79915005D01*
X151514890Y-80162812D01*
X151514892Y-80162824D01*
X151575936Y-80403881D01*
X151675826Y-80631606D01*
X151811833Y-80839782D01*
X151811836Y-80839785D01*
X151980256Y-81022738D01*
X152063008Y-81087147D01*
X152103821Y-81143857D01*
X152107496Y-81213630D01*
X152072864Y-81274313D01*
X152063014Y-81282848D01*
X152004400Y-81328469D01*
X151980257Y-81347261D01*
X151811833Y-81530217D01*
X151675826Y-81738393D01*
X151575936Y-81966118D01*
X151514892Y-82207175D01*
X151514890Y-82207187D01*
X151494357Y-82454994D01*
X151494357Y-82455005D01*
X151514890Y-82702812D01*
X151514892Y-82702824D01*
X151575936Y-82943881D01*
X151675826Y-83171606D01*
X151811833Y-83379782D01*
X151811836Y-83379785D01*
X151980256Y-83562738D01*
X152063008Y-83627147D01*
X152103821Y-83683857D01*
X152107496Y-83753630D01*
X152072864Y-83814313D01*
X152063014Y-83822848D01*
X152004400Y-83868469D01*
X151980257Y-83887261D01*
X151811833Y-84070217D01*
X151675826Y-84278393D01*
X151575936Y-84506118D01*
X151514892Y-84747175D01*
X151514891Y-84747185D01*
X151509986Y-84806370D01*
X151484832Y-84871554D01*
X151428429Y-84912792D01*
X151358686Y-84916989D01*
X151298729Y-84883809D01*
X151238552Y-84823632D01*
X151036819Y-84621898D01*
X151003334Y-84560575D01*
X151000500Y-84534217D01*
X151000500Y-81104675D01*
X151000501Y-81104654D01*
X151000501Y-80901457D01*
X151000500Y-80901455D01*
X150962053Y-80708172D01*
X150962052Y-80708165D01*
X150886632Y-80526086D01*
X150886631Y-80526085D01*
X150886628Y-80526079D01*
X150777140Y-80362219D01*
X150777137Y-80362215D01*
X149784209Y-79369289D01*
X149784206Y-79369285D01*
X149784206Y-79369286D01*
X149777139Y-79362219D01*
X149777139Y-79362218D01*
X149637782Y-79222861D01*
X149637781Y-79222860D01*
X149637780Y-79222859D01*
X149473920Y-79113371D01*
X149473911Y-79113366D01*
X149401315Y-79083296D01*
X149345165Y-79060038D01*
X149291836Y-79037949D01*
X149291832Y-79037948D01*
X149291828Y-79037946D01*
X149195188Y-79018724D01*
X149098544Y-78999500D01*
X149098541Y-78999500D01*
X143374322Y-78999500D01*
X143353913Y-78997809D01*
X143124335Y-78959500D01*
X142875665Y-78959500D01*
X142630383Y-79000429D01*
X142395197Y-79081169D01*
X142395188Y-79081172D01*
X142176493Y-79199524D01*
X142053610Y-79295168D01*
X141980256Y-79352262D01*
X141971091Y-79362218D01*
X141811833Y-79535217D01*
X141675826Y-79743393D01*
X141575936Y-79971118D01*
X141514892Y-80212175D01*
X141514890Y-80212187D01*
X141494357Y-80459994D01*
X141494357Y-80459995D01*
X141496553Y-80486502D01*
X141482470Y-80554938D01*
X141460658Y-80584420D01*
X141401899Y-80643180D01*
X141340576Y-80676666D01*
X141314217Y-80679500D01*
X137172855Y-80679500D01*
X137105816Y-80659815D01*
X137081626Y-80639483D01*
X137019747Y-80572265D01*
X137019744Y-80572262D01*
X136983150Y-80543780D01*
X136936991Y-80507852D01*
X136896179Y-80451143D01*
X136892504Y-80381370D01*
X136927136Y-80320687D01*
X136936985Y-80312151D01*
X137019744Y-80247738D01*
X137188164Y-80064785D01*
X137324173Y-79856607D01*
X137424063Y-79628881D01*
X137485108Y-79387821D01*
X137485109Y-79387812D01*
X137505643Y-79140005D01*
X137505643Y-79139994D01*
X137485109Y-78892187D01*
X137485107Y-78892175D01*
X137424063Y-78651118D01*
X137324173Y-78423393D01*
X137188166Y-78215217D01*
X137166557Y-78191744D01*
X137019744Y-78032262D01*
X136823509Y-77879526D01*
X136823507Y-77879525D01*
X136823506Y-77879524D01*
X136604811Y-77761172D01*
X136604802Y-77761169D01*
X136369616Y-77680429D01*
X136124335Y-77639500D01*
X135875665Y-77639500D01*
X135630383Y-77680429D01*
X135395197Y-77761169D01*
X135395188Y-77761172D01*
X135176491Y-77879525D01*
X135176488Y-77879528D01*
X135093212Y-77944343D01*
X135028218Y-77969985D01*
X134959678Y-77956418D01*
X134909354Y-77907949D01*
X134908159Y-77905392D01*
X134908047Y-77905454D01*
X134903793Y-77897664D01*
X134817547Y-77782455D01*
X134817544Y-77782452D01*
X134702335Y-77696206D01*
X134702328Y-77696202D01*
X134567482Y-77645908D01*
X134567483Y-77645908D01*
X134507883Y-77639501D01*
X134507881Y-77639500D01*
X134507873Y-77639500D01*
X134507864Y-77639500D01*
X132412129Y-77639500D01*
X132412123Y-77639501D01*
X132352516Y-77645908D01*
X132217671Y-77696202D01*
X132217664Y-77696206D01*
X132102455Y-77782452D01*
X132102452Y-77782455D01*
X132016206Y-77897664D01*
X132016202Y-77897671D01*
X131965908Y-78032517D01*
X131959582Y-78091367D01*
X131959500Y-78092127D01*
X131959500Y-79005005D01*
X131959501Y-79805500D01*
X131939816Y-79872539D01*
X131887013Y-79918294D01*
X131835501Y-79929500D01*
X128956443Y-79929500D01*
X128889404Y-79909815D01*
X128868762Y-79893181D01*
X128156659Y-79181078D01*
X128059312Y-79083731D01*
X128059311Y-79083730D01*
X128059309Y-79083728D01*
X127937439Y-78990215D01*
X127937437Y-78990213D01*
X127877267Y-78944043D01*
X127877266Y-78944042D01*
X127877263Y-78944040D01*
X127678539Y-78829307D01*
X127678537Y-78829306D01*
X127678527Y-78829301D01*
X127466538Y-78741493D01*
X127438555Y-78733995D01*
X127244890Y-78682103D01*
X127244884Y-78682102D01*
X127244883Y-78682102D01*
X127235013Y-78680802D01*
X127218422Y-78678618D01*
X127218421Y-78678617D01*
X127017395Y-78652152D01*
X127017390Y-78652151D01*
X127017385Y-78652151D01*
X118114734Y-78652151D01*
X117885266Y-78652151D01*
X117885260Y-78652151D01*
X117885255Y-78652152D01*
X117684228Y-78678617D01*
X117684228Y-78678618D01*
X117680215Y-78679146D01*
X117657763Y-78682102D01*
X117436112Y-78741493D01*
X117224123Y-78829301D01*
X117224113Y-78829306D01*
X117126713Y-78885539D01*
X117064715Y-78902151D01*
X116952130Y-78902151D01*
X116952123Y-78902152D01*
X116892516Y-78908559D01*
X116757671Y-78958853D01*
X116757664Y-78958857D01*
X116642455Y-79045103D01*
X116642452Y-79045106D01*
X116556206Y-79160315D01*
X116556202Y-79160322D01*
X116505908Y-79295168D01*
X116499501Y-79354767D01*
X116499500Y-79354786D01*
X116499500Y-79376207D01*
X116479815Y-79443246D01*
X116463181Y-79463888D01*
X116168889Y-79758181D01*
X116107566Y-79791666D01*
X116081208Y-79794500D01*
X109331996Y-79794500D01*
X109264957Y-79774815D01*
X109219202Y-79722011D01*
X109209258Y-79652853D01*
X109218440Y-79620690D01*
X109255932Y-79535215D01*
X109274063Y-79493881D01*
X109335108Y-79252821D01*
X109339524Y-79199526D01*
X109355643Y-79005005D01*
X109355643Y-79004994D01*
X109335109Y-78757187D01*
X109335107Y-78757175D01*
X109274063Y-78516118D01*
X109174173Y-78288393D01*
X109038166Y-78080217D01*
X108936690Y-77969985D01*
X108869744Y-77897262D01*
X108766253Y-77816712D01*
X108725442Y-77760003D01*
X108718655Y-77711176D01*
X108720056Y-77688609D01*
X107979409Y-76947962D01*
X108042993Y-76930925D01*
X108157007Y-76865099D01*
X108250099Y-76772007D01*
X108315925Y-76657993D01*
X108332962Y-76594410D01*
X109073434Y-77334882D01*
X109173731Y-77181369D01*
X109273587Y-76953717D01*
X109334612Y-76712738D01*
X109334614Y-76712729D01*
X109355141Y-76465005D01*
X109355141Y-76464994D01*
X109334614Y-76217270D01*
X109334612Y-76217261D01*
X109273587Y-75976282D01*
X109173731Y-75748630D01*
X109073434Y-75595116D01*
X108332962Y-76335589D01*
X108315925Y-76272007D01*
X108250099Y-76157993D01*
X108157007Y-76064901D01*
X108042993Y-75999075D01*
X107979410Y-75982037D01*
X108558802Y-75402645D01*
X116494859Y-75402645D01*
X116494859Y-75402656D01*
X116515385Y-75650380D01*
X116515387Y-75650389D01*
X116576412Y-75891368D01*
X116676266Y-76119015D01*
X116776564Y-76272533D01*
X117517037Y-75532060D01*
X117534075Y-75595644D01*
X117599901Y-75709658D01*
X117692993Y-75802750D01*
X117807007Y-75868576D01*
X117870590Y-75885613D01*
X117129942Y-76626260D01*
X117176768Y-76662706D01*
X117176770Y-76662707D01*
X117395385Y-76781015D01*
X117395396Y-76781020D01*
X117630506Y-76861734D01*
X117875707Y-76902651D01*
X118124293Y-76902651D01*
X118369493Y-76861734D01*
X118604603Y-76781020D01*
X118604614Y-76781015D01*
X118823228Y-76662708D01*
X118823231Y-76662706D01*
X118870056Y-76626260D01*
X118129409Y-75885613D01*
X118192993Y-75868576D01*
X118307007Y-75802750D01*
X118400099Y-75709658D01*
X118465925Y-75595644D01*
X118482962Y-75532061D01*
X119223434Y-76272533D01*
X119323731Y-76119020D01*
X119423587Y-75891368D01*
X119484612Y-75650389D01*
X119484614Y-75650380D01*
X119497075Y-75499994D01*
X125494859Y-75499994D01*
X125494859Y-75500005D01*
X125515385Y-75747729D01*
X125515387Y-75747738D01*
X125576412Y-75988717D01*
X125676266Y-76216364D01*
X125776564Y-76369882D01*
X126517037Y-75629409D01*
X126534075Y-75692993D01*
X126599901Y-75807007D01*
X126692993Y-75900099D01*
X126807007Y-75965925D01*
X126870590Y-75982962D01*
X126129942Y-76723609D01*
X126176768Y-76760055D01*
X126176770Y-76760056D01*
X126395385Y-76878364D01*
X126395396Y-76878369D01*
X126630506Y-76959083D01*
X126875707Y-77000000D01*
X127124293Y-77000000D01*
X127369493Y-76959083D01*
X127604603Y-76878369D01*
X127604614Y-76878364D01*
X127823228Y-76760057D01*
X127823231Y-76760055D01*
X127870056Y-76723609D01*
X127129409Y-75982962D01*
X127192993Y-75965925D01*
X127307007Y-75900099D01*
X127400099Y-75807007D01*
X127465925Y-75692993D01*
X127482962Y-75629410D01*
X128223434Y-76369882D01*
X128323731Y-76216369D01*
X128423587Y-75988717D01*
X128484612Y-75747738D01*
X128484614Y-75747729D01*
X128505141Y-75500005D01*
X128505141Y-75499994D01*
X128484614Y-75252270D01*
X128484612Y-75252261D01*
X128423587Y-75011282D01*
X128323731Y-74783630D01*
X128223434Y-74630116D01*
X127482962Y-75370589D01*
X127465925Y-75307007D01*
X127400099Y-75192993D01*
X127307007Y-75099901D01*
X127192993Y-75034075D01*
X127129410Y-75017037D01*
X127870057Y-74276390D01*
X127870056Y-74276389D01*
X127823229Y-74239943D01*
X127604614Y-74121635D01*
X127604603Y-74121630D01*
X127369493Y-74040916D01*
X127124293Y-74000000D01*
X126875707Y-74000000D01*
X126630506Y-74040916D01*
X126395396Y-74121630D01*
X126395390Y-74121632D01*
X126176761Y-74239949D01*
X126129942Y-74276388D01*
X126129942Y-74276390D01*
X126870590Y-75017037D01*
X126807007Y-75034075D01*
X126692993Y-75099901D01*
X126599901Y-75192993D01*
X126534075Y-75307007D01*
X126517037Y-75370589D01*
X125776564Y-74630116D01*
X125676267Y-74783632D01*
X125576412Y-75011282D01*
X125515387Y-75252261D01*
X125515385Y-75252270D01*
X125494859Y-75499994D01*
X119497075Y-75499994D01*
X119505141Y-75402656D01*
X119505141Y-75402645D01*
X119484614Y-75154921D01*
X119484612Y-75154912D01*
X119423587Y-74913933D01*
X119323731Y-74686281D01*
X119223434Y-74532767D01*
X118482962Y-75273240D01*
X118465925Y-75209658D01*
X118400099Y-75095644D01*
X118307007Y-75002552D01*
X118192993Y-74936726D01*
X118129410Y-74919688D01*
X118870057Y-74179041D01*
X118870056Y-74179040D01*
X118823229Y-74142594D01*
X118604614Y-74024286D01*
X118604603Y-74024281D01*
X118369493Y-73943567D01*
X118124293Y-73902651D01*
X117875707Y-73902651D01*
X117630506Y-73943567D01*
X117395396Y-74024281D01*
X117395390Y-74024283D01*
X117176761Y-74142600D01*
X117129942Y-74179039D01*
X117129942Y-74179041D01*
X117870590Y-74919688D01*
X117807007Y-74936726D01*
X117692993Y-75002552D01*
X117599901Y-75095644D01*
X117534075Y-75209658D01*
X117517037Y-75273240D01*
X116776564Y-74532767D01*
X116676267Y-74686283D01*
X116576412Y-74913933D01*
X116515387Y-75154912D01*
X116515385Y-75154921D01*
X116494859Y-75402645D01*
X108558802Y-75402645D01*
X108720057Y-75241390D01*
X108720056Y-75241389D01*
X108673229Y-75204943D01*
X108454614Y-75086635D01*
X108454603Y-75086630D01*
X108219493Y-75005916D01*
X107974293Y-74965000D01*
X107725707Y-74965000D01*
X107480506Y-75005916D01*
X107245396Y-75086630D01*
X107245390Y-75086632D01*
X107026761Y-75204949D01*
X106979942Y-75241388D01*
X106979942Y-75241390D01*
X107720590Y-75982037D01*
X107657007Y-75999075D01*
X107542993Y-76064901D01*
X107449901Y-76157993D01*
X107384075Y-76272007D01*
X107367037Y-76335589D01*
X106626564Y-75595116D01*
X106526267Y-75748632D01*
X106426412Y-75976282D01*
X106365387Y-76217261D01*
X106365385Y-76217270D01*
X106344859Y-76464994D01*
X106344859Y-76465005D01*
X106365385Y-76712729D01*
X106365387Y-76712738D01*
X106426412Y-76953717D01*
X106526266Y-77181364D01*
X106626564Y-77334882D01*
X107367037Y-76594409D01*
X107384075Y-76657993D01*
X107449901Y-76772007D01*
X107542993Y-76865099D01*
X107657007Y-76930925D01*
X107720590Y-76947962D01*
X106979942Y-77688609D01*
X106981343Y-77711177D01*
X106965850Y-77779307D01*
X106933744Y-77816713D01*
X106830258Y-77897260D01*
X106830256Y-77897261D01*
X106830256Y-77897262D01*
X106822772Y-77905392D01*
X106661833Y-78080217D01*
X106525826Y-78288393D01*
X106425936Y-78516118D01*
X106364892Y-78757175D01*
X106364890Y-78757187D01*
X106344357Y-79004994D01*
X106344357Y-79005005D01*
X106364890Y-79252812D01*
X106364892Y-79252824D01*
X106425937Y-79493881D01*
X106481560Y-79620690D01*
X106490463Y-79689990D01*
X106460486Y-79753102D01*
X106401146Y-79789989D01*
X106368004Y-79794500D01*
X106340265Y-79794500D01*
X106112771Y-79824449D01*
X106112764Y-79824450D01*
X106112761Y-79824451D01*
X106063727Y-79837589D01*
X105929779Y-79873480D01*
X105915100Y-79877413D01*
X105891116Y-79883840D01*
X105891110Y-79883843D01*
X105848581Y-79901459D01*
X105679120Y-79971650D01*
X105679111Y-79971655D01*
X105597383Y-80018842D01*
X105597382Y-80018842D01*
X105480387Y-80086389D01*
X105446051Y-80112737D01*
X105446050Y-80112738D01*
X105298340Y-80226078D01*
X105298333Y-80226084D01*
X103681086Y-81843331D01*
X103681080Y-81843338D01*
X103640102Y-81896740D01*
X103640103Y-81896741D01*
X103541386Y-82025390D01*
X103541385Y-82025392D01*
X103461844Y-82163164D01*
X103461844Y-82163165D01*
X103448963Y-82185473D01*
X103426655Y-82224112D01*
X103426654Y-82224115D01*
X103338845Y-82436103D01*
X103338842Y-82436113D01*
X103283662Y-82642051D01*
X103281882Y-82648693D01*
X103279451Y-82657763D01*
X103249500Y-82885258D01*
X100500500Y-82885258D01*
X100500500Y-75238339D01*
X100520185Y-75171300D01*
X100572989Y-75125545D01*
X100642147Y-75115601D01*
X100705703Y-75144626D01*
X100743477Y-75203404D01*
X100745074Y-75209392D01*
X100763607Y-75286591D01*
X100860014Y-75519340D01*
X100991641Y-75734134D01*
X100991642Y-75734137D01*
X101004022Y-75748632D01*
X101155257Y-75925705D01*
X101303547Y-76052356D01*
X101346824Y-76089319D01*
X101346827Y-76089320D01*
X101561621Y-76220947D01*
X101674337Y-76267635D01*
X101794370Y-76317354D01*
X102039333Y-76376164D01*
X102290481Y-76395930D01*
X102541629Y-76376164D01*
X102786592Y-76317354D01*
X103019340Y-76220947D01*
X103234140Y-76089317D01*
X103425705Y-75925705D01*
X103589317Y-75734140D01*
X103720947Y-75519340D01*
X103817354Y-75286592D01*
X103876164Y-75041629D01*
X103895930Y-74790481D01*
X103876164Y-74539333D01*
X103817354Y-74294370D01*
X103811741Y-74280818D01*
X103720947Y-74061621D01*
X103589320Y-73846827D01*
X103589319Y-73846824D01*
X103552356Y-73803547D01*
X103425705Y-73655257D01*
X103299052Y-73547085D01*
X103234137Y-73491642D01*
X103234134Y-73491641D01*
X103019340Y-73360014D01*
X102786591Y-73263607D01*
X102709392Y-73245074D01*
X102648800Y-73210283D01*
X102616636Y-73148257D01*
X102623112Y-73078688D01*
X102666171Y-73023664D01*
X102732144Y-73000655D01*
X102738339Y-73000500D01*
X157291792Y-73000500D01*
X157358831Y-73020185D01*
G37*
%TD.AperFunction*%
%TD*%
M02*
