M48
; DRILL file {KiCad 8.0.3} date 2024-12-13T09:54:46-0300
; FORMAT={-:-/ absolute / inch / decimal}
; #@! TF.CreationDate,2024-12-13T09:54:46-03:00
; #@! TF.GenerationSoftware,Kicad,Pcbnew,8.0.3
; #@! TF.FileFunction,Plated,1,2,PTH
FMAT,2
INCH
; #@! TA.AperFunction,Plated,PTH,ComponentDrill
T1C0.0394
%
G90
G05
T1
X4.1339Y-3.4433
X4.1339Y-3.5433
X4.1339Y-3.7189
X4.1339Y-3.8189
X4.1339Y-3.9764
X4.1339Y-4.0764
X4.1339Y-4.2307
X4.1339Y-4.3307
X4.1339Y-4.5063
X4.1339Y-4.6063
X4.1339Y-4.7819
X4.1339Y-4.8819
X4.2461Y-3.0104
X4.2461Y-3.1104
X4.2461Y-3.2104
X4.285Y-5.0787
X4.3307Y-3.4055
X4.3307Y-3.6024
X4.385Y-5.0787
X4.485Y-5.0787
X4.585Y-5.0787
X4.6457Y-2.9686
X4.6457Y-3.1655
X4.7787Y-5.0787
X4.8787Y-5.0787
X4.9787Y-5.0787
X5.0Y-2.9724
X5.0Y-3.1693
X5.0787Y-5.0787
X5.2543Y-3.1157
X5.2543Y-3.2157
X5.2543Y-3.3157
X5.2543Y-3.4157
X5.2543Y-3.5157
X5.2543Y-3.6157
X5.2543Y-3.7157
X5.2543Y-3.8157
X5.2543Y-3.9157
X5.2543Y-4.0157
X5.2543Y-4.1157
X5.2543Y-4.2157
X5.2543Y-4.3157
X5.2543Y-4.4157
X5.2543Y-4.5157
X5.2543Y-4.6157
X5.2543Y-4.7157
X5.2543Y-4.8157
X5.2543Y-4.9157
X5.2543Y-5.0157
X5.3543Y-3.1157
X5.3543Y-3.2157
X5.3543Y-3.3157
X5.3543Y-3.4157
X5.3543Y-3.5157
X5.3543Y-3.6157
X5.3543Y-3.7157
X5.3543Y-3.8157
X5.3543Y-3.9157
X5.3543Y-4.0157
X5.3543Y-4.1157
X5.3543Y-4.2157
X5.3543Y-4.3157
X5.3543Y-4.4157
X5.3543Y-4.5157
X5.3543Y-4.6157
X5.3543Y-4.7157
X5.3543Y-4.8157
X5.3543Y-4.9157
X5.3543Y-5.0157
X5.6299Y-3.1677
X5.6299Y-3.2677
X5.6299Y-3.3677
X5.6299Y-3.4677
X5.6874Y-5.0787
X5.7087Y-4.0157
X5.7157Y-4.4094
X5.7874Y-5.0787
X5.8071Y-3.8189
X5.8071Y-4.6457
X5.8087Y-4.0157
X5.8157Y-4.4094
X5.8874Y-5.0787
X5.9087Y-4.0157
X5.9157Y-4.4094
X5.9874Y-5.0787
X6.0039Y-3.8189
X6.0039Y-4.6457
X6.0087Y-4.0157
X6.0157Y-4.4094
X6.0236Y-3.0463
X6.0236Y-3.1463
X6.0236Y-3.2463
X6.0236Y-3.3463
X6.0236Y-3.4463
X6.0236Y-3.5463
X6.0236Y-3.6463
M30
