M48
; DRILL file {KiCad 8.0.3} date 2024-12-07T00:12:27-0300
; FORMAT={-:-/ absolute / inch / decimal}
; #@! TF.CreationDate,2024-12-07T00:12:27-03:00
; #@! TF.GenerationSoftware,Kicad,Pcbnew,8.0.3
; #@! TF.FileFunction,Plated,1,2,PTH
FMAT,2
INCH
; #@! TA.AperFunction,Plated,PTH,ComponentDrill
T1C0.0236
; #@! TA.AperFunction,Plated,PTH,ComponentDrill
T2C0.0394
%
G90
G05
T1
X6.1024Y-3.3465
X6.1024Y-3.4055
T2
X4.1701Y-5.0394
X4.1732Y-4.7047
X4.1732Y-4.9016
X4.1882Y-3.937
X4.1929Y-4.0945
X4.1992Y-4.252
X4.1992Y-4.5669
X4.2126Y-4.4094
X4.252Y-3.1299
X4.252Y-3.3268
X4.252Y-3.4614
X4.252Y-3.5614
X4.252Y-3.6614
X4.252Y-3.7614
X4.2701Y-5.0394
X4.2882Y-3.937
X4.2992Y-4.252
X4.2992Y-4.5669
X4.3701Y-5.0394
X4.3882Y-3.937
X4.3898Y-4.0945
X4.3992Y-4.252
X4.3992Y-4.5669
X4.4094Y-4.4094
X4.4701Y-5.0394
X4.4882Y-3.1646
X4.4882Y-3.2646
X4.4882Y-3.3646
X4.4882Y-3.4646
X4.4882Y-3.5646
X4.4882Y-3.6646
X4.4882Y-3.7646
X4.4882Y-3.937
X4.4992Y-4.252
X4.4992Y-4.5669
X4.7047Y-2.9528
X4.7795Y-3.1449
X4.7795Y-3.2449
X4.7795Y-3.3449
X4.7795Y-3.4449
X4.7795Y-3.5449
X4.7795Y-3.6449
X4.7795Y-3.7449
X4.7795Y-3.8449
X4.7795Y-3.9449
X4.7795Y-4.0449
X4.7795Y-4.1449
X4.7795Y-4.2449
X4.7795Y-4.3449
X4.7795Y-4.4449
X4.7795Y-4.5449
X4.7795Y-4.6449
X4.7795Y-4.7449
X4.7795Y-4.8449
X4.7795Y-4.9449
X4.7795Y-5.0449
X4.8795Y-3.1449
X4.8795Y-3.2449
X4.8795Y-3.3449
X4.8795Y-3.4449
X4.8795Y-3.5449
X4.8795Y-3.6449
X4.8795Y-3.7449
X4.8795Y-3.8449
X4.8795Y-3.9449
X4.8795Y-4.0449
X4.8795Y-4.1449
X4.8795Y-4.2449
X4.8795Y-4.3449
X4.8795Y-4.4449
X4.8795Y-4.5449
X4.8795Y-4.6449
X4.8795Y-4.7449
X4.8795Y-4.8449
X4.8795Y-4.9449
X4.8795Y-5.0449
X4.9016Y-2.9528
X5.0591Y-2.9528
X5.1937Y-5.0394
X5.2559Y-2.9528
X5.2937Y-5.0394
X5.3937Y-5.0394
X5.4937Y-5.0394
X5.7843Y-5.0394
X5.8661Y-3.6417
X5.8661Y-3.8386
X5.8843Y-5.0394
X5.9843Y-5.0394
X6.0843Y-5.0394
X6.1024Y-3.0496
X6.1024Y-3.1496
X6.1024Y-3.6795
X6.1024Y-3.7795
X6.1024Y-3.9945
X6.1024Y-4.0945
X6.1024Y-4.3094
X6.1024Y-4.4094
X6.1024Y-4.6244
X6.1024Y-4.7244
M30
