%TF.GenerationSoftware,KiCad,Pcbnew,8.0.3*%
%TF.CreationDate,2024-12-13T09:54:43-03:00*%
%TF.ProjectId,eca,6563612e-6b69-4636-9164-5f7063625858,rev?*%
%TF.SameCoordinates,Original*%
%TF.FileFunction,Copper,L1,Top*%
%TF.FilePolarity,Positive*%
%FSLAX46Y46*%
G04 Gerber Fmt 4.6, Leading zero omitted, Abs format (unit mm)*
G04 Created by KiCad (PCBNEW 8.0.3) date 2024-12-13 09:54:43*
%MOMM*%
%LPD*%
G01*
G04 APERTURE LIST*
%TA.AperFunction,ComponentPad*%
%ADD10O,2.000000X2.000000*%
%TD*%
%TA.AperFunction,ComponentPad*%
%ADD11C,2.000000*%
%TD*%
%TA.AperFunction,ComponentPad*%
%ADD12R,2.000000X2.000000*%
%TD*%
G04 APERTURE END LIST*
D10*
%TO.P,J4,1,Pin_1*%
%TO.N,3.3V*%
X152800000Y-112000000D03*
%TO.P,J4,2,Pin_2*%
%TO.N,GND*%
X150260000Y-112000000D03*
%TO.P,J4,3,Pin_3*%
%TO.N,GPIO5*%
X147720000Y-112000000D03*
%TO.P,J4,4,Pin_4*%
%TO.N,unconnected-(J4-Pin_4-Pad4)*%
X145180000Y-112000000D03*
%TD*%
D11*
%TO.P,C8,1*%
%TO.N,5V*%
X127000000Y-80500000D03*
%TO.P,C8,2*%
%TO.N,GND*%
X127000000Y-75500000D03*
%TD*%
D12*
%TO.P,J1,1,Pin_1*%
%TO.N,5V*%
X133460000Y-79140000D03*
D10*
%TO.P,J1,2,Pin_2*%
%TO.N,3.3V*%
X136000000Y-79140000D03*
%TO.P,J1,3,Pin_3*%
%TO.N,5V*%
X133460000Y-81680000D03*
%TO.P,J1,4,Pin_4*%
%TO.N,GPIO2*%
X136000000Y-81680000D03*
%TO.P,J1,5,Pin_5*%
%TO.N,GND*%
X133460000Y-84220000D03*
%TO.P,J1,6,Pin_6*%
%TO.N,GPIO3*%
X136000000Y-84220000D03*
%TO.P,J1,7,Pin_7*%
%TO.N,GPIO14*%
X133460000Y-86760000D03*
%TO.P,J1,8,Pin_8*%
%TO.N,GPIO4*%
X136000000Y-86760000D03*
%TO.P,J1,9,Pin_9*%
%TO.N,GPIO15*%
X133460000Y-89300000D03*
%TO.P,J1,10,Pin_10*%
%TO.N,GND*%
X136000000Y-89300000D03*
%TO.P,J1,11,Pin_11*%
%TO.N,GPIO18*%
X133460000Y-91840000D03*
%TO.P,J1,12,Pin_12*%
%TO.N,GPIO17*%
X136000000Y-91840000D03*
%TO.P,J1,13,Pin_13*%
%TO.N,GND*%
X133460000Y-94380000D03*
%TO.P,J1,14,Pin_14*%
%TO.N,GPIO27*%
X136000000Y-94380000D03*
%TO.P,J1,15,Pin_15*%
%TO.N,GPIO23*%
X133460000Y-96920000D03*
%TO.P,J1,16,Pin_16*%
%TO.N,GPIO22*%
X136000000Y-96920000D03*
%TO.P,J1,17,Pin_17*%
%TO.N,GPIO24*%
X133460000Y-99460000D03*
%TO.P,J1,18,Pin_18*%
%TO.N,3.3V*%
X136000000Y-99460000D03*
%TO.P,J1,19,Pin_19*%
%TO.N,GND*%
X133460000Y-102000000D03*
%TO.P,J1,20,Pin_20*%
%TO.N,GPIO10*%
X136000000Y-102000000D03*
%TO.P,J1,21,Pin_21*%
%TO.N,GPIO25*%
X133460000Y-104540000D03*
%TO.P,J1,22,Pin_22*%
%TO.N,GPIO9*%
X136000000Y-104540000D03*
%TO.P,J1,23,Pin_23*%
%TO.N,GPIO8*%
X133460000Y-107080000D03*
%TO.P,J1,24,Pin_24*%
%TO.N,GPIO11*%
X136000000Y-107080000D03*
%TO.P,J1,25,Pin_25*%
%TO.N,GPIO7*%
X133460000Y-109620000D03*
%TO.P,J1,26,Pin_26*%
%TO.N,GND*%
X136000000Y-109620000D03*
%TO.P,J1,27,Pin_27*%
%TO.N,ID_SC*%
X133460000Y-112160000D03*
%TO.P,J1,28,Pin_28*%
%TO.N,ID_SD*%
X136000000Y-112160000D03*
%TO.P,J1,29,Pin_29*%
%TO.N,GND*%
X133460000Y-114700000D03*
%TO.P,J1,30,Pin_30*%
%TO.N,GPIO5*%
X136000000Y-114700000D03*
%TO.P,J1,31,Pin_31*%
%TO.N,GPIO12*%
X133460000Y-117240000D03*
%TO.P,J1,32,Pin_32*%
%TO.N,GPIO6*%
X136000000Y-117240000D03*
%TO.P,J1,33,Pin_33*%
%TO.N,GND*%
X133460000Y-119780000D03*
%TO.P,J1,34,Pin_34*%
%TO.N,GPIO13*%
X136000000Y-119780000D03*
%TO.P,J1,35,Pin_35*%
%TO.N,GPIO16*%
X133460000Y-122320000D03*
%TO.P,J1,36,Pin_36*%
%TO.N,GPIO19*%
X136000000Y-122320000D03*
%TO.P,J1,37,Pin_37*%
%TO.N,GPIO20*%
X133460000Y-124860000D03*
%TO.P,J1,38,Pin_38*%
%TO.N,GPIO26*%
X136000000Y-124860000D03*
%TO.P,J1,39,Pin_39*%
%TO.N,GPIO21*%
X133460000Y-127400000D03*
%TO.P,J1,40,Pin_40*%
%TO.N,GND*%
X136000000Y-127400000D03*
%TD*%
D11*
%TO.P,C7,1*%
%TO.N,3.3V*%
X152500000Y-118000000D03*
%TO.P,C7,2*%
%TO.N,GND*%
X147500000Y-118000000D03*
%TD*%
D12*
%TO.P,J15,1,Pin_1*%
%TO.N,5V*%
X105000000Y-121460000D03*
D10*
%TO.P,J15,2,Pin_2*%
%TO.N,GND*%
X105000000Y-124000000D03*
%TD*%
%TO.P,J2,1,Pin_1*%
%TO.N,GPIO2*%
X143000000Y-80460000D03*
%TO.P,J2,2,Pin_2*%
%TO.N,GPIO3*%
X143000000Y-83000000D03*
%TO.P,J2,3,Pin_3*%
%TO.N,GND*%
X143000000Y-85540000D03*
%TO.P,J2,4,Pin_4*%
%TO.N,3.3V*%
X143000000Y-88080000D03*
%TD*%
%TO.P,J9,1,Pin_1*%
%TO.N,GPIO12*%
X121380000Y-129000000D03*
%TO.P,J9,2,Pin_2*%
%TO.N,GPIO16*%
X123920000Y-129000000D03*
%TO.P,J9,3,Pin_3*%
%TO.N,GPIO20*%
X126460000Y-129000000D03*
%TO.P,J9,4,Pin_4*%
%TO.N,GPIO21*%
X129000000Y-129000000D03*
%TD*%
D12*
%TO.P,J10,1,Pin_1*%
%TO.N,5V*%
X105000000Y-87460000D03*
D10*
%TO.P,J10,2,Pin_2*%
%TO.N,GND*%
X105000000Y-90000000D03*
%TD*%
%TO.P,J8,1,Pin_1*%
%TO.N,GPIO18*%
X108840000Y-129000000D03*
%TO.P,J8,2,Pin_2*%
%TO.N,GPIO23*%
X111380000Y-129000000D03*
%TO.P,J8,3,Pin_3*%
%TO.N,GPIO24*%
X113920000Y-129000000D03*
%TO.P,J8,4,Pin_4*%
%TO.N,GPIO25*%
X116460000Y-129000000D03*
%TD*%
D11*
%TO.P,C6,1*%
%TO.N,3.3V*%
X152500000Y-97000000D03*
%TO.P,C6,2*%
%TO.N,GND*%
X147500000Y-97000000D03*
%TD*%
D12*
%TO.P,J12,1,Pin_1*%
%TO.N,5V*%
X105000000Y-101000000D03*
D10*
%TO.P,J12,2,Pin_2*%
%TO.N,GND*%
X105000000Y-103540000D03*
%TD*%
%TO.P,J7,1,Pin_1*%
%TO.N,GPIO6*%
X152080000Y-129000000D03*
%TO.P,J7,2,Pin_2*%
%TO.N,GPIO13*%
X149540000Y-129000000D03*
%TO.P,J7,3,Pin_3*%
%TO.N,GPIO19*%
X147000000Y-129000000D03*
%TO.P,J7,4,Pin_4*%
%TO.N,GPIO26*%
X144460000Y-129000000D03*
%TD*%
D11*
%TO.P,C2,1*%
%TO.N,5V*%
X110000000Y-86500000D03*
%TO.P,C2,2*%
%TO.N,GND*%
X110000000Y-91500000D03*
%TD*%
D12*
%TO.P,J11,1,Pin_1*%
%TO.N,5V*%
X105000000Y-107460000D03*
D10*
%TO.P,J11,2,Pin_2*%
%TO.N,GND*%
X105000000Y-110000000D03*
%TD*%
D12*
%TO.P,J6,1,Pin_1*%
%TO.N,5V*%
X107850000Y-81545000D03*
D11*
%TO.P,J6,2,Pin_2*%
%TO.N,unconnected-(J6-Pin_2-Pad2)*%
X107850000Y-79005000D03*
%TO.P,J6,3,Pin_3*%
%TO.N,GND*%
X107850000Y-76465000D03*
%TD*%
D12*
%TO.P,J13,1,Pin_1*%
%TO.N,5V*%
X105000000Y-94460000D03*
D10*
%TO.P,J13,2,Pin_2*%
%TO.N,GND*%
X105000000Y-97000000D03*
%TD*%
D12*
%TO.P,C1,1*%
%TO.N,5V*%
X118000000Y-80402651D03*
D11*
%TO.P,C1,2*%
%TO.N,GND*%
X118000000Y-75402651D03*
%TD*%
D12*
%TO.P,J16,1,Pin_1*%
%TO.N,5V*%
X105000000Y-114460000D03*
D10*
%TO.P,J16,2,Pin_2*%
%TO.N,GND*%
X105000000Y-117000000D03*
%TD*%
%TO.P,J5,1,Pin_1*%
%TO.N,3.3V*%
X152620000Y-102000000D03*
%TO.P,J5,2,Pin_2*%
%TO.N,GND*%
X150080000Y-102000000D03*
%TO.P,J5,3,Pin_3*%
%TO.N,GPIO17*%
X147540000Y-102000000D03*
%TO.P,J5,4,Pin_4*%
%TO.N,unconnected-(J5-Pin_4-Pad4)*%
X145000000Y-102000000D03*
%TD*%
%TO.P,J3,1,Pin_1*%
%TO.N,GND*%
X153000000Y-77375000D03*
%TO.P,J3,2,Pin_2*%
%TO.N,unconnected-(J3-Pin_2-Pad2)*%
X153000000Y-79915000D03*
%TO.P,J3,3,Pin_3*%
%TO.N,unconnected-(J3-Pin_3-Pad3)*%
X153000000Y-82455000D03*
%TO.P,J3,4,Pin_4*%
%TO.N,unconnected-(J3-Pin_4-Pad4)*%
X153000000Y-84995000D03*
%TO.P,J3,5,Pin_5*%
%TO.N,GPIO2*%
X153000000Y-87535000D03*
%TO.P,J3,6,Pin_6*%
%TO.N,GPIO3*%
X153000000Y-90075000D03*
%TO.P,J3,7,Pin_7*%
%TO.N,3.3V*%
X153000000Y-92615000D03*
%TD*%
M02*
