%TF.GenerationSoftware,KiCad,Pcbnew,8.0.3*%
%TF.CreationDate,2024-12-08T21:05:17-03:00*%
%TF.ProjectId,eca,6563612e-6b69-4636-9164-5f7063625858,rev?*%
%TF.SameCoordinates,Original*%
%TF.FileFunction,Copper,L2,Bot*%
%TF.FilePolarity,Positive*%
%FSLAX46Y46*%
G04 Gerber Fmt 4.6, Leading zero omitted, Abs format (unit mm)*
G04 Created by KiCad (PCBNEW 8.0.3) date 2024-12-08 21:05:17*
%MOMM*%
%LPD*%
G01*
G04 APERTURE LIST*
%TA.AperFunction,ComponentPad*%
%ADD10O,2.000000X2.000000*%
%TD*%
%TA.AperFunction,ComponentPad*%
%ADD11C,2.000000*%
%TD*%
%TA.AperFunction,ComponentPad*%
%ADD12R,2.000000X2.000000*%
%TD*%
%TA.AperFunction,ComponentPad*%
%ADD13R,2.200000X2.200000*%
%TD*%
%TA.AperFunction,ComponentPad*%
%ADD14C,2.200000*%
%TD*%
%TA.AperFunction,Conductor*%
%ADD15C,0.200000*%
%TD*%
%TA.AperFunction,Conductor*%
%ADD16C,1.000000*%
%TD*%
%TA.AperFunction,Conductor*%
%ADD17C,2.500000*%
%TD*%
%TA.AperFunction,Conductor*%
%ADD18C,2.000000*%
%TD*%
%TA.AperFunction,Conductor*%
%ADD19C,2.300000*%
%TD*%
G04 APERTURE END LIST*
D10*
%TO.P,J4,1,Pin_1*%
%TO.N,3.3V*%
X106660000Y-119000000D03*
%TO.P,J4,2,Pin_2*%
%TO.N,GND*%
X109200000Y-119000000D03*
%TO.P,J4,3,Pin_3*%
%TO.N,GPIO5*%
X111740000Y-119000000D03*
%TO.P,J4,4,Pin_4*%
%TO.N,unconnected-(J4-Pin_4-Pad4)*%
X114280000Y-119000000D03*
%TD*%
D11*
%TO.P,C8,1*%
%TO.N,5V*%
X129000000Y-82500000D03*
%TO.P,C8,2*%
%TO.N,GND*%
X129000000Y-77500000D03*
%TD*%
D12*
%TO.P,J1,1,Pin_1*%
%TO.N,3.3V*%
X121400000Y-79880000D03*
D10*
%TO.P,J1,2,Pin_2*%
%TO.N,5V*%
X123940000Y-79880000D03*
%TO.P,J1,3,Pin_3*%
%TO.N,GPIO2*%
X121400000Y-82420000D03*
%TO.P,J1,4,Pin_4*%
%TO.N,5V*%
X123940000Y-82420000D03*
%TO.P,J1,5,Pin_5*%
%TO.N,GPIO3*%
X121400000Y-84960000D03*
%TO.P,J1,6,Pin_6*%
%TO.N,GND*%
X123940000Y-84960000D03*
%TO.P,J1,7,Pin_7*%
%TO.N,GPIO4*%
X121400000Y-87500000D03*
%TO.P,J1,8,Pin_8*%
%TO.N,GPIO14*%
X123940000Y-87500000D03*
%TO.P,J1,9,Pin_9*%
%TO.N,GND*%
X121400000Y-90040000D03*
%TO.P,J1,10,Pin_10*%
%TO.N,GPIO15*%
X123940000Y-90040000D03*
%TO.P,J1,11,Pin_11*%
%TO.N,GPIO17*%
X121400000Y-92580000D03*
%TO.P,J1,12,Pin_12*%
%TO.N,GPIO18*%
X123940000Y-92580000D03*
%TO.P,J1,13,Pin_13*%
%TO.N,GPIO27*%
X121400000Y-95120000D03*
%TO.P,J1,14,Pin_14*%
%TO.N,GND*%
X123940000Y-95120000D03*
%TO.P,J1,15,Pin_15*%
%TO.N,GPIO22*%
X121400000Y-97660000D03*
%TO.P,J1,16,Pin_16*%
%TO.N,GPIO23*%
X123940000Y-97660000D03*
%TO.P,J1,17,Pin_17*%
%TO.N,3.3V*%
X121400000Y-100200000D03*
%TO.P,J1,18,Pin_18*%
%TO.N,GPIO24*%
X123940000Y-100200000D03*
%TO.P,J1,19,Pin_19*%
%TO.N,GPIO10*%
X121400000Y-102740000D03*
%TO.P,J1,20,Pin_20*%
%TO.N,GND*%
X123940000Y-102740000D03*
%TO.P,J1,21,Pin_21*%
%TO.N,GPIO9*%
X121400000Y-105280000D03*
%TO.P,J1,22,Pin_22*%
%TO.N,GPIO25*%
X123940000Y-105280000D03*
%TO.P,J1,23,Pin_23*%
%TO.N,GPIO11*%
X121400000Y-107820000D03*
%TO.P,J1,24,Pin_24*%
%TO.N,GPIO8*%
X123940000Y-107820000D03*
%TO.P,J1,25,Pin_25*%
%TO.N,GND*%
X121400000Y-110360000D03*
%TO.P,J1,26,Pin_26*%
%TO.N,GPIO7*%
X123940000Y-110360000D03*
%TO.P,J1,27,Pin_27*%
%TO.N,ID_SD*%
X121400000Y-112900000D03*
%TO.P,J1,28,Pin_28*%
%TO.N,ID_SC*%
X123940000Y-112900000D03*
%TO.P,J1,29,Pin_29*%
%TO.N,GPIO5*%
X121400000Y-115440000D03*
%TO.P,J1,30,Pin_30*%
%TO.N,GND*%
X123940000Y-115440000D03*
%TO.P,J1,31,Pin_31*%
%TO.N,GPIO6*%
X121400000Y-117980000D03*
%TO.P,J1,32,Pin_32*%
%TO.N,GPIO12*%
X123940000Y-117980000D03*
%TO.P,J1,33,Pin_33*%
%TO.N,GPIO13*%
X121400000Y-120520000D03*
%TO.P,J1,34,Pin_34*%
%TO.N,GND*%
X123940000Y-120520000D03*
%TO.P,J1,35,Pin_35*%
%TO.N,GPIO19*%
X121400000Y-123060000D03*
%TO.P,J1,36,Pin_36*%
%TO.N,GPIO16*%
X123940000Y-123060000D03*
%TO.P,J1,37,Pin_37*%
%TO.N,GPIO26*%
X121400000Y-125600000D03*
%TO.P,J1,38,Pin_38*%
%TO.N,GPIO20*%
X123940000Y-125600000D03*
%TO.P,J1,39,Pin_39*%
%TO.N,GND*%
X121400000Y-128140000D03*
%TO.P,J1,40,Pin_40*%
%TO.N,GPIO21*%
X123940000Y-128140000D03*
%TD*%
D11*
%TO.P,C7,1*%
%TO.N,3.3V*%
X107000000Y-114000000D03*
%TO.P,C7,2*%
%TO.N,GND*%
X112000000Y-114000000D03*
%TD*%
D12*
%TO.P,J15,1,Pin_1*%
%TO.N,5V*%
X157000000Y-121000000D03*
D10*
%TO.P,J15,2,Pin_2*%
%TO.N,GND*%
X157000000Y-123540000D03*
%TD*%
%TO.P,J2,1,Pin_1*%
%TO.N,GPIO2*%
X108000000Y-87920000D03*
%TO.P,J2,2,Pin_2*%
%TO.N,GPIO3*%
X108000000Y-90460000D03*
%TO.P,J2,3,Pin_3*%
%TO.N,GND*%
X108000000Y-93000000D03*
%TO.P,J2,4,Pin_4*%
%TO.N,3.3V*%
X108000000Y-95540000D03*
%TD*%
%TO.P,J9,1,Pin_1*%
%TO.N,GPIO12*%
X139540000Y-128000000D03*
%TO.P,J9,2,Pin_2*%
%TO.N,GPIO16*%
X137000000Y-128000000D03*
%TO.P,J9,3,Pin_3*%
%TO.N,GPIO20*%
X134460000Y-128000000D03*
%TO.P,J9,4,Pin_4*%
%TO.N,GPIO21*%
X131920000Y-128000000D03*
%TD*%
D13*
%TO.P,Power Supply,1,Pin_1*%
%TO.N,5V*%
X154000000Y-81000000D03*
D14*
%TO.P,Power Supply,2,Pin_2*%
%TO.N,GND*%
X154000000Y-78460000D03*
%TD*%
D12*
%TO.P,J10,1,Pin_1*%
%TO.N,5V*%
X157000000Y-87000000D03*
D10*
%TO.P,J10,2,Pin_2*%
%TO.N,GND*%
X157000000Y-89540000D03*
%TD*%
%TO.P,J8,1,Pin_1*%
%TO.N,GPIO18*%
X154540000Y-128000000D03*
%TO.P,J8,2,Pin_2*%
%TO.N,GPIO23*%
X152000000Y-128000000D03*
%TO.P,J8,3,Pin_3*%
%TO.N,GPIO24*%
X149460000Y-128000000D03*
%TO.P,J8,4,Pin_4*%
%TO.N,GPIO25*%
X146920000Y-128000000D03*
%TD*%
D11*
%TO.P,C6,1*%
%TO.N,3.3V*%
X106500000Y-104000000D03*
%TO.P,C6,2*%
%TO.N,GND*%
X111500000Y-104000000D03*
%TD*%
D12*
%TO.P,J12,1,Pin_1*%
%TO.N,5V*%
X157000000Y-100540000D03*
D10*
%TO.P,J12,2,Pin_2*%
%TO.N,GND*%
X157000000Y-103080000D03*
%TD*%
%TO.P,J7,1,Pin_1*%
%TO.N,GPIO6*%
X105920000Y-128000000D03*
%TO.P,J7,2,Pin_2*%
%TO.N,GPIO13*%
X108460000Y-128000000D03*
%TO.P,J7,3,Pin_3*%
%TO.N,GPIO19*%
X111000000Y-128000000D03*
%TO.P,J7,4,Pin_4*%
%TO.N,GPIO26*%
X113540000Y-128000000D03*
%TD*%
D11*
%TO.P,C4,1*%
%TO.N,GND*%
X119500000Y-74000000D03*
%TO.P,C4,2*%
%TO.N,3.3V*%
X114500000Y-74000000D03*
%TD*%
%TO.P,C2,1*%
%TO.N,5V*%
X151000000Y-86500000D03*
%TO.P,C2,2*%
%TO.N,GND*%
X151000000Y-91500000D03*
%TD*%
%TO.P,C3,1*%
%TO.N,GND*%
X108000000Y-84500000D03*
%TO.P,C3,2*%
%TO.N,3.3V*%
X108000000Y-79500000D03*
%TD*%
D12*
%TO.P,J11,1,Pin_1*%
%TO.N,5V*%
X157000000Y-107000000D03*
D10*
%TO.P,J11,2,Pin_2*%
%TO.N,GND*%
X157000000Y-109540000D03*
%TD*%
D12*
%TO.P,J13,1,Pin_1*%
%TO.N,5V*%
X157000000Y-94000000D03*
D10*
%TO.P,J13,2,Pin_2*%
%TO.N,GND*%
X157000000Y-96540000D03*
%TD*%
D12*
%TO.P,C1,1*%
%TO.N,5V*%
X142000000Y-74000000D03*
D11*
%TO.P,C1,2*%
%TO.N,GND*%
X142000000Y-79000000D03*
%TD*%
D12*
%TO.P,J16,1,Pin_1*%
%TO.N,5V*%
X157000000Y-114000000D03*
D10*
%TO.P,J16,2,Pin_2*%
%TO.N,GND*%
X157000000Y-116540000D03*
%TD*%
%TO.P,J5,1,Pin_1*%
%TO.N,3.3V*%
X106660000Y-108000000D03*
%TO.P,J5,2,Pin_2*%
%TO.N,GND*%
X109200000Y-108000000D03*
%TO.P,J5,3,Pin_3*%
%TO.N,GPIO17*%
X111740000Y-108000000D03*
%TO.P,J5,4,Pin_4*%
%TO.N,unconnected-(J5-Pin_4-Pad4)*%
X114280000Y-108000000D03*
%TD*%
%TO.P,J3,1,Pin_1*%
%TO.N,GND*%
X114000000Y-80380000D03*
%TO.P,J3,2,Pin_2*%
%TO.N,unconnected-(J3-Pin_2-Pad2)*%
X114000000Y-82920000D03*
%TO.P,J3,3,Pin_3*%
%TO.N,unconnected-(J3-Pin_3-Pad3)*%
X114000000Y-85460000D03*
%TO.P,J3,4,Pin_4*%
%TO.N,unconnected-(J3-Pin_4-Pad4)*%
X114000000Y-88000000D03*
%TO.P,J3,5,Pin_5*%
%TO.N,GPIO2*%
X114000000Y-90540000D03*
%TO.P,J3,6,Pin_6*%
%TO.N,GPIO3*%
X114000000Y-93080000D03*
%TO.P,J3,7,Pin_7*%
%TO.N,3.3V*%
X114000000Y-95620000D03*
%TD*%
D15*
%TO.N,GPIO5*%
X121400000Y-115440000D02*
X121400000Y-115600000D01*
D16*
X121400000Y-115440000D02*
X115300000Y-115440000D01*
X115300000Y-115440000D02*
X111740000Y-119000000D01*
%TO.N,GPIO3*%
X115920000Y-93080000D02*
X114000000Y-93080000D01*
D15*
X121040000Y-84960000D02*
X121400000Y-84960000D01*
D16*
X111380000Y-90460000D02*
X114000000Y-93080000D01*
X108000000Y-90460000D02*
X111380000Y-90460000D01*
X119000000Y-90000000D02*
X115920000Y-93080000D01*
X119000000Y-87000000D02*
X119000000Y-90000000D01*
X121040000Y-84960000D02*
X119000000Y-87000000D01*
%TO.N,GPIO21*%
X131920000Y-128000000D02*
X124080000Y-128000000D01*
D15*
X124080000Y-128000000D02*
X123940000Y-128140000D01*
D17*
%TO.N,3.3V*%
X103000000Y-116000000D02*
X103000000Y-111660000D01*
D18*
X106660000Y-113660000D02*
X107000000Y-114000000D01*
D17*
X107000000Y-74000000D02*
X114500000Y-74000000D01*
X103000000Y-100540000D02*
X108000000Y-95540000D01*
X103000000Y-84500000D02*
X103000000Y-78000000D01*
X103000000Y-106000000D02*
X105000000Y-104000000D01*
D15*
X108080000Y-95620000D02*
X108000000Y-95540000D01*
D16*
X106660000Y-104160000D02*
X106500000Y-104000000D01*
D17*
X103000000Y-111660000D02*
X103000000Y-106000000D01*
X105000000Y-114000000D02*
X107000000Y-114000000D01*
D15*
X121360000Y-79920000D02*
X121400000Y-79880000D01*
D17*
X106660000Y-119000000D02*
X104000000Y-119000000D01*
X103000000Y-84500000D02*
X108000000Y-79500000D01*
X103000000Y-111660000D02*
X106660000Y-108000000D01*
X104000000Y-119000000D02*
X103000000Y-118000000D01*
X103000000Y-106000000D02*
X103000000Y-100540000D01*
D19*
X121400000Y-79880000D02*
X120380000Y-79880000D01*
D15*
X113920000Y-95540000D02*
X114000000Y-95620000D01*
D17*
X108000000Y-95540000D02*
X113920000Y-95540000D01*
X103000000Y-78000000D02*
X107000000Y-74000000D01*
X103000000Y-116000000D02*
X105000000Y-114000000D01*
D19*
X120380000Y-79880000D02*
X114500000Y-74000000D01*
D15*
X106380000Y-103880000D02*
X106500000Y-104000000D01*
X106660000Y-114340000D02*
X107000000Y-114000000D01*
D17*
X105000000Y-104000000D02*
X106500000Y-104000000D01*
X103000000Y-100540000D02*
X103000000Y-84500000D01*
X103000000Y-118000000D02*
X103000000Y-116000000D01*
D16*
%TO.N,GPIO25*%
X146920000Y-128000000D02*
X124200000Y-105280000D01*
D15*
X124200000Y-105280000D02*
X123940000Y-105280000D01*
D16*
%TO.N,GPIO2*%
X117000000Y-87540000D02*
X117000000Y-86820000D01*
X117000000Y-86820000D02*
X121400000Y-82420000D01*
X111380000Y-87920000D02*
X114000000Y-90540000D01*
X114000000Y-90540000D02*
X117000000Y-87540000D01*
X108000000Y-87920000D02*
X111380000Y-87920000D01*
D17*
%TO.N,5V*%
X140000000Y-74000000D02*
X142000000Y-74000000D01*
X153000000Y-110000000D02*
X153000000Y-117000000D01*
X153000000Y-104000000D02*
X153000000Y-110000000D01*
X153000000Y-96000000D02*
X155000000Y-94000000D01*
X142000000Y-74000000D02*
X145000000Y-74000000D01*
X153000000Y-98000000D02*
X153000000Y-101000000D01*
X150500000Y-79500000D02*
X152010000Y-81010000D01*
X156500000Y-86500000D02*
X157000000Y-87000000D01*
X155000000Y-94000000D02*
X157000000Y-94000000D01*
X155540000Y-100540000D02*
X153000000Y-98000000D01*
X153000000Y-101000000D02*
X153000000Y-104000000D01*
X153000000Y-117000000D02*
X157000000Y-121000000D01*
X123940000Y-82420000D02*
X128920000Y-82420000D01*
X151000000Y-86500000D02*
X156500000Y-86500000D01*
X153000000Y-101000000D02*
X147000000Y-95000000D01*
X145000000Y-74000000D02*
X150500000Y-79500000D01*
X153000000Y-110000000D02*
X157000000Y-114000000D01*
X131580000Y-82420000D02*
X140000000Y-74000000D01*
D15*
X124060000Y-80000000D02*
X123940000Y-79880000D01*
D17*
X156000000Y-107000000D02*
X157000000Y-107000000D01*
D15*
X128920000Y-82420000D02*
X129000000Y-82500000D01*
D17*
X151000000Y-82020000D02*
X152010000Y-81010000D01*
X151000000Y-86500000D02*
X151000000Y-82020000D01*
X153000000Y-98000000D02*
X153000000Y-96000000D01*
X150500000Y-80500000D02*
X150500000Y-79500000D01*
D15*
X156460000Y-100000000D02*
X157000000Y-100540000D01*
D17*
X147000000Y-95000000D02*
X147000000Y-84000000D01*
X152010000Y-81010000D02*
X154000000Y-81010000D01*
X157000000Y-100540000D02*
X155540000Y-100540000D01*
X128920000Y-82420000D02*
X131580000Y-82420000D01*
X147000000Y-84000000D02*
X150500000Y-80500000D01*
X153000000Y-104000000D02*
X156000000Y-107000000D01*
D16*
%TO.N,GPIO13*%
X115940000Y-120520000D02*
X121400000Y-120520000D01*
X108460000Y-128000000D02*
X115940000Y-120520000D01*
%TO.N,GPIO6*%
X114920000Y-119000000D02*
X120380000Y-119000000D01*
X120380000Y-119000000D02*
X121400000Y-117980000D01*
X105920000Y-128000000D02*
X114920000Y-119000000D01*
%TO.N,GPIO12*%
X123940000Y-117980000D02*
X129520000Y-117980000D01*
X129520000Y-117980000D02*
X139540000Y-128000000D01*
%TO.N,GPIO20*%
X123940000Y-125600000D02*
X132060000Y-125600000D01*
X132060000Y-125600000D02*
X134460000Y-128000000D01*
%TO.N,GPIO19*%
X115940000Y-123060000D02*
X121400000Y-123060000D01*
X111000000Y-128000000D02*
X115940000Y-123060000D01*
D15*
%TO.N,ID_SD*%
X121100000Y-112900000D02*
X121000000Y-113000000D01*
X121400000Y-112900000D02*
X121100000Y-112900000D01*
D16*
%TO.N,GPIO23*%
X152000000Y-128000000D02*
X152000000Y-125720000D01*
X152000000Y-125720000D02*
X123940000Y-97660000D01*
%TO.N,GPIO18*%
X123940000Y-92580000D02*
X127000000Y-95640000D01*
X127000000Y-95640000D02*
X127000000Y-98000000D01*
X154540000Y-125540000D02*
X154540000Y-128000000D01*
X127000000Y-98000000D02*
X154540000Y-125540000D01*
%TO.N,GPIO24*%
X149460000Y-125720000D02*
X123940000Y-100200000D01*
X149460000Y-128000000D02*
X149460000Y-125720000D01*
%TO.N,GPIO26*%
X113540000Y-128000000D02*
X115940000Y-125600000D01*
X115940000Y-125600000D02*
X121400000Y-125600000D01*
%TO.N,GPIO17*%
X119000000Y-93000000D02*
X119000000Y-100740000D01*
X119420000Y-92580000D02*
X119000000Y-93000000D01*
X121400000Y-92580000D02*
X119420000Y-92580000D01*
X119000000Y-100740000D02*
X111740000Y-108000000D01*
%TO.N,GPIO16*%
X132060000Y-123060000D02*
X137000000Y-128000000D01*
X123940000Y-123060000D02*
X132060000Y-123060000D01*
%TD*%
%TA.AperFunction,Conductor*%
%TO.N,GND*%
G36*
X101522211Y-72020185D02*
G01*
X101567966Y-72072989D01*
X101577910Y-72142147D01*
X101548885Y-72205703D01*
X101535706Y-72218787D01*
X101439261Y-72301160D01*
X101364776Y-72364776D01*
X101201161Y-72556343D01*
X101201160Y-72556346D01*
X101069533Y-72771140D01*
X100973126Y-73003889D01*
X100914317Y-73248848D01*
X100894551Y-73500000D01*
X100914317Y-73751151D01*
X100973126Y-73996110D01*
X101069533Y-74228859D01*
X101201160Y-74443653D01*
X101201161Y-74443656D01*
X101220181Y-74465925D01*
X101364776Y-74635224D01*
X101459779Y-74716364D01*
X101556343Y-74798838D01*
X101556346Y-74798839D01*
X101771140Y-74930466D01*
X102001912Y-75026054D01*
X102003889Y-75026873D01*
X102248852Y-75085683D01*
X102500000Y-75105449D01*
X102751148Y-75085683D01*
X102996111Y-75026873D01*
X103228859Y-74930466D01*
X103278484Y-74900055D01*
X103345928Y-74881811D01*
X103412530Y-74902927D01*
X103457144Y-74956698D01*
X103465605Y-75026054D01*
X103435226Y-75088973D01*
X103430954Y-75093464D01*
X101681084Y-76843333D01*
X101681078Y-76843340D01*
X101611818Y-76933603D01*
X101611235Y-76934363D01*
X101579670Y-76975499D01*
X101541385Y-77025392D01*
X101426657Y-77224108D01*
X101426650Y-77224123D01*
X101339645Y-77434174D01*
X101338842Y-77436113D01*
X101289134Y-77621630D01*
X101279453Y-77657759D01*
X101279451Y-77657770D01*
X101249500Y-77885258D01*
X101249500Y-118114741D01*
X101256784Y-118170064D01*
X101270183Y-118271835D01*
X101279452Y-118342239D01*
X101321724Y-118500000D01*
X101324703Y-118511118D01*
X101338843Y-118563889D01*
X101426650Y-118775876D01*
X101426657Y-118775890D01*
X101447654Y-118812258D01*
X101541389Y-118974612D01*
X101541391Y-118974615D01*
X101541392Y-118974616D01*
X101575828Y-119019495D01*
X101575833Y-119019500D01*
X101681078Y-119156659D01*
X101681084Y-119156666D01*
X102843331Y-120318913D01*
X102843336Y-120318917D01*
X102843339Y-120318920D01*
X102899766Y-120362217D01*
X102899767Y-120362219D01*
X103025386Y-120458610D01*
X103027049Y-120459570D01*
X103165074Y-120539258D01*
X103165075Y-120539259D01*
X103194593Y-120556301D01*
X103224113Y-120573345D01*
X103333227Y-120618541D01*
X103436113Y-120661158D01*
X103474781Y-120671519D01*
X103657761Y-120720549D01*
X103861553Y-120747377D01*
X103861555Y-120747378D01*
X103861556Y-120747378D01*
X103868151Y-120748246D01*
X103885266Y-120750500D01*
X103885267Y-120750500D01*
X103885270Y-120750500D01*
X106774727Y-120750500D01*
X106774734Y-120750500D01*
X107002238Y-120720548D01*
X107223887Y-120661158D01*
X107435888Y-120573344D01*
X107634612Y-120458611D01*
X107816661Y-120318919D01*
X107816667Y-120318913D01*
X107816670Y-120318911D01*
X107978914Y-120156666D01*
X107978924Y-120156655D01*
X108002001Y-120126580D01*
X108058428Y-120085376D01*
X108128174Y-120081219D01*
X108175588Y-120105450D01*
X108176548Y-120104218D01*
X108376762Y-120260051D01*
X108376771Y-120260057D01*
X108595385Y-120378364D01*
X108595396Y-120378369D01*
X108830507Y-120459083D01*
X108949999Y-120479023D01*
X108950000Y-120479022D01*
X108950000Y-119433012D01*
X109007007Y-119465925D01*
X109134174Y-119500000D01*
X109265826Y-119500000D01*
X109392993Y-119465925D01*
X109450000Y-119433012D01*
X109450000Y-120479023D01*
X109569492Y-120459083D01*
X109804603Y-120378369D01*
X109804614Y-120378364D01*
X110023228Y-120260057D01*
X110023237Y-120260051D01*
X110219397Y-120107373D01*
X110219401Y-120107370D01*
X110378430Y-119934620D01*
X110438318Y-119898629D01*
X110508156Y-119900730D01*
X110560889Y-119934619D01*
X110720256Y-120107738D01*
X110916491Y-120260474D01*
X110916493Y-120260475D01*
X111134332Y-120378364D01*
X111135190Y-120378828D01*
X111354141Y-120453994D01*
X111368964Y-120459083D01*
X111370386Y-120459571D01*
X111615665Y-120500500D01*
X111705217Y-120500500D01*
X111772256Y-120520185D01*
X111818011Y-120572989D01*
X111827955Y-120642147D01*
X111798930Y-120705703D01*
X111792898Y-120712181D01*
X106041899Y-126463181D01*
X105980576Y-126496666D01*
X105954218Y-126499500D01*
X105795665Y-126499500D01*
X105550383Y-126540429D01*
X105315197Y-126621169D01*
X105315188Y-126621172D01*
X105096493Y-126739524D01*
X104900257Y-126892261D01*
X104731833Y-127075217D01*
X104595826Y-127283393D01*
X104495936Y-127511118D01*
X104434892Y-127752175D01*
X104434890Y-127752187D01*
X104414357Y-127999994D01*
X104414357Y-128000005D01*
X104434890Y-128247812D01*
X104434892Y-128247824D01*
X104495936Y-128488881D01*
X104595826Y-128716606D01*
X104731833Y-128924782D01*
X104731836Y-128924785D01*
X104900256Y-129107738D01*
X105096491Y-129260474D01*
X105315190Y-129378828D01*
X105550386Y-129459571D01*
X105795665Y-129500500D01*
X106044335Y-129500500D01*
X106289614Y-129459571D01*
X106524810Y-129378828D01*
X106743509Y-129260474D01*
X106939744Y-129107738D01*
X107098771Y-128934988D01*
X107158657Y-128898999D01*
X107228495Y-128901099D01*
X107281228Y-128934988D01*
X107440256Y-129107738D01*
X107636491Y-129260474D01*
X107855190Y-129378828D01*
X108090386Y-129459571D01*
X108335665Y-129500500D01*
X108584335Y-129500500D01*
X108829614Y-129459571D01*
X109064810Y-129378828D01*
X109283509Y-129260474D01*
X109479744Y-129107738D01*
X109638771Y-128934988D01*
X109698657Y-128898999D01*
X109768495Y-128901099D01*
X109821228Y-128934988D01*
X109980256Y-129107738D01*
X110176491Y-129260474D01*
X110395190Y-129378828D01*
X110630386Y-129459571D01*
X110875665Y-129500500D01*
X111124335Y-129500500D01*
X111369614Y-129459571D01*
X111604810Y-129378828D01*
X111823509Y-129260474D01*
X112019744Y-129107738D01*
X112178771Y-128934988D01*
X112238657Y-128898999D01*
X112308495Y-128901099D01*
X112361228Y-128934988D01*
X112520256Y-129107738D01*
X112716491Y-129260474D01*
X112935190Y-129378828D01*
X113170386Y-129459571D01*
X113415665Y-129500500D01*
X113664335Y-129500500D01*
X113909614Y-129459571D01*
X114144810Y-129378828D01*
X114363509Y-129260474D01*
X114559744Y-129107738D01*
X114728164Y-128924785D01*
X114864173Y-128716607D01*
X114964063Y-128488881D01*
X115025108Y-128247821D01*
X115028588Y-128205826D01*
X115045643Y-128000004D01*
X115045643Y-127999995D01*
X115043447Y-127973498D01*
X115057527Y-127905062D01*
X115079338Y-127875580D01*
X116318102Y-126636819D01*
X116379425Y-126603334D01*
X116405783Y-126600500D01*
X120227145Y-126600500D01*
X120294184Y-126620185D01*
X120318374Y-126640517D01*
X120380252Y-126707734D01*
X120380262Y-126707743D01*
X120463415Y-126772464D01*
X120504228Y-126829174D01*
X120507903Y-126898947D01*
X120473271Y-126959630D01*
X120463416Y-126968170D01*
X120380597Y-127032630D01*
X120380592Y-127032635D01*
X120212232Y-127215521D01*
X120076267Y-127423632D01*
X119976411Y-127651283D01*
X119915960Y-127890000D01*
X120966988Y-127890000D01*
X120934075Y-127947007D01*
X120900000Y-128074174D01*
X120900000Y-128205826D01*
X120934075Y-128332993D01*
X120966988Y-128390000D01*
X119915960Y-128390000D01*
X119976411Y-128628716D01*
X120076267Y-128856367D01*
X120212232Y-129064478D01*
X120380592Y-129247364D01*
X120380602Y-129247373D01*
X120576762Y-129400051D01*
X120576771Y-129400057D01*
X120795385Y-129518364D01*
X120795396Y-129518369D01*
X121030507Y-129599083D01*
X121149999Y-129619023D01*
X121150000Y-129619022D01*
X121150000Y-128573012D01*
X121207007Y-128605925D01*
X121334174Y-128640000D01*
X121465826Y-128640000D01*
X121592993Y-128605925D01*
X121650000Y-128573012D01*
X121650000Y-129619023D01*
X121769492Y-129599083D01*
X122004603Y-129518369D01*
X122004614Y-129518364D01*
X122223228Y-129400057D01*
X122223237Y-129400051D01*
X122419397Y-129247373D01*
X122419401Y-129247370D01*
X122578430Y-129074620D01*
X122638318Y-129038629D01*
X122708156Y-129040730D01*
X122760889Y-129074619D01*
X122920256Y-129247738D01*
X123116491Y-129400474D01*
X123116493Y-129400475D01*
X123334332Y-129518364D01*
X123335190Y-129518828D01*
X123554141Y-129593994D01*
X123568964Y-129599083D01*
X123570386Y-129599571D01*
X123815665Y-129640500D01*
X124064335Y-129640500D01*
X124309614Y-129599571D01*
X124544810Y-129518828D01*
X124763509Y-129400474D01*
X124959744Y-129247738D01*
X125128164Y-129064785D01*
X125133459Y-129056679D01*
X125186605Y-129011323D01*
X125237269Y-129000500D01*
X130747145Y-129000500D01*
X130814184Y-129020185D01*
X130838374Y-129040517D01*
X130900252Y-129107734D01*
X130900256Y-129107738D01*
X131096491Y-129260474D01*
X131315190Y-129378828D01*
X131550386Y-129459571D01*
X131795665Y-129500500D01*
X132044335Y-129500500D01*
X132289614Y-129459571D01*
X132524810Y-129378828D01*
X132743509Y-129260474D01*
X132939744Y-129107738D01*
X133098771Y-128934988D01*
X133158657Y-128898999D01*
X133228495Y-128901099D01*
X133281228Y-128934988D01*
X133440256Y-129107738D01*
X133636491Y-129260474D01*
X133855190Y-129378828D01*
X134090386Y-129459571D01*
X134335665Y-129500500D01*
X134584335Y-129500500D01*
X134829614Y-129459571D01*
X135064810Y-129378828D01*
X135283509Y-129260474D01*
X135479744Y-129107738D01*
X135638771Y-128934988D01*
X135698657Y-128898999D01*
X135768495Y-128901099D01*
X135821228Y-128934988D01*
X135980256Y-129107738D01*
X136176491Y-129260474D01*
X136395190Y-129378828D01*
X136630386Y-129459571D01*
X136875665Y-129500500D01*
X137124335Y-129500500D01*
X137369614Y-129459571D01*
X137604810Y-129378828D01*
X137823509Y-129260474D01*
X138019744Y-129107738D01*
X138178771Y-128934988D01*
X138238657Y-128898999D01*
X138308495Y-128901099D01*
X138361228Y-128934988D01*
X138520256Y-129107738D01*
X138716491Y-129260474D01*
X138935190Y-129378828D01*
X139170386Y-129459571D01*
X139415665Y-129500500D01*
X139664335Y-129500500D01*
X139909614Y-129459571D01*
X140144810Y-129378828D01*
X140363509Y-129260474D01*
X140559744Y-129107738D01*
X140728164Y-128924785D01*
X140864173Y-128716607D01*
X140964063Y-128488881D01*
X141025108Y-128247821D01*
X141028588Y-128205826D01*
X141045643Y-128000005D01*
X141045643Y-127999994D01*
X141025109Y-127752187D01*
X141025107Y-127752175D01*
X140964063Y-127511118D01*
X140864173Y-127283393D01*
X140728166Y-127075217D01*
X140640342Y-126979815D01*
X140559744Y-126892262D01*
X140363509Y-126739526D01*
X140363507Y-126739525D01*
X140363506Y-126739524D01*
X140144811Y-126621172D01*
X140144802Y-126621169D01*
X139909616Y-126540429D01*
X139664335Y-126499500D01*
X139505782Y-126499500D01*
X139438743Y-126479815D01*
X139418101Y-126463181D01*
X130301479Y-117346559D01*
X130301459Y-117346537D01*
X130157785Y-117202863D01*
X130157781Y-117202860D01*
X129993920Y-117093371D01*
X129993911Y-117093366D01*
X129901805Y-117055215D01*
X129865165Y-117040038D01*
X129811836Y-117017949D01*
X129811832Y-117017948D01*
X129811828Y-117017946D01*
X129715188Y-116998724D01*
X129618544Y-116979500D01*
X129618541Y-116979500D01*
X125112855Y-116979500D01*
X125045816Y-116959815D01*
X125021626Y-116939483D01*
X124959747Y-116872265D01*
X124959746Y-116872264D01*
X124959744Y-116872262D01*
X124876583Y-116807535D01*
X124835770Y-116750825D01*
X124832096Y-116681052D01*
X124866728Y-116620369D01*
X124876584Y-116611828D01*
X124959404Y-116547367D01*
X124959407Y-116547364D01*
X125127767Y-116364478D01*
X125263732Y-116156367D01*
X125363588Y-115928716D01*
X125424040Y-115690000D01*
X124373012Y-115690000D01*
X124405925Y-115632993D01*
X124440000Y-115505826D01*
X124440000Y-115374174D01*
X124405925Y-115247007D01*
X124373012Y-115190000D01*
X125424040Y-115190000D01*
X125363588Y-114951283D01*
X125263732Y-114723632D01*
X125127767Y-114515521D01*
X124959407Y-114332635D01*
X124959397Y-114332626D01*
X124876584Y-114268170D01*
X124835771Y-114211460D01*
X124832096Y-114141687D01*
X124866728Y-114081004D01*
X124876571Y-114072473D01*
X124959744Y-114007738D01*
X125128164Y-113824785D01*
X125264173Y-113616607D01*
X125364063Y-113388881D01*
X125425108Y-113147821D01*
X125426857Y-113126713D01*
X125445643Y-112900005D01*
X125445643Y-112899994D01*
X125425109Y-112652187D01*
X125425107Y-112652175D01*
X125364063Y-112411118D01*
X125264173Y-112183393D01*
X125128166Y-111975217D01*
X125106557Y-111951744D01*
X124959744Y-111792262D01*
X124876991Y-111727852D01*
X124836179Y-111671143D01*
X124832504Y-111601370D01*
X124867136Y-111540687D01*
X124876985Y-111532151D01*
X124959744Y-111467738D01*
X125128164Y-111284785D01*
X125264173Y-111076607D01*
X125364063Y-110848881D01*
X125425108Y-110607821D01*
X125425856Y-110598794D01*
X125445643Y-110360005D01*
X125445643Y-110359994D01*
X125425109Y-110112187D01*
X125425107Y-110112175D01*
X125364063Y-109871118D01*
X125264173Y-109643393D01*
X125128166Y-109435217D01*
X125076255Y-109378827D01*
X124959744Y-109252262D01*
X124876991Y-109187852D01*
X124836179Y-109131143D01*
X124832504Y-109061370D01*
X124867136Y-109000687D01*
X124876985Y-108992151D01*
X124959744Y-108927738D01*
X125128164Y-108744785D01*
X125264173Y-108536607D01*
X125364063Y-108308881D01*
X125401399Y-108161443D01*
X125436937Y-108101290D01*
X125499358Y-108069898D01*
X125568841Y-108077236D01*
X125609285Y-108104205D01*
X145380657Y-127875577D01*
X145414142Y-127936900D01*
X145416553Y-127973495D01*
X145414358Y-127999995D01*
X145414357Y-128000002D01*
X145414357Y-128000005D01*
X145434890Y-128247812D01*
X145434892Y-128247824D01*
X145495936Y-128488881D01*
X145595826Y-128716606D01*
X145731833Y-128924782D01*
X145731836Y-128924785D01*
X145900256Y-129107738D01*
X146096491Y-129260474D01*
X146315190Y-129378828D01*
X146550386Y-129459571D01*
X146795665Y-129500500D01*
X147044335Y-129500500D01*
X147289614Y-129459571D01*
X147524810Y-129378828D01*
X147743509Y-129260474D01*
X147939744Y-129107738D01*
X148098771Y-128934988D01*
X148158657Y-128898999D01*
X148228495Y-128901099D01*
X148281228Y-128934988D01*
X148440256Y-129107738D01*
X148636491Y-129260474D01*
X148855190Y-129378828D01*
X149090386Y-129459571D01*
X149335665Y-129500500D01*
X149584335Y-129500500D01*
X149829614Y-129459571D01*
X150064810Y-129378828D01*
X150283509Y-129260474D01*
X150479744Y-129107738D01*
X150638771Y-128934988D01*
X150698657Y-128898999D01*
X150768495Y-128901099D01*
X150821228Y-128934988D01*
X150980256Y-129107738D01*
X151176491Y-129260474D01*
X151395190Y-129378828D01*
X151630386Y-129459571D01*
X151875665Y-129500500D01*
X152124335Y-129500500D01*
X152369614Y-129459571D01*
X152604810Y-129378828D01*
X152823509Y-129260474D01*
X153019744Y-129107738D01*
X153178771Y-128934988D01*
X153238657Y-128898999D01*
X153308495Y-128901099D01*
X153361228Y-128934988D01*
X153520256Y-129107738D01*
X153716491Y-129260474D01*
X153935190Y-129378828D01*
X154170386Y-129459571D01*
X154415665Y-129500500D01*
X154664335Y-129500500D01*
X154909614Y-129459571D01*
X155144810Y-129378828D01*
X155363509Y-129260474D01*
X155559744Y-129107738D01*
X155728164Y-128924785D01*
X155864173Y-128716607D01*
X155964063Y-128488881D01*
X156025108Y-128247821D01*
X156028588Y-128205826D01*
X156045643Y-128000005D01*
X156045643Y-127999994D01*
X156025109Y-127752187D01*
X156025107Y-127752175D01*
X155964063Y-127511118D01*
X155864173Y-127283393D01*
X155813204Y-127205379D01*
X155728164Y-127075215D01*
X155713763Y-127059571D01*
X155573270Y-126906953D01*
X155542348Y-126844299D01*
X155540500Y-126822971D01*
X155540500Y-125644675D01*
X155540501Y-125644654D01*
X155540501Y-125441457D01*
X155540500Y-125441455D01*
X155502053Y-125248172D01*
X155502052Y-125248165D01*
X155426632Y-125066086D01*
X155426631Y-125066085D01*
X155426628Y-125066079D01*
X155317140Y-124902219D01*
X155317137Y-124902215D01*
X128036819Y-97621897D01*
X128003334Y-97560574D01*
X128000500Y-97534216D01*
X128000500Y-95744675D01*
X128000501Y-95744654D01*
X128000501Y-95541457D01*
X128000500Y-95541455D01*
X127977735Y-95427007D01*
X127962052Y-95348165D01*
X127886632Y-95166086D01*
X127886631Y-95166085D01*
X127886628Y-95166079D01*
X127777140Y-95002219D01*
X127777137Y-95002215D01*
X125479342Y-92704422D01*
X125445857Y-92643099D01*
X125443447Y-92606499D01*
X125445643Y-92580003D01*
X125445643Y-92579995D01*
X125425109Y-92332187D01*
X125425107Y-92332175D01*
X125364063Y-92091118D01*
X125264173Y-91863393D01*
X125128166Y-91655217D01*
X125094898Y-91619079D01*
X124959744Y-91472262D01*
X124876991Y-91407852D01*
X124836179Y-91351143D01*
X124832504Y-91281370D01*
X124867136Y-91220687D01*
X124876985Y-91212151D01*
X124959744Y-91147738D01*
X125128164Y-90964785D01*
X125264173Y-90756607D01*
X125364063Y-90528881D01*
X125425108Y-90287821D01*
X125426055Y-90276390D01*
X125445643Y-90040005D01*
X125445643Y-90039994D01*
X125425109Y-89792187D01*
X125425107Y-89792175D01*
X125364063Y-89551118D01*
X125264173Y-89323393D01*
X125128166Y-89115217D01*
X125069310Y-89051283D01*
X124959744Y-88932262D01*
X124876991Y-88867852D01*
X124836179Y-88811143D01*
X124832504Y-88741370D01*
X124867136Y-88680687D01*
X124876985Y-88672151D01*
X124959744Y-88607738D01*
X125128164Y-88424785D01*
X125264173Y-88216607D01*
X125364063Y-87988881D01*
X125425108Y-87747821D01*
X125425109Y-87747812D01*
X125445643Y-87500005D01*
X125445643Y-87499994D01*
X125425109Y-87252187D01*
X125425107Y-87252175D01*
X125364063Y-87011118D01*
X125264173Y-86783393D01*
X125128166Y-86575217D01*
X125096818Y-86541164D01*
X124959744Y-86392262D01*
X124876583Y-86327535D01*
X124835770Y-86270825D01*
X124832096Y-86201052D01*
X124866728Y-86140369D01*
X124876584Y-86131828D01*
X124959404Y-86067367D01*
X124959407Y-86067364D01*
X125127767Y-85884478D01*
X125263732Y-85676367D01*
X125363588Y-85448716D01*
X125424040Y-85210000D01*
X124373012Y-85210000D01*
X124405925Y-85152993D01*
X124440000Y-85025826D01*
X124440000Y-84894174D01*
X124405925Y-84767007D01*
X124373012Y-84710000D01*
X125424040Y-84710000D01*
X125363588Y-84471283D01*
X125307893Y-84344310D01*
X125298990Y-84275010D01*
X125328967Y-84211898D01*
X125388307Y-84175011D01*
X125421449Y-84170500D01*
X131694727Y-84170500D01*
X131694734Y-84170500D01*
X131895771Y-84144032D01*
X131895772Y-84144032D01*
X131922229Y-84140550D01*
X131922234Y-84140548D01*
X131922239Y-84140548D01*
X132143887Y-84081158D01*
X132355888Y-83993344D01*
X132554612Y-83878611D01*
X132658587Y-83798828D01*
X132736661Y-83738920D01*
X137475586Y-78999994D01*
X140494859Y-78999994D01*
X140494859Y-79000000D01*
X140515385Y-79247729D01*
X140515387Y-79247738D01*
X140576412Y-79488717D01*
X140676266Y-79716364D01*
X140776564Y-79869882D01*
X141517037Y-79129409D01*
X141534075Y-79192993D01*
X141599901Y-79307007D01*
X141692993Y-79400099D01*
X141807007Y-79465925D01*
X141870590Y-79482962D01*
X141129942Y-80223609D01*
X141176768Y-80260055D01*
X141176770Y-80260056D01*
X141395385Y-80378364D01*
X141395396Y-80378369D01*
X141630506Y-80459083D01*
X141875707Y-80500000D01*
X142124293Y-80500000D01*
X142369493Y-80459083D01*
X142604603Y-80378369D01*
X142604614Y-80378364D01*
X142823228Y-80260057D01*
X142823231Y-80260055D01*
X142870056Y-80223609D01*
X142129409Y-79482962D01*
X142192993Y-79465925D01*
X142307007Y-79400099D01*
X142400099Y-79307007D01*
X142465925Y-79192993D01*
X142482962Y-79129410D01*
X143223434Y-79869882D01*
X143323731Y-79716369D01*
X143423587Y-79488717D01*
X143484612Y-79247738D01*
X143484614Y-79247729D01*
X143505141Y-79000000D01*
X143505141Y-78999994D01*
X143484614Y-78752270D01*
X143484612Y-78752261D01*
X143423587Y-78511282D01*
X143323731Y-78283630D01*
X143223434Y-78130116D01*
X142482962Y-78870589D01*
X142465925Y-78807007D01*
X142400099Y-78692993D01*
X142307007Y-78599901D01*
X142192993Y-78534075D01*
X142129410Y-78517037D01*
X142870057Y-77776390D01*
X142870056Y-77776389D01*
X142823229Y-77739943D01*
X142604614Y-77621635D01*
X142604603Y-77621630D01*
X142369493Y-77540916D01*
X142124293Y-77500000D01*
X141875707Y-77500000D01*
X141630506Y-77540916D01*
X141395396Y-77621630D01*
X141395390Y-77621632D01*
X141176761Y-77739949D01*
X141129942Y-77776388D01*
X141129942Y-77776390D01*
X141870590Y-78517037D01*
X141807007Y-78534075D01*
X141692993Y-78599901D01*
X141599901Y-78692993D01*
X141534075Y-78807007D01*
X141517037Y-78870589D01*
X140776564Y-78130116D01*
X140676267Y-78283632D01*
X140576412Y-78511282D01*
X140515387Y-78752261D01*
X140515385Y-78752270D01*
X140494859Y-78999994D01*
X137475586Y-78999994D01*
X140688761Y-75786818D01*
X140750084Y-75753334D01*
X140776442Y-75750500D01*
X141885266Y-75750500D01*
X144223557Y-75750500D01*
X144290596Y-75770185D01*
X144311238Y-75786819D01*
X148436737Y-79912318D01*
X148470222Y-79973641D01*
X148465238Y-80043333D01*
X148436737Y-80087680D01*
X145681084Y-82843333D01*
X145681078Y-82843340D01*
X145617149Y-82926655D01*
X145541388Y-83025388D01*
X145459156Y-83167820D01*
X145459156Y-83167821D01*
X145426656Y-83224111D01*
X145426654Y-83224115D01*
X145338845Y-83436103D01*
X145338842Y-83436113D01*
X145296713Y-83593343D01*
X145279452Y-83657762D01*
X145249500Y-83885258D01*
X145249500Y-95114741D01*
X145274973Y-95308215D01*
X145274973Y-95308216D01*
X145279452Y-95342241D01*
X145332829Y-95541447D01*
X145332834Y-95541463D01*
X145338841Y-95563886D01*
X145426652Y-95775881D01*
X145426656Y-95775888D01*
X145541389Y-95974612D01*
X145541391Y-95974615D01*
X145541392Y-95974616D01*
X145595230Y-96044780D01*
X145595235Y-96044785D01*
X145681078Y-96156659D01*
X145681084Y-96156666D01*
X151213181Y-101688761D01*
X151246666Y-101750084D01*
X151249500Y-101776442D01*
X151249500Y-117114734D01*
X151267243Y-117249500D01*
X151267243Y-117249501D01*
X151279450Y-117342228D01*
X151279451Y-117342233D01*
X151279452Y-117342239D01*
X151302072Y-117426657D01*
X151332799Y-117541334D01*
X151332815Y-117541391D01*
X151338842Y-117563887D01*
X151338844Y-117563893D01*
X151426652Y-117775881D01*
X151426657Y-117775891D01*
X151496654Y-117897129D01*
X151541389Y-117974612D01*
X151611235Y-118065636D01*
X151681082Y-118156663D01*
X151681086Y-118156668D01*
X155463181Y-121938762D01*
X155496666Y-122000085D01*
X155499500Y-122026438D01*
X155499500Y-122047867D01*
X155499501Y-122047877D01*
X155505908Y-122107483D01*
X155556202Y-122242328D01*
X155556206Y-122242335D01*
X155642452Y-122357544D01*
X155642455Y-122357547D01*
X155757663Y-122443793D01*
X155762799Y-122446597D01*
X155812205Y-122496002D01*
X155827057Y-122564275D01*
X155807182Y-122623251D01*
X155676267Y-122823632D01*
X155576411Y-123051283D01*
X155515960Y-123290000D01*
X156566988Y-123290000D01*
X156534075Y-123347007D01*
X156500000Y-123474174D01*
X156500000Y-123605826D01*
X156534075Y-123732993D01*
X156566988Y-123790000D01*
X155515960Y-123790000D01*
X155576411Y-124028716D01*
X155676267Y-124256367D01*
X155812232Y-124464478D01*
X155980592Y-124647364D01*
X155980602Y-124647373D01*
X156176762Y-124800051D01*
X156176771Y-124800057D01*
X156395385Y-124918364D01*
X156395396Y-124918369D01*
X156630507Y-124999083D01*
X156749999Y-125019023D01*
X156750000Y-125019022D01*
X156750000Y-123973012D01*
X156807007Y-124005925D01*
X156934174Y-124040000D01*
X157065826Y-124040000D01*
X157192993Y-124005925D01*
X157250000Y-123973012D01*
X157250000Y-125019023D01*
X157369492Y-124999083D01*
X157604603Y-124918369D01*
X157604614Y-124918364D01*
X157823228Y-124800057D01*
X157823237Y-124800051D01*
X158019397Y-124647373D01*
X158019407Y-124647364D01*
X158187767Y-124464478D01*
X158323732Y-124256367D01*
X158423588Y-124028716D01*
X158484040Y-123790000D01*
X157433012Y-123790000D01*
X157465925Y-123732993D01*
X157500000Y-123605826D01*
X157500000Y-123474174D01*
X157465925Y-123347007D01*
X157433012Y-123290000D01*
X158484040Y-123290000D01*
X158423588Y-123051283D01*
X158323733Y-122823635D01*
X158192817Y-122623252D01*
X158172630Y-122556362D01*
X158191810Y-122489176D01*
X158237203Y-122446595D01*
X158242321Y-122443799D01*
X158242331Y-122443796D01*
X158357546Y-122357546D01*
X158443796Y-122242331D01*
X158494091Y-122107483D01*
X158500500Y-122047873D01*
X158500499Y-121935281D01*
X158517113Y-121873280D01*
X158528073Y-121854297D01*
X158573344Y-121775888D01*
X158661158Y-121563886D01*
X158720548Y-121342239D01*
X158750499Y-121114734D01*
X158750499Y-120885266D01*
X158720548Y-120657761D01*
X158661158Y-120436113D01*
X158593254Y-120272179D01*
X158573349Y-120224123D01*
X158573346Y-120224117D01*
X158573344Y-120224112D01*
X158573338Y-120224101D01*
X158517112Y-120126713D01*
X158500499Y-120064714D01*
X158500499Y-119952129D01*
X158500498Y-119952123D01*
X158494091Y-119892516D01*
X158443797Y-119757671D01*
X158443793Y-119757664D01*
X158357547Y-119642455D01*
X158357544Y-119642452D01*
X158242335Y-119556206D01*
X158242328Y-119556202D01*
X158107482Y-119505908D01*
X158107483Y-119505908D01*
X158047883Y-119499501D01*
X158047881Y-119499500D01*
X158047873Y-119499500D01*
X158047865Y-119499500D01*
X158026442Y-119499500D01*
X157959403Y-119479815D01*
X157938761Y-119463181D01*
X156706967Y-118231387D01*
X156673482Y-118170064D01*
X156678466Y-118100372D01*
X156714507Y-118049083D01*
X156750000Y-118019022D01*
X156750000Y-116973012D01*
X156807007Y-117005925D01*
X156934174Y-117040000D01*
X157065826Y-117040000D01*
X157192993Y-117005925D01*
X157250000Y-116973012D01*
X157250000Y-118019023D01*
X157369492Y-117999083D01*
X157604603Y-117918369D01*
X157604614Y-117918364D01*
X157823228Y-117800057D01*
X157823237Y-117800051D01*
X158019397Y-117647373D01*
X158019407Y-117647364D01*
X158187767Y-117464478D01*
X158323732Y-117256367D01*
X158423588Y-117028716D01*
X158484040Y-116790000D01*
X157433012Y-116790000D01*
X157465925Y-116732993D01*
X157500000Y-116605826D01*
X157500000Y-116474174D01*
X157465925Y-116347007D01*
X157433012Y-116290000D01*
X158484040Y-116290000D01*
X158423588Y-116051283D01*
X158323733Y-115823635D01*
X158192817Y-115623252D01*
X158172630Y-115556362D01*
X158191810Y-115489176D01*
X158237203Y-115446595D01*
X158242321Y-115443799D01*
X158242331Y-115443796D01*
X158357546Y-115357546D01*
X158443796Y-115242331D01*
X158494091Y-115107483D01*
X158500500Y-115047873D01*
X158500499Y-114935281D01*
X158517113Y-114873280D01*
X158519075Y-114869882D01*
X158573344Y-114775888D01*
X158661158Y-114563886D01*
X158720548Y-114342239D01*
X158750499Y-114114734D01*
X158750499Y-113885266D01*
X158720548Y-113657761D01*
X158661158Y-113436113D01*
X158573344Y-113224112D01*
X158573338Y-113224101D01*
X158517112Y-113126713D01*
X158500499Y-113064714D01*
X158500499Y-112952129D01*
X158500498Y-112952123D01*
X158494091Y-112892516D01*
X158443797Y-112757671D01*
X158443793Y-112757664D01*
X158357547Y-112642455D01*
X158357544Y-112642452D01*
X158242335Y-112556206D01*
X158242328Y-112556202D01*
X158107482Y-112505908D01*
X158107483Y-112505908D01*
X158047883Y-112499501D01*
X158047881Y-112499500D01*
X158047873Y-112499500D01*
X158047865Y-112499500D01*
X158026442Y-112499500D01*
X157959403Y-112479815D01*
X157938761Y-112463181D01*
X156706967Y-111231387D01*
X156673482Y-111170064D01*
X156678466Y-111100372D01*
X156714507Y-111049083D01*
X156750000Y-111019022D01*
X156750000Y-109973012D01*
X156807007Y-110005925D01*
X156934174Y-110040000D01*
X157065826Y-110040000D01*
X157192993Y-110005925D01*
X157250000Y-109973012D01*
X157250000Y-111019023D01*
X157369492Y-110999083D01*
X157604603Y-110918369D01*
X157604614Y-110918364D01*
X157823228Y-110800057D01*
X157823237Y-110800051D01*
X158019397Y-110647373D01*
X158019407Y-110647364D01*
X158187767Y-110464478D01*
X158323732Y-110256367D01*
X158423588Y-110028716D01*
X158484040Y-109790000D01*
X157433012Y-109790000D01*
X157465925Y-109732993D01*
X157500000Y-109605826D01*
X157500000Y-109474174D01*
X157465925Y-109347007D01*
X157433012Y-109290000D01*
X158484040Y-109290000D01*
X158423588Y-109051283D01*
X158323733Y-108823635D01*
X158192817Y-108623252D01*
X158172630Y-108556362D01*
X158191810Y-108489176D01*
X158237203Y-108446595D01*
X158242321Y-108443799D01*
X158242331Y-108443796D01*
X158357546Y-108357546D01*
X158443796Y-108242331D01*
X158494091Y-108107483D01*
X158500500Y-108047873D01*
X158500499Y-107935283D01*
X158517113Y-107873282D01*
X158573338Y-107775899D01*
X158573348Y-107775879D01*
X158646240Y-107599901D01*
X158661158Y-107563887D01*
X158720548Y-107342238D01*
X158750500Y-107114734D01*
X158750500Y-106885266D01*
X158720548Y-106657762D01*
X158661158Y-106436113D01*
X158573344Y-106224112D01*
X158548511Y-106181099D01*
X158517112Y-106126713D01*
X158500499Y-106064714D01*
X158500499Y-105952129D01*
X158500498Y-105952123D01*
X158494091Y-105892516D01*
X158443797Y-105757671D01*
X158443793Y-105757664D01*
X158357547Y-105642455D01*
X158357544Y-105642452D01*
X158242335Y-105556206D01*
X158242328Y-105556202D01*
X158107482Y-105505908D01*
X158107483Y-105505908D01*
X158047883Y-105499501D01*
X158047881Y-105499500D01*
X158047873Y-105499500D01*
X158047865Y-105499500D01*
X157935283Y-105499500D01*
X157873283Y-105482887D01*
X157775890Y-105426657D01*
X157775876Y-105426650D01*
X157563887Y-105338842D01*
X157342238Y-105279452D01*
X157304215Y-105274446D01*
X157114741Y-105249500D01*
X157114734Y-105249500D01*
X156776443Y-105249500D01*
X156709404Y-105229815D01*
X156688762Y-105213181D01*
X155959898Y-104484317D01*
X155926413Y-104422994D01*
X155931397Y-104353302D01*
X155973269Y-104297369D01*
X156038733Y-104272952D01*
X156107006Y-104287804D01*
X156123741Y-104298783D01*
X156176762Y-104340051D01*
X156176771Y-104340057D01*
X156395385Y-104458364D01*
X156395396Y-104458369D01*
X156630507Y-104539083D01*
X156749999Y-104559023D01*
X156750000Y-104559022D01*
X156750000Y-103513012D01*
X156807007Y-103545925D01*
X156934174Y-103580000D01*
X157065826Y-103580000D01*
X157192993Y-103545925D01*
X157250000Y-103513012D01*
X157250000Y-104559023D01*
X157369492Y-104539083D01*
X157604603Y-104458369D01*
X157604614Y-104458364D01*
X157823228Y-104340057D01*
X157823237Y-104340051D01*
X158019397Y-104187373D01*
X158019407Y-104187364D01*
X158187767Y-104004478D01*
X158323732Y-103796367D01*
X158423588Y-103568716D01*
X158484040Y-103330000D01*
X157433012Y-103330000D01*
X157465925Y-103272993D01*
X157500000Y-103145826D01*
X157500000Y-103014174D01*
X157465925Y-102887007D01*
X157433012Y-102830000D01*
X158484040Y-102830000D01*
X158423588Y-102591283D01*
X158323733Y-102363635D01*
X158192817Y-102163252D01*
X158172630Y-102096362D01*
X158191810Y-102029176D01*
X158237203Y-101986595D01*
X158242321Y-101983799D01*
X158242331Y-101983796D01*
X158357546Y-101897546D01*
X158443796Y-101782331D01*
X158494091Y-101647483D01*
X158500500Y-101587873D01*
X158500499Y-101475283D01*
X158517113Y-101413282D01*
X158573338Y-101315899D01*
X158573348Y-101315879D01*
X158615582Y-101213916D01*
X158661158Y-101103887D01*
X158720548Y-100882238D01*
X158750500Y-100654734D01*
X158750500Y-100425266D01*
X158720548Y-100197762D01*
X158661158Y-99976113D01*
X158573344Y-99764112D01*
X158573338Y-99764101D01*
X158517112Y-99666713D01*
X158500499Y-99604714D01*
X158500499Y-99492129D01*
X158500498Y-99492123D01*
X158494091Y-99432516D01*
X158443797Y-99297671D01*
X158443793Y-99297664D01*
X158357547Y-99182455D01*
X158357544Y-99182452D01*
X158242335Y-99096206D01*
X158242328Y-99096202D01*
X158107482Y-99045908D01*
X158107483Y-99045908D01*
X158047883Y-99039501D01*
X158047881Y-99039500D01*
X158047873Y-99039500D01*
X158047865Y-99039500D01*
X157935283Y-99039500D01*
X157873283Y-99022887D01*
X157775890Y-98966657D01*
X157775876Y-98966650D01*
X157563887Y-98878842D01*
X157342238Y-98819452D01*
X157304215Y-98814446D01*
X157114741Y-98789500D01*
X157114734Y-98789500D01*
X156316443Y-98789500D01*
X156249404Y-98769815D01*
X156228762Y-98753181D01*
X154786819Y-97311238D01*
X154753334Y-97249915D01*
X154750500Y-97223557D01*
X154750500Y-96776442D01*
X154770185Y-96709403D01*
X154786814Y-96688766D01*
X155309559Y-96166021D01*
X155370878Y-96132539D01*
X155440569Y-96137523D01*
X155496503Y-96179394D01*
X155520920Y-96244859D01*
X155517442Y-96284143D01*
X155515958Y-96289999D01*
X155515959Y-96290000D01*
X156566988Y-96290000D01*
X156534075Y-96347007D01*
X156500000Y-96474174D01*
X156500000Y-96605826D01*
X156534075Y-96732993D01*
X156566988Y-96790000D01*
X155515960Y-96790000D01*
X155576411Y-97028716D01*
X155676267Y-97256367D01*
X155812232Y-97464478D01*
X155980592Y-97647364D01*
X155980602Y-97647373D01*
X156176762Y-97800051D01*
X156176771Y-97800057D01*
X156395385Y-97918364D01*
X156395396Y-97918369D01*
X156630507Y-97999083D01*
X156749999Y-98019023D01*
X156750000Y-98019022D01*
X156750000Y-96973012D01*
X156807007Y-97005925D01*
X156934174Y-97040000D01*
X157065826Y-97040000D01*
X157192993Y-97005925D01*
X157250000Y-96973012D01*
X157250000Y-98019023D01*
X157369492Y-97999083D01*
X157604603Y-97918369D01*
X157604614Y-97918364D01*
X157823228Y-97800057D01*
X157823237Y-97800051D01*
X158019397Y-97647373D01*
X158019407Y-97647364D01*
X158187767Y-97464478D01*
X158323732Y-97256367D01*
X158423588Y-97028716D01*
X158484040Y-96790000D01*
X157433012Y-96790000D01*
X157465925Y-96732993D01*
X157500000Y-96605826D01*
X157500000Y-96474174D01*
X157465925Y-96347007D01*
X157433012Y-96290000D01*
X158484040Y-96290000D01*
X158423588Y-96051283D01*
X158323733Y-95823635D01*
X158192817Y-95623252D01*
X158172630Y-95556362D01*
X158191810Y-95489176D01*
X158237203Y-95446595D01*
X158242321Y-95443799D01*
X158242331Y-95443796D01*
X158357546Y-95357546D01*
X158443796Y-95242331D01*
X158494091Y-95107483D01*
X158500500Y-95047873D01*
X158500499Y-94935283D01*
X158517113Y-94873282D01*
X158573338Y-94775899D01*
X158573348Y-94775879D01*
X158596535Y-94719901D01*
X158661158Y-94563887D01*
X158720548Y-94342238D01*
X158750500Y-94114734D01*
X158750500Y-93885266D01*
X158720548Y-93657762D01*
X158661158Y-93436113D01*
X158607680Y-93307007D01*
X158573349Y-93224123D01*
X158573346Y-93224117D01*
X158573344Y-93224112D01*
X158555378Y-93192993D01*
X158517112Y-93126713D01*
X158500499Y-93064714D01*
X158500499Y-92952129D01*
X158500498Y-92952123D01*
X158494091Y-92892516D01*
X158443797Y-92757671D01*
X158443793Y-92757664D01*
X158357547Y-92642455D01*
X158357544Y-92642452D01*
X158242335Y-92556206D01*
X158242328Y-92556202D01*
X158107482Y-92505908D01*
X158107483Y-92505908D01*
X158047883Y-92499501D01*
X158047881Y-92499500D01*
X158047873Y-92499500D01*
X158047865Y-92499500D01*
X157935283Y-92499500D01*
X157873283Y-92482887D01*
X157775890Y-92426657D01*
X157775876Y-92426650D01*
X157563887Y-92338842D01*
X157539005Y-92332175D01*
X157342238Y-92279452D01*
X157304215Y-92274446D01*
X157114741Y-92249500D01*
X157114734Y-92249500D01*
X154885266Y-92249500D01*
X154885260Y-92249500D01*
X154885255Y-92249501D01*
X154684228Y-92275966D01*
X154684228Y-92275967D01*
X154680215Y-92276495D01*
X154657763Y-92279451D01*
X154570397Y-92302860D01*
X154570397Y-92302861D01*
X154436113Y-92338842D01*
X154436111Y-92338842D01*
X154436110Y-92338843D01*
X154224123Y-92426650D01*
X154224108Y-92426657D01*
X154025388Y-92541388D01*
X153960578Y-92591119D01*
X153843340Y-92681078D01*
X153843333Y-92681084D01*
X151681084Y-94843333D01*
X151681078Y-94843340D01*
X151636023Y-94902058D01*
X151611235Y-94934363D01*
X151579670Y-94975499D01*
X151541385Y-95025392D01*
X151426657Y-95224108D01*
X151426650Y-95224123D01*
X151338842Y-95436112D01*
X151338842Y-95436113D01*
X151280262Y-95654741D01*
X151279453Y-95657759D01*
X151279451Y-95657770D01*
X151249500Y-95885258D01*
X151249500Y-96474557D01*
X151229815Y-96541596D01*
X151177011Y-96587351D01*
X151107853Y-96597295D01*
X151044297Y-96568270D01*
X151037819Y-96562238D01*
X148786819Y-94311238D01*
X148753334Y-94249915D01*
X148750500Y-94223557D01*
X148750500Y-91499994D01*
X149494859Y-91499994D01*
X149494859Y-91500005D01*
X149515385Y-91747729D01*
X149515387Y-91747738D01*
X149576412Y-91988717D01*
X149676266Y-92216364D01*
X149776564Y-92369882D01*
X150517037Y-91629409D01*
X150534075Y-91692993D01*
X150599901Y-91807007D01*
X150692993Y-91900099D01*
X150807007Y-91965925D01*
X150870590Y-91982962D01*
X150129942Y-92723609D01*
X150176768Y-92760055D01*
X150176770Y-92760056D01*
X150395385Y-92878364D01*
X150395396Y-92878369D01*
X150630506Y-92959083D01*
X150875707Y-93000000D01*
X151124293Y-93000000D01*
X151369493Y-92959083D01*
X151604603Y-92878369D01*
X151604614Y-92878364D01*
X151823228Y-92760057D01*
X151823231Y-92760055D01*
X151870056Y-92723609D01*
X151129409Y-91982962D01*
X151192993Y-91965925D01*
X151307007Y-91900099D01*
X151400099Y-91807007D01*
X151465925Y-91692993D01*
X151482962Y-91629410D01*
X152223434Y-92369882D01*
X152323731Y-92216369D01*
X152423587Y-91988717D01*
X152484612Y-91747738D01*
X152484614Y-91747729D01*
X152505141Y-91500005D01*
X152505141Y-91499994D01*
X152484614Y-91252270D01*
X152484612Y-91252261D01*
X152423587Y-91011282D01*
X152323731Y-90783630D01*
X152223434Y-90630116D01*
X151482962Y-91370589D01*
X151465925Y-91307007D01*
X151400099Y-91192993D01*
X151307007Y-91099901D01*
X151192993Y-91034075D01*
X151129410Y-91017037D01*
X151870057Y-90276390D01*
X151870056Y-90276389D01*
X151823229Y-90239943D01*
X151604614Y-90121635D01*
X151604603Y-90121630D01*
X151369493Y-90040916D01*
X151124293Y-90000000D01*
X150875707Y-90000000D01*
X150630506Y-90040916D01*
X150395396Y-90121630D01*
X150395390Y-90121632D01*
X150176761Y-90239949D01*
X150129942Y-90276388D01*
X150129942Y-90276390D01*
X150870590Y-91017037D01*
X150807007Y-91034075D01*
X150692993Y-91099901D01*
X150599901Y-91192993D01*
X150534075Y-91307007D01*
X150517037Y-91370589D01*
X149776564Y-90630116D01*
X149676267Y-90783632D01*
X149576412Y-91011282D01*
X149515387Y-91252261D01*
X149515385Y-91252270D01*
X149494859Y-91499994D01*
X148750500Y-91499994D01*
X148750500Y-84776443D01*
X148770185Y-84709404D01*
X148786819Y-84688762D01*
X149037819Y-84437762D01*
X149099142Y-84404277D01*
X149168834Y-84409261D01*
X149224767Y-84451133D01*
X149249184Y-84516597D01*
X149249500Y-84525443D01*
X149249500Y-86614741D01*
X149270092Y-86771143D01*
X149279452Y-86842238D01*
X149314734Y-86973913D01*
X149338842Y-87063887D01*
X149426650Y-87275876D01*
X149426657Y-87275890D01*
X149541392Y-87474617D01*
X149681081Y-87656661D01*
X149681089Y-87656670D01*
X149843330Y-87818911D01*
X149843338Y-87818918D01*
X149843339Y-87818919D01*
X149893962Y-87857764D01*
X150025382Y-87958607D01*
X150025385Y-87958608D01*
X150025388Y-87958611D01*
X150224112Y-88073344D01*
X150224117Y-88073346D01*
X150224123Y-88073349D01*
X150306538Y-88107486D01*
X150436113Y-88161158D01*
X150657762Y-88220548D01*
X150885266Y-88250500D01*
X151114734Y-88250500D01*
X155500249Y-88250500D01*
X155567288Y-88270185D01*
X155599515Y-88300188D01*
X155642451Y-88357542D01*
X155642454Y-88357546D01*
X155642457Y-88357548D01*
X155757663Y-88443793D01*
X155762799Y-88446597D01*
X155812205Y-88496002D01*
X155827057Y-88564275D01*
X155807182Y-88623251D01*
X155676267Y-88823632D01*
X155576411Y-89051283D01*
X155515960Y-89290000D01*
X156566988Y-89290000D01*
X156534075Y-89347007D01*
X156500000Y-89474174D01*
X156500000Y-89605826D01*
X156534075Y-89732993D01*
X156566988Y-89790000D01*
X155515960Y-89790000D01*
X155576411Y-90028716D01*
X155676267Y-90256367D01*
X155812232Y-90464478D01*
X155980592Y-90647364D01*
X155980602Y-90647373D01*
X156176762Y-90800051D01*
X156176771Y-90800057D01*
X156395385Y-90918364D01*
X156395396Y-90918369D01*
X156630507Y-90999083D01*
X156749999Y-91019023D01*
X156750000Y-91019022D01*
X156750000Y-89973012D01*
X156807007Y-90005925D01*
X156934174Y-90040000D01*
X157065826Y-90040000D01*
X157192993Y-90005925D01*
X157250000Y-89973012D01*
X157250000Y-91019023D01*
X157369492Y-90999083D01*
X157604603Y-90918369D01*
X157604614Y-90918364D01*
X157823228Y-90800057D01*
X157823237Y-90800051D01*
X158019397Y-90647373D01*
X158019407Y-90647364D01*
X158187767Y-90464478D01*
X158323732Y-90256367D01*
X158423588Y-90028716D01*
X158484040Y-89790000D01*
X157433012Y-89790000D01*
X157465925Y-89732993D01*
X157500000Y-89605826D01*
X157500000Y-89474174D01*
X157465925Y-89347007D01*
X157433012Y-89290000D01*
X158484040Y-89290000D01*
X158423588Y-89051283D01*
X158323733Y-88823635D01*
X158192817Y-88623252D01*
X158172630Y-88556362D01*
X158191810Y-88489176D01*
X158237203Y-88446595D01*
X158242321Y-88443799D01*
X158242331Y-88443796D01*
X158357546Y-88357546D01*
X158443796Y-88242331D01*
X158494091Y-88107483D01*
X158500500Y-88047873D01*
X158500499Y-87935284D01*
X158517111Y-87873285D01*
X158573345Y-87775888D01*
X158661158Y-87563887D01*
X158720549Y-87342239D01*
X158750500Y-87114734D01*
X158750500Y-86885266D01*
X158720549Y-86657761D01*
X158661158Y-86436114D01*
X158661155Y-86436106D01*
X158573349Y-86224120D01*
X158573344Y-86224111D01*
X158571244Y-86220474D01*
X158517111Y-86126713D01*
X158500499Y-86064714D01*
X158500499Y-85952129D01*
X158500498Y-85952123D01*
X158494091Y-85892516D01*
X158443797Y-85757671D01*
X158443793Y-85757664D01*
X158357547Y-85642455D01*
X158357544Y-85642452D01*
X158242335Y-85556206D01*
X158242328Y-85556202D01*
X158107482Y-85505908D01*
X158107483Y-85505908D01*
X158047883Y-85499501D01*
X158047881Y-85499500D01*
X158047873Y-85499500D01*
X158047865Y-85499500D01*
X158026443Y-85499500D01*
X157959404Y-85479815D01*
X157938762Y-85463181D01*
X157656668Y-85181086D01*
X157656663Y-85181082D01*
X157656661Y-85181080D01*
X157565636Y-85111235D01*
X157565635Y-85111234D01*
X157474622Y-85041396D01*
X157474616Y-85041392D01*
X157474612Y-85041389D01*
X157402924Y-85000000D01*
X157275891Y-84926657D01*
X157275876Y-84926650D01*
X157063889Y-84838843D01*
X157063890Y-84838843D01*
X157063887Y-84838842D01*
X157001845Y-84822218D01*
X156961943Y-84811526D01*
X156842242Y-84779452D01*
X156821935Y-84776779D01*
X156815167Y-84775888D01*
X156815165Y-84775887D01*
X156614741Y-84749500D01*
X156614734Y-84749500D01*
X152874500Y-84749500D01*
X152807461Y-84729815D01*
X152761706Y-84677011D01*
X152750500Y-84625500D01*
X152750500Y-82884500D01*
X152770185Y-82817461D01*
X152822989Y-82771706D01*
X152874500Y-82760500D01*
X154114727Y-82760500D01*
X154114734Y-82760500D01*
X154342238Y-82730548D01*
X154563887Y-82671158D01*
X154711683Y-82609937D01*
X154759136Y-82600499D01*
X155147871Y-82600499D01*
X155147872Y-82600499D01*
X155207483Y-82594091D01*
X155342331Y-82543796D01*
X155457546Y-82457546D01*
X155543796Y-82342331D01*
X155594091Y-82207483D01*
X155600500Y-82147873D01*
X155600499Y-81744993D01*
X155609938Y-81697541D01*
X155646804Y-81608539D01*
X155661158Y-81573887D01*
X155720548Y-81352238D01*
X155750500Y-81124734D01*
X155750500Y-80895266D01*
X155720548Y-80667762D01*
X155661158Y-80446113D01*
X155650831Y-80421182D01*
X155609938Y-80322456D01*
X155600499Y-80275004D01*
X155600499Y-79852129D01*
X155600498Y-79852123D01*
X155599435Y-79842235D01*
X155594091Y-79792517D01*
X155543796Y-79657669D01*
X155543795Y-79657668D01*
X155543793Y-79657664D01*
X155457547Y-79542455D01*
X155380492Y-79484771D01*
X155338622Y-79428837D01*
X155333638Y-79359145D01*
X155349077Y-79320714D01*
X155430020Y-79188627D01*
X155526396Y-78955956D01*
X155585187Y-78711072D01*
X155604947Y-78460000D01*
X155585187Y-78208927D01*
X155526396Y-77964043D01*
X155430019Y-77731368D01*
X155298429Y-77516634D01*
X155297733Y-77515819D01*
X155297732Y-77515819D01*
X154482962Y-78330588D01*
X154465925Y-78267007D01*
X154400099Y-78152993D01*
X154307007Y-78059901D01*
X154192993Y-77994075D01*
X154129409Y-77977037D01*
X154944179Y-77162266D01*
X154943362Y-77161568D01*
X154728631Y-77029980D01*
X154495956Y-76933603D01*
X154251072Y-76874812D01*
X154000000Y-76855052D01*
X153748927Y-76874812D01*
X153504043Y-76933603D01*
X153271368Y-77029980D01*
X153056637Y-77161567D01*
X153055819Y-77162266D01*
X153870590Y-77977037D01*
X153807007Y-77994075D01*
X153692993Y-78059901D01*
X153599901Y-78152993D01*
X153534075Y-78267007D01*
X153517037Y-78330590D01*
X152702266Y-77515819D01*
X152701567Y-77516637D01*
X152569980Y-77731368D01*
X152473603Y-77964043D01*
X152414812Y-78208927D01*
X152395052Y-78460000D01*
X152407931Y-78623641D01*
X152393567Y-78692018D01*
X152344515Y-78741775D01*
X152276350Y-78757114D01*
X152210713Y-78733165D01*
X152196632Y-78721051D01*
X151656661Y-78181080D01*
X146156668Y-72681086D01*
X146156663Y-72681082D01*
X146156662Y-72681081D01*
X146156661Y-72681080D01*
X146065636Y-72611235D01*
X146065635Y-72611234D01*
X145974622Y-72541396D01*
X145974616Y-72541392D01*
X145974612Y-72541389D01*
X145935173Y-72518619D01*
X145775891Y-72426657D01*
X145775876Y-72426650D01*
X145563887Y-72338842D01*
X145342239Y-72279452D01*
X145342233Y-72279451D01*
X145342232Y-72279451D01*
X145332362Y-72278151D01*
X145315771Y-72275967D01*
X145315770Y-72275966D01*
X145114744Y-72249501D01*
X145114739Y-72249500D01*
X145114734Y-72249500D01*
X142114734Y-72249500D01*
X139885266Y-72249500D01*
X139885260Y-72249500D01*
X139885255Y-72249501D01*
X139684228Y-72275966D01*
X139684228Y-72275967D01*
X139680215Y-72276495D01*
X139657763Y-72279451D01*
X139436112Y-72338842D01*
X139224123Y-72426650D01*
X139224108Y-72426657D01*
X139025394Y-72541385D01*
X139025377Y-72541396D01*
X138875582Y-72656340D01*
X138875580Y-72656342D01*
X138843337Y-72681081D01*
X138843333Y-72681085D01*
X130891238Y-80633181D01*
X130829915Y-80666666D01*
X130803557Y-80669500D01*
X125421996Y-80669500D01*
X125354957Y-80649815D01*
X125309202Y-80597011D01*
X125299258Y-80527853D01*
X125308440Y-80495690D01*
X125330323Y-80445798D01*
X125364063Y-80368881D01*
X125425108Y-80127821D01*
X125429651Y-80072993D01*
X125445643Y-79880005D01*
X125445643Y-79879994D01*
X125425109Y-79632187D01*
X125425107Y-79632175D01*
X125364063Y-79391118D01*
X125264173Y-79163393D01*
X125128166Y-78955217D01*
X125101201Y-78925925D01*
X124959744Y-78772262D01*
X124763509Y-78619526D01*
X124763507Y-78619525D01*
X124763506Y-78619524D01*
X124544811Y-78501172D01*
X124544802Y-78501169D01*
X124309616Y-78420429D01*
X124064335Y-78379500D01*
X123815665Y-78379500D01*
X123570383Y-78420429D01*
X123335197Y-78501169D01*
X123335188Y-78501172D01*
X123116491Y-78619525D01*
X123116488Y-78619528D01*
X123033212Y-78684343D01*
X122968218Y-78709985D01*
X122899678Y-78696418D01*
X122849354Y-78647949D01*
X122848159Y-78645392D01*
X122848047Y-78645454D01*
X122843793Y-78637664D01*
X122757547Y-78522455D01*
X122757544Y-78522452D01*
X122642335Y-78436206D01*
X122642328Y-78436202D01*
X122507482Y-78385908D01*
X122507483Y-78385908D01*
X122447883Y-78379501D01*
X122447881Y-78379500D01*
X122447873Y-78379500D01*
X122447865Y-78379500D01*
X122120412Y-78379500D01*
X122064118Y-78365985D01*
X122056284Y-78361993D01*
X122033572Y-78350421D01*
X121786493Y-78270140D01*
X121766712Y-78267007D01*
X121529902Y-78229500D01*
X121529897Y-78229500D01*
X121115022Y-78229500D01*
X121047983Y-78209815D01*
X121027341Y-78193181D01*
X120334154Y-77499994D01*
X127494859Y-77499994D01*
X127494859Y-77500000D01*
X127515385Y-77747729D01*
X127515387Y-77747738D01*
X127576412Y-77988717D01*
X127676266Y-78216364D01*
X127776564Y-78369882D01*
X128517037Y-77629409D01*
X128534075Y-77692993D01*
X128599901Y-77807007D01*
X128692993Y-77900099D01*
X128807007Y-77965925D01*
X128870590Y-77982962D01*
X128129942Y-78723609D01*
X128176768Y-78760055D01*
X128176770Y-78760056D01*
X128395385Y-78878364D01*
X128395396Y-78878369D01*
X128630506Y-78959083D01*
X128875707Y-79000000D01*
X129124293Y-79000000D01*
X129369493Y-78959083D01*
X129604603Y-78878369D01*
X129604614Y-78878364D01*
X129823228Y-78760057D01*
X129823231Y-78760055D01*
X129870056Y-78723609D01*
X129129409Y-77982962D01*
X129192993Y-77965925D01*
X129307007Y-77900099D01*
X129400099Y-77807007D01*
X129465925Y-77692993D01*
X129482962Y-77629410D01*
X130223434Y-78369882D01*
X130323731Y-78216369D01*
X130423587Y-77988717D01*
X130484612Y-77747738D01*
X130484614Y-77747729D01*
X130505141Y-77500000D01*
X130505141Y-77499994D01*
X130484614Y-77252270D01*
X130484612Y-77252261D01*
X130423587Y-77011282D01*
X130323731Y-76783630D01*
X130223434Y-76630116D01*
X129482962Y-77370589D01*
X129465925Y-77307007D01*
X129400099Y-77192993D01*
X129307007Y-77099901D01*
X129192993Y-77034075D01*
X129129410Y-77017037D01*
X129870057Y-76276390D01*
X129870056Y-76276389D01*
X129823229Y-76239943D01*
X129604614Y-76121635D01*
X129604603Y-76121630D01*
X129369493Y-76040916D01*
X129124293Y-76000000D01*
X128875707Y-76000000D01*
X128630506Y-76040916D01*
X128395396Y-76121630D01*
X128395390Y-76121632D01*
X128176761Y-76239949D01*
X128129942Y-76276388D01*
X128129942Y-76276390D01*
X128870590Y-77017037D01*
X128807007Y-77034075D01*
X128692993Y-77099901D01*
X128599901Y-77192993D01*
X128534075Y-77307007D01*
X128517037Y-77370589D01*
X127776564Y-76630116D01*
X127676267Y-76783632D01*
X127576412Y-77011282D01*
X127515387Y-77252261D01*
X127515385Y-77252270D01*
X127494859Y-77499994D01*
X120334154Y-77499994D01*
X116834154Y-73999994D01*
X117994859Y-73999994D01*
X117994859Y-74000005D01*
X118015385Y-74247729D01*
X118015387Y-74247738D01*
X118076412Y-74488717D01*
X118176266Y-74716364D01*
X118276564Y-74869882D01*
X119017037Y-74129409D01*
X119034075Y-74192993D01*
X119099901Y-74307007D01*
X119192993Y-74400099D01*
X119307007Y-74465925D01*
X119370590Y-74482962D01*
X118629942Y-75223609D01*
X118676768Y-75260055D01*
X118676770Y-75260056D01*
X118895385Y-75378364D01*
X118895396Y-75378369D01*
X119130506Y-75459083D01*
X119375707Y-75500000D01*
X119624293Y-75500000D01*
X119869493Y-75459083D01*
X120104603Y-75378369D01*
X120104614Y-75378364D01*
X120323228Y-75260057D01*
X120323231Y-75260055D01*
X120370056Y-75223609D01*
X119629409Y-74482962D01*
X119692993Y-74465925D01*
X119807007Y-74400099D01*
X119900099Y-74307007D01*
X119965925Y-74192993D01*
X119982962Y-74129410D01*
X120723434Y-74869882D01*
X120823731Y-74716369D01*
X120923587Y-74488717D01*
X120984612Y-74247738D01*
X120984614Y-74247729D01*
X121005141Y-74000005D01*
X121005141Y-73999994D01*
X120984614Y-73752270D01*
X120984612Y-73752261D01*
X120923587Y-73511282D01*
X120823731Y-73283630D01*
X120723434Y-73130116D01*
X119982962Y-73870589D01*
X119965925Y-73807007D01*
X119900099Y-73692993D01*
X119807007Y-73599901D01*
X119692993Y-73534075D01*
X119629410Y-73517037D01*
X120370057Y-72776390D01*
X120370056Y-72776389D01*
X120323229Y-72739943D01*
X120104614Y-72621635D01*
X120104603Y-72621630D01*
X119869493Y-72540916D01*
X119624293Y-72500000D01*
X119375707Y-72500000D01*
X119130506Y-72540916D01*
X118895396Y-72621630D01*
X118895390Y-72621632D01*
X118676761Y-72739949D01*
X118629942Y-72776388D01*
X118629942Y-72776390D01*
X119370590Y-73517037D01*
X119307007Y-73534075D01*
X119192993Y-73599901D01*
X119099901Y-73692993D01*
X119034075Y-73807007D01*
X119017037Y-73870589D01*
X118276564Y-73130116D01*
X118176267Y-73283632D01*
X118076412Y-73511282D01*
X118015387Y-73752261D01*
X118015385Y-73752270D01*
X117994859Y-73999994D01*
X116834154Y-73999994D01*
X116101443Y-73267283D01*
X116074563Y-73227056D01*
X116073344Y-73224112D01*
X115958611Y-73025388D01*
X115958608Y-73025385D01*
X115958607Y-73025382D01*
X115840252Y-72871141D01*
X115818919Y-72843339D01*
X115818918Y-72843338D01*
X115818911Y-72843330D01*
X115656670Y-72681089D01*
X115656661Y-72681081D01*
X115474617Y-72541392D01*
X115275890Y-72426657D01*
X115275876Y-72426650D01*
X115063887Y-72338842D01*
X114842238Y-72279452D01*
X114804215Y-72274446D01*
X114614741Y-72249500D01*
X114614734Y-72249500D01*
X106885266Y-72249500D01*
X106885260Y-72249500D01*
X106885255Y-72249501D01*
X106684228Y-72275966D01*
X106684228Y-72275967D01*
X106680215Y-72276495D01*
X106657763Y-72279451D01*
X106436112Y-72338842D01*
X106224123Y-72426650D01*
X106224108Y-72426657D01*
X106025388Y-72541388D01*
X105893677Y-72642454D01*
X105893676Y-72642453D01*
X105843345Y-72681075D01*
X105843333Y-72681086D01*
X104093464Y-74430955D01*
X104032141Y-74464440D01*
X103962449Y-74459456D01*
X103906516Y-74417584D01*
X103882099Y-74352120D01*
X103896951Y-74283847D01*
X103900056Y-74278484D01*
X103930466Y-74228859D01*
X103951088Y-74179073D01*
X104026873Y-73996111D01*
X104085683Y-73751148D01*
X104105449Y-73500000D01*
X104085683Y-73248852D01*
X104026873Y-73003889D01*
X103971887Y-72871140D01*
X103930466Y-72771140D01*
X103798839Y-72556346D01*
X103798838Y-72556343D01*
X103720632Y-72464776D01*
X103635224Y-72364776D01*
X103464295Y-72218789D01*
X103426103Y-72160283D01*
X103425604Y-72090415D01*
X103462958Y-72031369D01*
X103526305Y-72001891D01*
X103544828Y-72000500D01*
X157207309Y-72000500D01*
X157274348Y-72020185D01*
X157320103Y-72072989D01*
X157330047Y-72142147D01*
X157301022Y-72205703D01*
X157272099Y-72230227D01*
X157156345Y-72301160D01*
X157156343Y-72301161D01*
X156964776Y-72464776D01*
X156801161Y-72656344D01*
X156669533Y-72871140D01*
X156573126Y-73103889D01*
X156514317Y-73348848D01*
X156494551Y-73600000D01*
X156514317Y-73851151D01*
X156573126Y-74096110D01*
X156669533Y-74328859D01*
X156801160Y-74543653D01*
X156801161Y-74543656D01*
X156801164Y-74543659D01*
X156964776Y-74735224D01*
X157039260Y-74798839D01*
X157156343Y-74898838D01*
X157156346Y-74898839D01*
X157371140Y-75030466D01*
X157603889Y-75126873D01*
X157848852Y-75185683D01*
X158100000Y-75205449D01*
X158351148Y-75185683D01*
X158596111Y-75126873D01*
X158828859Y-75030466D01*
X159043659Y-74898836D01*
X159235224Y-74735224D01*
X159281211Y-74681379D01*
X159339716Y-74643188D01*
X159409584Y-74642688D01*
X159468630Y-74680042D01*
X159498109Y-74743388D01*
X159499500Y-74761912D01*
X159499500Y-129955172D01*
X159479815Y-130022211D01*
X159427011Y-130067966D01*
X159357853Y-130077910D01*
X159294297Y-130048885D01*
X159281210Y-130035704D01*
X159212429Y-129955172D01*
X159135224Y-129864776D01*
X159008571Y-129756604D01*
X158943656Y-129701161D01*
X158943653Y-129701160D01*
X158728859Y-129569533D01*
X158496110Y-129473126D01*
X158251151Y-129414317D01*
X158000000Y-129394551D01*
X157748848Y-129414317D01*
X157503889Y-129473126D01*
X157271140Y-129569533D01*
X157056346Y-129701160D01*
X157056343Y-129701161D01*
X156864776Y-129864776D01*
X156701161Y-130056343D01*
X156701160Y-130056346D01*
X156569533Y-130271140D01*
X156473126Y-130503889D01*
X156414317Y-130748848D01*
X156394551Y-131000000D01*
X156414317Y-131251151D01*
X156473126Y-131496110D01*
X156569533Y-131728859D01*
X156701160Y-131943653D01*
X156701161Y-131943656D01*
X156755644Y-132007447D01*
X156864776Y-132135224D01*
X157035704Y-132281210D01*
X157073897Y-132339717D01*
X157074396Y-132409585D01*
X157037042Y-132468631D01*
X156973695Y-132498109D01*
X156955172Y-132499500D01*
X103583315Y-132499500D01*
X103516276Y-132479815D01*
X103470521Y-132427011D01*
X103460577Y-132357853D01*
X103489602Y-132294297D01*
X103502779Y-132281213D01*
X103599018Y-132199018D01*
X103762630Y-132007453D01*
X103894260Y-131792653D01*
X103990667Y-131559905D01*
X104049477Y-131314942D01*
X104069243Y-131063794D01*
X104049477Y-130812646D01*
X103990667Y-130567683D01*
X103956303Y-130484721D01*
X103894260Y-130334934D01*
X103762633Y-130120140D01*
X103762632Y-130120137D01*
X103678995Y-130022211D01*
X103599018Y-129928570D01*
X103472365Y-129820398D01*
X103407450Y-129764955D01*
X103407447Y-129764954D01*
X103192653Y-129633327D01*
X102959904Y-129536920D01*
X102714945Y-129478111D01*
X102463794Y-129458345D01*
X102212642Y-129478111D01*
X101967683Y-129536920D01*
X101734934Y-129633327D01*
X101520140Y-129764954D01*
X101520137Y-129764955D01*
X101328570Y-129928570D01*
X101164955Y-130120137D01*
X101164954Y-130120140D01*
X101033327Y-130334934D01*
X100936920Y-130567683D01*
X100878111Y-130812642D01*
X100858345Y-131063794D01*
X100878111Y-131314945D01*
X100936920Y-131559904D01*
X101033327Y-131792653D01*
X101164954Y-132007447D01*
X101164955Y-132007450D01*
X101164958Y-132007453D01*
X101328570Y-132199018D01*
X101424805Y-132281211D01*
X101462998Y-132339717D01*
X101463497Y-132409584D01*
X101426143Y-132468631D01*
X101362796Y-132498109D01*
X101344273Y-132499500D01*
X100624500Y-132499500D01*
X100557461Y-132479815D01*
X100511706Y-132427011D01*
X100500500Y-132375500D01*
X100500500Y-72124500D01*
X100520185Y-72057461D01*
X100572989Y-72011706D01*
X100624500Y-72000500D01*
X101455172Y-72000500D01*
X101522211Y-72020185D01*
G37*
%TD.AperFunction*%
%TA.AperFunction,Conductor*%
G36*
X129121257Y-119000185D02*
G01*
X129141899Y-119016819D01*
X131972899Y-121847819D01*
X132006384Y-121909142D01*
X132001400Y-121978834D01*
X131959528Y-122034767D01*
X131894064Y-122059184D01*
X131885218Y-122059500D01*
X125112855Y-122059500D01*
X125045816Y-122039815D01*
X125021626Y-122019483D01*
X124959747Y-121952265D01*
X124959746Y-121952264D01*
X124959744Y-121952262D01*
X124876583Y-121887535D01*
X124835770Y-121830825D01*
X124832096Y-121761052D01*
X124866728Y-121700369D01*
X124876584Y-121691828D01*
X124959404Y-121627367D01*
X124959407Y-121627364D01*
X125127767Y-121444478D01*
X125263732Y-121236367D01*
X125363588Y-121008716D01*
X125424040Y-120770000D01*
X124373012Y-120770000D01*
X124405925Y-120712993D01*
X124440000Y-120585826D01*
X124440000Y-120454174D01*
X124405925Y-120327007D01*
X124373012Y-120270000D01*
X125424040Y-120270000D01*
X125363588Y-120031283D01*
X125263732Y-119803632D01*
X125127767Y-119595521D01*
X124959407Y-119412635D01*
X124959397Y-119412626D01*
X124876584Y-119348170D01*
X124835771Y-119291460D01*
X124832096Y-119221687D01*
X124866728Y-119161004D01*
X124876571Y-119152473D01*
X124959744Y-119087738D01*
X124984194Y-119061177D01*
X125021626Y-119020517D01*
X125081513Y-118984526D01*
X125112855Y-118980500D01*
X129054218Y-118980500D01*
X129121257Y-119000185D01*
G37*
%TD.AperFunction*%
%TA.AperFunction,Conductor*%
G36*
X120123347Y-101012568D02*
G01*
X120163884Y-101051389D01*
X120211833Y-101124782D01*
X120211836Y-101124785D01*
X120380256Y-101307738D01*
X120463008Y-101372147D01*
X120503821Y-101428857D01*
X120507496Y-101498630D01*
X120472864Y-101559313D01*
X120463014Y-101567848D01*
X120448908Y-101578828D01*
X120380257Y-101632261D01*
X120211833Y-101815217D01*
X120075826Y-102023393D01*
X119975936Y-102251118D01*
X119914892Y-102492175D01*
X119914890Y-102492187D01*
X119894357Y-102739994D01*
X119894357Y-102740005D01*
X119914890Y-102987812D01*
X119914892Y-102987824D01*
X119975936Y-103228881D01*
X120075826Y-103456606D01*
X120211833Y-103664782D01*
X120211836Y-103664785D01*
X120380256Y-103847738D01*
X120463008Y-103912147D01*
X120503821Y-103968857D01*
X120507496Y-104038630D01*
X120472864Y-104099313D01*
X120463014Y-104107848D01*
X120419192Y-104141957D01*
X120380257Y-104172261D01*
X120211833Y-104355217D01*
X120075826Y-104563393D01*
X119975936Y-104791118D01*
X119914892Y-105032175D01*
X119914890Y-105032187D01*
X119894357Y-105279994D01*
X119894357Y-105280005D01*
X119914890Y-105527812D01*
X119914892Y-105527824D01*
X119975936Y-105768881D01*
X120075826Y-105996606D01*
X120211833Y-106204782D01*
X120211836Y-106204785D01*
X120380256Y-106387738D01*
X120463008Y-106452147D01*
X120503821Y-106508857D01*
X120507496Y-106578630D01*
X120472864Y-106639313D01*
X120463014Y-106647848D01*
X120410449Y-106688762D01*
X120380257Y-106712261D01*
X120211833Y-106895217D01*
X120075826Y-107103393D01*
X119975936Y-107331118D01*
X119914892Y-107572175D01*
X119914890Y-107572187D01*
X119894357Y-107819994D01*
X119894357Y-107820005D01*
X119914890Y-108067812D01*
X119914892Y-108067824D01*
X119975936Y-108308881D01*
X120075826Y-108536606D01*
X120211833Y-108744782D01*
X120211836Y-108744785D01*
X120380256Y-108927738D01*
X120380259Y-108927740D01*
X120380262Y-108927743D01*
X120463415Y-108992464D01*
X120504228Y-109049174D01*
X120507903Y-109118947D01*
X120473271Y-109179630D01*
X120463416Y-109188170D01*
X120380597Y-109252630D01*
X120380592Y-109252635D01*
X120212232Y-109435521D01*
X120076267Y-109643632D01*
X119976411Y-109871283D01*
X119915960Y-110110000D01*
X120966988Y-110110000D01*
X120934075Y-110167007D01*
X120900000Y-110294174D01*
X120900000Y-110425826D01*
X120934075Y-110552993D01*
X120966988Y-110610000D01*
X119915960Y-110610000D01*
X119976411Y-110848716D01*
X120076267Y-111076367D01*
X120212232Y-111284478D01*
X120380592Y-111467364D01*
X120380595Y-111467367D01*
X120463415Y-111531828D01*
X120504228Y-111588539D01*
X120507903Y-111658312D01*
X120473272Y-111718995D01*
X120463416Y-111727535D01*
X120380258Y-111792260D01*
X120211833Y-111975217D01*
X120075826Y-112183393D01*
X119975936Y-112411118D01*
X119914892Y-112652175D01*
X119914890Y-112652187D01*
X119894357Y-112899994D01*
X119894357Y-112900005D01*
X119914890Y-113147812D01*
X119914892Y-113147824D01*
X119975936Y-113388881D01*
X120075826Y-113616606D01*
X120211833Y-113824782D01*
X120211836Y-113824785D01*
X120380256Y-114007738D01*
X120463008Y-114072147D01*
X120503821Y-114128857D01*
X120507496Y-114198630D01*
X120472864Y-114259313D01*
X120463014Y-114267848D01*
X120448908Y-114278828D01*
X120380255Y-114332262D01*
X120380252Y-114332265D01*
X120318374Y-114399483D01*
X120258487Y-114435474D01*
X120227145Y-114439500D01*
X115201458Y-114439500D01*
X115184029Y-114442967D01*
X115166600Y-114446434D01*
X115166599Y-114446434D01*
X115008167Y-114477947D01*
X115008159Y-114477950D01*
X114954834Y-114500037D01*
X114954834Y-114500038D01*
X114918194Y-114515215D01*
X114826089Y-114553366D01*
X114826079Y-114553371D01*
X114662218Y-114662860D01*
X114662214Y-114662863D01*
X111861899Y-117463181D01*
X111800576Y-117496666D01*
X111774218Y-117499500D01*
X111615665Y-117499500D01*
X111370383Y-117540429D01*
X111135197Y-117621169D01*
X111135188Y-117621172D01*
X110916493Y-117739524D01*
X110720255Y-117892262D01*
X110720252Y-117892265D01*
X110560889Y-118065379D01*
X110501002Y-118101370D01*
X110431164Y-118099269D01*
X110378431Y-118065379D01*
X110219407Y-117892635D01*
X110219397Y-117892626D01*
X110023237Y-117739948D01*
X110023228Y-117739942D01*
X109804614Y-117621635D01*
X109804603Y-117621630D01*
X109569492Y-117540916D01*
X109450000Y-117520976D01*
X109450000Y-118566988D01*
X109392993Y-118534075D01*
X109265826Y-118500000D01*
X109134174Y-118500000D01*
X109007007Y-118534075D01*
X108950000Y-118566988D01*
X108950000Y-117520976D01*
X108949999Y-117520976D01*
X108830507Y-117540916D01*
X108595396Y-117621630D01*
X108595385Y-117621635D01*
X108376771Y-117739942D01*
X108376762Y-117739948D01*
X108176548Y-117895782D01*
X108174786Y-117897129D01*
X108174778Y-117897135D01*
X108109336Y-117921611D01*
X108041049Y-117906821D01*
X108002003Y-117873423D01*
X107978919Y-117843339D01*
X107978915Y-117843335D01*
X107978912Y-117843331D01*
X107816670Y-117681089D01*
X107816661Y-117681081D01*
X107634617Y-117541392D01*
X107599255Y-117520976D01*
X107435888Y-117426656D01*
X107435876Y-117426650D01*
X107223887Y-117338842D01*
X107002238Y-117279452D01*
X106964215Y-117274446D01*
X106774741Y-117249500D01*
X106774734Y-117249500D01*
X104874500Y-117249500D01*
X104807461Y-117229815D01*
X104761706Y-117177011D01*
X104750500Y-117125500D01*
X104750500Y-116776443D01*
X104770185Y-116709404D01*
X104786819Y-116688762D01*
X105688762Y-115786819D01*
X105750085Y-115753334D01*
X105776443Y-115750500D01*
X107114727Y-115750500D01*
X107114734Y-115750500D01*
X107342238Y-115720548D01*
X107563887Y-115661158D01*
X107775888Y-115573344D01*
X107974612Y-115458611D01*
X108156661Y-115318919D01*
X108156665Y-115318914D01*
X108156670Y-115318911D01*
X108318911Y-115156670D01*
X108318914Y-115156665D01*
X108318919Y-115156661D01*
X108458611Y-114974612D01*
X108573344Y-114775888D01*
X108661158Y-114563887D01*
X108720548Y-114342238D01*
X108750500Y-114114734D01*
X108750500Y-113999994D01*
X110494859Y-113999994D01*
X110494859Y-114000005D01*
X110515385Y-114247729D01*
X110515387Y-114247738D01*
X110576412Y-114488717D01*
X110676266Y-114716364D01*
X110776564Y-114869882D01*
X111517037Y-114129409D01*
X111534075Y-114192993D01*
X111599901Y-114307007D01*
X111692993Y-114400099D01*
X111807007Y-114465925D01*
X111870590Y-114482962D01*
X111129942Y-115223609D01*
X111176768Y-115260055D01*
X111176770Y-115260056D01*
X111395385Y-115378364D01*
X111395396Y-115378369D01*
X111630506Y-115459083D01*
X111875707Y-115500000D01*
X112124293Y-115500000D01*
X112369493Y-115459083D01*
X112604603Y-115378369D01*
X112604614Y-115378364D01*
X112823228Y-115260057D01*
X112823231Y-115260055D01*
X112870056Y-115223609D01*
X112129409Y-114482962D01*
X112192993Y-114465925D01*
X112307007Y-114400099D01*
X112400099Y-114307007D01*
X112465925Y-114192993D01*
X112482962Y-114129410D01*
X113223434Y-114869882D01*
X113323731Y-114716369D01*
X113423587Y-114488717D01*
X113484612Y-114247738D01*
X113484614Y-114247729D01*
X113505141Y-114000005D01*
X113505141Y-113999994D01*
X113484614Y-113752270D01*
X113484612Y-113752261D01*
X113423587Y-113511282D01*
X113323731Y-113283630D01*
X113223434Y-113130116D01*
X112482962Y-113870589D01*
X112465925Y-113807007D01*
X112400099Y-113692993D01*
X112307007Y-113599901D01*
X112192993Y-113534075D01*
X112129410Y-113517037D01*
X112870057Y-112776390D01*
X112870056Y-112776389D01*
X112823229Y-112739943D01*
X112604614Y-112621635D01*
X112604603Y-112621630D01*
X112369493Y-112540916D01*
X112124293Y-112500000D01*
X111875707Y-112500000D01*
X111630506Y-112540916D01*
X111395396Y-112621630D01*
X111395390Y-112621632D01*
X111176761Y-112739949D01*
X111129942Y-112776388D01*
X111129942Y-112776390D01*
X111870590Y-113517037D01*
X111807007Y-113534075D01*
X111692993Y-113599901D01*
X111599901Y-113692993D01*
X111534075Y-113807007D01*
X111517037Y-113870589D01*
X110776564Y-113130116D01*
X110676267Y-113283632D01*
X110576412Y-113511282D01*
X110515387Y-113752261D01*
X110515385Y-113752270D01*
X110494859Y-113999994D01*
X108750500Y-113999994D01*
X108750500Y-113885266D01*
X108720548Y-113657762D01*
X108661158Y-113436113D01*
X108573344Y-113224112D01*
X108458611Y-113025388D01*
X108458608Y-113025385D01*
X108458607Y-113025382D01*
X108318918Y-112843338D01*
X108318911Y-112843330D01*
X108156670Y-112681089D01*
X108156661Y-112681081D01*
X107974617Y-112541392D01*
X107775890Y-112426657D01*
X107775876Y-112426650D01*
X107563887Y-112338842D01*
X107342238Y-112279452D01*
X107285336Y-112271960D01*
X107226757Y-112264248D01*
X107204625Y-112259240D01*
X107011370Y-112196447D01*
X106778097Y-112159500D01*
X106778092Y-112159500D01*
X106541908Y-112159500D01*
X106541903Y-112159500D01*
X106308631Y-112196446D01*
X106181984Y-112237597D01*
X106164029Y-112243431D01*
X106125712Y-112249500D01*
X105185443Y-112249500D01*
X105118404Y-112229815D01*
X105072649Y-112177011D01*
X105062705Y-112107853D01*
X105091730Y-112044297D01*
X105097762Y-112037819D01*
X107978913Y-109156668D01*
X107978920Y-109156661D01*
X108002004Y-109126577D01*
X108058427Y-109085376D01*
X108128173Y-109081219D01*
X108175588Y-109105450D01*
X108176548Y-109104218D01*
X108376762Y-109260051D01*
X108376771Y-109260057D01*
X108595385Y-109378364D01*
X108595396Y-109378369D01*
X108830507Y-109459083D01*
X108949999Y-109479023D01*
X108950000Y-109479022D01*
X108950000Y-108433012D01*
X109007007Y-108465925D01*
X109134174Y-108500000D01*
X109265826Y-108500000D01*
X109392993Y-108465925D01*
X109450000Y-108433012D01*
X109450000Y-109479023D01*
X109569492Y-109459083D01*
X109804603Y-109378369D01*
X109804614Y-109378364D01*
X110023228Y-109260057D01*
X110023237Y-109260051D01*
X110219397Y-109107373D01*
X110219401Y-109107370D01*
X110378430Y-108934620D01*
X110438318Y-108898629D01*
X110508156Y-108900730D01*
X110560889Y-108934619D01*
X110720256Y-109107738D01*
X110916491Y-109260474D01*
X110916493Y-109260475D01*
X111134332Y-109378364D01*
X111135190Y-109378828D01*
X111300331Y-109435521D01*
X111368964Y-109459083D01*
X111370386Y-109459571D01*
X111615665Y-109500500D01*
X111864335Y-109500500D01*
X112109614Y-109459571D01*
X112344810Y-109378828D01*
X112563509Y-109260474D01*
X112759744Y-109107738D01*
X112918771Y-108934988D01*
X112978657Y-108898999D01*
X113048495Y-108901099D01*
X113101228Y-108934988D01*
X113260256Y-109107738D01*
X113456491Y-109260474D01*
X113456493Y-109260475D01*
X113674332Y-109378364D01*
X113675190Y-109378828D01*
X113840331Y-109435521D01*
X113908964Y-109459083D01*
X113910386Y-109459571D01*
X114155665Y-109500500D01*
X114404335Y-109500500D01*
X114649614Y-109459571D01*
X114884810Y-109378828D01*
X115103509Y-109260474D01*
X115299744Y-109107738D01*
X115468164Y-108924785D01*
X115604173Y-108716607D01*
X115704063Y-108488881D01*
X115765108Y-108247821D01*
X115765563Y-108242328D01*
X115785643Y-108000005D01*
X115785643Y-107999994D01*
X115765109Y-107752187D01*
X115765107Y-107752175D01*
X115704063Y-107511118D01*
X115604173Y-107283393D01*
X115468166Y-107075217D01*
X115417771Y-107020474D01*
X115299744Y-106892262D01*
X115103509Y-106739526D01*
X115103507Y-106739525D01*
X115103506Y-106739524D01*
X114884811Y-106621172D01*
X114884802Y-106621169D01*
X114811348Y-106595952D01*
X114754333Y-106555567D01*
X114728202Y-106490767D01*
X114741253Y-106422127D01*
X114763930Y-106390990D01*
X117220747Y-103934174D01*
X119777139Y-101377782D01*
X119852443Y-101265081D01*
X119886631Y-101213916D01*
X119886631Y-101213915D01*
X119886632Y-101213914D01*
X119945516Y-101071754D01*
X119989354Y-101017355D01*
X120055648Y-100995289D01*
X120123347Y-101012568D01*
G37*
%TD.AperFunction*%
%TA.AperFunction,Conductor*%
G36*
X154955703Y-114431729D02*
G01*
X154962176Y-114437757D01*
X155240783Y-114716364D01*
X155463181Y-114938762D01*
X155496666Y-115000085D01*
X155499500Y-115026438D01*
X155499500Y-115047867D01*
X155499501Y-115047877D01*
X155505908Y-115107483D01*
X155556202Y-115242328D01*
X155556206Y-115242335D01*
X155642452Y-115357544D01*
X155642455Y-115357547D01*
X155757663Y-115443793D01*
X155762799Y-115446597D01*
X155812205Y-115496002D01*
X155827057Y-115564275D01*
X155807182Y-115623251D01*
X155676267Y-115823632D01*
X155576411Y-116051283D01*
X155515960Y-116290000D01*
X156566988Y-116290000D01*
X156534075Y-116347007D01*
X156500000Y-116474174D01*
X156500000Y-116605826D01*
X156534075Y-116732993D01*
X156566988Y-116790000D01*
X155515959Y-116790000D01*
X155492620Y-116819986D01*
X155435910Y-116860799D01*
X155366137Y-116864474D01*
X155307086Y-116831505D01*
X154786819Y-116311238D01*
X154753334Y-116249915D01*
X154750500Y-116223557D01*
X154750500Y-114525442D01*
X154770185Y-114458403D01*
X154822989Y-114412648D01*
X154892147Y-114402704D01*
X154955703Y-114431729D01*
G37*
%TD.AperFunction*%
%TA.AperFunction,Conductor*%
G36*
X154949985Y-108400752D02*
G01*
X155025388Y-108458611D01*
X155124750Y-108515977D01*
X155124751Y-108515978D01*
X155160481Y-108536607D01*
X155224112Y-108573345D01*
X155374019Y-108635438D01*
X155436113Y-108661158D01*
X155474781Y-108671519D01*
X155575324Y-108698459D01*
X155634984Y-108734824D01*
X155665513Y-108797671D01*
X155657218Y-108867046D01*
X155656786Y-108868043D01*
X155576413Y-109051279D01*
X155576411Y-109051283D01*
X155515960Y-109290000D01*
X156566988Y-109290000D01*
X156534075Y-109347007D01*
X156500000Y-109474174D01*
X156500000Y-109605826D01*
X156534075Y-109732993D01*
X156566988Y-109790000D01*
X155515959Y-109790000D01*
X155492620Y-109819986D01*
X155435910Y-109860799D01*
X155366137Y-109864474D01*
X155307086Y-109831505D01*
X154786819Y-109311238D01*
X154753334Y-109249915D01*
X154750500Y-109223557D01*
X154750500Y-108499129D01*
X154770185Y-108432090D01*
X154822989Y-108386335D01*
X154892147Y-108376391D01*
X154949985Y-108400752D01*
G37*
%TD.AperFunction*%
%TA.AperFunction,Conductor*%
G36*
X117963134Y-92554299D02*
G01*
X118019067Y-92596171D01*
X118043484Y-92661635D01*
X118038946Y-92702153D01*
X118039137Y-92702191D01*
X118038690Y-92704434D01*
X118038463Y-92706468D01*
X118037949Y-92708161D01*
X117999500Y-92901456D01*
X117999500Y-100274217D01*
X117979815Y-100341256D01*
X117963181Y-100361898D01*
X111861899Y-106463181D01*
X111800576Y-106496666D01*
X111774218Y-106499500D01*
X111615665Y-106499500D01*
X111370383Y-106540429D01*
X111135197Y-106621169D01*
X111135188Y-106621172D01*
X110916493Y-106739524D01*
X110720255Y-106892262D01*
X110720252Y-106892265D01*
X110560889Y-107065379D01*
X110501002Y-107101370D01*
X110431164Y-107099269D01*
X110378431Y-107065379D01*
X110219407Y-106892635D01*
X110219397Y-106892626D01*
X110023237Y-106739948D01*
X110023228Y-106739942D01*
X109804614Y-106621635D01*
X109804603Y-106621630D01*
X109569492Y-106540916D01*
X109450000Y-106520976D01*
X109450000Y-107566988D01*
X109392993Y-107534075D01*
X109265826Y-107500000D01*
X109134174Y-107500000D01*
X109007007Y-107534075D01*
X108950000Y-107566988D01*
X108950000Y-106520976D01*
X108949999Y-106520976D01*
X108830507Y-106540916D01*
X108595396Y-106621630D01*
X108595385Y-106621635D01*
X108376771Y-106739942D01*
X108376762Y-106739948D01*
X108176548Y-106895782D01*
X108175591Y-106894552D01*
X108117366Y-106920766D01*
X108048262Y-106910451D01*
X108002003Y-106873421D01*
X107978921Y-106843340D01*
X107978915Y-106843333D01*
X107816666Y-106681084D01*
X107816659Y-106681078D01*
X107634621Y-106541396D01*
X107634619Y-106541395D01*
X107634613Y-106541390D01*
X107435888Y-106426655D01*
X107435879Y-106426650D01*
X107223894Y-106338844D01*
X107002235Y-106279450D01*
X106774735Y-106249500D01*
X106774734Y-106249500D01*
X106545267Y-106249500D01*
X106545266Y-106249500D01*
X106317764Y-106279450D01*
X106096106Y-106338844D01*
X105884120Y-106426650D01*
X105884111Y-106426655D01*
X105685388Y-106541390D01*
X105685378Y-106541396D01*
X105503340Y-106681078D01*
X105503333Y-106681084D01*
X104962181Y-107222237D01*
X104900858Y-107255722D01*
X104831166Y-107250738D01*
X104775233Y-107208866D01*
X104750816Y-107143402D01*
X104750500Y-107134556D01*
X104750500Y-106776443D01*
X104770185Y-106709404D01*
X104786819Y-106688762D01*
X105688762Y-105786819D01*
X105750085Y-105753334D01*
X105776443Y-105750500D01*
X106614727Y-105750500D01*
X106614734Y-105750500D01*
X106842238Y-105720548D01*
X107063887Y-105661158D01*
X107275888Y-105573344D01*
X107474612Y-105458611D01*
X107656661Y-105318919D01*
X107656665Y-105318914D01*
X107656670Y-105318911D01*
X107818911Y-105156670D01*
X107818914Y-105156665D01*
X107818919Y-105156661D01*
X107958611Y-104974612D01*
X108073344Y-104775888D01*
X108161158Y-104563887D01*
X108220548Y-104342238D01*
X108250500Y-104114734D01*
X108250500Y-103999994D01*
X109994859Y-103999994D01*
X109994859Y-104000005D01*
X110015385Y-104247729D01*
X110015387Y-104247738D01*
X110076412Y-104488717D01*
X110176266Y-104716364D01*
X110276564Y-104869882D01*
X111017037Y-104129409D01*
X111034075Y-104192993D01*
X111099901Y-104307007D01*
X111192993Y-104400099D01*
X111307007Y-104465925D01*
X111370590Y-104482962D01*
X110629942Y-105223609D01*
X110676768Y-105260055D01*
X110676770Y-105260056D01*
X110895385Y-105378364D01*
X110895396Y-105378369D01*
X111130506Y-105459083D01*
X111375707Y-105500000D01*
X111624293Y-105500000D01*
X111869493Y-105459083D01*
X112104603Y-105378369D01*
X112104614Y-105378364D01*
X112323228Y-105260057D01*
X112323231Y-105260055D01*
X112370056Y-105223609D01*
X111629409Y-104482962D01*
X111692993Y-104465925D01*
X111807007Y-104400099D01*
X111900099Y-104307007D01*
X111965925Y-104192993D01*
X111982962Y-104129410D01*
X112723434Y-104869882D01*
X112823731Y-104716369D01*
X112923587Y-104488717D01*
X112984612Y-104247738D01*
X112984614Y-104247729D01*
X113005141Y-104000005D01*
X113005141Y-103999994D01*
X112984614Y-103752270D01*
X112984612Y-103752261D01*
X112923587Y-103511282D01*
X112823731Y-103283630D01*
X112723434Y-103130116D01*
X111982962Y-103870589D01*
X111965925Y-103807007D01*
X111900099Y-103692993D01*
X111807007Y-103599901D01*
X111692993Y-103534075D01*
X111629410Y-103517037D01*
X112370057Y-102776390D01*
X112370056Y-102776389D01*
X112323229Y-102739943D01*
X112104614Y-102621635D01*
X112104603Y-102621630D01*
X111869493Y-102540916D01*
X111624293Y-102500000D01*
X111375707Y-102500000D01*
X111130506Y-102540916D01*
X110895396Y-102621630D01*
X110895390Y-102621632D01*
X110676761Y-102739949D01*
X110629942Y-102776388D01*
X110629942Y-102776390D01*
X111370590Y-103517037D01*
X111307007Y-103534075D01*
X111192993Y-103599901D01*
X111099901Y-103692993D01*
X111034075Y-103807007D01*
X111017037Y-103870589D01*
X110276564Y-103130116D01*
X110176267Y-103283632D01*
X110076412Y-103511282D01*
X110015387Y-103752261D01*
X110015385Y-103752270D01*
X109994859Y-103999994D01*
X108250500Y-103999994D01*
X108250500Y-103885266D01*
X108220548Y-103657762D01*
X108161158Y-103436113D01*
X108079925Y-103240000D01*
X108073349Y-103224123D01*
X108073346Y-103224117D01*
X108073344Y-103224112D01*
X107958611Y-103025388D01*
X107958608Y-103025385D01*
X107958607Y-103025382D01*
X107818918Y-102843338D01*
X107818911Y-102843330D01*
X107656670Y-102681089D01*
X107656661Y-102681081D01*
X107474617Y-102541392D01*
X107275890Y-102426657D01*
X107275876Y-102426650D01*
X107063887Y-102338842D01*
X106956936Y-102310185D01*
X106842238Y-102279452D01*
X106801396Y-102274075D01*
X106614741Y-102249500D01*
X106614734Y-102249500D01*
X104885266Y-102249500D01*
X104885257Y-102249500D01*
X104882599Y-102249674D01*
X104881822Y-102249500D01*
X104881207Y-102249500D01*
X104881207Y-102249362D01*
X104814417Y-102234410D01*
X104765311Y-102184708D01*
X104750500Y-102125939D01*
X104750500Y-101316443D01*
X104770185Y-101249404D01*
X104786819Y-101228762D01*
X108688762Y-97326819D01*
X108750085Y-97293334D01*
X108776443Y-97290500D01*
X114034727Y-97290500D01*
X114034734Y-97290500D01*
X114262238Y-97260548D01*
X114483887Y-97201158D01*
X114695888Y-97113344D01*
X114894612Y-96998611D01*
X115076661Y-96858919D01*
X115076665Y-96858914D01*
X115076670Y-96858911D01*
X115238911Y-96696670D01*
X115238914Y-96696665D01*
X115238919Y-96696661D01*
X115378611Y-96514612D01*
X115493344Y-96315888D01*
X115581158Y-96103887D01*
X115640548Y-95882238D01*
X115670500Y-95654734D01*
X115670500Y-95425266D01*
X115640548Y-95197762D01*
X115581158Y-94976113D01*
X115513591Y-94812993D01*
X115493349Y-94764123D01*
X115493346Y-94764117D01*
X115493344Y-94764112D01*
X115378611Y-94565388D01*
X115378608Y-94565385D01*
X115378607Y-94565382D01*
X115238918Y-94383338D01*
X115238911Y-94383330D01*
X115147762Y-94292181D01*
X115114277Y-94230858D01*
X115119261Y-94161166D01*
X115161133Y-94105233D01*
X115226597Y-94080816D01*
X115235443Y-94080500D01*
X116018542Y-94080500D01*
X116045431Y-94075151D01*
X116115188Y-94061275D01*
X116211836Y-94042051D01*
X116265165Y-94019961D01*
X116393914Y-93966632D01*
X116557782Y-93857139D01*
X116697139Y-93717782D01*
X116697139Y-93717780D01*
X116707347Y-93707573D01*
X116707348Y-93707570D01*
X117832120Y-92582799D01*
X117893442Y-92549315D01*
X117963134Y-92554299D01*
G37*
%TD.AperFunction*%
%TA.AperFunction,Conductor*%
G36*
X154921943Y-102178720D02*
G01*
X154976113Y-102201158D01*
X155197761Y-102260548D01*
X155224223Y-102264031D01*
X155224227Y-102264033D01*
X155224228Y-102264032D01*
X155425266Y-102290500D01*
X155425273Y-102290500D01*
X155518551Y-102290500D01*
X155585590Y-102310185D01*
X155631345Y-102362989D01*
X155641289Y-102432147D01*
X155632107Y-102464310D01*
X155576411Y-102591283D01*
X155515960Y-102830000D01*
X156566988Y-102830000D01*
X156534075Y-102887007D01*
X156500000Y-103014174D01*
X156500000Y-103145826D01*
X156534075Y-103272993D01*
X156566988Y-103330000D01*
X155515960Y-103330000D01*
X155576411Y-103568716D01*
X155676267Y-103796367D01*
X155784305Y-103961732D01*
X155804492Y-104028621D01*
X155785312Y-104095807D01*
X155732854Y-104141957D01*
X155663772Y-104152420D01*
X155600000Y-104123873D01*
X155592815Y-104117234D01*
X154786819Y-103311238D01*
X154753334Y-103249915D01*
X154750500Y-103223557D01*
X154750500Y-102293284D01*
X154770185Y-102226245D01*
X154822989Y-102180490D01*
X154892147Y-102170546D01*
X154921943Y-102178720D01*
G37*
%TD.AperFunction*%
%TA.AperFunction,Conductor*%
G36*
X113932017Y-75770185D02*
G01*
X113952659Y-75786819D01*
X119304771Y-81138931D01*
X119514949Y-81291635D01*
X119624314Y-81347359D01*
X119746423Y-81409577D01*
X119746425Y-81409577D01*
X119746428Y-81409579D01*
X119993507Y-81489860D01*
X120005367Y-81491738D01*
X120068499Y-81521662D01*
X120105434Y-81580971D01*
X120104440Y-81650834D01*
X120089784Y-81682028D01*
X120075826Y-81703393D01*
X119975936Y-81931118D01*
X119914892Y-82172175D01*
X119914890Y-82172187D01*
X119900792Y-82342335D01*
X119894357Y-82420000D01*
X119896553Y-82446500D01*
X119882471Y-82514936D01*
X119860657Y-82544420D01*
X117223999Y-85181080D01*
X116362220Y-86042859D01*
X116362218Y-86042861D01*
X116307139Y-86097940D01*
X116222859Y-86182219D01*
X116113369Y-86346082D01*
X116066006Y-86460429D01*
X116066006Y-86460430D01*
X116037949Y-86528164D01*
X116035364Y-86541164D01*
X116035362Y-86541172D01*
X115999500Y-86721456D01*
X115999500Y-87074216D01*
X115979815Y-87141255D01*
X115963181Y-87161897D01*
X115610295Y-87514782D01*
X115548972Y-87548267D01*
X115479280Y-87543283D01*
X115423347Y-87501411D01*
X115409058Y-87476911D01*
X115324173Y-87283393D01*
X115188166Y-87075217D01*
X115149641Y-87033368D01*
X115019744Y-86892262D01*
X114936991Y-86827852D01*
X114896179Y-86771143D01*
X114892504Y-86701370D01*
X114927136Y-86640687D01*
X114936985Y-86632151D01*
X115019744Y-86567738D01*
X115188164Y-86384785D01*
X115324173Y-86176607D01*
X115424063Y-85948881D01*
X115485108Y-85707821D01*
X115485109Y-85707812D01*
X115505643Y-85460005D01*
X115505643Y-85459994D01*
X115485109Y-85212187D01*
X115485107Y-85212175D01*
X115424063Y-84971118D01*
X115324173Y-84743393D01*
X115188166Y-84535217D01*
X115129310Y-84471283D01*
X115019744Y-84352262D01*
X114936991Y-84287852D01*
X114896179Y-84231143D01*
X114892504Y-84161370D01*
X114927136Y-84100687D01*
X114936985Y-84092151D01*
X115019744Y-84027738D01*
X115188164Y-83844785D01*
X115324173Y-83636607D01*
X115424063Y-83408881D01*
X115485108Y-83167821D01*
X115488935Y-83121635D01*
X115505643Y-82920005D01*
X115505643Y-82919994D01*
X115485109Y-82672187D01*
X115485107Y-82672175D01*
X115424063Y-82431118D01*
X115324173Y-82203393D01*
X115188166Y-81995217D01*
X115167860Y-81973159D01*
X115019744Y-81812262D01*
X114936583Y-81747535D01*
X114895770Y-81690825D01*
X114892096Y-81621052D01*
X114926728Y-81560369D01*
X114936584Y-81551828D01*
X115019404Y-81487367D01*
X115019407Y-81487364D01*
X115187767Y-81304478D01*
X115323732Y-81096367D01*
X115423588Y-80868716D01*
X115484040Y-80630000D01*
X114433012Y-80630000D01*
X114465925Y-80572993D01*
X114500000Y-80445826D01*
X114500000Y-80314174D01*
X114465925Y-80187007D01*
X114433012Y-80130000D01*
X115484040Y-80130000D01*
X115423588Y-79891283D01*
X115323732Y-79663632D01*
X115187767Y-79455521D01*
X115019407Y-79272635D01*
X115019397Y-79272626D01*
X114823237Y-79119948D01*
X114823228Y-79119942D01*
X114604614Y-79001635D01*
X114604603Y-79001630D01*
X114369492Y-78920916D01*
X114250000Y-78900976D01*
X114250000Y-79946988D01*
X114192993Y-79914075D01*
X114065826Y-79880000D01*
X113934174Y-79880000D01*
X113807007Y-79914075D01*
X113750000Y-79946988D01*
X113750000Y-78900976D01*
X113749999Y-78900976D01*
X113630507Y-78920916D01*
X113395396Y-79001630D01*
X113395385Y-79001635D01*
X113176771Y-79119942D01*
X113176762Y-79119948D01*
X112980602Y-79272626D01*
X112980592Y-79272635D01*
X112812232Y-79455521D01*
X112676267Y-79663632D01*
X112576411Y-79891283D01*
X112515960Y-80130000D01*
X113566988Y-80130000D01*
X113534075Y-80187007D01*
X113500000Y-80314174D01*
X113500000Y-80445826D01*
X113534075Y-80572993D01*
X113566988Y-80630000D01*
X112515960Y-80630000D01*
X112576411Y-80868716D01*
X112676267Y-81096367D01*
X112812232Y-81304478D01*
X112980592Y-81487364D01*
X112980595Y-81487367D01*
X113063415Y-81551828D01*
X113104228Y-81608539D01*
X113107903Y-81678312D01*
X113073272Y-81738995D01*
X113063416Y-81747535D01*
X112980258Y-81812260D01*
X112811833Y-81995217D01*
X112675826Y-82203393D01*
X112575936Y-82431118D01*
X112514892Y-82672175D01*
X112514890Y-82672187D01*
X112494357Y-82919994D01*
X112494357Y-82920005D01*
X112514890Y-83167812D01*
X112514892Y-83167820D01*
X112575936Y-83408881D01*
X112675826Y-83636606D01*
X112811833Y-83844782D01*
X112811836Y-83844785D01*
X112980256Y-84027738D01*
X113063008Y-84092147D01*
X113103821Y-84148857D01*
X113107496Y-84218630D01*
X113072864Y-84279313D01*
X113063014Y-84287848D01*
X113038400Y-84307007D01*
X112980257Y-84352261D01*
X112811833Y-84535217D01*
X112675826Y-84743393D01*
X112575936Y-84971118D01*
X112514892Y-85212175D01*
X112514890Y-85212187D01*
X112494357Y-85459994D01*
X112494357Y-85460005D01*
X112514890Y-85707812D01*
X112514892Y-85707824D01*
X112575936Y-85948881D01*
X112675826Y-86176606D01*
X112811833Y-86384782D01*
X112811836Y-86384785D01*
X112980256Y-86567738D01*
X113063008Y-86632147D01*
X113103821Y-86688857D01*
X113107496Y-86758630D01*
X113072864Y-86819313D01*
X113063014Y-86827848D01*
X113004400Y-86873469D01*
X112980257Y-86892261D01*
X112811833Y-87075217D01*
X112675827Y-87283391D01*
X112590940Y-87476913D01*
X112545983Y-87530398D01*
X112479247Y-87551088D01*
X112411919Y-87532413D01*
X112389703Y-87514783D01*
X112164209Y-87289289D01*
X112164206Y-87289285D01*
X112164206Y-87289286D01*
X112157139Y-87282219D01*
X112157139Y-87282218D01*
X112017782Y-87142861D01*
X112017781Y-87142860D01*
X112017780Y-87142859D01*
X111853917Y-87033369D01*
X111710378Y-86973914D01*
X111710376Y-86973913D01*
X111671837Y-86957949D01*
X111671829Y-86957947D01*
X111575188Y-86938724D01*
X111478544Y-86919500D01*
X111478541Y-86919500D01*
X109172855Y-86919500D01*
X109105816Y-86899815D01*
X109081626Y-86879483D01*
X109019747Y-86812265D01*
X109019744Y-86812262D01*
X108903080Y-86721459D01*
X108823509Y-86659526D01*
X108823507Y-86659525D01*
X108823506Y-86659524D01*
X108604811Y-86541172D01*
X108604802Y-86541169D01*
X108369616Y-86460429D01*
X108124335Y-86419500D01*
X107875665Y-86419500D01*
X107630383Y-86460429D01*
X107395197Y-86541169D01*
X107395188Y-86541172D01*
X107176493Y-86659524D01*
X106980257Y-86812261D01*
X106811833Y-86995217D01*
X106675826Y-87203393D01*
X106575936Y-87431118D01*
X106514892Y-87672175D01*
X106514890Y-87672187D01*
X106494357Y-87919994D01*
X106494357Y-87920005D01*
X106514890Y-88167812D01*
X106514892Y-88167824D01*
X106575936Y-88408881D01*
X106675826Y-88636606D01*
X106811833Y-88844782D01*
X106811836Y-88844785D01*
X106980256Y-89027738D01*
X107063008Y-89092147D01*
X107103821Y-89148857D01*
X107107496Y-89218630D01*
X107072864Y-89279313D01*
X107063014Y-89287848D01*
X107035657Y-89309142D01*
X106980257Y-89352261D01*
X106811833Y-89535217D01*
X106675826Y-89743393D01*
X106575936Y-89971118D01*
X106514892Y-90212175D01*
X106514890Y-90212187D01*
X106494357Y-90459994D01*
X106494357Y-90460005D01*
X106514890Y-90707812D01*
X106514892Y-90707824D01*
X106575936Y-90948881D01*
X106675826Y-91176606D01*
X106811833Y-91384782D01*
X106811836Y-91384785D01*
X106980256Y-91567738D01*
X106980259Y-91567740D01*
X106980262Y-91567743D01*
X107063415Y-91632464D01*
X107104228Y-91689174D01*
X107107903Y-91758947D01*
X107073271Y-91819630D01*
X107063416Y-91828170D01*
X106980597Y-91892630D01*
X106980592Y-91892635D01*
X106812232Y-92075521D01*
X106676267Y-92283632D01*
X106576411Y-92511283D01*
X106515960Y-92750000D01*
X107566988Y-92750000D01*
X107534075Y-92807007D01*
X107500000Y-92934174D01*
X107500000Y-93065826D01*
X107534075Y-93192993D01*
X107566988Y-93250000D01*
X106515960Y-93250000D01*
X106576411Y-93488716D01*
X106676267Y-93716367D01*
X106812229Y-93924474D01*
X106893259Y-94012496D01*
X106924181Y-94075151D01*
X106916321Y-94144577D01*
X106877516Y-94194854D01*
X106843343Y-94221076D01*
X106843333Y-94221084D01*
X104962181Y-96102237D01*
X104900858Y-96135722D01*
X104831166Y-96130738D01*
X104775233Y-96088866D01*
X104750816Y-96023402D01*
X104750500Y-96014556D01*
X104750500Y-85276443D01*
X104770185Y-85209404D01*
X104786819Y-85188762D01*
X105475587Y-84499994D01*
X106494859Y-84499994D01*
X106494859Y-84500005D01*
X106515385Y-84747729D01*
X106515387Y-84747738D01*
X106576412Y-84988717D01*
X106676266Y-85216364D01*
X106776564Y-85369882D01*
X107517037Y-84629409D01*
X107534075Y-84692993D01*
X107599901Y-84807007D01*
X107692993Y-84900099D01*
X107807007Y-84965925D01*
X107870590Y-84982962D01*
X107129942Y-85723609D01*
X107176768Y-85760055D01*
X107176770Y-85760056D01*
X107395385Y-85878364D01*
X107395396Y-85878369D01*
X107630506Y-85959083D01*
X107875707Y-86000000D01*
X108124293Y-86000000D01*
X108369493Y-85959083D01*
X108604603Y-85878369D01*
X108604614Y-85878364D01*
X108823228Y-85760057D01*
X108823231Y-85760055D01*
X108870056Y-85723609D01*
X108129409Y-84982962D01*
X108192993Y-84965925D01*
X108307007Y-84900099D01*
X108400099Y-84807007D01*
X108465925Y-84692993D01*
X108482962Y-84629409D01*
X109223434Y-85369882D01*
X109323731Y-85216369D01*
X109423587Y-84988717D01*
X109484612Y-84747738D01*
X109484614Y-84747729D01*
X109505141Y-84500005D01*
X109505141Y-84499994D01*
X109484614Y-84252270D01*
X109484612Y-84252261D01*
X109423587Y-84011282D01*
X109323731Y-83783630D01*
X109223434Y-83630116D01*
X108482962Y-84370589D01*
X108465925Y-84307007D01*
X108400099Y-84192993D01*
X108307007Y-84099901D01*
X108192993Y-84034075D01*
X108129410Y-84017037D01*
X108870057Y-83276390D01*
X108870056Y-83276389D01*
X108823229Y-83239943D01*
X108604614Y-83121635D01*
X108604603Y-83121630D01*
X108369493Y-83040916D01*
X108124293Y-83000000D01*
X107875707Y-83000000D01*
X107630506Y-83040916D01*
X107395396Y-83121630D01*
X107395390Y-83121632D01*
X107176761Y-83239949D01*
X107129942Y-83276388D01*
X107129942Y-83276390D01*
X107870590Y-84017037D01*
X107807007Y-84034075D01*
X107692993Y-84099901D01*
X107599901Y-84192993D01*
X107534075Y-84307007D01*
X107517037Y-84370589D01*
X106776564Y-83630116D01*
X106676267Y-83783632D01*
X106576412Y-84011282D01*
X106515387Y-84252261D01*
X106515385Y-84252270D01*
X106494859Y-84499994D01*
X105475587Y-84499994D01*
X109318915Y-80656666D01*
X109318920Y-80656661D01*
X109458610Y-80474612D01*
X109573345Y-80275888D01*
X109579903Y-80260057D01*
X109661155Y-80063893D01*
X109661154Y-80063893D01*
X109661158Y-80063886D01*
X109720549Y-79842239D01*
X109750500Y-79614734D01*
X109750500Y-79385266D01*
X109720549Y-79157761D01*
X109661158Y-78936113D01*
X109656938Y-78925925D01*
X109573349Y-78724120D01*
X109573344Y-78724111D01*
X109458610Y-78525388D01*
X109458605Y-78525382D01*
X109458603Y-78525378D01*
X109318921Y-78343340D01*
X109318915Y-78343333D01*
X109156666Y-78181084D01*
X109156659Y-78181078D01*
X108974621Y-78041396D01*
X108974615Y-78041392D01*
X108974612Y-78041390D01*
X108775888Y-77926655D01*
X108775879Y-77926650D01*
X108563894Y-77838844D01*
X108342235Y-77779450D01*
X108114735Y-77749500D01*
X108114734Y-77749500D01*
X107885266Y-77749500D01*
X107885265Y-77749500D01*
X107657764Y-77779450D01*
X107436106Y-77838844D01*
X107224120Y-77926650D01*
X107224111Y-77926655D01*
X107025388Y-78041390D01*
X107025378Y-78041396D01*
X106843340Y-78181078D01*
X106843333Y-78181084D01*
X104962181Y-80062237D01*
X104900858Y-80095722D01*
X104831166Y-80090738D01*
X104775233Y-80048866D01*
X104750816Y-79983402D01*
X104750500Y-79974556D01*
X104750500Y-78776442D01*
X104770185Y-78709403D01*
X104786819Y-78688761D01*
X107688761Y-75786819D01*
X107750084Y-75753334D01*
X107776442Y-75750500D01*
X113864978Y-75750500D01*
X113932017Y-75770185D01*
G37*
%TD.AperFunction*%
%TA.AperFunction,Conductor*%
G36*
X110981257Y-91480185D02*
G01*
X111001899Y-91496819D01*
X112460657Y-92955577D01*
X112494142Y-93016900D01*
X112496553Y-93053495D01*
X112494357Y-93080002D01*
X112494357Y-93080005D01*
X112514890Y-93327812D01*
X112514892Y-93327824D01*
X112575937Y-93568881D01*
X112596469Y-93615690D01*
X112605372Y-93684990D01*
X112575395Y-93748102D01*
X112516055Y-93784989D01*
X112482913Y-93789500D01*
X109481449Y-93789500D01*
X109414410Y-93769815D01*
X109368655Y-93717011D01*
X109358711Y-93647853D01*
X109367893Y-93615690D01*
X109423588Y-93488716D01*
X109484040Y-93250000D01*
X108433012Y-93250000D01*
X108465925Y-93192993D01*
X108500000Y-93065826D01*
X108500000Y-92934174D01*
X108465925Y-92807007D01*
X108433012Y-92750000D01*
X109484040Y-92750000D01*
X109423588Y-92511283D01*
X109323732Y-92283632D01*
X109187767Y-92075521D01*
X109019407Y-91892635D01*
X109019397Y-91892626D01*
X108936584Y-91828170D01*
X108895771Y-91771460D01*
X108892096Y-91701687D01*
X108926728Y-91641004D01*
X108936571Y-91632473D01*
X109019744Y-91567738D01*
X109065043Y-91518530D01*
X109081626Y-91500517D01*
X109141513Y-91464526D01*
X109172855Y-91460500D01*
X110914218Y-91460500D01*
X110981257Y-91480185D01*
G37*
%TD.AperFunction*%
%TD*%
M02*
