%TF.GenerationSoftware,KiCad,Pcbnew,8.0.3*%
%TF.CreationDate,2024-12-06T22:50:59-03:00*%
%TF.ProjectId,eca,6563612e-6b69-4636-9164-5f7063625858,rev?*%
%TF.SameCoordinates,Original*%
%TF.FileFunction,Soldermask,Bot*%
%TF.FilePolarity,Negative*%
%FSLAX46Y46*%
G04 Gerber Fmt 4.6, Leading zero omitted, Abs format (unit mm)*
G04 Created by KiCad (PCBNEW 8.0.3) date 2024-12-06 22:50:59*
%MOMM*%
%LPD*%
G01*
G04 APERTURE LIST*
%ADD10C,1.600000*%
%ADD11R,1.200000X1.200000*%
%ADD12C,1.200000*%
%ADD13R,1.700000X1.700000*%
%ADD14O,1.700000X1.700000*%
G04 APERTURE END LIST*
D10*
%TO.C,C4*%
X106000000Y-124500000D03*
X106000000Y-119500000D03*
%TD*%
D11*
%TO.C,C1*%
X155000000Y-85000000D03*
D12*
X155000000Y-86500000D03*
%TD*%
D10*
%TO.C,C7*%
X112000000Y-112000000D03*
X107000000Y-112000000D03*
%TD*%
%TO.C,C6*%
X106500000Y-104000000D03*
X111500000Y-104000000D03*
%TD*%
%TO.C,C5*%
X124500000Y-75000000D03*
X119500000Y-75000000D03*
%TD*%
%TO.C,C2*%
X149000000Y-97500000D03*
X149000000Y-92500000D03*
%TD*%
%TO.C,C8*%
X128500000Y-75000000D03*
X133500000Y-75000000D03*
%TD*%
D13*
%TO.C,Power Supply*%
X155000000Y-77460000D03*
D14*
X155000000Y-80000000D03*
%TD*%
%TO.C,TCRT5000*%
X114280000Y-116000000D03*
X111740000Y-116000000D03*
X109200000Y-116000000D03*
D13*
X106660000Y-116000000D03*
%TD*%
%TO.C,J1*%
X121400000Y-79880000D03*
D14*
X123940000Y-79880000D03*
X121400000Y-82420000D03*
X123940000Y-82420000D03*
X121400000Y-84960000D03*
X123940000Y-84960000D03*
X121400000Y-87500000D03*
X123940000Y-87500000D03*
X121400000Y-90040000D03*
X123940000Y-90040000D03*
X121400000Y-92580000D03*
X123940000Y-92580000D03*
X121400000Y-95120000D03*
X123940000Y-95120000D03*
X121400000Y-97660000D03*
X123940000Y-97660000D03*
X121400000Y-100200000D03*
X123940000Y-100200000D03*
X121400000Y-102740000D03*
X123940000Y-102740000D03*
X121400000Y-105280000D03*
X123940000Y-105280000D03*
X121400000Y-107820000D03*
X123940000Y-107820000D03*
X121400000Y-110360000D03*
X123940000Y-110360000D03*
X121400000Y-112900000D03*
X123940000Y-112900000D03*
X121400000Y-115440000D03*
X123940000Y-115440000D03*
X121400000Y-117980000D03*
X123940000Y-117980000D03*
X121400000Y-120520000D03*
X123940000Y-120520000D03*
X121400000Y-123060000D03*
X123940000Y-123060000D03*
X121400000Y-125600000D03*
X123940000Y-125600000D03*
X121400000Y-128140000D03*
X123940000Y-128140000D03*
%TD*%
D13*
%TO.C,J2*%
X108000000Y-87920000D03*
D14*
X108000000Y-90460000D03*
X108000000Y-93000000D03*
X108000000Y-95540000D03*
%TD*%
D13*
%TO.C,J9*%
X139540000Y-128000000D03*
D14*
X137000000Y-128000000D03*
X134460000Y-128000000D03*
X131920000Y-128000000D03*
%TD*%
D13*
%TO.C,J10*%
X155000000Y-93460000D03*
D14*
X155000000Y-96000000D03*
%TD*%
D13*
%TO.C,J8*%
X154540000Y-128000000D03*
D14*
X152000000Y-128000000D03*
X149460000Y-128000000D03*
X146920000Y-128000000D03*
%TD*%
D13*
%TO.C,J12*%
X155000000Y-109460000D03*
D14*
X155000000Y-112000000D03*
%TD*%
D13*
%TO.C,J7*%
X105920000Y-128000000D03*
D14*
X108460000Y-128000000D03*
X111000000Y-128000000D03*
X113540000Y-128000000D03*
%TD*%
D13*
%TO.C,J11*%
X155000000Y-117460000D03*
D14*
X155000000Y-120000000D03*
%TD*%
D13*
%TO.C,J13*%
X155000000Y-101460000D03*
D14*
X155000000Y-104000000D03*
%TD*%
D13*
%TO.C,TCRT5000*%
X106380000Y-100000000D03*
D14*
X108920000Y-100000000D03*
X111460000Y-100000000D03*
X114000000Y-100000000D03*
%TD*%
%TO.C,J5*%
X114280000Y-108000000D03*
X111740000Y-108000000D03*
X109200000Y-108000000D03*
D13*
X106660000Y-108000000D03*
%TD*%
%TO.C,J3*%
X114000000Y-80380000D03*
D14*
X114000000Y-82920000D03*
X114000000Y-85460000D03*
X114000000Y-88000000D03*
X114000000Y-90540000D03*
X114000000Y-93080000D03*
X114000000Y-95620000D03*
%TD*%
D10*
%TO.C,C3*%
X108000000Y-79500000D03*
X108000000Y-84500000D03*
%TD*%
M02*
